<svg xmlns="http://www.w3.org/2000/svg" width="157.64" height="157.64" viewBox="0 0 157.64 157.64">
  <g id="Grupo_2783" data-name="Grupo 2783" transform="translate(-641.58 -877.523)">
    <path id="Trazado_5350" data-name="Trazado 5350" d="M2311.715,943.213h.042v20.915h4.592V936.806h-3.668l-4.23,4.956v4.794h.042Z" transform="translate(-1592)" fill="#fff"/>
    <path id="Trazado_5351" data-name="Trazado 5351" d="M2312.4,878.6q3.821,0,7.621.375t7.547,1.119q3.745.746,7.4,1.854t7.184,2.57q3.528,1.462,6.9,3.263t6.544,3.922q3.175,2.122,6.128,4.545t5.653,5.124q2.7,2.7,5.124,5.653t4.545,6.128q2.121,3.176,3.922,6.544t3.262,6.9q1.462,3.529,2.571,7.184t1.853,7.4q.745,3.745,1.12,7.547t.374,7.62q0,3.82-.374,7.621t-1.12,7.547q-.744,3.746-1.853,7.4t-2.571,7.184q-1.461,3.528-3.262,6.9t-3.922,6.544q-2.123,3.176-4.545,6.128t-5.124,5.653q-2.7,2.7-5.653,5.124t-6.128,4.545q-3.175,2.122-6.544,3.922t-6.9,3.262q-3.53,1.462-7.184,2.571t-7.4,1.854q-3.747.744-7.547,1.119t-7.621.375q-3.819,0-7.62-.375t-7.547-1.119q-3.747-.745-7.4-1.854t-7.184-2.571q-3.528-1.461-6.9-3.262t-6.544-3.922q-3.175-2.122-6.128-4.545t-5.654-5.124q-2.7-2.7-5.123-5.653t-4.545-6.128q-2.123-3.176-3.923-6.544t-3.262-6.9q-1.461-3.53-2.57-7.184t-1.854-7.4q-.746-3.746-1.119-7.547t-.375-7.621q0-3.819.375-7.62t1.119-7.547q.746-3.746,1.854-7.4t2.57-7.184q1.463-3.528,3.262-6.9t3.923-6.544q2.121-3.176,4.545-6.128t5.123-5.653q2.7-2.7,5.654-5.124t6.128-4.545q3.175-2.123,6.544-3.922t6.9-3.263q3.53-1.461,7.184-2.57t7.4-1.854q3.746-.746,7.547-1.119T2312.4,878.6Z" transform="translate(-1592)" fill="#619dc1"/>
    <circle id="Elipse_111" data-name="Elipse 111" cx="71.597" cy="71.597" r="71.597" transform="translate(648.804 884.747)" fill="#fff"/>
    <g id="Grupo_2288" data-name="Grupo 2288" transform="translate(-1592)">
      <circle id="Elipse_114" data-name="Elipse 114" cx="65.52" cy="65.52" r="65.52" transform="matrix(0.23, -0.973, 0.973, 0.23, 2233.58, 1005.057)" fill="#f0cc6d"/>
      <path id="Trazado_5362" data-name="Trazado 5362" d="M2375.8,972.929l-54.1-54.094-.534-.537a2.382,2.382,0,0,0-1.446-.48,2.431,2.431,0,0,0-2.272,1.6l-.01-.01-.711-.7a1.011,1.011,0,0,0-.109-.109c-.034-.038-.072-.075-.109-.109s-.071-.078-.108-.112a1.326,1.326,0,0,0-.144-.095c-.033-.024-.064-.048-.1-.072a2.728,2.728,0,0,0-.272-.146c-.048-.024-.095-.048-.146-.068a1.906,1.906,0,0,0-.283-.089c-.051-.013-.1-.03-.153-.04a2.29,2.29,0,0,0-.462-.048,2.437,2.437,0,0,0-2.29,1.623l-.01-.007-.673-.677a2.584,2.584,0,0,0-.409-.408l-.04-.041a.426.426,0,0,1-.038-.024c-.058-.041-.119-.075-.18-.112a1.7,1.7,0,0,0-.194-.106,1.835,1.835,0,0,0-.187-.081c-.082-.031-.167-.055-.252-.079-.054-.013-.109-.03-.163-.044a2.417,2.417,0,0,0-2.731,1.548v0l-.711-.7c-.044-.048-.089-.088-.136-.133-.021-.024-.041-.044-.065-.068-.044-.041-.085-.092-.129-.129s-.106-.072-.16-.109c-.02-.017-.044-.034-.068-.051a2.637,2.637,0,0,0-.306-.163c-.038-.021-.075-.038-.113-.055-.1-.04-.21-.071-.319-.1-.041-.006-.082-.02-.123-.03a2.321,2.321,0,0,0-.466-.048,2.445,2.445,0,0,0-2.445,2.442,2.189,2.189,0,0,0,.01.256c0,.044.007.088.007.132.006.571.027,1.136.075,1.691.006.115.027.231.037.347.048.483.1.966.17,1.438.027.164.065.32.092.48.075.415.146.834.238,1.231.047.2.1.378.153.565.095.36.187.721.3,1.068.064.207.146.4.218.606.108.312.214.625.336.921.092.221.194.425.293.64.119.262.231.527.361.775s.272.473.407.708c.116.194.222.394.341.578a13.323,13.323,0,0,0,.83,1.146,1.351,1.351,0,0,0,.353,2.654h.045a25.4,25.4,0,0,0-12.579,6.891c-.432.429-.837.871-1.228,1.323-.082.095-.163.187-.242.282a25.164,25.164,0,0,0-2.1,2.878c-.054.082-.1.167-.16.252a26.258,26.258,0,0,0-1.5,2.83c-.051.115-.1.238-.153.354-.136.313-.265.632-.388.952-.023.061-.054.123-.075.184-.033.088-.064.177-.095.265-.109.292-.207.592-.3.888-.035.1-.069.194-.1.292-.017.058-.034.116-.055.174-.132.442-.255.888-.364,1.337-.02.081-.033.166-.054.248-.085.374-.167.748-.235,1.123-.03.159-.054.319-.081.482-.052.3-.1.613-.136.919-.024.17-.045.337-.062.507-.034.316-.061.636-.085.955-.01.15-.023.3-.03.443-.028.466-.041.928-.041,1.394v22.5H2285.3a3.069,3.069,0,0,0-2.173,5.235l33.5,33.505A65.542,65.542,0,0,0,2375.8,972.929Z" fill="#e3b34b"/>
      <g id="Grupo_2287" data-name="Grupo 2287">
        <g id="Grupo_2284" data-name="Grupo 2284">
          <g id="Grupo_2283" data-name="Grupo 2283">
            <g id="Grupo_2282" data-name="Grupo 2282">
              <path id="Trazado_5363" data-name="Trazado 5363" d="M2307.516,920.264a2.441,2.441,0,1,1-2.439-2.443A2.442,2.442,0,0,1,2307.516,920.264Z" fill="#fff"/>
              <path id="Trazado_5364" data-name="Trazado 5364" d="M2312.4,920.264a2.442,2.442,0,1,1-2.442-2.443A2.442,2.442,0,0,1,2312.4,920.264Z" fill="#fff"/>
              <circle id="Elipse_115" data-name="Elipse 115" cx="2.442" cy="2.442" r="2.442" transform="translate(2312.4 917.821)" fill="#fff"/>
              <path id="Trazado_5365" data-name="Trazado 5365" d="M2322.166,920.264a2.441,2.441,0,1,1-2.442-2.443A2.442,2.442,0,0,1,2322.166,920.264Z" fill="#fff"/>
            </g>
            <path id="Trazado_5366" data-name="Trazado 5366" d="M2302.635,920.264c0,8.721,4.371,15.793,9.765,15.793s9.766-7.072,9.766-15.793Z" fill="#fff"/>
          </g>
          <path id="Trazado_5367" data-name="Trazado 5367" d="M2341.677,983.871a3.067,3.067,0,0,0-2.17-.9h-1.534v-22.5a25.573,25.573,0,0,0-51.145,0v22.5h-1.534a3.07,3.07,0,1,0,0,6.14h54.213a3.068,3.068,0,0,0,2.17-5.239Z" fill="#fff"/>
          <path id="Trazado_5368" data-name="Trazado 5368" d="M2319.3,934.145a1.358,1.358,0,0,1-1.354,1.354h-11.1a1.357,1.357,0,0,1-1.353-1.354h0a1.357,1.357,0,0,1,1.353-1.354h11.1a1.358,1.358,0,0,1,1.354,1.354Z" fill="#393d45"/>
        </g>
        <g id="Grupo_2286" data-name="Grupo 2286">
          <path id="Trazado_5369" data-name="Trazado 5369" d="M2322.628,962a10.228,10.228,0,1,1-10.228-10.235A10.222,10.222,0,0,1,2322.628,962Z" fill="#cd6554"/>
          <g id="Grupo_2285" data-name="Grupo 2285">
            <path id="Trazado_5370" data-name="Trazado 5370" d="M2313.479,962.9h-2.16a3.413,3.413,0,1,1,0-6.826h4.673v1.8h-4.673a1.617,1.617,0,0,0-1.143.476,1.6,1.6,0,0,0-.47,1.143,1.608,1.608,0,0,0,1.613,1.612h2.16Z" fill="#fff"/>
            <path id="Trazado_5371" data-name="Trazado 5371" d="M2313.479,967.932h-4.671v-1.8h4.671a1.611,1.611,0,0,0,1.139-2.755,1.613,1.613,0,0,0-1.139-.473h-2.16v-1.8h2.16a3.415,3.415,0,0,1,0,6.83Z" fill="#fff"/>
            <rect id="Rectángulo_478" data-name="Rectángulo 478" width="1.799" height="12.929" transform="translate(2311.499 955.537)" fill="#fff"/>
          </g>
        </g>
      </g>
    </g>
  </g>
</svg>
