<svg xmlns="http://www.w3.org/2000/svg" width="185.317" height="185.317" viewBox="0 0 185.317 185.317">
  <g id="Grupo_2784" data-name="Grupo 2784" transform="translate(-968.095 -863.685)">
    <path id="Trazado_5352" data-name="Trazado 5352" d="M2652.069,943.089h.042V964h4.592V936.683h-3.668l-4.23,4.956v4.794h.042Z" transform="translate(-1592)" fill="#fff"/>
    <path id="Trazado_5353" data-name="Trazado 5353" d="M2652.754,878.6q3.819,0,7.62.375t7.547,1.119q3.747.746,7.4,1.854t7.184,2.57q3.528,1.462,6.9,3.263t6.544,3.922q3.175,2.122,6.128,4.545t5.653,5.124q2.7,2.7,5.124,5.653t4.545,6.128q2.123,3.176,3.923,6.544t3.262,6.9q1.461,3.529,2.57,7.184t1.854,7.4q.745,3.745,1.119,7.547t.375,7.62q0,3.82-.375,7.621t-1.119,7.547q-.746,3.746-1.854,7.4t-2.57,7.184q-1.463,3.528-3.262,6.9t-3.923,6.544q-2.121,3.176-4.545,6.128t-5.124,5.653q-2.7,2.7-5.653,5.124t-6.128,4.545q-3.175,2.122-6.544,3.922t-6.9,3.262q-3.53,1.462-7.184,2.571t-7.4,1.854q-3.745.744-7.547,1.119t-7.62.375q-3.82,0-7.621-.375t-7.547-1.119q-3.745-.745-7.4-1.854t-7.184-2.571q-3.528-1.461-6.9-3.262t-6.544-3.922q-3.175-2.122-6.128-4.545t-5.653-5.124q-2.7-2.7-5.124-5.653t-4.545-6.128q-2.121-3.176-3.922-6.544t-3.262-6.9q-1.463-3.53-2.571-7.184t-1.853-7.4q-.746-3.746-1.12-7.547t-.374-7.621q0-3.819.374-7.62t1.12-7.547q.744-3.746,1.853-7.4t2.571-7.184q1.461-3.528,3.262-6.9t3.922-6.544q2.122-3.176,4.545-6.128t5.124-5.653q2.7-2.7,5.653-5.124t6.128-4.545q3.175-2.123,6.544-3.922t6.9-3.263q3.53-1.461,7.184-2.57t7.4-1.854q3.747-.746,7.547-1.119T2652.754,878.6Z" transform="translate(-1592)" fill="#619dc1"/>
    <circle id="Elipse_112" data-name="Elipse 112" cx="71.597" cy="71.597" r="71.597" transform="translate(989.157 884.747)" fill="#fff"/>
    <g id="Grupo_2281" data-name="Grupo 2281" transform="translate(-1592)">
      <circle id="Elipse_113" data-name="Elipse 113" cx="65.519" cy="65.519" r="65.519" transform="translate(2560.095 956.344) rotate(-45)" fill="#10464f"/>
      <path id="Trazado_5354" data-name="Trazado 5354" d="M2714.531,978.174l-59.209-59.206-.262-.262a.053.053,0,0,0-.034-.031.035.035,0,0,0-.034-.02.55.55,0,0,0-.1-.075,1.968,1.968,0,0,0-.211-.115,4.8,4.8,0,0,0-3.854,0c-.078.04-.143.075-.211.115-.034.027-.068.051-.1.075a1.25,1.25,0,0,0-.289.272.534.534,0,0,0-.058.075.727.727,0,0,0-.085.16c-.017.044-.024.085-.041.136-.415,1.218-3.432,10.232-3.456,10.3l-.01.027-3.449,10.28c-1.1,3.279-2.242,6.687-3.34,9.976a.572.572,0,0,0-.024.079c-.034.092-.068.183-.095.275-1.286,3.834-2.511,7.494-3.565,10.647l-.01.007-18.912,9.452a2.175,2.175,0,0,0-1.2,1.943,2.209,2.209,0,0,0,.507,1.4,2.246,2.246,0,0,0,.238.238l47.005,47.009A65.576,65.576,0,0,0,2714.531,978.174Z" fill="#00232b"/>
      <g id="Grupo_2280" data-name="Grupo 2280">
        <path id="Trazado_5355" data-name="Trazado 5355" d="M2655.672,990.556a6.524,6.524,0,0,1-5.84,0l-32.651-16.324a2.177,2.177,0,0,1,0-3.9l32.651-16.327a6.549,6.549,0,0,1,5.84,0l32.651,16.327a2.177,2.177,0,0,1,0,3.9Z" fill="#d8a140"/>
        <path id="Trazado_5356" data-name="Trazado 5356" d="M2658.931,929.621a.164.164,0,0,0-.014-.027c-.02-.075-3.493-10.429-3.493-10.429a1.44,1.44,0,0,0-.745-.7,4.864,4.864,0,0,0-3.854,0,1.439,1.439,0,0,0-.745.7s-3.473,10.36-3.5,10.435a.044.044,0,0,1-.01.017c-.218.925.374,1.878,1.779,2.579a11.019,11.019,0,0,0,8.8,0C2658.553,931.489,2659.149,930.536,2658.931,929.621Z" fill="#f0cc6d"/>
        <path id="Trazado_5357" data-name="Trazado 5357" d="M2667.04,979.433a36.061,36.061,0,0,1-28.579,0c-3.939-1.98-5.912-4.565-5.912-7.143a5.336,5.336,0,0,1,.068-.834v0c.014-.078.027-.153.041-.231.023-.123.054-.245.088-.371l3.344-9.966c-.466,2.4,1.143,4.894,4.827,6.735,6.537,3.268,17.133,3.268,23.667,0,3.687-1.841,5.293-4.331,4.83-6.735,1.973,5.881,3.34,9.966,3.34,9.966.035.126.068.248.092.371.014.078.024.153.041.231v0C2673.357,974.31,2671.407,977.242,2667.04,979.433Z" fill="#f0cc6d"/>
        <path id="Trazado_5358" data-name="Trazado 5358" d="M2654.676,920.383a4.822,4.822,0,0,1-3.848,0c-1.064-.531-1.064-1.391,0-1.925a4.847,4.847,0,0,1,3.848,0C2655.74,918.992,2655.74,919.852,2654.676,920.383Z" fill="#d8a140"/>
        <path id="Trazado_5359" data-name="Trazado 5359" d="M2639.753,949.952c-.748,2.065.47,4.269,3.653,5.861,5.164,2.578,13.525,2.578,18.688,0,3.041-1.524,4.289-3.6,3.752-5.568-1.143-3.4-2.327-6.936-3.473-10.344.408,1.452-.513,2.979-2.748,4.1a17.328,17.328,0,0,1-13.742,0c-2.238-1.123-3.157-2.65-2.756-4.1C2642.015,943.211,2640.865,946.636,2639.753,949.952Z" fill="#f0cc6d"/>
        <path id="Trazado_5360" data-name="Trazado 5360" d="M2662.373,939.9l-3.442-10.28c.218.915-.378,1.868-1.783,2.569a11.019,11.019,0,0,1-8.8,0c-1.405-.7-2-1.654-1.779-2.569l-3.446,10.28c-.4,1.452.518,2.979,2.756,4.1a17.328,17.328,0,0,0,13.742,0C2661.86,942.88,2662.781,941.353,2662.373,939.9Z" fill="#fff"/>
        <path id="Trazado_5361" data-name="Trazado 5361" d="M2669.414,960.888c-1.058-3.163-2.289-6.837-3.578-10.677.564,1.983-.684,4.071-3.742,5.6-5.163,2.578-13.524,2.578-18.688,0-3.224-1.613-4.432-3.85-3.626-5.936-1.326,3.963-2.6,7.759-3.693,11.011-.46,2.405,1.149,4.891,4.83,6.732,6.537,3.268,17.133,3.268,23.667,0C2668.271,965.779,2669.877,963.289,2669.414,960.888Z" fill="#fff"/>
      </g>
    </g>
  </g>
</svg>
