<svg xmlns="http://www.w3.org/2000/svg" width="152.443" height="152.443" viewBox="0 0 152.443 152.443">
  <g id="Grupo_2785" data-name="Grupo 2785" transform="translate(-851.587 -2434.183)">
    <path id="Trazado_5408" data-name="Trazado 5408" d="M2519.809,2434.183q3.744,0,7.471.367t7.4,1.1q3.672.731,7.256,1.818t7.043,2.52q3.459,1.432,6.761,3.2t6.416,3.845q3.114,2.08,6.008,4.456t5.543,5.023q2.647,2.649,5.023,5.543t4.456,6.008q2.08,3.112,3.845,6.416t3.2,6.761q1.434,3.46,2.52,7.043t1.818,7.256q.731,3.672,1.1,7.4t.367,7.471q0,3.745-.367,7.471t-1.1,7.4q-.73,3.673-1.818,7.256t-2.52,7.043q-1.433,3.459-3.2,6.762t-3.845,6.415q-2.08,3.114-4.456,6.009t-5.023,5.542q-2.649,2.647-5.543,5.023t-6.008,4.456q-3.112,2.08-6.416,3.846t-6.761,3.2q-3.461,1.433-7.043,2.52t-7.256,1.817q-3.673.731-7.4,1.1t-7.471.367q-3.744,0-7.471-.367t-7.4-1.1q-3.673-.73-7.256-1.817t-7.043-2.52q-3.459-1.434-6.762-3.2t-6.416-3.846q-3.112-2.08-6.008-4.456t-5.542-5.023q-2.648-2.648-5.023-5.542t-4.456-6.009q-2.081-3.112-3.846-6.415t-3.2-6.762q-1.432-3.459-2.52-7.043t-1.817-7.256q-.731-3.672-1.1-7.4t-.367-7.471q0-3.744.367-7.471t1.1-7.4q.731-3.672,1.817-7.256t2.52-7.043q1.434-3.459,3.2-6.761t3.846-6.416q2.08-3.114,4.456-6.008t5.023-5.543q2.647-2.648,5.542-5.023t6.008-4.456q3.114-2.08,6.416-3.845t6.762-3.2q3.459-1.434,7.043-2.52t7.256-1.818q3.672-.731,7.4-1.1T2519.809,2434.183Z" transform="translate(-1592)" fill="#f7ec45"/>
    <circle id="Elipse_137" data-name="Elipse 137" cx="71.597" cy="71.597" r="71.597" transform="translate(856.212 2438.808)" fill="#fff"/>
    <circle id="Elipse_138" data-name="Elipse 138" cx="65.13" cy="65.13" r="65.13" transform="translate(862.679 2445.274)" fill="#75c1d8"/>
    <g id="Grupo_2294" data-name="Grupo 2294" transform="translate(-1592)">
      <path id="Trazado_5409" data-name="Trazado 5409" d="M2532.323,2475.152l9.375,1.391v68.69l-27.448-3.589h-14.482l-5.109-3.76-2.469-6.377v-56.355Z" fill="#fff" fill-rule="evenodd"/>
      <path id="Trazado_5410" data-name="Trazado 5410" d="M2490.82,2533.317c0,5.2,2.314,9.71,7.827,10.569l43.369,6.059a2.465,2.465,0,0,0,2.963-2.491v-8.1c-.82-.9-1.538-1.756-2.107-2.482q-.6-.768-1.174-1.561v9.921l-36.082-10.127a.809.809,0,0,0-1,.4,9.609,9.609,0,0,1-2.26,3.155c-4.6,3.591-8.259-1.15-8.259-6.05v-56.063h47.6V2516.9l.626.708a2.534,2.534,0,0,1,2.655-1.155v-43.191H2490.82v60.054Zm44.411-23.354,1.345,3.285-4.9,3.848-2.87-2.089-2.868-8.853.459-.359,4.33,5.517a1.473,1.473,0,1,0,.46-.362l-4.33-5.517.459-.359,7.918,4.889Zm23.559,33.057a2.959,2.959,0,0,1-3.088,2.09c-2.794-.247-7.492-3.832-11.666-9.15a43.466,43.466,0,0,1-2.642-3.75l7.551-5.926a43.491,43.491,0,0,1,3.015,3.458,42.461,42.461,0,0,1,3.241,4.741c.107.183.225.4.339.584.445.709.688.486.676.016-.075-3.113-.967-6.026-4.941-8.462a46.251,46.251,0,0,1-5.239-3.505,4.26,4.26,0,0,1-1.491-2.032,2.891,2.891,0,0,1-.548-.536c-.689-.878-.762-1.972-.162-2.442s1.644-.14,2.333.738.763,1.972.163,2.443a.993.993,0,0,1-.476.2,4.008,4.008,0,0,0,.692.712c1.269,1.069,4.827,2.636,6.655,3.639,6.023,3.306,6.513,10.129,6.01,15.191a8.074,8.074,0,0,1-.422,1.991Zm-21.564-28.944,10.374,11.734-6.346,4.981-8.931-12.867Z" fill="#00232b" fill-rule="evenodd"/>
      <path id="Trazado_5411" data-name="Trazado 5411" d="M2499.767,2505.114h22.682v3.951h-22.682v-3.951Z" fill="#dd503e" fill-rule="evenodd"/>
      <path id="Trazado_5412" data-name="Trazado 5412" d="M2499.767,2497.692h36.265v3.951h-36.265v-3.951Z" fill="#dd503e" fill-rule="evenodd"/>
      <path id="Trazado_5413" data-name="Trazado 5413" d="M2499.767,2490.269h36.265v3.952h-36.265v-3.952Z" fill="#dd503e" fill-rule="evenodd"/>
      <path id="Trazado_5414" data-name="Trazado 5414" d="M2499.767,2482.847h36.265v3.951h-36.265v-3.951Z" fill="#dd503e" fill-rule="evenodd"/>
    </g>
  </g>
</svg>
