<svg xmlns="http://www.w3.org/2000/svg" width="152.443" height="152.444" viewBox="0 0 152.443 152.444">
  <g id="Grupo_2791" data-name="Grupo 2791" transform="translate(-279.517 -6797.849)">
    <path id="Trazado_5396" data-name="Trazado 5396" d="M1947.738,6797.849q3.745,0,7.471.367t7.4,1.1q3.673.73,7.256,1.817t7.043,2.52q3.459,1.434,6.762,3.2t6.416,3.845q3.113,2.081,6.008,4.456t5.542,5.023q2.648,2.648,5.023,5.542t4.456,6.009q2.08,3.112,3.846,6.415t3.2,6.762q1.433,3.461,2.52,7.043t1.817,7.256q.731,3.672,1.1,7.4t.367,7.471q0,3.744-.367,7.471t-1.1,7.4q-.73,3.674-1.817,7.256t-2.52,7.043q-1.432,3.458-3.2,6.762t-3.846,6.415q-2.08,3.114-4.456,6.009t-5.023,5.542q-2.648,2.648-5.542,5.023t-6.008,4.456q-3.114,2.081-6.416,3.845t-6.762,3.2q-3.459,1.433-7.043,2.52t-7.256,1.818q-3.672.73-7.4,1.1t-7.471.368q-3.744,0-7.471-.368t-7.4-1.1q-3.672-.731-7.256-1.818t-7.042-2.52q-3.461-1.433-6.762-3.2t-6.416-3.845q-3.114-2.08-6.008-4.456t-5.542-5.023q-2.649-2.647-5.024-5.542t-4.456-6.009q-2.079-3.113-3.845-6.415t-3.2-6.762q-1.432-3.459-2.52-7.043t-1.818-7.256q-.73-3.672-1.1-7.4t-.367-7.471q0-3.743.367-7.471t1.1-7.4q.731-3.672,1.818-7.256t2.52-7.043q1.433-3.458,3.2-6.762t3.845-6.415q2.08-3.114,4.456-6.009t5.024-5.542q2.648-2.647,5.542-5.023t6.008-4.456q3.114-2.08,6.416-3.845t6.762-3.2q3.459-1.433,7.042-2.52t7.256-1.817q3.673-.73,7.4-1.1T1947.738,6797.849Z" transform="translate(-1592)" fill="#f7ec45"/>
    <circle id="Elipse_125" data-name="Elipse 125" cx="71.597" cy="71.597" r="71.597" transform="translate(284.142 6802.475)" fill="#fff"/>
    <circle id="Elipse_126" data-name="Elipse 126" cx="65.13" cy="65.13" r="65.13" transform="translate(290.608 6808.941)" fill="#75c1d8"/>
    <g id="Grupo_2407" data-name="Grupo 2407" transform="translate(-1592)">
      <path id="Trazado_5674" data-name="Trazado 5674" d="M1989.4,6860.078a6.79,6.79,0,0,0-11.249,5.141c0,.172.007.344.02.513l-1.74-1.741-2.182,2.354-2.355-2.354-1.628,1.629-11.347-11.343a3.4,3.4,0,0,0-.243-.243,15.647,15.647,0,0,0-26.585,11.185c0,.172.024.341.027.516l-1.741-1.744-2.182,2.351-2.351-2.351-2.182,2.354-2.351-2.354-1.214,1.211-4.412-4.412-.735-.735a6.737,6.737,0,0,0-4.425-1.646,6.81,6.81,0,0,0-5.033,11.387,6.217,6.217,0,0,0,.462.459l15.58,15.579a4.732,4.732,0,0,0,1.305,4.28l45.551,45.555a65.021,65.021,0,0,0,43.716-52.884Z" fill="#3e8c9e"/>
      <g id="Grupo_2406" data-name="Grupo 2406">
        <path id="Trazado_5675" data-name="Trazado 5675" d="M1947.738,6849.572a15.644,15.644,0,1,0,15.647,15.643A15.643,15.643,0,0,0,1947.738,6849.572Zm0,25.573a9.929,9.929,0,1,1,9.934-9.93A9.94,9.94,0,0,1,1947.738,6875.145Z" fill="#fff"/>
        <g id="Grupo_2401" data-name="Grupo 2401">
          <path id="Trazado_5676" data-name="Trazado 5676" d="M1948.963,6893.912h-2.446v-2.27h2.446Zm0-4.536h-2.446v-2.27h2.446Zm0-4.537h-2.446v-2.267h2.446Z" fill="#fff"/>
        </g>
        <path id="Trazado_5677" data-name="Trazado 5677" d="M1954.541,6902.425a6.8,6.8,0,1,1-6.8-6.8A6.8,6.8,0,0,1,1954.541,6902.425Z" fill="#fff"/>
        <g id="Grupo_2402" data-name="Grupo 2402">
          <path id="Trazado_5678" data-name="Trazado 5678" d="M1931.613,6883.075l-1.731-1.734,1.511-1.511,1.731,1.731Zm3.025-3.025-1.734-1.731,1.511-1.511,1.734,1.731Z" fill="#fff"/>
        </g>
        <path id="Trazado_5679" data-name="Trazado 5679" d="M1929.572,6890.118a4.761,4.761,0,1,1,0-6.733A4.758,4.758,0,0,1,1929.572,6890.118Z" fill="#fff"/>
        <g id="Grupo_2403" data-name="Grupo 2403">
          <path id="Trazado_5680" data-name="Trazado 5680" d="M1963.867,6883.075l-1.514-1.514,1.734-1.731,1.511,1.511Zm-3.025-3.025-1.511-1.511,1.734-1.731,1.511,1.511Z" fill="#fff"/>
        </g>
        <path id="Trazado_5681" data-name="Trazado 5681" d="M1972.641,6883.385a4.76,4.76,0,1,1-6.733,0A4.753,4.753,0,0,1,1972.641,6883.385Z" fill="#fff"/>
        <g id="Grupo_2404" data-name="Grupo 2404">
          <path id="Trazado_5682" data-name="Trazado 5682" d="M1976.435,6866.44h-2.27v-2.449h2.27Zm-4.537,0h-2.266v-2.449h2.266Zm-4.533,0H1965.1v-2.449h2.266Z" fill="#fff"/>
        </g>
        <g id="Grupo_2405" data-name="Grupo 2405">
          <path id="Trazado_5683" data-name="Trazado 5683" d="M1930.381,6866.44h-2.266v-2.449h2.266Zm-4.533,0h-2.266v-2.449h2.266Zm-4.533,0h-2.27v-2.449h2.27Z" fill="#fff"/>
        </g>
        <path id="Trazado_5684" data-name="Trazado 5684" d="M1984.952,6858.416a6.8,6.8,0,1,1-6.8,6.8A6.8,6.8,0,0,1,1984.952,6858.416Z" fill="#fff"/>
        <path id="Trazado_5685" data-name="Trazado 5685" d="M1910.529,6872.015a6.8,6.8,0,1,1,6.8-6.8A6.8,6.8,0,0,1,1910.529,6872.015Z" fill="#fff"/>
      </g>
    </g>
  </g>
</svg>
