<svg xmlns="http://www.w3.org/2000/svg" width="152.443" height="152.444" viewBox="0 0 152.443 152.444">
  <g id="Grupo_2793" data-name="Grupo 2793" transform="translate(-1013.207 -6797.849)">
    <path id="Trazado_5400" data-name="Trazado 5400" d="M2681.428,6797.849q3.746,0,7.471.367t7.4,1.1q3.673.73,7.256,1.817t7.043,2.52q3.459,1.434,6.762,3.2t6.416,3.845q3.113,2.081,6.008,4.456t5.542,5.023q2.648,2.648,5.023,5.542t4.456,6.009q2.08,3.112,3.846,6.415t3.2,6.762q1.433,3.461,2.52,7.043t1.817,7.256q.731,3.672,1.1,7.4t.367,7.471q0,3.744-.367,7.471t-1.1,7.4q-.731,3.674-1.817,7.256t-2.52,7.043q-1.434,3.458-3.2,6.762t-3.846,6.415q-2.08,3.114-4.456,6.009t-5.023,5.542q-2.647,2.648-5.542,5.023t-6.008,4.456q-3.114,2.081-6.416,3.845t-6.762,3.2q-3.459,1.433-7.043,2.52t-7.256,1.818q-3.672.73-7.4,1.1t-7.471.368q-3.744,0-7.471-.368t-7.4-1.1q-3.672-.731-7.256-1.818t-7.043-2.52q-3.459-1.433-6.761-3.2t-6.416-3.845q-3.114-2.08-6.008-4.456t-5.543-5.023q-2.647-2.647-5.023-5.542t-4.456-6.009q-2.08-3.113-3.845-6.415t-3.2-6.762q-1.434-3.459-2.52-7.043t-1.818-7.256q-.73-3.672-1.1-7.4t-.367-7.471q0-3.743.367-7.471t1.1-7.4q.731-3.672,1.818-7.256t2.52-7.043q1.433-3.458,3.2-6.762t3.845-6.415q2.08-3.114,4.456-6.009t5.023-5.542q2.649-2.647,5.543-5.023t6.008-4.456q3.112-2.08,6.416-3.845t6.761-3.2q3.46-1.433,7.043-2.52t7.256-1.817q3.672-.73,7.4-1.1T2681.428,6797.849Z" transform="translate(-1592)" fill="#f7ec45"/>
    <circle id="Elipse_129" data-name="Elipse 129" cx="71.597" cy="71.597" r="71.597" transform="translate(1017.832 6802.475)" fill="#fff"/>
    <circle id="Elipse_130" data-name="Elipse 130" cx="65.13" cy="65.13" r="65.13" transform="translate(1024.298 6808.941)" fill="#75c1d8"/>
    <path id="Trazado_5692" data-name="Trazado 5692" d="M2704.717,6849.176l-30.379,10.355,1.376,26.153,2.082,21.916,28.419,25.156c20.732-6.993,36.144-28.571,38.567-51.018Z" transform="translate(-1592)" fill="#3e8c9e"/>
    <g id="Grupo_2412" data-name="Grupo 2412" transform="translate(-1592)">
      <path id="Trazado_5693" data-name="Trazado 5693" d="M2681.741,6835.044a39.063,39.063,0,1,0-.626,78.123h.142l.625-78.12Z" fill="#fff"/>
      <path id="Trazado_5694" data-name="Trazado 5694" d="M2720.525,6874.418a39.08,39.08,0,0,0-38.643-39.371l-.625,78.12A39.08,39.08,0,0,0,2720.525,6874.418Z" fill="#cad1da"/>
      <path id="Trazado_5695" data-name="Trazado 5695" d="M2718.078,6860.232l-2.041.018-1.014-1.131-.182-1.806-1.051.563-.581,2.2-1.5-1.622-.049-1.521-1.451-1.269-.535-.54-1.7-.013.525,1.513,2.029,1.153.352.378-.443.217.007,1.2-.995.407-.848-.193-.522-.755,1.377.085.376-.5-3.038-2.086-.226-.88-1.25,1.113-1.257-.269-1.936,2.475-.383.972-1.226.1-1.812,0-1.08-.516-.3-2.154.4-1.024,1.847-.388,2.009.419.253-1.111-.852-.208.306-1.731,2.026-.3,1.432-1.989,1.464-.233,1.318.206.485,0-.251-1.88-1.61.635-.552-1.408-.929-.137-.167-.964.767-.82,1.81-.693.472-.826a38.97,38.97,0,0,0-25.67-9.982l-.056,7.048.743.337-.011,1.4,1.171.3-.6,1.1-1.332-.011-.041,5.1.8.5-.074,1.368-.748.248-.008.952,1.133.527-.041.942-.5.038,0-.025-.6-.19-.21,26.234.972.379,3.446.061,1,1.664,1.523.5-.305,1.365-1.692,2.115-.526,4.7-1.52,1.184-2.244-.086-.757,1.29V6894l.534,2.437-.559.7-.128,16.066a39.071,39.071,0,0,0,30.377-14.221l-1.291-.011.021-2.6-1.476-2.024.025-3.128-1.132-1.145-.088-1.3,1.47-2.753-2.708-4.867.352-3.284-2.47-.277-.9-.919-1.66-.013-.85.773-2.928-.023-.1.259-1.626-.013-3.7-4.288.056-3.318.62-.222.24-1.267-.878-.007-.348-1.335,4.352-3.087.018-2.211,2.125-1.159.855.092,1.744.014,1.368-.72,4.394-.308-.018,2.245,3.457.906.679.493.634,0,.01-1.221,2-.179,1.893,1.431,3.121.025.22-.2Q2718.659,6861.758,2718.078,6860.232Zm-18.39-11.286.363-.549,1.287-.25.311,1.565.676,1.11.449.526.827.33-.786.922-1.514.133-1.138-.009.139-1.348.947-.188-.075-.635-.876-.56-.615-.427,0-.62Zm-2.133,2.424.793-1.246,1.055-.236.748.332-.075.844-1.617,1.125-.911-.007.006-.812Z" fill="#427da1"/>
      <path id="Trazado_5696" data-name="Trazado 5696" d="M2679.479,6899.535l-.791,1.425-2.335,1.1-1.531.219-.069.649,1.071.316-.135.7-.97.918.579.74,1.156.041-.072.894-.314.875-.105.714,1.7,1.455-.233.747-2.327-.063-2.3-2.041-1.781-3.187.277-3.061-1.351-1.833.578-3.083-.81-.235.053-6.7s-2.262-1.744-2.392-1.745-1.2-.3-1.2-.3l-.219-1.269-2.928-3.731.3-1.331.113-2.179,2.059-1.414-.273-2.441-2.989-.25-2.32-2.687-1.654-.466-1.07-.206.135-.974-1.364-.205,0,.552-3.408-.872-1.357-2.114.568-1.014-2.138-3.173-.354-2.311-.877-.007.274,2.245,1.477,2.321-.17.911-1.266-.206-1.539-2.672.025-3.1-1.618-.795.017-2.227a39.129,39.129,0,0,0,35.572,54.736h.088l.129-16.067Z" fill="#58b3cb"/>
      <path id="Trazado_5697" data-name="Trazado 5697" d="M2680.155,6854.073l-.086-.7h0l.638-.432,0-.636-.682-.176-.173.585-1.2.176-.119-.041v.06l-.416.06-.334-.687-.391-.174-.853-.007-.392.314,0,.707.729.25.72.107-.162.069-.664.724-.288-.367-.633-.172-1.746,1.616.225.188-2.571,1.4-2.427,2.485-.172,1.113-2.426,1.566-1.205,1.194.112,2.406-1.653-.786.024-1.406-4.616-.036-2.4,1.191-1.056,1.9-.423,1.515.662,1.476,1.881.245,3.008-1.978.254.994-.927,1.718,2.276.407.2,3.52,3.119.555,2-2.277,2.4.509.837,1.183,2.309-.118.07-.682,1.263.628,1.414,2.254,2.469.054.9,1.6.114,1.951,1.752.683.21-26.234Zm-3.9,1.939-.814.062.048-.566.369-.451.485.387Zm2.866-.977-.557.043-.117.538-.431.263-.687.052-.037-.284-.266,0,0-.578,1.12.009.237-.6.446,0,.509.109Z" fill="#58b3cb"/>
      <path id="Trazado_5698" data-name="Trazado 5698" d="M2668.739,6849.091a10.649,10.649,0,0,0-9.457,15.539,23.13,23.13,0,0,0,4.09,6.829,69.889,69.889,0,0,0,5.367,5.886,69.786,69.786,0,0,0,5.368-5.886,23.13,23.13,0,0,0,4.09-6.829,10.649,10.649,0,0,0-9.458-15.539Z" fill="#eec355"/>
      <path id="Trazado_5699" data-name="Trazado 5699" d="M2668.5,6849.091a10.649,10.649,0,0,0-9.457,15.539,23.138,23.138,0,0,0,4.089,6.829,69.985,69.985,0,0,0,5.368,5.886Z" fill="#d9983d"/>
      <path id="Trazado_5700" data-name="Trazado 5700" d="M2674.3,6859.757a5.562,5.562,0,1,1-5.562-5.562A5.561,5.561,0,0,1,2674.3,6859.757Z" fill="#fff"/>
    </g>
  </g>
</svg>
