<svg xmlns="http://www.w3.org/2000/svg" width="152.443" height="152.443" viewBox="0 0 152.443 152.443">
  <g id="Grupo_2794" data-name="Grupo 2794" transform="translate(-279.517 -7134.152)">
    <path id="Trazado_5402" data-name="Trazado 5402" d="M1947.738,7134.152q3.745,0,7.471.367t7.4,1.1q3.673.73,7.256,1.817t7.043,2.52q3.459,1.433,6.762,3.2t6.416,3.846q3.113,2.08,6.008,4.456t5.542,5.023q2.648,2.648,5.023,5.542t4.456,6.008q2.08,3.114,3.846,6.416t3.2,6.762q1.433,3.459,2.52,7.043t1.817,7.256q.731,3.672,1.1,7.4t.367,7.472q0,3.744-.367,7.471t-1.1,7.4q-.73,3.672-1.817,7.256t-2.52,7.042q-1.432,3.461-3.2,6.762t-3.846,6.416q-2.08,3.112-4.456,6.008t-5.023,5.542q-2.648,2.649-5.542,5.024t-6.008,4.455q-3.114,2.082-6.416,3.846t-6.762,3.2q-3.459,1.433-7.043,2.52t-7.256,1.818q-3.672.731-7.4,1.1t-7.471.367q-3.744,0-7.471-.367t-7.4-1.1q-3.672-.73-7.256-1.818t-7.042-2.52q-3.461-1.433-6.762-3.2t-6.416-3.846q-3.114-2.079-6.008-4.455t-5.542-5.024q-2.649-2.648-5.024-5.542t-4.456-6.008q-2.079-3.114-3.845-6.416t-3.2-6.762q-1.432-3.459-2.52-7.042t-1.818-7.256q-.73-3.674-1.1-7.4t-.367-7.471q0-3.746.367-7.472t1.1-7.4q.731-3.673,1.818-7.256t2.52-7.043q1.433-3.459,3.2-6.762t3.845-6.416q2.08-3.112,4.456-6.008t5.024-5.542q2.648-2.648,5.542-5.023t6.008-4.456q3.114-2.081,6.416-3.846t6.762-3.2q3.459-1.433,7.042-2.52t7.256-1.817q3.673-.731,7.4-1.1T1947.738,7134.152Z" transform="translate(-1592)" fill="#f7ec45"/>
    <circle id="Elipse_131" data-name="Elipse 131" cx="71.597" cy="71.597" r="71.597" transform="translate(284.142 7138.777)" fill="#fff"/>
    <circle id="Elipse_132" data-name="Elipse 132" cx="65.13" cy="65.13" r="65.13" transform="translate(290.608 7145.244)" fill="#75c1d8"/>
    <path id="Trazado_5701" data-name="Trazado 5701" d="M1972.28,7185.56l-30.485,10.391,1.382,26.244,2.089,21.992,28.518,25.243c20.8-7.017,36.269-28.67,38.7-51.2Z" transform="translate(-1592)" fill="#3e8c9e"/>
    <g id="Grupo_2415" data-name="Grupo 2415" transform="translate(-1592)">
      <path id="Trazado_5702" data-name="Trazado 5702" d="M1980.286,7238.079H1916.88v-37.895l31.7-18.629,31.7,18.629Z" fill="#fff"/>
      <path id="Trazado_5703" data-name="Trazado 5703" d="M1980.52,7216.924v-16.74l-31.7-18.629-2.31,1.357Z" fill="#c8d8e5"/>
      <path id="Trazado_5704" data-name="Trazado 5704" d="M1913.285,7202.472l35.3-20.917v-6.21l-35.3,20.917Z" fill="#dd503e"/>
      <rect id="Rectángulo_651" data-name="Rectángulo 651" width="8.171" height="10.949" transform="translate(1965.905 7178.94)" fill="#dd503e"/>
      <rect id="Rectángulo_652" data-name="Rectángulo 652" width="12.419" height="4.576" transform="translate(1963.994 7177.454)" fill="#dd503e"/>
      <rect id="Rectángulo_653" data-name="Rectángulo 653" width="14.038" height="26.598" transform="translate(1941.795 7212.134)" fill="#dd503e"/>
      <path id="Trazado_5705" data-name="Trazado 5705" d="M1983.554,7202.472l-35.3-20.917v-6.21l35.3,20.917Z" fill="#dd503e"/>
      <g id="Grupo_2413" data-name="Grupo 2413">
        <rect id="Rectángulo_654" data-name="Rectángulo 654" width="14.729" height="17.189" transform="translate(1922.67 7204.121)" fill="#9cd0f3"/>
        <rect id="Rectángulo_655" data-name="Rectángulo 655" width="14.501" height="1.592" transform="translate(1922.784 7203.325)" fill="#413c6f"/>
        <rect id="Rectángulo_656" data-name="Rectángulo 656" width="14.501" height="1.592" transform="translate(1922.784 7220.514)" fill="#413c6f"/>
        <rect id="Rectángulo_657" data-name="Rectángulo 657" width="15.67" height="1.473" transform="translate(1922.784 7220.55) rotate(-90)" fill="#413c6f"/>
        <rect id="Rectángulo_658" data-name="Rectángulo 658" width="18.737" height="1.473" transform="translate(1936.222 7222.106) rotate(-90)" fill="#413c6f"/>
        <rect id="Rectángulo_659" data-name="Rectángulo 659" width="14.501" height="1.592" transform="translate(1923.079 7211.919)" fill="#413c6f"/>
        <rect id="Rectángulo_660" data-name="Rectángulo 660" width="15.67" height="1.473" transform="translate(1929.593 7220.55) rotate(-90)" fill="#413c6f"/>
      </g>
      <g id="Grupo_2414" data-name="Grupo 2414">
        <rect id="Rectángulo_661" data-name="Rectángulo 661" width="14.73" height="17.189" transform="translate(1959.897 7204.132)" fill="#9cd0f3"/>
        <rect id="Rectángulo_662" data-name="Rectángulo 662" width="14.501" height="1.592" transform="translate(1960.011 7203.336)" fill="#413c6f"/>
        <rect id="Rectángulo_663" data-name="Rectángulo 663" width="14.501" height="1.592" transform="translate(1960.011 7220.525)" fill="#413c6f"/>
        <rect id="Rectángulo_664" data-name="Rectángulo 664" width="15.67" height="1.473" transform="translate(1960.011 7220.561) rotate(-90)" fill="#413c6f"/>
        <rect id="Rectángulo_665" data-name="Rectángulo 665" width="18.737" height="1.473" transform="translate(1973.448 7222.117) rotate(-90)" fill="#413c6f"/>
        <rect id="Rectángulo_666" data-name="Rectángulo 666" width="14.501" height="1.592" transform="translate(1960.306 7211.931)" fill="#413c6f"/>
        <rect id="Rectángulo_667" data-name="Rectángulo 667" width="15.67" height="1.473" transform="translate(1966.82 7220.561) rotate(-90)" fill="#413c6f"/>
      </g>
    </g>
  </g>
</svg>
