<svg xmlns="http://www.w3.org/2000/svg" width="39.75" height="44.493" viewBox="0 0 39.75 44.493">
  <g id="Grupo_2772" data-name="Grupo 2772" transform="translate(-404.112 -1635.905)">
    <path id="Trazado_6240" data-name="Trazado 6240" d="M428.182,1637l5.437.807v39.836l-15.919-2.082h-8.4l-2.963-2.181-1.432-3.7V1637Z" fill="#fff" fill-rule="evenodd"/>
    <path id="Trazado_6241" data-name="Trazado 6241" d="M404.112,1670.734c0,3.013,1.342,5.631,4.539,6.129l25.152,3.514a1.429,1.429,0,0,0,1.718-1.445v-4.7c-.475-.522-.891-1.019-1.222-1.44-.232-.3-.46-.6-.68-.905v5.753l-20.926-5.873a.47.47,0,0,0-.578.23,5.587,5.587,0,0,1-1.31,1.83c-2.668,2.082-4.79-.667-4.79-3.509v-32.514h27.6v23.405l.363.411a1.469,1.469,0,0,1,1.539-.67v-25.049H404.112v34.829Zm25.756-13.544.78,1.905-2.843,2.231-1.665-1.211-1.663-5.134.266-.209,2.511,3.2a.855.855,0,1,0,.267-.21l-2.511-3.2.266-.208,4.592,2.836Zm13.663,19.171a1.715,1.715,0,0,1-1.791,1.212c-1.62-.143-4.345-2.222-6.765-5.307a25.079,25.079,0,0,1-1.533-2.175l4.38-3.436a25.42,25.42,0,0,1,1.748,2.005,24.7,24.7,0,0,1,1.88,2.75c.062.106.13.233.2.339.259.411.4.281.393.009a5.362,5.362,0,0,0-2.866-4.908,26.732,26.732,0,0,1-3.038-2.032,2.469,2.469,0,0,1-.865-1.179,1.694,1.694,0,0,1-.318-.311c-.4-.509-.442-1.143-.094-1.416s.954-.081,1.353.428.443,1.144.1,1.417a.576.576,0,0,1-.276.116,2.356,2.356,0,0,0,.4.413,34.061,34.061,0,0,0,3.86,2.11c3.493,1.917,3.776,5.874,3.485,8.81a4.647,4.647,0,0,1-.245,1.155Zm-12.506-16.786,6.017,6.805-3.681,2.888-5.179-7.461Z" fill="#00232b" fill-rule="evenodd"/>
    <path id="Trazado_6242" data-name="Trazado 6242" d="M409.3,1654.377h13.154v2.292H409.3v-2.292Z" fill="#dd503e" fill-rule="evenodd"/>
    <path id="Trazado_6243" data-name="Trazado 6243" d="M409.3,1650.073h21.031v2.292H409.3v-2.292Z" fill="#dd503e" fill-rule="evenodd"/>
    <path id="Trazado_6244" data-name="Trazado 6244" d="M409.3,1645.768h21.031v2.292H409.3v-2.292Z" fill="#dd503e" fill-rule="evenodd"/>
    <path id="Trazado_6245" data-name="Trazado 6245" d="M409.3,1641.464h21.031v2.292H409.3v-2.292Z" fill="#dd503e" fill-rule="evenodd"/>
  </g>
</svg>
