<svg xmlns="http://www.w3.org/2000/svg" width="152.443" height="152.444" viewBox="0 0 152.443 152.444">
  <g id="Grupo_2792" data-name="Grupo 2792" transform="translate(-646.362 -6797.849)">
    <path id="Trazado_5398" data-name="Trazado 5398" d="M2314.583,6797.849q3.746,0,7.471.367t7.4,1.1q3.674.73,7.256,1.817t7.043,2.52q3.459,1.434,6.762,3.2t6.416,3.845q3.112,2.081,6.008,4.456t5.542,5.023q2.648,2.648,5.023,5.542t4.456,6.009q2.08,3.112,3.846,6.415t3.2,6.762q1.433,3.461,2.52,7.043t1.817,7.256q.73,3.672,1.1,7.4t.367,7.471q0,3.744-.367,7.471t-1.1,7.4q-.731,3.674-1.817,7.256t-2.52,7.043q-1.434,3.458-3.2,6.762t-3.846,6.415q-2.08,3.114-4.456,6.009t-5.023,5.542q-2.647,2.648-5.542,5.023t-6.008,4.456q-3.114,2.081-6.416,3.845t-6.762,3.2q-3.459,1.433-7.043,2.52t-7.256,1.818q-3.672.73-7.4,1.1t-7.471.368q-3.744,0-7.471-.368t-7.4-1.1q-3.672-.731-7.256-1.818t-7.043-2.52q-3.459-1.433-6.761-3.2t-6.416-3.845q-3.114-2.08-6.008-4.456t-5.543-5.023q-2.648-2.647-5.023-5.542t-4.456-6.009q-2.08-3.113-3.845-6.415t-3.2-6.762q-1.434-3.459-2.52-7.043t-1.818-7.256q-.73-3.672-1.1-7.4t-.367-7.471q0-3.743.367-7.471t1.1-7.4q.731-3.672,1.818-7.256t2.52-7.043q1.432-3.458,3.2-6.762t3.845-6.415q2.08-3.114,4.456-6.009t5.023-5.542q2.649-2.647,5.543-5.023t6.008-4.456q3.112-2.08,6.416-3.845t6.761-3.2q3.46-1.433,7.043-2.52t7.256-1.817q3.674-.73,7.4-1.1T2314.583,6797.849Z" transform="translate(-1592)" fill="#f7ec45"/>
    <circle id="Elipse_127" data-name="Elipse 127" cx="71.597" cy="71.597" r="71.597" transform="translate(650.987 6802.475)" fill="#fff"/>
    <circle id="Elipse_128" data-name="Elipse 128" cx="65.13" cy="65.13" r="65.13" transform="translate(657.453 6808.941)" fill="#75c1d8"/>
    <g id="Grupo_2411" data-name="Grupo 2411" transform="translate(-1592)">
      <path id="Trazado_5686" data-name="Trazado 5686" d="M2322.548,6938.7a65.136,65.136,0,0,0,56.662-56.658l-37.339-37.338-14.87,14.87-17.051-17.051-26.918,26.921,17.048,17.051-14.871,14.87Z" fill="#3e8c9e"/>
      <g id="Grupo_2410" data-name="Grupo 2410">
        <g id="Grupo_2408" data-name="Grupo 2408">
          <rect id="Rect치ngulo_649" data-name="Rect치ngulo 649" width="48.456" height="10.02" transform="translate(2296.41 6890.163) rotate(-45)" fill="#fff"/>
          <path id="Trazado_5687" data-name="Trazado 5687" d="M2348.958,6851.787l-6.806,6.8-7.084-7.087,6.8-6.8a10.856,10.856,0,1,0,7.087,7.086Z" fill="#fff"/>
          <path id="Trazado_5688" data-name="Trazado 5688" d="M2285.209,6901.362l6.807-6.806,7.083,7.084-6.8,6.806a10.851,10.851,0,1,0-7.087-7.084Z" fill="#fff"/>
        </g>
        <g id="Grupo_2409" data-name="Grupo 2409">
          <path id="Trazado_5689" data-name="Trazado 5689" d="M2348.171,6900.575a2.579,2.579,0,0,1,0,3.651l-3.433,3.435a2.585,2.585,0,0,1-3.651,0l-43.668-43.668,7.084-7.086Z" fill="#f0cc6d"/>
          <rect id="Rect치ngulo_650" data-name="Rect치ngulo 650" width="33.397" height="13.359" transform="translate(2279.707 6862.811) rotate(-45)" fill="#393d45"/>
          <path id="Trazado_5690" data-name="Trazado 5690" d="M2279.7,6866.117l6.144,6.14h3.3l-9.444-9.447Z" fill="#4c5157"/>
          <path id="Trazado_5691" data-name="Trazado 5691" d="M2306.629,6839.2l6.14,6.141v3.306l-9.447-9.447Z" fill="#4c5157"/>
        </g>
      </g>
    </g>
  </g>
</svg>
