<svg xmlns="http://www.w3.org/2000/svg" width="275.513" height="198.366" viewBox="0 0 275.513 198.366">
  <g id="Grupo_2780" data-name="Grupo 2780" transform="translate(-789.694 -4417.608)">
    <line id="Línea_85" data-name="Línea 85" y2="185.633" transform="translate(790.694 4430.341)" fill="none" stroke="#00232b" stroke-width="2" opacity="0.5"/>
    <g id="Grupo_1248" data-name="Grupo 1248" transform="translate(-3205.602 -2407.48)">
      <g id="Grupo_1246" data-name="Grupo 1246">
        <path id="Trazado_4547" data-name="Trazado 4547" d="M4159.48,7015.622s-48.656-33.953-63.208-74.7-8.64-86.279-8.64-86.279,22.277-2.733,39.528-9.581a113.236,113.236,0,0,0,32.32-19.978Z" fill="#d8d8d8"/>
        <path id="Trazado_4548" data-name="Trazado 4548" d="M4159.48,7015.622s48.655-33.953,63.207-74.7,8.64-86.279,8.64-86.279-22.277-2.733-39.527-9.581a113.219,113.219,0,0,1-32.32-19.978Z" fill="#b0b0af"/>
        <path id="Trazado_4549" data-name="Trazado 4549" d="M4159.48,7002.889s-42.153-29.414-54.76-64.712-7.485-74.747-7.485-74.747,19.3-2.368,34.244-8.3a98.107,98.107,0,0,0,28-17.307Z" fill="#e6b041"/>
        <path id="Trazado_4550" data-name="Trazado 4550" d="M4159.48,7002.889s42.152-29.414,54.759-64.712,7.486-74.747,7.486-74.747-19.3-2.368-34.245-8.3a98.093,98.093,0,0,1-28-17.307Z" fill="#c9902c"/>
        <path id="Trazado_4551" data-name="Trazado 4551" d="M4179.967,6905.685h-9.683V6896a6.36,6.36,0,0,0-6.341-6.342h-8.926a6.36,6.36,0,0,0-6.342,6.342v9.682h-9.682a6.361,6.361,0,0,0-6.342,6.342v8.927a6.36,6.36,0,0,0,6.342,6.341h9.682v9.682a6.36,6.36,0,0,0,6.342,6.343h8.926a6.36,6.36,0,0,0,6.341-6.343v-9.682h9.683a6.361,6.361,0,0,0,6.342-6.341v-8.927A6.361,6.361,0,0,0,4179.967,6905.685Z" fill="#fff"/>
      </g>
      <g id="Grupo_1247" data-name="Grupo 1247">
        <path id="Trazado_4552" data-name="Trazado 4552" d="M4229.126,6933.035h-31.613a4.958,4.958,0,0,0-4.96,4.957v19.464a4.959,4.959,0,0,0,4.96,4.958h31.613a4.959,4.959,0,0,0,4.959-4.958v-19.464A4.958,4.958,0,0,0,4229.126,6933.035Zm-.373,21.631a3.5,3.5,0,0,1-3.685,3.286h-23.5a3.5,3.5,0,0,1-3.686-3.286v-12.893a3.505,3.505,0,0,1,3.686-3.286h23.5a3.5,3.5,0,0,1,3.685,3.286Z" fill="#d8d8d8"/>
        <path id="Trazado_4553" data-name="Trazado 4553" d="M4270.808,7006.145c0,5.234-3.84,9.477-8.575,9.477h-76.315c-4.735,0-8.574-4.243-8.574-9.477v-46.9c0-5.233,3.839-9.476,8.574-9.476h76.315c4.735,0,8.575,4.243,8.575,9.476Z" fill="#253b57"/>
        <path id="Trazado_4554" data-name="Trazado 4554" d="M4260.588,7006.145c0,5.234-3.839,9.477-8.574,9.477H4175.7c-4.736,0-8.575-4.243-8.575-9.477v-46.9c0-5.233,3.839-9.476,8.575-9.476h76.315c4.735,0,8.574,4.243,8.574,9.476Z" fill="#2b4774"/>
        <path id="Trazado_4555" data-name="Trazado 4555" d="M4229.894,6975.655h-6.307v-6.306a4.143,4.143,0,0,0-4.131-4.13h-5.814a4.143,4.143,0,0,0-4.13,4.13v6.306h-6.306a4.143,4.143,0,0,0-4.13,4.131v5.814a4.142,4.142,0,0,0,4.13,4.13h6.306v6.307a4.143,4.143,0,0,0,4.13,4.131h5.814a4.143,4.143,0,0,0,4.131-4.131v-6.307h6.307a4.143,4.143,0,0,0,4.131-4.13v-5.814A4.143,4.143,0,0,0,4229.894,6975.655Z" fill="#fff"/>
      </g>
    </g>
  </g>
</svg>
