<svg xmlns="http://www.w3.org/2000/svg" xmlns:xlink="http://www.w3.org/1999/xlink" width="202.667" height="202.667" viewBox="0 0 202.667 202.667">
  <defs>
    <clipPath id="clip-path">
      <circle id="Elipse_41" data-name="Elipse 41" cx="98.333" cy="98.333" r="98.333" transform="translate(3829.041 4825.81)" fill="none"/>
    </clipPath>
  </defs>
  <g id="Grupo_2797" data-name="Grupo 2797" transform="translate(-620.439 -2415.33)">
    <g id="Grupo_1094" data-name="Grupo 1094" transform="translate(-3205.602 -2407.48)">
      <g id="Grupo_1093" data-name="Grupo 1093" clip-path="url(#clip-path)">
        <g id="Grupo_1088" data-name="Grupo 1088">
          <g id="Grupo_1083" data-name="Grupo 1083">
            <g id="Grupo_1082" data-name="Grupo 1082">
              <g id="Grupo_1054" data-name="Grupo 1054">
                <path id="Trazado_4178" data-name="Trazado 4178" d="M3498.146,5618.76h-93.577l.233,113.694" fill="none" stroke="#909294" stroke-linecap="round" stroke-linejoin="round" stroke-width="21.782"/>
                <line id="Línea_86" data-name="Línea 86" y2="51.092" transform="translate(3498.38 5678.577)" fill="none" stroke="#909294" stroke-linecap="round" stroke-linejoin="round" stroke-width="18.152"/>
                <rect id="Rectángulo_199" data-name="Rectángulo 199" width="93.578" height="29.128" transform="translate(3404.802 5649.449)" fill="#3d3d66"/>
                <path id="Trazado_4179" data-name="Trazado 4179" d="M3405.235,5679.1h93.145v-7.359h-93.145a3.425,3.425,0,0,0-3.093,3.68h0A3.425,3.425,0,0,0,3405.235,5679.1Z" fill="#2f2f4f"/>
                <path id="Trazado_4180" data-name="Trazado 4180" d="M3415.26,5616.383a5.943,5.943,0,0,0,5.942,5.942h57.926a5.943,5.943,0,0,0,5.943-5.942h0a5.943,5.943,0,0,0-5.943-5.942H3421.2a5.943,5.943,0,0,0-5.942,5.942Z" fill="#3d3d66"/>
                <path id="Trazado_4181" data-name="Trazado 4181" d="M3506.462,5564.792a5.466,5.466,0,0,0,5.467,5.466h28.318a5.467,5.467,0,0,0,5.468-5.466h0a5.467,5.467,0,0,0-5.468-5.467h-28.318a5.467,5.467,0,0,0-5.467,5.467Z" fill="#0d0d0d"/>
                <path id="Trazado_4182" data-name="Trazado 4182" d="M3540.247,5564.792h-28.318a5.46,5.46,0,0,0-4.729,2.733,5.459,5.459,0,0,1,4.729-8.2h28.318a5.46,5.46,0,0,1,4.731,8.2A5.463,5.463,0,0,0,3540.247,5564.792Z" fill="#333"/>
                <g id="Grupo_1038" data-name="Grupo 1038">
                  <path id="Trazado_4183" data-name="Trazado 4183" d="M3540.96,5564.554h-42.58V5683.14h-95.24l-32.967,55.351" fill="none" stroke="#909294" stroke-linecap="round" stroke-linejoin="round" stroke-width="29.043"/>
                  <path id="Trazado_4184" data-name="Trazado 4184" d="M3514.067,5729.669H3446.09l-17.472-17.473h-39.16" fill="none" stroke="#909294" stroke-linecap="round" stroke-linejoin="round" stroke-width="18.152"/>
                  <path id="Trazado_4185" data-name="Trazado 4185" d="M3334.718,5716.135c-1.422,2.663.334,6.375,3.921,8.292l26.554,14.185c3.588,1.916,7.651,1.311,9.073-1.352h0c1.421-2.663-.334-6.376-3.922-8.292l-26.554-14.185c-3.588-1.916-7.65-1.311-9.072,1.352Z" fill="#333"/>
                  <path id="Trazado_4186" data-name="Trazado 4186" d="M3367.5,5734.919l-26.553-14.185a8.286,8.286,0,0,0-6.529-.749,4.085,4.085,0,0,1,.3-.739c1.422-2.663,5.484-3.268,9.072-1.352l26.554,14.184c3.588,1.917,5.343,5.63,3.922,8.293a4.529,4.529,0,0,1-2.543,2.1C3372.509,5739.9,3370.771,5736.664,3367.5,5734.919Z" fill="#0d0d0d"/>
                </g>
                <g id="Grupo_1053" data-name="Grupo 1053">
                  <g id="Grupo_1039" data-name="Grupo 1039">
                    <line id="Línea_87" data-name="Línea 87" x1="52.115" y1="13.964" transform="translate(3447.459 5692.456)" fill="none" stroke="#b5b5b5" stroke-miterlimit="10" stroke-width="3.63"/>
                    <line id="Línea_88" data-name="Línea 88" x1="52.101" y2="14.012" transform="translate(3447.473 5706.419)" fill="none" stroke="#b5b5b5" stroke-miterlimit="10" stroke-width="3.63"/>
                    <line id="Línea_89" data-name="Línea 89" x1="38.081" y2="38.221" transform="translate(3461.493 5706.419)" fill="none" stroke="#b5b5b5" stroke-miterlimit="10" stroke-width="3.63"/>
                    <line id="Línea_90" data-name="Línea 90" x1="13.822" y2="52.155" transform="translate(3485.752 5706.419)" fill="none" stroke="#b5b5b5" stroke-miterlimit="10" stroke-width="3.63"/>
                    <line id="Línea_91" data-name="Línea 91" x2="14.153" y2="52.066" transform="translate(3499.574 5706.419)" fill="none" stroke="#b5b5b5" stroke-miterlimit="10" stroke-width="3.63"/>
                    <line id="Línea_92" data-name="Línea 92" x2="38.325" y2="37.98" transform="translate(3499.574 5706.419)" fill="none" stroke="#b5b5b5" stroke-miterlimit="10" stroke-width="3.63"/>
                    <line id="Línea_93" data-name="Línea 93" x2="52.192" y2="13.683" transform="translate(3499.574 5706.419)" fill="none" stroke="#b5b5b5" stroke-miterlimit="10" stroke-width="3.63"/>
                    <line id="Línea_94" data-name="Línea 94" y1="14.292" x2="52.027" transform="translate(3499.574 5692.127)" fill="none" stroke="#b5b5b5" stroke-miterlimit="10" stroke-width="3.63"/>
                    <line id="Línea_95" data-name="Línea 95" y1="38.425" x2="37.875" transform="translate(3499.574 5667.995)" fill="none" stroke="#b5b5b5" stroke-miterlimit="10" stroke-width="3.63"/>
                    <line id="Línea_96" data-name="Línea 96" y1="52.226" x2="13.541" transform="translate(3499.574 5654.193)" fill="none" stroke="#b5b5b5" stroke-miterlimit="10" stroke-width="3.63"/>
                    <line id="Línea_97" data-name="Línea 97" x1="14.435" y1="51.986" transform="translate(3485.139 5654.433)" fill="none" stroke="#b5b5b5" stroke-miterlimit="10" stroke-width="3.63"/>
                    <line id="Línea_98" data-name="Línea 98" x1="38.528" y1="37.768" transform="translate(3461.046 5668.651)" fill="none" stroke="#b5b5b5" stroke-miterlimit="10" stroke-width="3.63"/>
                  </g>
                  <g id="Grupo_1040" data-name="Grupo 1040">
                    <line id="Línea_99" data-name="Línea 99" x1="46.726" y1="26.976" transform="translate(3452.841 5679.432)" fill="none" stroke="#b5b5b5" stroke-miterlimit="10" stroke-width="3.63"/>
                    <line id="Línea_100" data-name="Línea 100" x1="53.952" y2="0.049" transform="translate(3445.614 5706.408)" fill="none" stroke="#b5b5b5" stroke-miterlimit="10" stroke-width="3.63"/>
                    <line id="Línea_101" data-name="Línea 101" x1="46.675" y2="27.063" transform="translate(3452.891 5706.408)" fill="none" stroke="#b5b5b5" stroke-miterlimit="10" stroke-width="3.63"/>
                    <line id="Línea_102" data-name="Línea 102" x1="26.849" y2="46.8" transform="translate(3472.717 5706.408)" fill="none" stroke="#b5b5b5" stroke-miterlimit="10" stroke-width="3.63"/>
                    <line id="Línea_103" data-name="Línea 103" x2="0.195" y2="53.956" transform="translate(3499.566 5706.408)" fill="none" stroke="#b5b5b5" stroke-miterlimit="10" stroke-width="3.63"/>
                    <line id="Línea_104" data-name="Línea 104" x2="27.189" y2="46.606" transform="translate(3499.566 5706.408)" fill="none" stroke="#b5b5b5" stroke-miterlimit="10" stroke-width="3.63"/>
                    <line id="Línea_105" data-name="Línea 105" x2="46.872" y2="26.725" transform="translate(3499.566 5706.408)" fill="none" stroke="#b5b5b5" stroke-miterlimit="10" stroke-width="3.63"/>
                    <line id="Línea_106" data-name="Línea 106" y1="0.339" x2="53.953" transform="translate(3499.566 5706.069)" fill="none" stroke="#b5b5b5" stroke-miterlimit="10" stroke-width="3.63"/>
                    <line id="Línea_107" data-name="Línea 107" y1="27.312" x2="46.531" transform="translate(3499.566 5679.096)" fill="none" stroke="#b5b5b5" stroke-miterlimit="10" stroke-width="3.63"/>
                    <line id="Línea_108" data-name="Línea 108" y1="46.942" x2="26.597" transform="translate(3499.566 5659.466)" fill="none" stroke="#b5b5b5" stroke-miterlimit="10" stroke-width="3.63"/>
                    <line id="Línea_109" data-name="Línea 109" x1="0.488" y1="53.951" transform="translate(3499.078 5652.458)" fill="none" stroke="#b5b5b5" stroke-miterlimit="10" stroke-width="3.63"/>
                    <line id="Línea_110" data-name="Línea 110" x1="27.44" y1="46.453" transform="translate(3472.127 5659.955)" fill="none" stroke="#b5b5b5" stroke-miterlimit="10" stroke-width="3.63"/>
                  </g>
                  <g id="Grupo_1041" data-name="Grupo 1041">
                    <line id="Línea_111" data-name="Línea 111" x1="53.953" transform="translate(3445.621 5706.419)" fill="none" stroke="#b5b5b5" stroke-miterlimit="10" stroke-width="5.446"/>
                    <line id="Línea_112" data-name="Línea 112" x1="46.7" y2="27.02" transform="translate(3452.875 5706.419)" fill="none" stroke="#b5b5b5" stroke-miterlimit="10" stroke-width="5.446"/>
                    <line id="Línea_113" data-name="Línea 113" x1="26.891" y2="46.774" transform="translate(3472.683 5706.419)" fill="none" stroke="#b5b5b5" stroke-miterlimit="10" stroke-width="5.446"/>
                    <line id="Línea_114" data-name="Línea 114" x2="0.147" y2="53.956" transform="translate(3499.574 5706.419)" fill="none" stroke="#b5b5b5" stroke-miterlimit="10" stroke-width="5.446"/>
                    <line id="Línea_115" data-name="Línea 115" x2="27.146" y2="46.629" transform="translate(3499.574 5706.419)" fill="none" stroke="#b5b5b5" stroke-miterlimit="10" stroke-width="5.446"/>
                    <line id="Línea_116" data-name="Línea 116" x2="46.847" y2="26.767" transform="translate(3499.574 5706.419)" fill="none" stroke="#b5b5b5" stroke-miterlimit="10" stroke-width="5.446"/>
                    <line id="Línea_117" data-name="Línea 117" y1="0.292" x2="53.955" transform="translate(3499.574 5706.127)" fill="none" stroke="#b5b5b5" stroke-miterlimit="10" stroke-width="5.446"/>
                    <line id="Línea_118" data-name="Línea 118" y1="27.271" x2="46.555" transform="translate(3499.574 5679.148)" fill="none" stroke="#b5b5b5" stroke-miterlimit="10" stroke-width="5.446"/>
                    <line id="Línea_119" data-name="Línea 119" y1="46.918" x2="26.639" transform="translate(3499.574 5659.5)" fill="none" stroke="#b5b5b5" stroke-miterlimit="10" stroke-width="5.446"/>
                    <line id="Línea_120" data-name="Línea 120" x1="0.438" y1="53.951" transform="translate(3499.135 5652.468)" fill="none" stroke="#b5b5b5" stroke-miterlimit="10" stroke-width="5.446"/>
                    <line id="Línea_121" data-name="Línea 121" x1="27.398" y1="46.478" transform="translate(3472.176 5659.941)" fill="none" stroke="#b5b5b5" stroke-miterlimit="10" stroke-width="5.446"/>
                    <line id="Línea_122" data-name="Línea 122" x1="46.991" y1="26.509" transform="translate(3452.583 5679.91)" fill="none" stroke="#b5b5b5" stroke-miterlimit="10" stroke-width="5.446"/>
                  </g>
                  <g id="Grupo_1052" data-name="Grupo 1052">
                    <g id="Grupo_1043" data-name="Grupo 1043">
                      <g id="Grupo_1042" data-name="Grupo 1042">
                        <path id="Trazado_4187" data-name="Trazado 4187" d="M3499.574,5652.467a53.953,53.953,0,1,1-53.953,53.953,53.953,53.953,0,0,1,53.953-53.953m0-4.278a58.056,58.056,0,1,0,22.668,4.577,57.883,57.883,0,0,0-22.668-4.577Z" fill="#363636"/>
                      </g>
                    </g>
                    <g id="Grupo_1045" data-name="Grupo 1045">
                      <g id="Grupo_1044" data-name="Grupo 1044">
                        <path id="Trazado_4188" data-name="Trazado 4188" d="M3499.574,5653.893a52.352,52.352,0,1,1-20.446,4.127,52.214,52.214,0,0,1,20.446-4.127m0-1.426a53.953,53.953,0,1,0,53.953,53.953,53.952,53.952,0,0,0-53.953-53.953Z" fill="#dbdbdb"/>
                      </g>
                    </g>
                    <g id="Grupo_1047" data-name="Grupo 1047">
                      <g id="Grupo_1046" data-name="Grupo 1046">
                        <path id="Trazado_4189" data-name="Trazado 4189" d="M3499.574,5661.514a44.762,44.762,0,1,1-17.479,3.528,44.629,44.629,0,0,1,17.479-3.528m0-1.854a46.76,46.76,0,1,0,46.761,46.76,46.76,46.76,0,0,0-46.761-46.76Z" fill="#dbdbdb"/>
                      </g>
                    </g>
                    <g id="Grupo_1049" data-name="Grupo 1049">
                      <g id="Grupo_1048" data-name="Grupo 1048">
                        <path id="Trazado_4190" data-name="Trazado 4190" d="M3491.962,5706.42a7.613,7.613,0,1,1,7.612,7.613A7.612,7.612,0,0,1,3491.962,5706.42Z" fill="#dbdbdb"/>
                      </g>
                    </g>
                    <g id="Grupo_1051" data-name="Grupo 1051">
                      <g id="Grupo_1050" data-name="Grupo 1050">
                        <path id="Trazado_4191" data-name="Trazado 4191" d="M3494.116,5706.42a5.459,5.459,0,1,1,5.458,5.459A5.46,5.46,0,0,1,3494.116,5706.42Z" fill="#595959"/>
                      </g>
                    </g>
                  </g>
                </g>
                <path id="Trazado_4192" data-name="Trazado 4192" d="M3372.514,5746.861a15.235,15.235,0,1,0,15.235-15.235A15.235,15.235,0,0,0,3372.514,5746.861Z" fill="#363636"/>
                <path id="Trazado_4193" data-name="Trazado 4193" d="M3379.378,5746.861a8.372,8.372,0,1,0,8.371-8.37A8.371,8.371,0,0,0,3379.378,5746.861Z" fill="#6d6d6d"/>
                <path id="Trazado_4194" data-name="Trazado 4194" d="M3383.014,5746.861a4.735,4.735,0,1,0,4.735-4.735A4.736,4.736,0,0,0,3383.014,5746.861Z" fill="#333"/>
                <path id="Trazado_4195" data-name="Trazado 4195" d="M3404.8,5732.455c0,7.963-7.625,14.406-17.052,14.406" fill="none" stroke="#0d0d0d" stroke-linecap="round" stroke-linejoin="round" stroke-width="36.304"/>
                <path id="Trazado_4196" data-name="Trazado 4196" d="M3384.977,5746.861a2.771,2.771,0,1,0,2.772-2.772A2.772,2.772,0,0,0,3384.977,5746.861Z" fill="#cfcfcf"/>
              </g>
              <rect id="Rectángulo_200" data-name="Rectángulo 200" width="40.371" height="76.205" transform="translate(3498.671 5576.263)" fill="#3d3d66"/>
              <g id="Grupo_1064" data-name="Grupo 1064">
                <path id="Trazado_4197" data-name="Trazado 4197" d="M3480.006,5558.228l-6.316,45.942-44.249-1.2" fill="none" stroke="#e4ae96" stroke-linecap="round" stroke-linejoin="round" stroke-width="69.111"/>
                <rect id="Rectángulo_201" data-name="Rectángulo 201" width="20.894" height="16.159" rx="8.079" transform="translate(3421.847 5592.165) rotate(17.182)" fill="#dd957a"/>
                <path id="Rectángulo_202" data-name="Rectángulo 202" d="M12.254,0h0A12.254,12.254,0,0,1,24.508,12.254V39.943a0,0,0,0,1,0,0H0a0,0,0,0,1,0,0V12.254A12.254,12.254,0,0,1,12.254,0Z" transform="translate(3469.743 5546.5) rotate(14.111)" fill="#587b68"/>
                <g id="Grupo_1063" data-name="Grupo 1063">
                  <path id="Trazado_4198" data-name="Trazado 4198" d="M3528.98,5655.835l-73.414-4.313,11.533-92.474a13.517,13.517,0,0,1,14.141-12.864l39.529,1.869a13.516,13.516,0,0,1,12.864,14.14Z" fill="#648777"/>
                  <g id="Grupo_1058" data-name="Grupo 1058">
                    <g id="Grupo_1057" data-name="Grupo 1057">
                      <g id="Grupo_1055" data-name="Grupo 1055">
                        <rect id="Rectángulo_203" data-name="Rectángulo 203" width="15.24" height="9.521" transform="translate(3373.878 5703.273) rotate(30.05)" fill="#e4ae96"/>
                      </g>
                      <g id="Grupo_1056" data-name="Grupo 1056">
                        <path id="Trazado_4199" data-name="Trazado 4199" d="M3374.7,5732.285l-26.535-15.351a7.591,7.591,0,0,1-2.769-10.37h0a7.59,7.59,0,0,1,10.37-2.768l26.535,15.35Z" fill="#e4ae96"/>
                      </g>
                      <rect id="Rectángulo_204" data-name="Rectángulo 204" width="38.244" height="3.795" transform="translate(3374.701 5732.285) rotate(-149.95)" fill="#090909"/>
                      <rect id="Rectángulo_205" data-name="Rectángulo 205" width="7.248" height="11.384" transform="matrix(-0.866, -0.501, 0.501, -0.866, 3359.181, 5718.922)" fill="#090909"/>
                    </g>
                    <path id="Trazado_4200" data-name="Trazado 4200" d="M3476.535,5656.284l-65.73.091-30.771,44.188" fill="none" stroke="#587b68" stroke-linecap="square" stroke-linejoin="round" stroke-width="129.584"/>
                  </g>
                  <g id="Grupo_1062" data-name="Grupo 1062">
                    <g id="Grupo_1061" data-name="Grupo 1061">
                      <g id="Grupo_1059" data-name="Grupo 1059">
                        <rect id="Rectángulo_206" data-name="Rectángulo 206" width="15.24" height="9.521" transform="matrix(0.866, 0.501, -0.501, 0.866, 3414.317, 5703.273)" fill="#e4ae96"/>
                      </g>
                      <g id="Grupo_1060" data-name="Grupo 1060">
                        <path id="Trazado_4201" data-name="Trazado 4201" d="M3415.14,5732.285l-26.535-15.351a7.59,7.59,0,0,1-2.768-10.37h0a7.588,7.588,0,0,1,10.369-2.768l26.535,15.35Z" fill="#e4ae96"/>
                      </g>
                      <rect id="Rectángulo_207" data-name="Rectángulo 207" width="38.244" height="3.795" transform="translate(3415.14 5732.285) rotate(-149.95)" fill="#090909"/>
                      <rect id="Rectángulo_208" data-name="Rectángulo 208" width="7.248" height="11.384" transform="matrix(-0.866, -0.501, 0.501, -0.866, 3399.62, 5718.922)" fill="#090909"/>
                    </g>
                    <path id="Trazado_4202" data-name="Trazado 4202" d="M3516.975,5656.284l-65.73.091-30.77,44.188" fill="none" stroke="#587b68" stroke-linecap="square" stroke-linejoin="round" stroke-width="129.584"/>
                  </g>
                </g>
                <path id="Trazado_4203" data-name="Trazado 4203" d="M3522.048,5559.087l-8.474,45-39.885.083" fill="none" stroke="#e4ae96" stroke-linecap="round" stroke-linejoin="round" stroke-width="69.111"/>
                <rect id="Rectángulo_209" data-name="Rectángulo 209" width="20.894" height="16.159" rx="8.079" transform="translate(3461.119 5594.886) rotate(2.706)" fill="#dd957a"/>
                <path id="Rectángulo_210" data-name="Rectángulo 210" d="M12.254,0h0A12.254,12.254,0,0,1,24.508,12.254V39.943a0,0,0,0,1,0,0H0a0,0,0,0,1,0,0V12.254A12.254,12.254,0,0,1,12.254,0Z" transform="translate(3510.461 5548.626) rotate(8.793)" fill="#587b68"/>
              </g>
              <g id="Grupo_1081" data-name="Grupo 1081">
                <g id="Grupo_1080" data-name="Grupo 1080">
                  <path id="Trazado_4204" data-name="Trazado 4204" d="M3581.856,5564.554h-42.58V5683.14H3442.9l-32.967,55.351" fill="none" stroke="#909294" stroke-linecap="round" stroke-linejoin="round" stroke-width="29.043"/>
                  <path id="Trazado_4205" data-name="Trazado 4205" d="M3554.963,5729.669h-67.977l-17.472-17.473h-45.1" fill="none" stroke="#909294" stroke-linecap="round" stroke-linejoin="round" stroke-width="18.152"/>
                  <path id="Trazado_4206" data-name="Trazado 4206" d="M3539.042,5618.76h-93.577l.233,113.694" fill="none" stroke="#909294" stroke-linecap="round" stroke-linejoin="round" stroke-width="21.782"/>
                  <line id="Línea_123" data-name="Línea 123" y2="51.092" transform="translate(3539.276 5678.577)" fill="none" stroke="#909294" stroke-linecap="round" stroke-linejoin="round" stroke-width="18.152"/>
                  <rect id="Rectángulo_211" data-name="Rectángulo 211" width="93.578" height="29.128" transform="translate(3445.698 5649.449)" fill="#2f2f4f"/>
                  <path id="Trazado_4207" data-name="Trazado 4207" d="M3456.156,5616.383a5.943,5.943,0,0,0,5.942,5.942h57.926a5.943,5.943,0,0,0,5.943-5.942h0a5.943,5.943,0,0,0-5.943-5.942H3462.1a5.943,5.943,0,0,0-5.942,5.942Z" fill="#2f2f4f"/>
                  <path id="Trazado_4208" data-name="Trazado 4208" d="M3547.358,5564.792a5.466,5.466,0,0,0,5.467,5.466h28.318a5.467,5.467,0,0,0,5.468-5.466h0a5.467,5.467,0,0,0-5.468-5.467h-28.318a5.467,5.467,0,0,0-5.467,5.467Z" fill="#0d0d0d"/>
                  <path id="Trazado_4209" data-name="Trazado 4209" d="M3581.143,5564.792h-28.318a5.46,5.46,0,0,0-4.729,2.733,5.459,5.459,0,0,1,4.729-8.2h28.318a5.46,5.46,0,0,1,4.731,8.2A5.463,5.463,0,0,0,3581.143,5564.792Z" fill="#333"/>
                  <path id="Trazado_4210" data-name="Trazado 4210" d="M3375.331,5716.418c-1.422,2.663.334,6.375,3.921,8.292l26.554,14.184c3.588,1.917,7.651,1.312,9.073-1.351h0c1.421-2.663-.333-6.376-3.922-8.292l-26.553-14.185c-3.589-1.916-7.65-1.311-9.073,1.352Z" fill="#333"/>
                  <path id="Trazado_4211" data-name="Trazado 4211" d="M3408.116,5732.091l-26.553-14.185a8.284,8.284,0,0,0-6.529-.749,4.076,4.076,0,0,1,.3-.739c1.423-2.663,5.484-3.268,9.073-1.352l26.553,14.185c3.589,1.916,5.343,5.629,3.922,8.292a4.527,4.527,0,0,1-2.543,2.1C3413.122,5737.068,3411.384,5733.836,3408.116,5732.091Z" fill="#0d0d0d"/>
                  <g id="Grupo_1079" data-name="Grupo 1079">
                    <g id="Grupo_1065" data-name="Grupo 1065">
                      <line id="Línea_124" data-name="Línea 124" x1="52.115" y1="13.964" transform="translate(3488.355 5692.456)" fill="none" stroke="#b5b5b5" stroke-miterlimit="10" stroke-width="3.63"/>
                      <line id="Línea_125" data-name="Línea 125" x1="52.101" y2="14.012" transform="translate(3488.369 5706.419)" fill="none" stroke="#b5b5b5" stroke-miterlimit="10" stroke-width="3.63"/>
                      <line id="Línea_126" data-name="Línea 126" x1="38.081" y2="38.221" transform="translate(3502.389 5706.419)" fill="none" stroke="#b5b5b5" stroke-miterlimit="10" stroke-width="3.63"/>
                      <line id="Línea_127" data-name="Línea 127" x1="13.822" y2="52.155" transform="translate(3526.648 5706.419)" fill="none" stroke="#b5b5b5" stroke-miterlimit="10" stroke-width="3.63"/>
                      <line id="Línea_128" data-name="Línea 128" x2="14.153" y2="52.066" transform="translate(3540.47 5706.419)" fill="none" stroke="#b5b5b5" stroke-miterlimit="10" stroke-width="3.63"/>
                      <line id="Línea_129" data-name="Línea 129" x2="38.325" y2="37.98" transform="translate(3540.47 5706.419)" fill="none" stroke="#b5b5b5" stroke-miterlimit="10" stroke-width="3.63"/>
                      <line id="Línea_130" data-name="Línea 130" x2="52.192" y2="13.683" transform="translate(3540.47 5706.419)" fill="none" stroke="#b5b5b5" stroke-miterlimit="10" stroke-width="3.63"/>
                      <line id="Línea_131" data-name="Línea 131" y1="14.292" x2="52.027" transform="translate(3540.47 5692.127)" fill="none" stroke="#b5b5b5" stroke-miterlimit="10" stroke-width="3.63"/>
                      <line id="Línea_132" data-name="Línea 132" y1="38.425" x2="37.875" transform="translate(3540.47 5667.995)" fill="none" stroke="#b5b5b5" stroke-miterlimit="10" stroke-width="3.63"/>
                      <line id="Línea_133" data-name="Línea 133" y1="52.226" x2="13.541" transform="translate(3540.47 5654.193)" fill="none" stroke="#b5b5b5" stroke-miterlimit="10" stroke-width="3.63"/>
                      <line id="Línea_134" data-name="Línea 134" x1="14.435" y1="51.986" transform="translate(3526.035 5654.433)" fill="none" stroke="#b5b5b5" stroke-miterlimit="10" stroke-width="3.63"/>
                      <line id="Línea_135" data-name="Línea 135" x1="38.528" y1="37.768" transform="translate(3501.942 5668.651)" fill="none" stroke="#b5b5b5" stroke-miterlimit="10" stroke-width="3.63"/>
                    </g>
                    <g id="Grupo_1066" data-name="Grupo 1066">
                      <line id="Línea_136" data-name="Línea 136" x1="46.726" y1="26.976" transform="translate(3493.737 5679.432)" fill="none" stroke="#b5b5b5" stroke-miterlimit="10" stroke-width="3.63"/>
                      <line id="Línea_137" data-name="Línea 137" x1="53.952" y2="0.049" transform="translate(3486.51 5706.408)" fill="none" stroke="#b5b5b5" stroke-miterlimit="10" stroke-width="3.63"/>
                      <line id="Línea_138" data-name="Línea 138" x1="46.675" y2="27.063" transform="translate(3493.787 5706.408)" fill="none" stroke="#b5b5b5" stroke-miterlimit="10" stroke-width="3.63"/>
                      <line id="Línea_139" data-name="Línea 139" x1="26.849" y2="46.8" transform="translate(3513.613 5706.408)" fill="none" stroke="#b5b5b5" stroke-miterlimit="10" stroke-width="3.63"/>
                      <line id="Línea_140" data-name="Línea 140" x2="0.195" y2="53.956" transform="translate(3540.462 5706.408)" fill="none" stroke="#b5b5b5" stroke-miterlimit="10" stroke-width="3.63"/>
                      <line id="Línea_141" data-name="Línea 141" x2="27.189" y2="46.606" transform="translate(3540.462 5706.408)" fill="none" stroke="#b5b5b5" stroke-miterlimit="10" stroke-width="3.63"/>
                      <line id="Línea_142" data-name="Línea 142" x2="46.872" y2="26.725" transform="translate(3540.462 5706.408)" fill="none" stroke="#b5b5b5" stroke-miterlimit="10" stroke-width="3.63"/>
                      <line id="Línea_143" data-name="Línea 143" y1="0.339" x2="53.953" transform="translate(3540.462 5706.069)" fill="none" stroke="#b5b5b5" stroke-miterlimit="10" stroke-width="3.63"/>
                      <line id="Línea_144" data-name="Línea 144" y1="27.312" x2="46.531" transform="translate(3540.462 5679.096)" fill="none" stroke="#b5b5b5" stroke-miterlimit="10" stroke-width="3.63"/>
                      <line id="Línea_145" data-name="Línea 145" y1="46.942" x2="26.597" transform="translate(3540.462 5659.466)" fill="none" stroke="#b5b5b5" stroke-miterlimit="10" stroke-width="3.63"/>
                      <line id="Línea_146" data-name="Línea 146" x1="0.488" y1="53.951" transform="translate(3539.974 5652.458)" fill="none" stroke="#b5b5b5" stroke-miterlimit="10" stroke-width="3.63"/>
                      <line id="Línea_147" data-name="Línea 147" x1="27.44" y1="46.453" transform="translate(3513.023 5659.955)" fill="none" stroke="#b5b5b5" stroke-miterlimit="10" stroke-width="3.63"/>
                    </g>
                    <g id="Grupo_1067" data-name="Grupo 1067">
                      <line id="Línea_148" data-name="Línea 148" x1="53.953" transform="translate(3486.517 5706.419)" fill="none" stroke="#b5b5b5" stroke-miterlimit="10" stroke-width="5.446"/>
                      <line id="Línea_149" data-name="Línea 149" x1="46.7" y2="27.02" transform="translate(3493.771 5706.419)" fill="none" stroke="#b5b5b5" stroke-miterlimit="10" stroke-width="5.446"/>
                      <line id="Línea_150" data-name="Línea 150" x1="26.891" y2="46.774" transform="translate(3513.579 5706.419)" fill="none" stroke="#b5b5b5" stroke-miterlimit="10" stroke-width="5.446"/>
                      <line id="Línea_151" data-name="Línea 151" x2="0.147" y2="53.956" transform="translate(3540.47 5706.419)" fill="none" stroke="#b5b5b5" stroke-miterlimit="10" stroke-width="5.446"/>
                      <line id="Línea_152" data-name="Línea 152" x2="27.146" y2="46.629" transform="translate(3540.47 5706.419)" fill="none" stroke="#b5b5b5" stroke-miterlimit="10" stroke-width="5.446"/>
                      <line id="Línea_153" data-name="Línea 153" x2="46.847" y2="26.767" transform="translate(3540.47 5706.419)" fill="none" stroke="#b5b5b5" stroke-miterlimit="10" stroke-width="5.446"/>
                      <line id="Línea_154" data-name="Línea 154" y1="0.292" x2="53.955" transform="translate(3540.47 5706.127)" fill="none" stroke="#b5b5b5" stroke-miterlimit="10" stroke-width="5.446"/>
                      <line id="Línea_155" data-name="Línea 155" y1="27.271" x2="46.555" transform="translate(3540.47 5679.148)" fill="none" stroke="#b5b5b5" stroke-miterlimit="10" stroke-width="5.446"/>
                      <line id="Línea_156" data-name="Línea 156" y1="46.918" x2="26.639" transform="translate(3540.47 5659.5)" fill="none" stroke="#b5b5b5" stroke-miterlimit="10" stroke-width="5.446"/>
                      <line id="Línea_157" data-name="Línea 157" x1="0.438" y1="53.951" transform="translate(3540.031 5652.468)" fill="none" stroke="#b5b5b5" stroke-miterlimit="10" stroke-width="5.446"/>
                      <line id="Línea_158" data-name="Línea 158" x1="27.398" y1="46.478" transform="translate(3513.072 5659.941)" fill="none" stroke="#b5b5b5" stroke-miterlimit="10" stroke-width="5.446"/>
                      <line id="Línea_159" data-name="Línea 159" x1="46.991" y1="26.509" transform="translate(3493.479 5679.91)" fill="none" stroke="#b5b5b5" stroke-miterlimit="10" stroke-width="5.446"/>
                    </g>
                    <g id="Grupo_1078" data-name="Grupo 1078">
                      <g id="Grupo_1069" data-name="Grupo 1069">
                        <g id="Grupo_1068" data-name="Grupo 1068">
                          <path id="Trazado_4212" data-name="Trazado 4212" d="M3540.47,5652.467a53.953,53.953,0,1,1-53.953,53.953,53.953,53.953,0,0,1,53.953-53.953m0-4.278a58.056,58.056,0,1,0,22.668,4.577,57.883,57.883,0,0,0-22.668-4.577Z" fill="#363636"/>
                        </g>
                      </g>
                      <g id="Grupo_1071" data-name="Grupo 1071">
                        <g id="Grupo_1070" data-name="Grupo 1070">
                          <path id="Trazado_4213" data-name="Trazado 4213" d="M3540.47,5653.893a52.352,52.352,0,1,1-20.446,4.127,52.214,52.214,0,0,1,20.446-4.127m0-1.426a53.953,53.953,0,1,0,53.953,53.953,53.952,53.952,0,0,0-53.953-53.953Z" fill="#dbdbdb"/>
                        </g>
                      </g>
                      <g id="Grupo_1073" data-name="Grupo 1073">
                        <g id="Grupo_1072" data-name="Grupo 1072">
                          <path id="Trazado_4214" data-name="Trazado 4214" d="M3540.47,5661.514a44.762,44.762,0,1,1-17.479,3.528,44.629,44.629,0,0,1,17.479-3.528m0-1.854a46.76,46.76,0,1,0,46.761,46.76,46.76,46.76,0,0,0-46.761-46.76Z" fill="#dbdbdb"/>
                        </g>
                      </g>
                      <g id="Grupo_1075" data-name="Grupo 1075">
                        <g id="Grupo_1074" data-name="Grupo 1074">
                          <path id="Trazado_4215" data-name="Trazado 4215" d="M3532.858,5706.42a7.613,7.613,0,1,1,7.612,7.613A7.612,7.612,0,0,1,3532.858,5706.42Z" fill="#dbdbdb"/>
                        </g>
                      </g>
                      <g id="Grupo_1077" data-name="Grupo 1077">
                        <g id="Grupo_1076" data-name="Grupo 1076">
                          <path id="Trazado_4216" data-name="Trazado 4216" d="M3535.012,5706.42a5.459,5.459,0,1,1,5.458,5.459A5.46,5.46,0,0,1,3535.012,5706.42Z" fill="#595959"/>
                        </g>
                      </g>
                    </g>
                  </g>
                  <path id="Trazado_4217" data-name="Trazado 4217" d="M3413.41,5746.861a15.235,15.235,0,1,0,15.235-15.235A15.235,15.235,0,0,0,3413.41,5746.861Z" fill="#363636"/>
                  <path id="Trazado_4218" data-name="Trazado 4218" d="M3420.274,5746.861a8.372,8.372,0,1,0,8.371-8.37A8.371,8.371,0,0,0,3420.274,5746.861Z" fill="#6d6d6d"/>
                  <path id="Trazado_4219" data-name="Trazado 4219" d="M3423.91,5746.861a4.735,4.735,0,1,0,4.735-4.735A4.736,4.736,0,0,0,3423.91,5746.861Z" fill="#333"/>
                  <path id="Trazado_4220" data-name="Trazado 4220" d="M3445.7,5732.455c0,7.963-7.625,14.406-17.052,14.406" fill="none" stroke="#0d0d0d" stroke-linecap="round" stroke-linejoin="round" stroke-width="36.304"/>
                  <path id="Trazado_4221" data-name="Trazado 4221" d="M3425.873,5746.861a2.771,2.771,0,1,0,2.772-2.772A2.772,2.772,0,0,0,3425.873,5746.861Z" fill="#cfcfcf"/>
                </g>
              </g>
            </g>
          </g>
          <g id="Grupo_1087" data-name="Grupo 1087">
            <rect id="Rectángulo_212" data-name="Rectángulo 212" width="17.068" height="5.893" transform="translate(3488.859 5547.412) rotate(4.063)" fill="#e4ae96"/>
            <path id="Trazado_4222" data-name="Trazado 4222" d="M3509.585,5487.177l-7.717.435c-7.788.112-16.012-5-19.335,4.351-.685,1.93-5.359,5.2-5.888,12.643l-1.18,16.622a18.891,18.891,0,0,0,17.48,20.108l9.752.693a18.947,18.947,0,0,0,20.209-17.432l1.18-16.622C3524.821,5497.637,3516.911,5488.583,3509.585,5487.177Z" fill="#949494"/>
            <rect id="Rectángulo_213" data-name="Rectángulo 213" width="17.068" height="5.362" transform="translate(3489.059 5544.595) rotate(4.063)" fill="#e4ae96"/>
            <rect id="Rectángulo_214" data-name="Rectángulo 214" width="17.068" height="5.648" transform="translate(3489.059 5544.595) rotate(4.063)" fill="#dd957a"/>
            <path id="Rectángulo_215" data-name="Rectángulo 215" d="M10.52,0H31.293a10.52,10.52,0,0,1,10.52,10.52V27A20.907,20.907,0,0,1,20.907,47.9h0A20.907,20.907,0,0,1,0,27V10.52A10.52,10.52,0,0,1,10.52,0Z" transform="translate(3479.961 5498.047) rotate(4.063)" fill="#e4ae96"/>
            <path id="Trazado_4223" data-name="Trazado 4223" d="M3518.844,5520.135c3.538-5.287,8.959-2.223,8.634,2.356s-3.937,10.285-9.5,9.89Z" fill="#e4ae96"/>
            <path id="Trazado_4224" data-name="Trazado 4224" d="M3479.39,5517.333c-1.787-5.666-8.555-3.468-8.88,1.111s3.412,10.808,8.01,11.134Z" fill="#e4ae96"/>
            <path id="Trazado_4225" data-name="Trazado 4225" d="M3489,5498.689s4.457,5.067,10.335,5.484,9.68-4.208,12.275-3.878-18.276-9.62-18.276-9.62Z" fill="#949494"/>
            <path id="Trazado_4226" data-name="Trazado 4226" d="M3504.39,5531.841c-.178,2.5-5.263,3.113-6.419,3.031s-6.1-1.409-5.926-3.908Z" fill="#fff" stroke="#9c534a" stroke-miterlimit="10" stroke-width="4.501"/>
            <g id="Grupo_1085" data-name="Grupo 1085">
              <g id="Grupo_1084" data-name="Grupo 1084">
                <path id="Trazado_4227" data-name="Trazado 4227" d="M3490.356,5517.492a1.762,1.762,0,1,1-1.634-1.859A1.75,1.75,0,0,1,3490.356,5517.492Z"/>
                <path id="Trazado_4228" data-name="Trazado 4228" d="M3511.475,5518.992a1.761,1.761,0,1,1-1.633-1.859A1.75,1.75,0,0,1,3511.475,5518.992Z"/>
              </g>
              <path id="Trazado_4229" data-name="Trazado 4229" d="M3501.1,5526.656c-.068.958-1.26,1.653-2.663,1.554s-2.484-.957-2.416-1.914,1.26-1.653,2.662-1.554S3501.173,5525.7,3501.1,5526.656Z" fill="#cf9985"/>
              <line id="Línea_160" data-name="Línea 160" x2="6.535" y2="0.464" transform="translate(3507.332 5514.382)" fill="#fff" stroke="#323030" stroke-miterlimit="10" stroke-width="4.942"/>
              <line id="Línea_161" data-name="Línea 161" x2="6.293" y2="0.447" transform="translate(3485.79 5512.852)" fill="#fff" stroke="#323030" stroke-miterlimit="10" stroke-width="4.942"/>
              <rect id="Rectángulo_216" data-name="Rectángulo 216" width="13.71" height="9.043" rx="4.522" transform="translate(3481.999 5513.541) rotate(4.063)" fill="none" stroke="#383838" stroke-linecap="round" stroke-miterlimit="10" stroke-width="5.735"/>
              <path id="Rectángulo_217" data-name="Rectángulo 217" d="M4.521,0H9.189A4.522,4.522,0,0,1,13.71,4.522v0A4.521,4.521,0,0,1,9.189,9.043H4.522A4.522,4.522,0,0,1,0,4.522v0A4.521,4.521,0,0,1,4.521,0Z" transform="translate(3503.319 5515.055) rotate(4.063)" fill="none" stroke="#383838" stroke-linecap="round" stroke-miterlimit="10" stroke-width="5.735"/>
              <line id="Línea_162" data-name="Línea 162" x2="7.503" y2="0.533" transform="translate(3495.163 5517.896)" fill="none" stroke="#383838" stroke-miterlimit="10" stroke-width="7.413"/>
              <line id="Línea_163" data-name="Línea 163" y1="1.363" x2="3.826" transform="translate(3516.621 5518.22)" fill="none" stroke="#383838" stroke-miterlimit="10" stroke-width="6.193"/>
              <line id="Línea_164" data-name="Línea 164" x1="3.595" y1="1.89" transform="translate(3478.47 5515.238)" fill="none" stroke="#383838" stroke-miterlimit="10" stroke-width="6.193"/>
            </g>
            <path id="Trazado_4230" data-name="Trazado 4230" d="M3488.738,5530.729a2.779,2.779,0,0,0-.907,3.422" fill="none" stroke="#dd957a" stroke-miterlimit="10" stroke-width="2.25"/>
            <path id="Trazado_4231" data-name="Trazado 4231" d="M3507.113,5532.034a2.777,2.777,0,0,1,.415,3.516" fill="none" stroke="#dd957a" stroke-miterlimit="10" stroke-width="2.25"/>
            <path id="Trazado_4232" data-name="Trazado 4232" d="M3511.309,5520.658a2.777,2.777,0,0,1,2.16,2.8" fill="none" stroke="#dd957a" stroke-miterlimit="10" stroke-width="2.25"/>
            <path id="Trazado_4233" data-name="Trazado 4233" d="M3511.869,5519.985a2.778,2.778,0,0,1,3.081,1.744" fill="none" stroke="#dd957a" stroke-miterlimit="10" stroke-width="2.25"/>
            <path id="Trazado_4234" data-name="Trazado 4234" d="M3486.791,5518.916a2.778,2.778,0,0,0-2.534,2.472" fill="none" stroke="#dd957a" stroke-miterlimit="10" stroke-width="2.25"/>
            <path id="Trazado_4235" data-name="Trazado 4235" d="M3486.332,5518.171a2.779,2.779,0,0,0-3.3,1.291" fill="none" stroke="#dd957a" stroke-miterlimit="10" stroke-width="2.25"/>
            <g id="Grupo_1086" data-name="Grupo 1086">
              <path id="Trazado_4236" data-name="Trazado 4236" d="M3492.494,5507.1a55.133,55.133,0,0,1,6.553-.116,62.274,62.274,0,0,1,6.728,1.059" fill="none" stroke="#dd957a" stroke-miterlimit="10" stroke-width="2.056"/>
              <path id="Trazado_4237" data-name="Trazado 4237" d="M3492.4,5508.365a55.357,55.357,0,0,1,6.553-.116,62.435,62.435,0,0,1,6.728,1.06" fill="none" stroke="#dd957a" stroke-miterlimit="10" stroke-width="2.056"/>
              <path id="Trazado_4238" data-name="Trazado 4238" d="M3492.314,5509.628a55.186,55.186,0,0,1,6.554-.116,62.55,62.55,0,0,1,6.727,1.059" fill="none" stroke="#dd957a" stroke-miterlimit="10" stroke-width="2.056"/>
            </g>
            <path id="Trazado_4239" data-name="Trazado 4239" d="M3493.321,5535.353s4.969,2.863,10.088.276C3503.409,5535.629,3498.246,5539.836,3493.321,5535.353Z" fill="#dd957a"/>
            <path id="Trazado_4240" data-name="Trazado 4240" d="M3490.248,5496.992s5.764,8.348,19.667,2.837a26.587,26.587,0,0,1-19.98-2.86" fill="#aaa8a8"/>
            <path id="Trazado_4241" data-name="Trazado 4241" d="M3521.234,5507.131a1.643,1.643,0,0,0,2.291-.354S3523.7,5509.153,3521.234,5507.131Z" fill="#aaa8a8"/>
            <path id="Trazado_4242" data-name="Trazado 4242" d="M3521.314,5509.131a1.642,1.642,0,0,0,2.29-.354S3523.779,5511.152,3521.314,5509.131Z" fill="#aaa8a8"/>
            <path id="Trazado_4243" data-name="Trazado 4243" d="M3521.2,5510.674a1.643,1.643,0,0,0,2.291-.354S3523.669,5512.695,3521.2,5510.674Z" fill="#aaa8a8"/>
            <path id="Trazado_4244" data-name="Trazado 4244" d="M3479.683,5503.515s-1.136.732-2.218-.674C3477.465,5502.841,3476.956,5505.168,3479.683,5503.515Z" fill="#aaa8a8"/>
            <path id="Trazado_4245" data-name="Trazado 4245" d="M3479.321,5505.484s-1.136.731-2.217-.675C3477.1,5504.809,3476.595,5507.136,3479.321,5505.484Z" fill="#aaa8a8"/>
            <path id="Trazado_4246" data-name="Trazado 4246" d="M3479.212,5507.027s-1.136.732-2.218-.675C3476.994,5506.352,3476.485,5508.679,3479.212,5507.027Z" fill="#aaa8a8"/>
            <ellipse id="Elipse_40" data-name="Elipse 40" cx="4.42" cy="8.534" rx="4.42" ry="8.534" transform="matrix(0.071, -0.997, 0.997, 0.071, 3488.128, 5557.698)" fill="#e4ae96"/>
          </g>
        </g>
        <g id="Grupo_1092" data-name="Grupo 1092">
          <path id="Trazado_4247" data-name="Trazado 4247" d="M4011,5094.079c0,4.859-4.256,8.8-9.506,8.8h-144.3c-5.249,0-9.506-3.94-9.506-8.8v-25.937c0-4.859,4.257-8.8,9.506-8.8h144.3c5.25,0,9.506,3.94,9.506,8.8Z" fill="#d2e3ec"/>
          <path id="Trazado_4248" data-name="Trazado 4248" d="M3988.119,4914.937a8.568,8.568,0,0,0-8.568-8.568H3879.47a8.568,8.568,0,0,0-8.568,8.568l-2.357,60.878a8.721,8.721,0,0,0,8.865,8.568h104.2a8.721,8.721,0,0,0,8.865-8.568Z" fill="#b0cad6"/>
          <path id="Trazado_4249" data-name="Trazado 4249" d="M3970.746,4924c-2.672-5.8-23.029-9-41.236-8.282-18.206-.72-38.563,2.485-41.235,8.282-8.07,17.509,3.213,61.854,3.213,61.854h76.045S3978.816,4941.5,3970.746,4924Z" fill="#ebf9ff"/>
          <path id="Trazado_4250" data-name="Trazado 4250" d="M3973.45,4950.131c-7.135-1.52-18.863-3.542-38.255-3.542-1.865,0-3.785.029-5.664.087-1.92-.058-3.84-.087-5.705-.087-19.392,0-31.12,2.022-38.255,3.542l-.575.122.043.587a236.307,236.307,0,0,0,5.8,35.176l.129.509h77.093l.129-.509a236.451,236.451,0,0,0,5.8-35.176l.043-.587Z" fill="#d2e3ec"/>
          <path id="Trazado_4251" data-name="Trazado 4251" d="M4016.7,5054.4l-20.42-84.946a4,4,0,0,0-.717-1.712c-1.379-4.722-5.608-9.314-10.223-10.435-11.06-2.685-20.463-7.344-50.149-7.344-1.956,0-3.847.031-5.685.086-1.837-.055-3.728-.086-5.684-.086-29.686,0-39.09,4.659-50.149,7.344-4.615,1.121-8.844,5.713-10.224,10.435a4.017,4.017,0,0,0-.716,1.712l-20.42,84.946a43.092,43.092,0,0,0-1.268,10.842c-.361,13.2,6.614,16.459,6.614,16.459h163.695s6.975-3.262,6.614-16.459A43.092,43.092,0,0,0,4016.7,5054.4Z" fill="#cee3ea"/>
          <g id="Grupo_1091" data-name="Grupo 1091">
            <path id="Trazado_4252" data-name="Trazado 4252" d="M3946.681,4913.787" fill="#311f11"/>
            <path id="Trazado_4253" data-name="Trazado 4253" d="M3927.667,4845.019h0a27.39,27.39,0,0,0-24.03,30.381l1.142,9.791.045-.006,4.678,37.409a14.877,14.877,0,0,0,16.5,13.053l28.646-3.343c6.043-.705,6.56-5.653,5.855-11.7l-1.315-41.766-1.041-8.924-.1-.867A27.391,27.391,0,0,0,3927.667,4845.019Z" fill="#5d3410"/>
            <path id="Trazado_4254" data-name="Trazado 4254" d="M3928.437,4924.568H3942.7v-20.434l-14.259.749Z" fill="#ebc291"/>
            <path id="Trazado_4255" data-name="Trazado 4255" d="M3928.436,4912.813a18.716,18.716,0,0,0,6.326,1.246,21.039,21.039,0,0,0,7.934-1.694v-8.23h-14.26Z" fill="#d7a079"/>
            <path id="Trazado_4256" data-name="Trazado 4256" d="M3945.538,4882.661a7.647,7.647,0,0,0,7.334,8.2,8.115,8.115,0,0,0,8.589-7.3,7.647,7.647,0,0,0-7.333-8.2A8.115,8.115,0,0,0,3945.538,4882.661Z" fill="#ebc291"/>
            <path id="Trazado_4257" data-name="Trazado 4257" d="M3955.732,4884.648c1.558,13.347-10.385,25.062-20.97,26.3-8.445.688-21.816-5.281-25.587-20.654l-3.232-16.01c-1.558-13.348,8.525-23.455,21.625-24.984s24.755,6.14,26.313,19.488Z" fill="#ebc291"/>
            <path id="Trazado_4258" data-name="Trazado 4258" d="M3918.128,4891.334a5.333,5.333,0,0,1-4.014-1.684,1.337,1.337,0,0,1,2.052-1.714,2.939,2.939,0,0,0,2.745.642c1.958-.4,2.27-1.412,2.282-1.454a1.314,1.314,0,0,1,1.563-1.031,1.358,1.358,0,0,1,1.05,1.594c-.2,1.016-1.341,2.9-4.363,3.512A6.6,6.6,0,0,1,3918.128,4891.334Z" fill="#452812"/>
            <path id="Trazado_4259" data-name="Trazado 4259" d="M3938.137,4861.415c-9.836,12.25-27.566,12.3-30.561,26.392,0,0-1.144-5.511-2.485-11.586-2.127-9.63,3.343-25.887,22.11-30.363,19.383-4.624,30.252,12.177,30,30.3l-1.906,2.117S3943.4,4872.516,3938.137,4861.415Z" fill="#5d3410"/>
            <path id="Trazado_4260" data-name="Trazado 4260" d="M3913.478,4883.816a1.338,1.338,0,0,1-.611-2.528,15.073,15.073,0,0,1,9.2-1.793,1.337,1.337,0,0,1-.524,2.622,12.734,12.734,0,0,0-7.458,1.552A1.326,1.326,0,0,1,3913.478,4883.816Z" fill="#5d3410"/>
            <path id="Trazado_4261" data-name="Trazado 4261" d="M3940.876,4887.189a4.715,4.715,0,0,1-4.095-1.876,1.337,1.337,0,0,1,2.26-1.429c.061.079.719.862,2.631.566a2.884,2.884,0,0,0,2.345-1.549,1.337,1.337,0,1,1,2.519.9,5.544,5.544,0,0,1-4.454,3.294A7.75,7.75,0,0,1,3940.876,4887.189Z" fill="#452812"/>
            <path id="Trazado_4262" data-name="Trazado 4262" d="M3936.282,4879.48a1.337,1.337,0,0,1-.709-2.471,15.115,15.115,0,0,1,9.267-1.509,1.337,1.337,0,1,1-.318,2.655,12.748,12.748,0,0,0-7.549,1.133A1.337,1.337,0,0,1,3936.282,4879.48Z" fill="#5d3410"/>
            <path id="Trazado_4263" data-name="Trazado 4263" d="M3934.43,4904.085c-.332.049-.674.081-1.021.1-2.681.12-5.219-.817-6.174-2.281a1.062,1.062,0,0,1,1.78-1.161c.461.707,2.235,1.412,4.3,1.319a5.949,5.949,0,0,0,5.089-2.881,1.063,1.063,0,1,1,1.877,1A7.657,7.657,0,0,1,3934.43,4904.085Z" fill="#694018"/>
            <path id="Trazado_4264" data-name="Trazado 4264" d="M3953.657,4918.73c-.282-.131-.57-.259-.867-.383a46.036,46.036,0,0,0-6.635-2.328c-1.3-.31-2.452-.551-3.459-.738a9.51,9.51,0,0,1-8.776,5.872c-5.874.2-5.483-6.32-5.483-6.32a41.2,41.2,0,0,0-5.179.6c-14.683,3.254-14.316,18.1-13.982,29.094.844-.6,1.38-.949,1.38-.949a8.7,8.7,0,0,0,3.979,5.6s23.205,21.975,29.482,19.542c13.4-5.191,17.37-16.62,18.379-25.644q.078-.7.155-1.313C3963.791,4932.728,3961.5,4922.383,3953.657,4918.73Z" fill="#d48691"/>
            <g id="Grupo_1090" data-name="Grupo 1090">
              <path id="Trazado_4265" data-name="Trazado 4265" d="M3925.413,4934.8c7.182,9.913,11.321,21.023,11.4,28.207,0,0,2.895,11.975-6.331,15-15.664,5.133-24.428.527-37.017-16.85s-24.438-38.592-8.993-48.956C3901.921,4900.489,3912.823,4917.426,3925.413,4934.8Z" fill="#fefdf3"/>
              <path id="Trazado_4266" data-name="Trazado 4266" d="M3913.224,4923.162a78.116,78.116,0,0,0-6.877-8.68c-5.355-5.984-13.231-4.89-17.642-2.691-8.289,4.333-11.059,13.2-6.9,21.152l1.222,2.336c.1.186.2.368.3.549a20.279,20.279,0,0,0,7.939,7.391c4.211,1.952,8.391,1.979,13.219.174C3913.246,4940.119,3918.646,4931.956,3913.224,4923.162Z" fill="#ebc291"/>
              <path id="Trazado_4267" data-name="Trazado 4267" d="M3894.354,4940.577c.877.994,2.614.893,3.887-.227s1.59-2.833.713-3.828-2.616-.893-3.888.228S3893.476,4939.583,3894.354,4940.577Z" fill="#e29879"/>
              <path id="Trazado_4268" data-name="Trazado 4268" d="M3913.224,4923.162s-.125-.193-.363-.538a2.706,2.706,0,0,0-2.038,2.276,2.265,2.265,0,0,0,2.288,2.489,2.779,2.779,0,0,0,1.763-.6A15.169,15.169,0,0,0,3913.224,4923.162Z" fill="#e29879"/>
              <g id="Grupo_1089" data-name="Grupo 1089">
                <path id="Trazado_4269" data-name="Trazado 4269" d="M3898.7,4929.5a.968.968,0,0,0-1.168.709c-.777,3.17-4.078,2.872-4.216,2.858a.966.966,0,0,0-.214,1.92,6.541,6.541,0,0,0,2.546-.265,5.371,5.371,0,0,0,3.761-4.053A.97.97,0,0,0,3898.7,4929.5Z" fill="#834f1c"/>
                <path id="Trazado_4270" data-name="Trazado 4270" d="M3909.461,4921.212a.967.967,0,0,0-1.068.851,2.683,2.683,0,0,1-.918,1.984,2.218,2.218,0,0,1-1.594.285.967.967,0,0,0-1.162.709.967.967,0,0,0,.708,1.169,4.44,4.44,0,0,0,1.778,0,3.756,3.756,0,0,0,.381-.1,3.609,3.609,0,0,0,.984-.48,4.477,4.477,0,0,0,1.743-3.358A.968.968,0,0,0,3909.461,4921.212Z" fill="#834f1c"/>
              </g>
              <path id="Trazado_4271" data-name="Trazado 4271" d="M3909.7,4932.336a.78.78,0,0,0-.748-.077,1.116,1.116,0,0,0-.611.771l-.044.209a2.6,2.6,0,0,1-1.006,1.914,2.96,2.96,0,0,1-2.156.508,1.391,1.391,0,0,0-1.018.195.785.785,0,0,0-.329.523,1.026,1.026,0,0,0,.9,1.091h0a4.335,4.335,0,0,0,1.826,0,5.3,5.3,0,0,0,1.5-.556,3.832,3.832,0,0,0,2.029-3.017C3910.1,4933.5,3910.228,4932.67,3909.7,4932.336Z" fill="#834f1c"/>
            </g>
            <path id="Trazado_4272" data-name="Trazado 4272" d="M3949.412,4941.794c-2.117,7.688-3.844,19.926-6.63,22.117,0,0-3.343,2.452-11.778,1.57-4.973-.519-4.574-5.169-10.34-6.908a25.322,25.322,0,0,0-3.087-.512c-.583-.1-3.43-.268-4.234-.258-.907.012-2.214-.1-2.854.619-.754.848.274,1.963,1.192,2.293.59.214,6.978.8,6.755,2.037-.245,1.36-3.459.712-4.368.576-1.238-.183-5.957-.909-7.126-1.122-.816-.147-2.861-.922-3.379.227-.509,1.129,1.157,1.566,1.772,2.35.564.721.423,1.476.818,2.073,3.41,5.162,9.081,6.956,14.763,8.251a39.97,39.97,0,0,0,5.993,1.155c7.844,1.359,15.747,1.635,19.779.073,13.4-5.194,14.8-24.232,15.809-33.252C3957.922,4940.4,3951.056,4940.149,3949.412,4941.794Z" fill="#ebc291"/>
            <path id="Trazado_4273" data-name="Trazado 4273" d="M3903.76,4961.229l.007,0,.063-.006C3903.806,4961.22,3903.784,4961.226,3903.76,4961.229Z" fill="#d7a079"/>
            <path id="Trazado_4274" data-name="Trazado 4274" d="M3886.592,4914.512c-1.8,1.822-1.843,4.264.47,5.811,3.9,2.607,10.466-1.58,10.466-1.58s-2.589.327-3.743-2.823C3892.554,4912.555,3889.478,4911.59,3886.592,4914.512Z" fill="#834f1c" opacity="0.5"/>
          </g>
        </g>
      </g>
    </g>
    <circle id="Elipse_42" data-name="Elipse 42" cx="98.333" cy="98.333" r="98.333" transform="translate(623.439 2418.33)" fill="none" stroke="#97c7ea" stroke-miterlimit="10" stroke-width="6"/>
  </g>
</svg>
