<svg xmlns="http://www.w3.org/2000/svg" xmlns:xlink="http://www.w3.org/1999/xlink" width="202.667" height="202.667" viewBox="0 0 202.667 202.667">
  <defs>
    <clipPath id="clip-path">
      <circle id="Elipse_32" data-name="Elipse 32" cx="98.333" cy="98.333" r="98.333" transform="translate(3826.373 9308.608)" fill="none"/>
    </clipPath>
  </defs>
  <g id="Grupo_2802" data-name="Grupo 2802" transform="translate(-616.66 -6899.587)">
    <g id="Grupo_723" data-name="Grupo 723" transform="translate(-3205.602 -2407.48)">
      <g id="Grupo_722" data-name="Grupo 722" clip-path="url(#clip-path)">
        <g id="Grupo_721" data-name="Grupo 721">
          <g id="Grupo_705" data-name="Grupo 705">
            <g id="Grupo_700" data-name="Grupo 700">
              <path id="Trazado_1844" data-name="Trazado 1844" d="M3893.042,9480.351l-.643-4.582a8.382,8.382,0,0,1,7.584-9.064l1.314-.117a8.382,8.382,0,0,1,9.065,7.583l.642,4.582a8.381,8.381,0,0,1-7.583,9.065l-1.315.116A8.381,8.381,0,0,1,3893.042,9480.351Z" fill="#e6b69e"/>
              <path id="Trazado_1845" data-name="Trazado 1845" d="M3900.111,9466.693l1.058-.1c.258-.022.513-.028.767-.028a8.511,8.511,0,0,0-6.7,9.049l.619,4.325a8.513,8.513,0,0,0,8.438,7.729,8.427,8.427,0,0,1-1,.155l-1.058.095a8.512,8.512,0,0,1-9.205-7.7l-.619-4.324A8.509,8.509,0,0,1,3900.111,9466.693Z" fill="#ca8d75"/>
              <rect id="Rectángulo_97" data-name="Rectángulo 97" width="5.176" height="10.854" rx="1.83" transform="translate(3916.265 9476.071) rotate(128.619)" fill="#e6b69e"/>
            </g>
            <g id="Grupo_701" data-name="Grupo 701">
              <path id="Trazado_1846" data-name="Trazado 1846" d="M3900.49,9474.04a7.474,7.474,0,0,0,8.109-6.643c3.02-28.108,12.045-55.119,12.135-55.39a7.472,7.472,0,1,0-14.162-4.771c-.392,1.164-9.639,28.846-12.833,58.563a7.473,7.473,0,0,0,6.632,8.229Z" fill="#e7e6e7"/>
            </g>
            <g id="Grupo_704" data-name="Grupo 704">
              <g id="Grupo_702" data-name="Grupo 702">
                <rect id="Rectángulo_98" data-name="Rectángulo 98" width="77.058" height="4.794" transform="matrix(-0.091, 0.996, -0.996, -0.091, 3926.181, 9427.118)" fill="#8d8a89"/>
                <rect id="Rectángulo_99" data-name="Rectángulo 99" width="77.058" height="4.794" transform="translate(3901.293 9424.838) rotate(95.235)" fill="#8d8a89"/>
              </g>
              <rect id="Rectángulo_100" data-name="Rectángulo 100" width="70.47" height="4.794" transform="matrix(0.091, -0.996, 0.996, 0.091, 3892.575, 9604.403)" fill="#8d8a89"/>
              <rect id="Rectángulo_101" data-name="Rectángulo 101" width="4.794" height="20.198" transform="translate(3896.074 9481.796) rotate(-84.765)" fill="#8d8a89"/>
              <g id="Grupo_703" data-name="Grupo 703">
                <path id="Trazado_1847" data-name="Trazado 1847" d="M3901.048,9538.2l18.089-34.757-4.5-2.341-12.369,23.767-7.845-25.619-4.849,1.485Z" fill="#8d8a89"/>
              </g>
              <path id="Trazado_1848" data-name="Trazado 1848" d="M3888.948,9607.071l11.485,1.053.362-11.575-10.1-.926Z" fill="#353330"/>
              <rect id="Rectángulo_102" data-name="Rectángulo 102" width="7.468" height="7.425" transform="translate(3904.458 9541.905) rotate(-174.766)" fill="#353330"/>
              <rect id="Rectángulo_103" data-name="Rectángulo 103" width="43.102" height="10.876" transform="translate(3932.558 9430.48) rotate(-174.765)" fill="#353330"/>
            </g>
          </g>
          <g id="Grupo_710" data-name="Grupo 710">
            <g id="Grupo_706" data-name="Grupo 706">
              <path id="Trazado_1849" data-name="Trazado 1849" d="M3901.533,9572.747c-1.429-2.558-14.01-25.449-15.873-41.119-.493-4.14.078-10.025,12.635-32.049,6.029-10.573,12.068-20.021,12.322-20.418l17.262,11.051c-.053.083-5.387,8.428-10.831,17.867-8.644,14.986-10.523,20.456-10.921,21.96,1.556,10.026,10.279,27.3,13.3,32.717Z" fill="#373952"/>
            </g>
            <g id="Grupo_707" data-name="Grupo 707">
              <path id="Trazado_1850" data-name="Trazado 1850" d="M3932.17,9584.406l-2.549-4.885.28-.146-18.185-34.843-22.309,11.644,14.36,27.514-12.532,6.539a6.365,6.365,0,0,0-2.689,8.563l3.108,5.955a6.346,6.346,0,0,0,8.562,2.689L3929.783,9592A5.63,5.63,0,0,0,3932.17,9584.406Z" fill="#dfdede"/>
              <path id="Trazado_1851" data-name="Trazado 1851" d="M3898.727,9586.319l-7.492,3.909a6.31,6.31,0,0,0-2.873,3.1l32.448,3.362,8.973-4.685a5.6,5.6,0,0,0,2.3-2.229Z" fill="#f8f8f9"/>
              <path id="Trazado_1852" data-name="Trazado 1852" d="M3929.621,9579.521l.28-.146-1.363-2.612L3889.7,9601l1.959,3.752a6.307,6.307,0,0,0,2.813,2.745L3932,9584.078Z" fill="#efedee"/>
              <path id="Trazado_1853" data-name="Trazado 1853" d="M3918.972,9558.435l-21.414,13.359,3.73,7.146,21.414-13.358Z" fill="#f8f8f9"/>
              <path id="Trazado_1854" data-name="Trazado 1854" d="M3912.743,9546.5l-23.163,10.007,3.729,7.146,23.163-10.008Z" fill="#f8f8f9"/>
              <path id="Trazado_1855" data-name="Trazado 1855" d="M3896.278,9569.341h28.386l-4.2-8.039h-28.386Z" fill="#efedee"/>
              <path id="Trazado_1856" data-name="Trazado 1856" d="M3925.213,9570.393l-25.838,4.881,3.887,7.446,25.838-4.881Z" fill="#efedee"/>
            </g>
            <g id="Grupo_709" data-name="Grupo 709">
              <g id="Grupo_708" data-name="Grupo 708">
                <rect id="Rectángulo_104" data-name="Rectángulo 104" width="12.417" height="31.001" transform="translate(3937.656 9569.341)" fill="#e6b69e"/>
                <path id="Rectángulo_105" data-name="Rectángulo 105" d="M5.413,0H27.97a5.413,5.413,0,0,1,5.413,5.413v5.113A4.784,4.784,0,0,1,28.6,15.31H5.413A5.413,5.413,0,0,1,0,9.9V5.413A5.413,5.413,0,0,1,5.413,0Z" transform="translate(3916.725 9592.701)" fill="#e6b69e"/>
              </g>
              <rect id="Rectángulo_106" data-name="Rectángulo 106" width="12.58" height="11.36" transform="translate(3950.154 9588.656) rotate(180)" fill="#ca8d75"/>
              <rect id="Rectángulo_107" data-name="Rectángulo 107" width="22.32" height="103.455" transform="translate(3933.44 9480.406)" fill="#373952"/>
            </g>
          </g>
          <path id="Trazado_1857" data-name="Trazado 1857" d="M3903.038,9490.911l.625-71.5c0-13.525,9.425-24.489,21.05-24.489H3938c11.625,0,21.05,10.964,21.05,24.489l.625,71.5Z" fill="#dfdede"/>
          <g id="Grupo_713" data-name="Grupo 713">
            <ellipse id="Elipse_29" data-name="Elipse 29" cx="35.831" cy="33.125" rx="35.831" ry="33.125" transform="translate(3894.246 9319.055)" fill="#292421"/>
            <ellipse id="Elipse_30" data-name="Elipse 30" cx="7.213" cy="12.538" rx="7.213" ry="12.538" transform="translate(3923.099 9384.44)" fill="#e6b69e"/>
            <ellipse id="Elipse_31" data-name="Elipse 31" cx="7.213" cy="6.688" rx="7.213" ry="6.688" transform="translate(3923.099 9384.44)" fill="#ca8d75"/>
            <path id="Trazado_1858" data-name="Trazado 1858" d="M3954.89,9365.883c0,4.637-.557,8.4,2.882,8.4s9.573-3.76,9.573-8.4-2.788-8.4-6.227-8.4S3954.89,9361.246,3954.89,9365.883Z" fill="#e6b69e"/>
            <path id="Trazado_1859" data-name="Trazado 1859" d="M3960.113,9361.261c0,16.519-13.106,31.82-29.564,31.82s-30.036-15.3-30.036-31.82a29.8,29.8,0,1,1,59.6,0Z" fill="#e6b69e"/>
            <path id="Trazado_1860" data-name="Trazado 1860" d="M3960.113,9361.261c0,16.519-13.106,31.82-29.564,31.82s-30.036-15.3-30.036-31.82a29.8,29.8,0,1,1,59.6,0Z" fill="#e6b69e"/>
            <path id="Trazado_1861" data-name="Trazado 1861" d="M3960.113,9361.261c0,16.519-13.106,31.82-29.564,31.82s-30.036-15.3-30.036-31.82a29.8,29.8,0,1,1,59.6,0Z" fill="#e6b69e"/>
            <path id="Trazado_1862" data-name="Trazado 1862" d="M3900.065,9357.487s4.884-11.53,9.022-13.009c0,0,10.879,8.811,19.836,7.214,0,0-7.716-5.854-7.538-8.869,0,0,34.753,18.4,35.736,24,0,0,2.983-32.337-22.521-31.984s-29,4.967-29,4.967Z" fill="#ca8d75"/>
            <path id="Trazado_1863" data-name="Trazado 1863" d="M3908.791,9335.965s-18.566,5.912-13.008,29.918l6.859,4.257s11.352-33.466,6.858-34.175" fill="#302924"/>
            <path id="Trazado_1864" data-name="Trazado 1864" d="M3906.293,9365.883c0,4.637.557,8.4-2.882,8.4s-9.573-3.76-9.573-8.4,2.788-8.4,6.227-8.4S3906.293,9361.246,3906.293,9365.883Z" fill="#e6b69e"/>
            <path id="Trazado_1865" data-name="Trazado 1865" d="M3957.038,9358.876l.19,2.4,4.754-6.139s-5.21-14.084-7.516-15.856-2.72,5.5-2.867,5.765S3957.038,9358.876,3957.038,9358.876Z" fill="#292421"/>
            <path id="Trazado_1866" data-name="Trazado 1866" d="M3910.21,9329.461s-8.041,18.8,18.92,20.576c0,0-5.558-7.568-5.2-9.106,0,0,32.756,15.964,33.348,26.962,0,0,6.5-26.488-16.083-36.776S3913.521,9324.494,3910.21,9329.461Z" fill="#302924"/>
            <path id="Trazado_1867" data-name="Trazado 1867" d="M3939.418,9334.838c-12.534-7.2-24.3-11.055-27.808-7.2,1.1-.016,10.029,3.16,11.637,3.716,9.924,3.427,32.456,18.527,33.976,36.016,0,.016,0,.032.005.048v0l.9-7.057C3958.33,9351.728,3955.5,9344.078,3939.418,9334.838Z" fill="#3a312c"/>
            <path id="Trazado_1868" data-name="Trazado 1868" d="M3911.61,9327.637s-1.274,16.774,17.52,22.4C3929.13,9350.037,3906.27,9346.152,3911.61,9327.637Z" fill="#3a312c"/>
            <path id="Trazado_1869" data-name="Trazado 1869" d="M3911.61,9327.637s41.348,21.8,45.694,39.188C3957.3,9366.825,3952.388,9345.325,3911.61,9327.637Z" fill="#3a312c"/>
            <path id="Trazado_1870" data-name="Trazado 1870" d="M3910.21,9337.384s-11.66,7.694-11.625,20.343C3898.585,9357.727,3906.544,9338.566,3910.21,9337.384Z" fill="#3a312c"/>
            <path id="Trazado_1871" data-name="Trazado 1871" d="M3895.665,9364.286a9.824,9.824,0,0,0,7.745,8.515A8.534,8.534,0,0,1,3895.665,9364.286Z" fill="#d19681"/>
            <path id="Trazado_1872" data-name="Trazado 1872" d="M3964.974,9364.286a9.824,9.824,0,0,1-7.746,8.515A8.536,8.536,0,0,0,3964.974,9364.286Z" fill="#d19681"/>
            <g id="Grupo_712" data-name="Grupo 712">
              <g id="Grupo_711" data-name="Grupo 711">
                <path id="Trazado_1873" data-name="Trazado 1873" d="M3919.493,9363.528a2.6,2.6,0,1,1-2.6-2.6A2.6,2.6,0,0,1,3919.493,9363.528Z" fill="#302924"/>
                <path id="Trazado_1874" data-name="Trazado 1874" d="M3943.971,9363.528a2.6,2.6,0,1,1-2.6-2.6A2.6,2.6,0,0,1,3943.971,9363.528Z" fill="#302924"/>
              </g>
              <path id="Trazado_1875" data-name="Trazado 1875" d="M3923.454,9381.5c0-2.417,2.541-4.376,5.676-4.376s5.677,1.959,5.677,4.376" fill="none" stroke="#a04d42" stroke-miterlimit="10" stroke-width="1.662"/>
              <path id="Trazado_1876" data-name="Trazado 1876" d="M3931.436,9370.5a2.306,2.306,0,0,1-4.612,0" fill="none" stroke="#ab7564" stroke-miterlimit="10" stroke-width="1.662"/>
            </g>
          </g>
          <g id="Grupo_719" data-name="Grupo 719">
            <g id="Grupo_716" data-name="Grupo 716">
              <g id="Grupo_714" data-name="Grupo 714">
                <rect id="Rectángulo_108" data-name="Rectángulo 108" width="77.058" height="4.794" transform="translate(3940.17 9425.429) rotate(90)" fill="#8d8a89"/>
                <rect id="Rectángulo_109" data-name="Rectángulo 109" width="77.058" height="4.794" transform="translate(3965.162 9425.429) rotate(90)" fill="#8d8a89"/>
              </g>
              <rect id="Rectángulo_110" data-name="Rectángulo 110" width="4.794" height="70.47" transform="translate(3947.871 9534.57)" fill="#8d8a89"/>
              <rect id="Rectángulo_111" data-name="Rectángulo 111" width="20.198" height="4.794" transform="translate(3940.169 9477.83)" fill="#8d8a89"/>
              <g id="Grupo_715" data-name="Grupo 715">
                <path id="Trazado_1877" data-name="Trazado 1877" d="M3950.268,9538.335l-14.843-36.262,4.693-1.921,10.15,24.8,10.149-24.8,4.693,1.921Z" fill="#8d8a89"/>
              </g>
              <path id="Trazado_1878" data-name="Trazado 1878" d="M3956.035,9608.027H3944.5l.7-11.56h10.142Z" fill="#353330"/>
              <rect id="Rectángulo_112" data-name="Rectángulo 112" width="7.468" height="7.425" transform="translate(3946.534 9534.293)" fill="#353330"/>
              <rect id="Rectángulo_113" data-name="Rectángulo 113" width="43.102" height="10.876" transform="translate(3928.717 9417.318)" fill="#353330"/>
            </g>
            <g id="Grupo_717" data-name="Grupo 717">
              <path id="Trazado_1879" data-name="Trazado 1879" d="M3963.519,9481.462l1.058-4.5a8.381,8.381,0,0,0-6.725-9.719l-1.3-.236a8.38,8.38,0,0,0-9.719,6.724l-1.058,4.506a8.381,8.381,0,0,0,6.725,9.718l1.3.236A8.381,8.381,0,0,0,3963.519,9481.462Z" fill="#e6b69e"/>
              <path id="Trazado_1880" data-name="Trazado 1880" d="M3957.725,9467.216l-1.045-.189c-.254-.048-.508-.077-.761-.1a8.511,8.511,0,0,1,5.846,9.622l-1.012,4.25a8.51,8.51,0,0,1-9.107,6.928,8.159,8.159,0,0,0,.983.246l1.045.191a8.511,8.511,0,0,0,9.868-6.829l1.012-4.251A8.511,8.511,0,0,0,3957.725,9467.216Z" fill="#ca8d75"/>
              <rect id="Rectángulo_114" data-name="Rectángulo 114" width="5.176" height="10.854" rx="1.83" transform="translate(3949.846 9469.109) rotate(56.616)" fill="#e6b69e"/>
            </g>
            <g id="Grupo_718" data-name="Grupo 718">
              <path id="Trazado_1881" data-name="Trazado 1881" d="M3956.678,9474.5a7.472,7.472,0,0,1-7.469-7.355c-.444-28.267-6.967-55.987-7.032-56.265a7.472,7.472,0,1,1,14.539-3.459c.284,1.2,6.967,29.605,7.436,59.489a7.473,7.473,0,0,1-7.355,7.589Z" fill="#e7e6e7"/>
            </g>
          </g>
          <g id="Grupo_720" data-name="Grupo 720">
            <rect id="Rectángulo_115" data-name="Rectángulo 115" width="32.06" height="4.825" transform="translate(3917.41 9604.858)" fill="#30342f"/>
            <rect id="Rectángulo_116" data-name="Rectángulo 116" width="10.456" height="13.859" transform="translate(3923.341 9591)" fill="#30342f"/>
          </g>
        </g>
      </g>
    </g>
    <circle id="Elipse_55" data-name="Elipse 55" cx="98.333" cy="98.333" r="98.333" transform="translate(619.66 6902.587)" fill="none" stroke="#97c7ea" stroke-miterlimit="10" stroke-width="6"/>
  </g>
</svg>
