<svg xmlns="http://www.w3.org/2000/svg" width="152.443" height="152.444" viewBox="0 0 152.443 152.444">
  <g id="Grupo_2780" data-name="Grupo 2780" transform="translate(-399.284 -7856.79)">
    <path id="Trazado_6084" data-name="Trazado 6084" d="M475.505,7856.79q3.746,0,7.471.367t7.4,1.1q3.674.731,7.256,1.817t7.043,2.52q3.459,1.434,6.762,3.2t6.416,3.845q3.113,2.08,6.008,4.456t5.542,5.023q2.648,2.647,5.023,5.542t4.456,6.008q2.081,3.114,3.846,6.416t3.2,6.762q1.433,3.461,2.52,7.043t1.817,7.256q.73,3.672,1.1,7.4t.367,7.471q0,3.743-.367,7.471t-1.1,7.4q-.73,3.672-1.817,7.256t-2.52,7.043q-1.434,3.458-3.2,6.762t-3.846,6.415q-2.08,3.114-4.456,6.009t-5.023,5.542q-2.647,2.647-5.542,5.023t-6.008,4.456q-3.114,2.08-6.416,3.845t-6.762,3.2q-3.461,1.434-7.043,2.52t-7.256,1.818q-3.672.73-7.4,1.1t-7.471.368q-3.744,0-7.471-.368t-7.4-1.1q-3.672-.73-7.256-1.818t-7.043-2.52q-3.459-1.433-6.761-3.2t-6.416-3.845q-3.114-2.081-6.008-4.456t-5.543-5.023q-2.648-2.648-5.023-5.542t-4.456-6.009q-2.08-3.112-3.845-6.415t-3.2-6.762q-1.434-3.461-2.52-7.043t-1.818-7.256q-.73-3.672-1.1-7.4t-.367-7.471q0-3.744.367-7.471t1.1-7.4q.73-3.672,1.818-7.256t2.52-7.043q1.432-3.458,3.2-6.762t3.845-6.416q2.08-3.113,4.456-6.008t5.023-5.542q2.649-2.648,5.543-5.023t6.008-4.456q3.113-2.081,6.416-3.845t6.761-3.2q3.461-1.432,7.043-2.52t7.256-1.817q3.672-.73,7.4-1.1T475.505,7856.79Z" fill="#f7ec45"/>
    <circle id="Elipse_240" data-name="Elipse 240" cx="71.597" cy="71.597" r="71.597" transform="translate(403.909 7862.036)" fill="#fff"/>
    <circle id="Elipse_241" data-name="Elipse 241" cx="65.13" cy="65.13" r="65.13" transform="translate(410.375 7868.502)" fill="#f2f2f2"/>
    <g id="Grupo_2746" data-name="Grupo 2746">
      <path id="Trazado_6086" data-name="Trazado 6086" d="M479.789,7965.528H438.958a4.673,4.673,0,0,1-4.673-4.673V7900.6a4.673,4.673,0,0,1,4.673-4.673h75.787a4.673,4.673,0,0,1,4.673,4.673v52.735" fill="none" stroke="#3b4354" stroke-linecap="round" stroke-linejoin="round" stroke-width="3"/>
      <path id="Trazado_6087" data-name="Trazado 6087" d="M445.727,7905.121a.8.8,0,1,0-.8.8A.8.8,0,0,0,445.727,7905.121Z" fill="none" stroke="#3b4354" stroke-linecap="round" stroke-linejoin="round" stroke-width="3"/>
      <path id="Trazado_6088" data-name="Trazado 6088" d="M454.858,7905.121a.8.8,0,1,0-.8.8A.8.8,0,0,0,454.858,7905.121Z" fill="none" stroke="#3b4354" stroke-linecap="round" stroke-linejoin="round" stroke-width="3"/>
      <path id="Trazado_6089" data-name="Trazado 6089" d="M463.989,7905.121a.8.8,0,1,0-.8.8A.8.8,0,0,0,463.989,7905.121Z" fill="none" stroke="#3b4354" stroke-linecap="round" stroke-linejoin="round" stroke-width="3"/>
      <line id="Línea_610" data-name="Línea 610" x2="85.133" transform="translate(434.285 7914.5)" fill="none" stroke="#3b4354" stroke-linecap="round" stroke-linejoin="round" stroke-width="3"/>
      <line id="Línea_611" data-name="Línea 611" x2="33.914" transform="translate(477.289 7905.213)" fill="none" stroke="#3b4354" stroke-linecap="round" stroke-linejoin="round" stroke-width="3"/>
      <g id="Grupo_2745" data-name="Grupo 2745">
        <g id="Grupo_2743" data-name="Grupo 2743">
          <path id="Trazado_6090" data-name="Trazado 6090" d="M497,7947.795v-14.42a2.649,2.649,0,0,0-2.648-2.648h0a2.649,2.649,0,0,0-2.649,2.648v18.758" fill="none" stroke="#3b4354" stroke-linecap="round" stroke-linejoin="round" stroke-width="3"/>
          <path id="Trazado_6091" data-name="Trazado 6091" d="M502.3,7947.795v-4.1a2.648,2.648,0,0,0-2.648-2.648h0" fill="none" stroke="#3b4354" stroke-linecap="round" stroke-linejoin="round" stroke-width="3"/>
          <path id="Trazado_6092" data-name="Trazado 6092" d="M507.6,7947.795v-2.351a2.649,2.649,0,0,0-2.648-2.648h0" fill="none" stroke="#3b4354" stroke-linecap="round" stroke-linejoin="round" stroke-width="3"/>
          <path id="Trazado_6093" data-name="Trazado 6093" d="M508.593,7973.893c-.1-4.878.291-5.808.291-5.808a26.934,26.934,0,0,1,.735-2.761,52.653,52.653,0,0,0,2.5-14.773l.019-2.237a2.649,2.649,0,0,0-2.649-2.649h0" fill="none" stroke="#3b4354" stroke-linecap="round" stroke-linejoin="round" stroke-width="3"/>
          <path id="Trazado_6094" data-name="Trazado 6094" d="M489.327,7945.324a3.138,3.138,0,0,0-2.379-1.091h0a2.576,2.576,0,0,0-2.657,1.766c-.024.079-.045.161-.065.244a4.345,4.345,0,0,0,.256,2.659,16.78,16.78,0,0,1,1.053,8.617,9.553,9.553,0,0,0,1.587,6.676c.852,1.237,1.873,2.64,2.938,3.93,0,0,2.629,2.6,2.629,5.768" fill="none" stroke="#3b4354" stroke-linecap="round" stroke-linejoin="round" stroke-width="3"/>
          <line id="Línea_612" data-name="Línea 612" x1="1.894" transform="translate(507.596 7945.665)" fill="none" stroke="#3b4354" stroke-linecap="round" stroke-linejoin="round" stroke-width="3"/>
          <line id="Línea_613" data-name="Línea 613" x1="2.807" transform="translate(502.141 7942.796)" fill="none" stroke="#3b4354" stroke-linecap="round" stroke-linejoin="round" stroke-width="3"/>
          <line id="Línea_614" data-name="Línea 614" x1="2.649" transform="translate(497.002 7941.042)" fill="none" stroke="#3b4354" stroke-linecap="round" stroke-linejoin="round" stroke-width="3"/>
        </g>
        <g id="Grupo_2744" data-name="Grupo 2744">
          <path id="Trazado_6095" data-name="Trazado 6095" d="M489.7,7982.913v-7.52a1.5,1.5,0,0,1,1.5-1.5h18.894a1.5,1.5,0,0,1,1.5,1.5v7.52" fill="none" stroke="#3b4354" stroke-linecap="round" stroke-linejoin="round" stroke-width="3"/>
        </g>
      </g>
      <path id="Trazado_6096" data-name="Trazado 6096" d="M444.239,7932.063v-7.07h24.894v7.07" fill="none" stroke="#3b4354" stroke-linecap="round" stroke-linejoin="round" stroke-width="3"/>
      <rect id="Rectángulo_762" data-name="Rectángulo 762" width="24.894" height="4.797" transform="translate(444.239 7938.398)" fill="#6db1cc"/>
      <rect id="Rectángulo_763" data-name="Rectángulo 763" width="24.894" height="4.797" transform="translate(444.239 7948.919)" fill="#6db1cc"/>
    </g>
  </g>
</svg>
