<svg xmlns="http://www.w3.org/2000/svg" width="155.492" height="155.493" viewBox="0 0 155.492 155.493">
  <g id="Grupo_2782" data-name="Grupo 2782" transform="translate(-301.746 -878.597)">
    <path id="Trazado_5348" data-name="Trazado 5348" d="M1970.645,943.089h.042V964h4.592V936.683h-3.668l-4.23,4.956v4.794h.041Z" transform="translate(-1592)" fill="#fff"/>
    <path id="Trazado_5349" data-name="Trazado 5349" d="M1971.492,878.6q3.819,0,7.62.375t7.547,1.119q3.747.746,7.4,1.854t7.184,2.57q3.528,1.462,6.9,3.263t6.544,3.922q3.175,2.122,6.128,4.545t5.654,5.124q2.7,2.7,5.123,5.653t4.545,6.128q2.123,3.176,3.923,6.544t3.262,6.9q1.461,3.529,2.57,7.184t1.854,7.4q.745,3.745,1.12,7.547t.374,7.62q0,3.82-.374,7.621t-1.12,7.547q-.746,3.746-1.854,7.4t-2.57,7.184q-1.462,3.528-3.262,6.9t-3.923,6.544q-2.121,3.176-4.545,6.128t-5.123,5.653q-2.7,2.7-5.654,5.124t-6.128,4.545q-3.176,2.122-6.544,3.922t-6.9,3.262q-3.528,1.462-7.184,2.571t-7.4,1.854q-3.746.744-7.547,1.119t-7.62.375q-3.819,0-7.621-.375t-7.547-1.119q-3.745-.745-7.4-1.854t-7.183-2.571q-3.53-1.461-6.9-3.262t-6.545-3.922q-3.175-2.122-6.128-4.545t-5.653-5.124q-2.7-2.7-5.124-5.653t-4.545-6.128q-2.121-3.176-3.922-6.544t-3.262-6.9q-1.462-3.53-2.57-7.184t-1.854-7.4q-.745-3.746-1.12-7.547t-.374-7.621q0-3.819.374-7.62t1.12-7.547q.744-3.746,1.854-7.4t2.57-7.184q1.461-3.528,3.262-6.9t3.922-6.544q2.122-3.176,4.545-6.128t5.124-5.653q2.7-2.7,5.653-5.124t6.128-4.545q3.177-2.123,6.545-3.922t6.9-3.263q3.528-1.461,7.183-2.57t7.4-1.854q3.747-.746,7.547-1.119T1971.492,878.6Z" transform="translate(-1592)" fill="#619dc1"/>
    <circle id="Elipse_110" data-name="Elipse 110" cx="71.597" cy="71.597" r="71.597" transform="translate(307.895 884.747)" fill="#fff"/>
    <g id="Grupo_2292" data-name="Grupo 2292" transform="translate(-1592)">
      <circle id="Elipse_116" data-name="Elipse 116" cx="65.519" cy="65.519" r="65.519" transform="translate(1905.973 890.824)" fill="#75c1d8"/>
      <path id="Trazado_5372" data-name="Trazado 5372" d="M1995.739,930.561l-30.561,10.416,1.384,26.31-7.179,14.2,37.863,33.154c20.856-7.035,36.36-28.742,38.8-51.323Z" fill="#498394" opacity="0.3"/>
      <rect id="Rectángulo_479" data-name="Rectángulo 479" width="84.737" height="52.891" transform="translate(1929.123 935.505)" fill="#fffffc"/>
      <rect id="Rectángulo_480" data-name="Rectángulo 480" width="84.737" height="8.74" rx="1.561" transform="translate(1929.123 928.861)" fill="#f1f1f1"/>
      <rect id="Rectángulo_481" data-name="Rectángulo 481" width="84.737" height="1.485" transform="translate(1929.123 928.424)" fill="#dadada"/>
      <rect id="Rectángulo_482" data-name="Rectángulo 482" width="6.56" height="3.158" transform="translate(1944.255 927.78)" fill="#df952f"/>
      <path id="Trazado_5373" data-name="Trazado 5373" d="M1956.348,929.7v-9.787a2.24,2.24,0,0,1,2.19-2.275h26.513a2.24,2.24,0,0,1,2.19,2.275V929.7h3.014V915.366a2.24,2.24,0,0,0-2.19-2.275h-32.541a2.241,2.241,0,0,0-2.19,2.275V929.7Z" fill="#cc7b2f"/>
      <rect id="Rectángulo_483" data-name="Rectángulo 483" width="6.56" height="3.158" transform="translate(1992.12 927.588)" fill="#df952f"/>
      <rect id="Rectángulo_484" data-name="Rectángulo 484" width="14.189" height="4.55" transform="translate(1965.171 913.091)" fill="#cc7b2f"/>
      <g id="Grupo_2290" data-name="Grupo 2290">
        <path id="Trazado_5374" data-name="Trazado 5374" d="M1985.274,961.951a13.782,13.782,0,1,1-13.782-13.782A13.783,13.783,0,0,1,1985.274,961.951Z" fill="#cd4542"/>
        <g id="Grupo_2289" data-name="Grupo 2289">
          <path id="Trazado_5375" data-name="Trazado 5375" d="M1973.286,954.658v5.685h5.312v3.187h-5.312v5.713h-3.617V963.53h-5.283v-3.187h5.283v-5.685Z" fill="#f4f8f7"/>
        </g>
        <path id="Trazado_5376" data-name="Trazado 5376" d="M1971.492,982.473a20.522,20.522,0,1,1,20.522-20.522A20.545,20.545,0,0,1,1971.492,982.473Zm0-40.064a19.542,19.542,0,1,0,19.542,19.542A19.563,19.563,0,0,0,1971.492,942.409Z" fill="#cd4542"/>
      </g>
      <path id="Trazado_5377" data-name="Trazado 5377" d="M1938.929,981.43a2.116,2.116,0,1,1-2.116-2.116A2.116,2.116,0,0,1,1938.929,981.43Z" fill="#bec0bc"/>
      <path id="Trazado_5378" data-name="Trazado 5378" d="M2008.57,981.493a2.116,2.116,0,1,1-2.116-2.116A2.116,2.116,0,0,1,2008.57,981.493Z" fill="#bec0bc"/>
      <g id="Grupo_2291" data-name="Grupo 2291">
        <path id="Trazado_5379" data-name="Trazado 5379" d="M1939.514,943.1a2.116,2.116,0,1,1-2.116-2.116A2.117,2.117,0,0,1,1939.514,943.1Z" fill="#bec0bc"/>
        <path id="Trazado_5380" data-name="Trazado 5380" d="M2009.155,943.166a2.116,2.116,0,1,1-2.116-2.115A2.117,2.117,0,0,1,2009.155,943.166Z" fill="#bec0bc"/>
      </g>
    </g>
  </g>
</svg>
