<svg xmlns="http://www.w3.org/2000/svg" width="152.443" height="152.443" viewBox="0 0 152.443 152.443">
  <g id="Grupo_2784" data-name="Grupo 2784" transform="translate(-438.732 -2434.183)">
    <path id="Trazado_5382" data-name="Trazado 5382" d="M2106.953,2434.183q3.744,0,7.471.367t7.4,1.1q3.673.731,7.256,1.818t7.043,2.52q3.459,1.432,6.762,3.2t6.416,3.845q3.112,2.08,6.008,4.456t5.542,5.023q2.647,2.649,5.023,5.543t4.456,6.008q2.08,3.112,3.846,6.416t3.2,6.761q1.432,3.46,2.519,7.043t1.818,7.256q.731,3.672,1.1,7.4t.367,7.471q0,3.745-.367,7.471t-1.1,7.4q-.731,3.673-1.818,7.256t-2.519,7.043q-1.434,3.459-3.2,6.762t-3.846,6.415q-2.081,3.114-4.456,6.009t-5.023,5.542q-2.648,2.647-5.542,5.023t-6.008,4.456q-3.114,2.08-6.416,3.846t-6.762,3.2q-3.461,1.433-7.043,2.52t-7.256,1.817q-3.672.731-7.4,1.1t-7.471.367q-3.744,0-7.471-.367t-7.4-1.1q-3.672-.73-7.256-1.817t-7.043-2.52q-3.459-1.434-6.762-3.2t-6.415-3.846q-3.114-2.08-6.008-4.456t-5.543-5.023q-2.647-2.648-5.023-5.542t-4.456-6.009q-2.081-3.112-3.845-6.415t-3.2-6.762q-1.434-3.459-2.52-7.043t-1.818-7.256q-.731-3.672-1.1-7.4t-.367-7.471q0-3.744.367-7.471t1.1-7.4q.73-3.672,1.818-7.256t2.52-7.043q1.432-3.459,3.2-6.761t3.845-6.416q2.08-3.114,4.456-6.008t5.023-5.543q2.648-2.648,5.543-5.023t6.008-4.456q3.112-2.08,6.415-3.845t6.762-3.2q3.461-1.434,7.043-2.52t7.256-1.818q3.672-.731,7.4-1.1T2106.953,2434.183Z" transform="translate(-1592)" fill="#f7ec45"/>
    <circle id="Elipse_117" data-name="Elipse 117" cx="71.597" cy="71.597" r="71.597" transform="translate(443.357 2438.808)" fill="#fff"/>
    <circle id="Elipse_118" data-name="Elipse 118" cx="65.13" cy="65.13" r="65.13" transform="translate(449.823 2445.274)" fill="#75c1d8"/>
    <g id="Grupo_2293" data-name="Grupo 2293" transform="translate(-1592)">
      <path id="Trazado_5383" data-name="Trazado 5383" d="M2119.467,2475.152l9.375,1.391v68.69l-27.448-3.589h-14.482l-5.109-3.76-2.469-6.377v-56.355Z" fill="#fff" fill-rule="evenodd"/>
      <path id="Trazado_5384" data-name="Trazado 5384" d="M2077.964,2533.317c0,5.2,2.314,9.71,7.827,10.569l43.369,6.059a2.465,2.465,0,0,0,2.963-2.491v-8.1c-.82-.9-1.537-1.756-2.107-2.482q-.6-.768-1.174-1.561v9.921l-36.082-10.127a.81.81,0,0,0-1,.4,9.6,9.6,0,0,1-2.26,3.155c-4.6,3.591-8.259-1.15-8.259-6.05v-56.063h47.6V2516.9l.626.708a2.537,2.537,0,0,1,2.655-1.155v-43.191h-54.159v60.054Zm44.411-23.354,1.345,3.285-4.9,3.848-2.87-2.089-2.867-8.853.458-.359,4.33,5.517a1.475,1.475,0,1,0,.461-.362l-4.331-5.517.459-.359,7.918,4.889Zm23.559,33.057a2.959,2.959,0,0,1-3.088,2.09c-2.794-.247-7.492-3.832-11.666-9.15a43.682,43.682,0,0,1-2.642-3.75l7.552-5.926a43.289,43.289,0,0,1,3.014,3.458,42.607,42.607,0,0,1,3.242,4.741c.107.183.224.4.338.584.446.709.688.486.677.016-.076-3.113-.967-6.026-4.942-8.462a46.339,46.339,0,0,1-5.239-3.505,4.25,4.25,0,0,1-1.49-2.032,2.888,2.888,0,0,1-.549-.536c-.689-.878-.761-1.972-.162-2.442s1.645-.14,2.334.738.762,1.972.162,2.443a.991.991,0,0,1-.475.2,4.014,4.014,0,0,0,.692.712c1.268,1.069,4.826,2.636,6.654,3.639,6.024,3.306,6.513,10.129,6.01,15.191a8.03,8.03,0,0,1-.422,1.991Zm-21.564-28.944,10.374,11.734-6.346,4.981-8.931-12.867Z" fill="#00232b" fill-rule="evenodd"/>
      <path id="Trazado_5385" data-name="Trazado 5385" d="M2086.911,2505.114h22.682v3.951h-22.682v-3.951Z" fill="#dd503e" fill-rule="evenodd"/>
      <path id="Trazado_5386" data-name="Trazado 5386" d="M2086.911,2497.692h36.264v3.951h-36.264v-3.951Z" fill="#dd503e" fill-rule="evenodd"/>
      <path id="Trazado_5387" data-name="Trazado 5387" d="M2086.911,2490.269h36.264v3.952h-36.264v-3.952Z" fill="#dd503e" fill-rule="evenodd"/>
      <path id="Trazado_5388" data-name="Trazado 5388" d="M2086.911,2482.847h36.264v3.951h-36.264v-3.951Z" fill="#dd503e" fill-rule="evenodd"/>
    </g>
  </g>
</svg>
