<svg xmlns="http://www.w3.org/2000/svg" xmlns:xlink="http://www.w3.org/1999/xlink" width="152.443" height="152.443" viewBox="0 0 152.443 152.443">
  <defs>
    <clipPath id="clip-path">
      <circle id="Elipse_147" data-name="Elipse 147" cx="64.978" cy="64.978" r="64.978" transform="translate(1882.913 6477.568)" fill="none"/>
    </clipPath>
  </defs>
  <g id="Grupo_2788" data-name="Grupo 2788" transform="translate(-279.517 -6466.172)">
    <path id="Trazado_5390" data-name="Trazado 5390" d="M1947.738,6466.172q3.745,0,7.471.367t7.4,1.1q3.673.729,7.256,1.817t7.043,2.52q3.459,1.433,6.762,3.2t6.416,3.845q3.113,2.08,6.008,4.456t5.542,5.024q2.648,2.648,5.023,5.542t4.456,6.008q2.08,3.113,3.846,6.416t3.2,6.762q1.433,3.458,2.52,7.042t1.817,7.256q.731,3.674,1.1,7.4t.367,7.471q0,3.746-.367,7.471t-1.1,7.4q-.73,3.672-1.817,7.255t-2.52,7.043q-1.432,3.459-3.2,6.762t-3.846,6.416q-2.08,3.112-4.456,6.008t-5.023,5.542q-2.648,2.649-5.542,5.023t-6.008,4.456q-3.114,2.08-6.416,3.846t-6.762,3.2q-3.459,1.433-7.043,2.52t-7.256,1.817q-3.672.732-7.4,1.1t-7.471.367q-3.744,0-7.471-.367t-7.4-1.1q-3.672-.73-7.256-1.817t-7.042-2.52q-3.461-1.434-6.762-3.2t-6.416-3.846q-3.114-2.079-6.008-4.456t-5.542-5.023q-2.649-2.648-5.024-5.542t-4.456-6.008q-2.079-3.114-3.845-6.416t-3.2-6.762q-1.432-3.459-2.52-7.043t-1.818-7.255q-.73-3.674-1.1-7.4t-.367-7.471q0-3.744.367-7.471t1.1-7.4q.731-3.672,1.818-7.256t2.52-7.042q1.433-3.461,3.2-6.762t3.845-6.416q2.08-3.114,4.456-6.008t5.024-5.542q2.648-2.649,5.542-5.024t6.008-4.456q3.114-2.079,6.416-3.845t6.762-3.2q3.459-1.434,7.042-2.52t7.256-1.817q3.673-.732,7.4-1.1T1947.738,6466.172Z" transform="translate(-1592)" fill="#f7ec45"/>
    <circle id="Elipse_119" data-name="Elipse 119" cx="71.597" cy="71.597" r="71.597" transform="translate(284.142 6470.797)" fill="#fff"/>
    <circle id="Elipse_120" data-name="Elipse 120" cx="65.13" cy="65.13" r="65.13" transform="translate(290.608 6477.263)" fill="#75c1d8"/>
    <path id="Trazado_5636" data-name="Trazado 5636" d="M1972.217,6519.794l-29.7,10.124,1.346,25.568,2.035,21.426,27.784,24.594c20.269-6.837,35.336-27.932,37.7-49.878Z" transform="translate(-1592)" fill="#3e8c9e"/>
    <g id="Grupo_2384" data-name="Grupo 2384" transform="translate(-1592)">
      <g id="Grupo_2383" data-name="Grupo 2383" clip-path="url(#clip-path)">
        <g id="Grupo_2382" data-name="Grupo 2382">
          <path id="Trazado_5637" data-name="Trazado 5637" d="M1948.544,6598.731c-7.513-3.235-16.8-8.813-18.056-20.728,4.282-1.63,6.669-6.086,7.887-11.149a85.1,85.1,0,0,1,20.34,0c1.217,5.063,3.6,9.519,7.887,11.149C1965.345,6589.918,1956.058,6595.5,1948.544,6598.731Z" fill="#dbba8b" fill-rule="evenodd"/>
          <path id="Trazado_5638" data-name="Trazado 5638" d="M1971.186,6538.305c5.215,4.209,3.382,17.248-3.016,18.294-3.651,8.136-10.359,14.235-19.558,14.235s-15.906-6.1-19.556-14.235c-6.4-1.046-8.233-14.085-3.017-18.294,1.067-11.924,8.153-22.561,22.573-22.561S1970.118,6526.38,1971.186,6538.305Z" fill="#f2d6a9" fill-rule="evenodd"/>
          <path id="Trazado_5639" data-name="Trazado 5639" d="M1930.506,6539.926c.258,7.021-.337,5.193-1.394,1.469-.562-1.982-1.424-3.936-2.726-3.941-.918,0-2.664,4.111-2.952,4.848a66.808,66.808,0,0,1,2.546-18.226c6.127-23.372,38.95-24.259,45.519-.872,2.382,8.481,1.883,12.757,2.038,18.085-.471-1.36-1.757-3.839-2.674-3.835-1.3,0-2.163,1.959-2.727,3.941-1.057,3.724-1.556,5.552-1.3-1.469C1968.276,6500.861,1929.062,6500.7,1930.506,6539.926Z" fill="#3c2f23" fill-rule="evenodd"/>
          <path id="Trazado_5640" data-name="Trazado 5640" d="M1930.418,6538.9c-.069-5.006.524-9.338,2.244-12.5,1.665-3.061,3.378-4.583,8.215-3.055a29.5,29.5,0,0,0,16.515-.011c4.216-1.339,5.305-.046,7.007,2.7,2.026,3.267,2.832,7.736,2.674,12.8,9.673-14.1-.483-32.746-18.414-32.754S1926.627,6524.263,1930.418,6538.9Z" fill="#3c2f23" fill-rule="evenodd"/>
          <path id="Trazado_5641" data-name="Trazado 5641" d="M1984.6,6575.686l-35.856-2.158-35.984,2.158a3.517,3.517,0,0,0-3.506,3.507v18.63c10.152,9.47,23.775,7.772,38.755,7.772,15.649,0,29.82,2,40.1-8.23v-18.172A3.517,3.517,0,0,0,1984.6,6575.686Z" fill="#3e4950"/>
          <path id="Trazado_5642" data-name="Trazado 5642" d="M1933.867,6574.111l13.981,7.006,14.31-7.013-14.063-.847Z" fill="#dbba8b"/>
          <path id="Trazado_5643" data-name="Trazado 5643" d="M1947.848,6581.118l-13.413-6.722-.575.034,3.417,33.752c3.477.665,7.065-1.2,10.736-1.2,3.525,0,6.974,1.894,10.322,1.28l3.83-33.838-.585-.036Z" fill="#e9eff2"/>
          <path id="Trazado_5644" data-name="Trazado 5644" d="M1947.848,6581.118l-12.7-6.362-1.286.125,13.981,11.356,14.31-11.367-1.3-.127Z" fill="#d3e5f5"/>
          <path id="Trazado_5645" data-name="Trazado 5645" d="M1952.4,6605.682l-4.144,6.479-4.144-6.6,3.328-20.562-2.428-5.231,3.005.539,2.764-.539-2.428,5.358Z" fill="#3d6481"/>
          <path id="Trazado_5646" data-name="Trazado 5646" d="M1953.4,6526.159c1.531-.926,3.287-.41,4.921-3.538,1.849-3.541,6.38,3.289,7.812,8.274,1.259-2.275,4.1-5.25,4.1-8.517,0-7.137-4.163-12.923-8.659-12.923a3.442,3.442,0,0,0-1.343.276c-1.894-3.194-6.42-5.443-11.7-5.443-6.988,0-10.525,7.5-19.156,7.38-8.066-.111-11.381.138-11.381.138s2.97,9.376,11.185,14.036c2.627,1.489,12.361,2.694,16.455,2.458A20.937,20.937,0,0,0,1953.4,6526.159Z" fill="#3c2f23"/>
        </g>
      </g>
    </g>
  </g>
</svg>
