<svg xmlns="http://www.w3.org/2000/svg" xmlns:xlink="http://www.w3.org/1999/xlink" width="152.443" height="152.443" viewBox="0 0 152.443 152.443">
  <defs>
    <clipPath id="clip-path">
      <circle id="Elipse_148" data-name="Elipse 148" cx="65.13" cy="65.13" r="65.13" transform="translate(2250.248 6477.263)" fill="none"/>
    </clipPath>
  </defs>
  <g id="Grupo_2789" data-name="Grupo 2789" transform="translate(-646.362 -6466.172)">
    <path id="Trazado_5392" data-name="Trazado 5392" d="M2314.583,6466.172q3.746,0,7.471.367t7.4,1.1q3.674.729,7.256,1.817t7.043,2.52q3.459,1.433,6.762,3.2t6.416,3.845q3.112,2.08,6.008,4.456t5.542,5.024q2.648,2.648,5.023,5.542t4.456,6.008q2.08,3.113,3.846,6.416t3.2,6.762q1.433,3.458,2.52,7.042t1.817,7.256q.73,3.674,1.1,7.4t.367,7.471q0,3.746-.367,7.471t-1.1,7.4q-.731,3.672-1.817,7.255t-2.52,7.043q-1.434,3.459-3.2,6.762t-3.846,6.416q-2.08,3.112-4.456,6.008t-5.023,5.542q-2.647,2.649-5.542,5.023t-6.008,4.456q-3.114,2.08-6.416,3.846t-6.762,3.2q-3.459,1.433-7.043,2.52t-7.256,1.817q-3.672.732-7.4,1.1t-7.471.367q-3.744,0-7.471-.367t-7.4-1.1q-3.672-.73-7.256-1.817t-7.043-2.52q-3.459-1.434-6.761-3.2t-6.416-3.846q-3.114-2.079-6.008-4.456t-5.543-5.023q-2.648-2.648-5.023-5.542t-4.456-6.008q-2.08-3.114-3.845-6.416t-3.2-6.762q-1.434-3.459-2.52-7.043t-1.818-7.255q-.73-3.674-1.1-7.4t-.367-7.471q0-3.744.367-7.471t1.1-7.4q.731-3.672,1.818-7.256t2.52-7.042q1.432-3.461,3.2-6.762t3.845-6.416q2.08-3.114,4.456-6.008t5.023-5.542q2.649-2.649,5.543-5.024t6.008-4.456q3.112-2.079,6.416-3.845t6.761-3.2q3.46-1.434,7.043-2.52t7.256-1.817q3.674-.732,7.4-1.1T2314.583,6466.172Z" transform="translate(-1592)" fill="#f7ec45"/>
    <circle id="Elipse_121" data-name="Elipse 121" cx="71.597" cy="71.597" r="71.597" transform="translate(650.987 6470.797)" fill="#fff"/>
    <circle id="Elipse_122" data-name="Elipse 122" cx="65.13" cy="65.13" r="65.13" transform="translate(657.453 6477.263)" fill="#75c1d8"/>
    <g id="Grupo_2390" data-name="Grupo 2390" transform="translate(-1592)">
      <path id="Trazado_5647" data-name="Trazado 5647" d="M2326.19,6509.463l-16.591,18.6,1.373,26.093-7.12,14.082,37.55,32.879c20.684-6.976,36.059-28.5,38.477-50.9Z" fill="#3e8c9e"/>
      <g id="Grupo_2389" data-name="Grupo 2389">
        <g id="Grupo_2388" data-name="Grupo 2388" clip-path="url(#clip-path)">
          <g id="Grupo_2387" data-name="Grupo 2387">
            <path id="Trazado_5648" data-name="Trazado 5648" d="M2313.738,6591.293c-7.746-3.186-17.319-8.677-18.615-20.406,4.414-1.6,6.875-5.992,8.131-10.976a91.751,91.751,0,0,1,20.97,0c1.255,4.984,3.716,9.371,8.131,10.976C2331.06,6582.616,2321.485,6588.107,2313.738,6591.293Z" fill="#dbba8b" fill-rule="evenodd"/>
            <path id="Trazado_5649" data-name="Trazado 5649" d="M2323.3,6583.9c.184,1.393-15.407-18-14.59-23.236,3.285-.389,1.361-1.351,5.032-1.351a89.577,89.577,0,0,1,10.486.6c1.255,4.984,3.716,9.371,8.131,10.976C2331.06,6582.616,2331.043,6580.712,2323.3,6583.9Z" fill="#bea07c" fill-rule="evenodd"/>
            <path id="Trazado_5650" data-name="Trazado 5650" d="M2335.34,6532.021c4.862,4.216-2.8,20.315-2.8,20.315s-9.657,14.257-18.233,14.257-18.231-14.257-18.231-14.257-7.676-14.108-2.812-18.324c.994-11.943-3.357-22.126,21.043-22.6C2337.344,6510.97,2334.344,6520.077,2335.34,6532.021Z" fill="#f2d6a9" fill-rule="evenodd"/>
            <path id="Trazado_5651" data-name="Trazado 5651" d="M2317.307,6506.249l-13.68,2.032,2.521,6.52,11.159,2.929Z" fill="#1a2d3b"/>
            <g id="Grupo_2385" data-name="Grupo 2385">
              <path id="Trazado_5652" data-name="Trazado 5652" d="M2300.344,6566.655s-1.4,1.626-6.311,2.892c-10.389,2.677-18.57,6.114-18.57,13.7v13.794c6.844,6.442,15.375,8.588,24.881,9.3Z" fill="#62a299"/>
              <path id="Trazado_5653" data-name="Trazado 5653" d="M2300.991,6567.45l-.647-.8A3.039,3.039,0,0,0,2300.991,6567.45Z" fill="#62a299"/>
              <path id="Trazado_5654" data-name="Trazado 5654" d="M2333.446,6569.547c-4.916-1.266-6.312-2.892-6.312-2.892l-.791.972V6606.4c9.824-.655,18.639-2.74,25.673-9.36v-13.794C2352.016,6575.661,2343.835,6572.224,2333.446,6569.547Z" fill="#62a299"/>
              <path id="Trazado_5655" data-name="Trazado 5655" d="M2301.136,6606.4c3.784.253,7.718.293,11.757.3h1.692c4.04-.005,7.973-.045,11.757-.3Z" fill="#62a299"/>
            </g>
            <path id="Trazado_5656" data-name="Trazado 5656" d="M2326.343,6606.4l-12.886,1.129-13.113-1.129v-30.283s1.809,4.676,13.331,4.7,12.668-4.7,12.668-4.7Z" fill="#416d64"/>
            <rect id="Rectángulo_631" data-name="Rectángulo 631" width="0.65" height="24.009" transform="translate(2334.614 6570.721)" fill="#416d64"/>
            <rect id="Rectángulo_632" data-name="Rectángulo 632" width="0.65" height="24.009" transform="translate(2293.083 6570.011)" fill="#416d64"/>
            <path id="Trazado_5657" data-name="Trazado 5657" d="M2325.773,6557.94c-1.966,0-4.049-1.184-4.049-2.9,0-.3-1.153-3.421-3.88-3.421h-6.711c-2.728,0-3.881,3.117-3.881,3.421,0,1.719-2.082,2.9-4.048,2.9-.849,0-2.979-1.276-3.591-1.71,2.449,2.431,3.38,7.19,5.554,10.327a10.431,10.431,0,0,0,18.642,0c2.175-3.137,3.106-7.9,5.554-10.327C2328.752,6556.664,2326.622,6557.94,2325.773,6557.94Zm-5.619,1.423a1.935,1.935,0,0,1-2.01,1.838h-1.464l-2.122-2.825-.07.084-.07-.084-2.121,2.825h-1.464a1.936,1.936,0,0,1-2.011-1.838v-2.847a1.936,1.936,0,0,1,2.011-1.838h7.311a1.935,1.935,0,0,1,2.01,1.838Z" fill="#1a2d3b" fill-rule="evenodd"/>
            <g id="Grupo_2386" data-name="Grupo 2386">
              <path id="Trazado_5658" data-name="Trazado 5658" d="M2309.628,6540.792H2298.2a4.162,4.162,0,0,1-4.157-4.156v-2.406a4.162,4.162,0,0,1,4.157-4.157h11.432a4.162,4.162,0,0,1,4.157,4.157v2.406A4.162,4.162,0,0,1,2309.628,6540.792Zm-11.432-8.462a1.9,1.9,0,0,0-1.9,1.9v2.406a1.9,1.9,0,0,0,1.9,1.9h11.432a1.9,1.9,0,0,0,1.9-1.9v-2.406a1.9,1.9,0,0,0-1.9-1.9Z" fill="#2d424c"/>
              <path id="Trazado_5659" data-name="Trazado 5659" d="M2330.748,6540.792h-11.433a4.162,4.162,0,0,1-4.156-4.156v-2.406a4.162,4.162,0,0,1,4.156-4.157h11.433a4.161,4.161,0,0,1,4.156,4.157v2.406A4.161,4.161,0,0,1,2330.748,6540.792Zm-11.433-8.462a1.9,1.9,0,0,0-1.9,1.9v2.406a1.9,1.9,0,0,0,1.9,1.9h11.433a1.9,1.9,0,0,0,1.9-1.9v-2.406a1.9,1.9,0,0,0-1.9-1.9Z" fill="#2d424c"/>
            </g>
            <rect id="Rectángulo_633" data-name="Rectángulo 633" width="3.631" height="1.692" transform="translate(2313.22 6533.176)" fill="#1a2d3b"/>
            <path id="Trazado_5660" data-name="Trazado 5660" d="M2325.462,6518.219l-11.206,4.1-11.206-4.1c-2.047,0-3.722-2.154-3.722-4.786v-6.179c0-2.633,6.992-7.522,9.039-7.522h12.841c2.047,0,7.976,4.205,7.976,6.838v6.863C2329.184,6516.065,2327.509,6518.219,2325.462,6518.219Z" fill="#36515f" fill-rule="evenodd"/>
            <path id="Trazado_5661" data-name="Trazado 5661" d="M2314.654,6522.089c2.261-9.261,7.484-16.079,13.77-17.362-1.614-2.407-5.674-5.051-7.3-5.051h-12.841c-2.047,0-9.039,4.889-9.039,7.521v6.179c0,2.633,1.675,4.787,3.722,4.787l11.206,4.1Z" fill="#1a2d3b" fill-rule="evenodd"/>
          </g>
        </g>
      </g>
    </g>
  </g>
</svg>
