<svg xmlns="http://www.w3.org/2000/svg" width="47.737" height="52.311" viewBox="0 0 47.737 52.311">
  <g id="Grupo_2787" data-name="Grupo 2787" transform="translate(-527.487 -5764.412)">
    <g id="Grupo_2377" data-name="Grupo 2377" transform="translate(-1553 -55)">
      <path id="Trazado_5578" data-name="Trazado 5578" d="M2094.42,5862.963c1.677,1.7,5.422,1.51,13.075,1.06a30.082,30.082,0,0,0,6.327-1.393l12.65-6.673a.5.5,0,0,0,.157-.749c-.453-.58-1.483-1.383-3.545-.839a5.113,5.113,0,0,0-.684.244l-6.365,2.714-1.8-1.441a5.955,5.955,0,0,1-3.05,1.464c-.66.093-1.434.069-4.148-.854-3.6-1.223-3.629-1.654-5-1.708a12.884,12.884,0,0,0-4.27.976c-1.933.623-1.416.094-1.933.623C2094.232,5858.029,2092.659,5861.175,2094.42,5862.963Z" fill="#ccb4ac"/>
      <path id="Trazado_5579" data-name="Trazado 5579" d="M2123.45,5854.392a9.67,9.67,0,0,0,3.774-8.113,14.979,14.979,0,0,0-3.035-8.934l-6.509-10.529h-10.915l-6.646,10.529a14.979,14.979,0,0,0-3.036,8.934,9.581,9.581,0,0,0,4.78,8.777l5.829,2.095,5.385-.218,5.92-1.251Z" fill="#fff"/>
      <path id="Trazado_5580" data-name="Trazado 5580" d="M2123.45,5854.392a9.67,9.67,0,0,0,3.774-8.113,14.979,14.979,0,0,0-3.035-8.934l-6.509-10.529h-10.915l-6.646,10.529a14.979,14.979,0,0,0-3.036,8.934,9.581,9.581,0,0,0,4.78,8.777" fill="none" stroke="#3b4354" stroke-linecap="round" stroke-linejoin="round" stroke-width="2"/>
      <path id="Trazado_5581" data-name="Trazado 5581" d="M2117.68,5826.816l4.036-3.912-1.449-1.449a2.78,2.78,0,0,0-3.932,0l-1.17,1.17-.514-.515a3.435,3.435,0,0,0-4.857,0l-.514.515-1.17-1.17a2.78,2.78,0,0,0-3.932,0l-1.449,1.449,4.036,3.912" fill="none" stroke="#3b4354" stroke-linecap="round" stroke-linejoin="round" stroke-width="2"/>
      <path id="Trazado_5582" data-name="Trazado 5582" d="M2106.968,5861.32h2.1a10.03,10.03,0,0,0,5.632-1.731l1.537-1.043a.568.568,0,0,0,.172-.774,2.629,2.629,0,0,0-.881-.82,2.6,2.6,0,0,0-2.455-.019,6.685,6.685,0,0,1-5.385.218,17.465,17.465,0,0,0-2.641-1.37,11.1,11.1,0,0,0-10.631,1.3" fill="none" stroke="#3b4354" stroke-linecap="round" stroke-linejoin="round" stroke-width="2"/>
      <path id="Trazado_5583" data-name="Trazado 5583" d="M2094.42,5864.473a58.3,58.3,0,0,1,13.075-.45,12.1,12.1,0,0,0,6.327-1.393l12.65-6.673a.5.5,0,0,0,.157-.749c-.453-.58-1.483-1.383-3.545-.839a4.935,4.935,0,0,0-.684.244l-6.364,2.714" fill="none" stroke="#3b4354" stroke-linecap="round" stroke-linejoin="round" stroke-width="2"/>
      <path id="Trazado_5584" data-name="Trazado 5584" d="M2089.612,5867.52h4.679v-12.073h-4.679" fill="none" stroke="#3b4354" stroke-linecap="round" stroke-linejoin="round" stroke-width="2"/>
      <path id="Trazado_5585" data-name="Trazado 5585" d="M2081.487,5870.722h8.125v-18.805h-8.125" fill="none" stroke="#3b4354" stroke-linecap="round" stroke-linejoin="round" stroke-width="2"/>
      <path id="Trazado_5586" data-name="Trazado 5586" d="M2109.186,5846.753a3.036,3.036,0,1,0,6.072,0c0-1.676-1.244-2.451-3.036-3.036-1.594-.52-3.036-1.359-3.036-3.035a3.036,3.036,0,1,1,6.072,0" fill="none" stroke="#3b4354" stroke-linecap="round" stroke-linejoin="round" stroke-width="2"/>
      <line id="Línea_596" data-name="Línea 596" y2="1.713" transform="translate(2112.222 5835.954)" fill="none" stroke="#3b4354" stroke-linecap="round" stroke-linejoin="round" stroke-width="2"/>
      <line id="Línea_597" data-name="Línea 597" y2="1.713" transform="translate(2112.222 5849.789)" fill="none" stroke="#3b4354" stroke-linecap="round" stroke-linejoin="round" stroke-width="2"/>
      <path id="Trazado_5587" data-name="Trazado 5587" d="M2112.154,5829.153h-4.1l-4.561,7.227,3.39-1.712a12.315,12.315,0,0,1,10.762-.168l2.864,1.335-4.131-6.682Z" fill="#efc33b"/>
    </g>
  </g>
</svg>
