<svg xmlns="http://www.w3.org/2000/svg" width="152.443" height="152.443" viewBox="0 0 152.443 152.443">
  <g id="Grupo_2795" data-name="Grupo 2795" transform="translate(-646.362 -7134.152)">
    <path id="Trazado_5404" data-name="Trazado 5404" d="M2314.583,7134.152q3.746,0,7.471.367t7.4,1.1q3.674.73,7.256,1.817t7.043,2.52q3.459,1.433,6.762,3.2t6.416,3.846q3.112,2.08,6.008,4.456t5.542,5.023q2.648,2.648,5.023,5.542t4.456,6.008q2.08,3.114,3.846,6.416t3.2,6.762q1.433,3.459,2.52,7.043t1.817,7.256q.73,3.672,1.1,7.4t.367,7.472q0,3.744-.367,7.471t-1.1,7.4q-.731,3.672-1.817,7.256t-2.52,7.042q-1.434,3.461-3.2,6.762t-3.846,6.416q-2.08,3.112-4.456,6.008t-5.023,5.542q-2.647,2.649-5.542,5.024t-6.008,4.455q-3.114,2.082-6.416,3.846t-6.762,3.2q-3.459,1.433-7.043,2.52t-7.256,1.818q-3.672.731-7.4,1.1t-7.471.367q-3.744,0-7.471-.367t-7.4-1.1q-3.672-.73-7.256-1.818t-7.043-2.52q-3.459-1.433-6.761-3.2t-6.416-3.846q-3.114-2.079-6.008-4.455t-5.543-5.024q-2.648-2.648-5.023-5.542t-4.456-6.008q-2.08-3.114-3.845-6.416t-3.2-6.762q-1.434-3.459-2.52-7.042t-1.818-7.256q-.73-3.674-1.1-7.4t-.367-7.471q0-3.746.367-7.472t1.1-7.4q.731-3.673,1.818-7.256t2.52-7.043q1.432-3.459,3.2-6.762t3.845-6.416q2.08-3.112,4.456-6.008t5.023-5.542q2.649-2.648,5.543-5.023t6.008-4.456q3.112-2.081,6.416-3.846t6.761-3.2q3.46-1.433,7.043-2.52t7.256-1.817q3.674-.731,7.4-1.1T2314.583,7134.152Z" transform="translate(-1592)" fill="#f7ec45"/>
    <circle id="Elipse_133" data-name="Elipse 133" cx="71.597" cy="71.597" r="71.597" transform="translate(650.987 7138.777)" fill="#fff"/>
    <circle id="Elipse_134" data-name="Elipse 134" cx="65.13" cy="65.13" r="65.13" transform="translate(657.453 7145.244)" fill="#75c1d8"/>
    <g id="Grupo_2423" data-name="Grupo 2423" transform="translate(-1592)">
      <path id="Trazado_5706" data-name="Trazado 5706" d="M2330.069,7176.017a4.236,4.236,0,0,0-6.973,1.531l0,0-1.409-1.409-.06-.065a1.013,1.013,0,0,1-.1-.1l-.071-.068c-.072-.068-.157-.119-.234-.18a3.929,3.929,0,0,0-.33-.258c-.119-.074-.244-.132-.366-.2s-.225-.125-.34-.176c-.146-.058-.3-.1-.455-.139a3.329,3.329,0,0,0-.319-.1,4.214,4.214,0,0,0-4.807,2.688l-1.385-1.382-.075-.074c-.04-.044-.088-.088-.129-.132l-.081-.079c-.068-.064-.153-.112-.228-.173a2.765,2.765,0,0,0-.733-.468c-.095-.048-.183-.105-.282-.146a4.29,4.29,0,0,0-.529-.163c-.085-.024-.163-.055-.248-.071a4.165,4.165,0,0,0-.832-.086,4.25,4.25,0,0,0-3.972,2.771l-.01-.01-1.493-1.494-.041-.041-.051-.051a3.4,3.4,0,0,0-.275-.217c-.1-.085-.2-.177-.316-.251a46.123,46.123,0,0,0-.709-.38c-.163-.065-.336-.109-.51-.16-.091-.021-.18-.061-.275-.081a4.248,4.248,0,0,0-5.1,4.161,4.209,4.209,0,0,0,1.249,3l7.628,7.639a2.122,2.122,0,0,0-2.092,2.552c.011.051.031.1.045.153a1.575,1.575,0,0,0,.071.228,2.081,2.081,0,0,0,.1.2c.024.048.048.1.075.143a1.982,1.982,0,0,0,.16.211c.02.023.037.054.057.077s.021.017.031.028l.088.091c.01.007.017.017.027.024l1,1-14.91,14.909h0l-4.067,4.068c-.333.332-.645.675-.95,1.028-.095.1-.177.217-.269.326-.207.251-.414.5-.607.761-.1.135-.194.278-.292.417-.17.241-.34.479-.5.723-.1.16-.2.329-.295.5-.139.227-.279.451-.4.689-.109.2-.2.4-.306.6s-.207.407-.3.614c-.112.244-.214.5-.315.747-.068.166-.14.329-.2.5-.119.31-.22.625-.319.938-.034.108-.071.21-.1.315-.116.391-.217.785-.312,1.182,0,.02-.011.037-.014.057v0a19.3,19.3,0,0,0,.978,11.77,19.643,19.643,0,0,0,3.157,5.163l2.176,2.176,33.757,33.757a65.418,65.418,0,0,0,56.615-51.369Z" fill="#3e8c9e"/>
      <g id="Grupo_2422" data-name="Grupo 2422">
        <g id="Grupo_2417" data-name="Grupo 2417">
          <path id="Trazado_5707" data-name="Trazado 5707" d="M2314.317,7197.767l15.745-15.741h-31.483Z" fill="#fff"/>
          <g id="Grupo_2416" data-name="Grupo 2416">
            <path id="Trazado_5708" data-name="Trazado 5708" d="M2305.83,7179.021a4.247,4.247,0,1,1-4.25-4.247A4.25,4.25,0,0,1,2305.83,7179.021Z" fill="#fff"/>
            <path id="Trazado_5709" data-name="Trazado 5709" d="M2314.324,7179.021a4.247,4.247,0,1,1-4.244-4.247A4.249,4.249,0,0,1,2314.324,7179.021Z" fill="#fff"/>
            <path id="Trazado_5710" data-name="Trazado 5710" d="M2322.821,7179.021a4.249,4.249,0,1,1-4.247-4.247A4.252,4.252,0,0,1,2322.821,7179.021Z" fill="#fff"/>
            <path id="Trazado_5711" data-name="Trazado 5711" d="M2331.318,7179.021a4.249,4.249,0,1,1-4.25-4.247A4.253,4.253,0,0,1,2331.318,7179.021Z" fill="#fff"/>
          </g>
          <rect id="Rectángulo_668" data-name="Rectángulo 668" width="25.488" height="5.513" transform="translate(2301.58 7179.021)" fill="#fff"/>
        </g>
        <path id="Trazado_5712" data-name="Trazado 5712" d="M2314.324,7185.811l-27.532,27.535a19.42,19.42,0,0,0,13.729,33.15h27.606a19.42,19.42,0,0,0,13.732-33.15Z" fill="#fff"/>
        <g id="Grupo_2419" data-name="Grupo 2419">
          <path id="Trazado_5713" data-name="Trazado 5713" d="M2326.46,7220.142a12.136,12.136,0,1,1-12.136-12.136A12.133,12.133,0,0,1,2326.46,7220.142Z" fill="#e3b34b"/>
          <g id="Grupo_2418" data-name="Grupo 2418">
            <path id="Trazado_5714" data-name="Trazado 5714" d="M2315.556,7221.106h-2.468a3.831,3.831,0,0,1,0-7.662h5.326v1.932h-5.326a1.86,1.86,0,0,0-1.331.55,1.907,1.907,0,0,0-.563,1.348,1.851,1.851,0,0,0,.55,1.337,1.878,1.878,0,0,0,1.344.564h2.468Z" fill="#fff"/>
            <path id="Trazado_5715" data-name="Trazado 5715" d="M2315.556,7226.84h-5.326v-1.928h5.326a1.92,1.92,0,0,0,1.334-.557,1.906,1.906,0,0,0-1.334-3.249h-2.468v-1.931h2.468a3.806,3.806,0,0,1,2.7,1.13,3.819,3.819,0,0,1,0,5.422A3.844,3.844,0,0,1,2315.556,7226.84Z" fill="#fff"/>
            <rect id="Rectángulo_669" data-name="Rectángulo 669" width="1.935" height="14.723" transform="translate(2313.353 7212.782)" fill="#fff"/>
          </g>
        </g>
        <g id="Grupo_2421" data-name="Grupo 2421">
          <g id="Grupo_2420" data-name="Grupo 2420">
            <rect id="Rectángulo_670" data-name="Rectángulo 670" width="16.22" height="4.271" transform="translate(2306.21 7189.657)" fill="#393d45"/>
            <path id="Trazado_5716" data-name="Trazado 5716" d="M2308.345,7191.792a2.135,2.135,0,1,1-2.135-2.135A2.137,2.137,0,0,1,2308.345,7191.792Z" fill="#393d45"/>
            <path id="Trazado_5717" data-name="Trazado 5717" d="M2324.562,7191.792a2.134,2.134,0,1,1-2.132-2.135A2.135,2.135,0,0,1,2324.562,7191.792Z" fill="#393d45"/>
          </g>
        </g>
      </g>
    </g>
  </g>
</svg>
