<svg xmlns="http://www.w3.org/2000/svg" width="152.443" height="152.443" viewBox="0 0 152.443 152.443">
  <g id="Grupo_2796" data-name="Grupo 2796" transform="translate(-1013.207 -7134.152)">
    <path id="Trazado_5406" data-name="Trazado 5406" d="M2681.428,7134.152q3.746,0,7.471.367t7.4,1.1q3.673.73,7.256,1.817t7.043,2.52q3.459,1.433,6.762,3.2t6.416,3.846q3.113,2.08,6.008,4.456t5.542,5.023q2.648,2.648,5.023,5.542t4.456,6.008q2.08,3.114,3.846,6.416t3.2,6.762q1.433,3.459,2.52,7.043t1.817,7.256q.731,3.672,1.1,7.4t.367,7.472q0,3.744-.367,7.471t-1.1,7.4q-.731,3.672-1.817,7.256t-2.52,7.042q-1.434,3.461-3.2,6.762t-3.846,6.416q-2.08,3.112-4.456,6.008t-5.023,5.542q-2.647,2.649-5.542,5.024t-6.008,4.455q-3.114,2.082-6.416,3.846t-6.762,3.2q-3.459,1.433-7.043,2.52t-7.256,1.818q-3.672.731-7.4,1.1t-7.471.367q-3.744,0-7.471-.367t-7.4-1.1q-3.672-.73-7.256-1.818t-7.043-2.52q-3.459-1.433-6.761-3.2t-6.416-3.846q-3.114-2.079-6.008-4.455t-5.543-5.024q-2.647-2.648-5.023-5.542t-4.456-6.008q-2.08-3.114-3.845-6.416t-3.2-6.762q-1.434-3.459-2.52-7.042t-1.818-7.256q-.73-3.674-1.1-7.4t-.367-7.471q0-3.746.367-7.472t1.1-7.4q.731-3.673,1.818-7.256t2.52-7.043q1.433-3.459,3.2-6.762t3.845-6.416q2.08-3.112,4.456-6.008t5.023-5.542q2.649-2.648,5.543-5.023t6.008-4.456q3.112-2.081,6.416-3.846t6.761-3.2q3.46-1.433,7.043-2.52t7.256-1.817q3.672-.731,7.4-1.1T2681.428,7134.152Z" transform="translate(-1592)" fill="#f7ec45"/>
    <circle id="Elipse_135" data-name="Elipse 135" cx="71.597" cy="71.597" r="71.597" transform="translate(1017.832 7138.777)" fill="#fff"/>
    <circle id="Elipse_136" data-name="Elipse 136" cx="65.13" cy="65.13" r="65.13" transform="translate(1024.298 7145.244)" fill="#75c1d8"/>
    <g id="Grupo_2430" data-name="Grupo 2430" transform="translate(-1592)">
      <path id="Trazado_5718" data-name="Trazado 5718" d="M2746.536,7211.237l-32.892-32.889c-.034-.033-.061-.06-.091-.094a.744.744,0,0,0-.095-.085,6.889,6.889,0,0,0-1.234-.967l-.741,1.194-2.36-2.36h0a13.954,13.954,0,0,0-3.185-.186l.092,1.856h0l8.05,8.054c-.023.5-.074,1.028-.148,1.569l-11.077-11.077c-.944.2-1.944.457-2.969.775l.555,1.764L2713,7191.349c-.2.649-.422,1.315-.683,2l-15.293-15.3c-.909.362-1.842.774-2.782,1.21l.791,1.681.047-.02-.027.04,15.8,15.8c-.328.7-.679,1.4-1.051,2.116l-18.259-18.258c-.865.463-1.748.957-2.62,1.488l.94,1.585,2.941,2.942a26,26,0,0,0-5.392-1.893l-1.052-1.055c-.321.209-.649.419-.974.649a26.276,26.276,0,0,0-3.952-.3,26.571,26.571,0,0,0-3.081.2l-.013-.014c-.274.034-.561.068-.839.112a69.492,69.492,0,0,0-9.595-5.407c-8.548-3.881-15.155-4.125-18.6-.679a7.4,7.4,0,0,0-1.048,1.318l13.416,13.42c-.433.494-.852,1-1.251,1.532l-11.5-11.506h0l-1.822-.335a13.061,13.061,0,0,0-.21,2.36c0,.271.007.538.024.815l11.594,11.594c-.061.1-.125.21-.183.315l-9.193-9.194-1.816.372a29.122,29.122,0,0,0,.775,2.972l2.336,2.34-1.312.527c.362.9.764,1.84,1.211,2.773h0l2.234,2.235-.872.473c.463.855.957,1.738,1.478,2.621l2.177,2.177-.588.385c.209.329.419.656.646.984a26.565,26.565,0,0,0,0,7.882c-.227.335-.443.673-.663,1l1.072,1.072a26,26,0,0,0,1.9,5.386l-2.955-2.955-1.6-.94c-.521.882-1.018,1.765-1.481,2.62l18.252,18.252q-1.076.557-2.13,1.055l-15.811-15.811h0l-1.67-.791c-.447.933-.849,1.877-1.211,2.776l15.283,15.286c-.683.257-1.346.48-1.995.68l-12.551-12.548-1.764-.544c-.318,1.024-.579,2.025-.771,2.965l11.056,11.06c-.541.075-1.065.125-1.569.145l-8.034-8.03v0h0l-1.849-.094c-.017.27-.024.541-.024.8a13.2,13.2,0,0,0,.21,2.38h0l2.35,2.35-1.19.74a7.434,7.434,0,0,0,1.048,1.323l32.99,32.986A65.109,65.109,0,0,0,2746.536,7211.237Z" fill="#3e8c9e"/>
      <g id="Grupo_2429" data-name="Grupo 2429">
        <path id="Trazado_5719" data-name="Trazado 5719" d="M2713.549,7242.5l-1.312-1.312c2.821-2.82,2.432-8.838-1.058-16.52-3.668-8.075-10.279-17.109-18.606-25.437s-17.363-14.934-25.434-18.6c-7.681-3.493-13.7-3.878-16.52-1.062l-1.312-1.312c3.445-3.442,10.049-3.2,18.6.687,8.273,3.756,17.5,10.5,25.98,18.982s15.223,17.707,18.983,25.977C2716.751,7232.444,2717,7239.05,2713.549,7242.5Z" fill="#fff"/>
        <g id="Grupo_2424" data-name="Grupo 2424">
          <path id="Trazado_5720" data-name="Trazado 5720" d="M2649.307,7242.5a7.567,7.567,0,0,1-1.048-1.326l1.572-.98a5.66,5.66,0,0,0,.788.994Z" fill="#fff"/>
          <path id="Trazado_5721" data-name="Trazado 5721" d="M2647.1,7238.083a12.943,12.943,0,0,1-.21-2.383c0-.26.007-.524.021-.8l1.852.094c-.013.237-.017.474-.017.7a11.114,11.114,0,0,0,.176,2.042Zm2.029-5.9-1.819-.365a29.832,29.832,0,0,1,.771-2.973l1.771.552A27.673,27.673,0,0,0,2649.125,7232.187Zm1.7-5.518-1.721-.69c.362-.9.767-1.836,1.214-2.776l1.673.791C2651.562,7224.9,2651.17,7225.8,2650.822,7226.669Zm2.485-5.292-1.633-.872c.46-.866.96-1.748,1.481-2.627l1.6.943C2654.244,7219.68,2653.757,7220.539,2653.307,7221.377Zm2.989-5.055-1.559-1q.8-1.241,1.674-2.5l1.525,1.058C2657.365,7214.7,2656.817,7215.514,2656.3,7216.322Zm3.358-4.838-1.488-1.106q.882-1.187,1.822-2.383l1.458,1.149C2660.827,7209.925,2660.232,7210.706,2659.654,7211.484Zm3.651-4.632-1.423-1.187q.948-1.142,1.954-2.276l1.39,1.224C2664.57,7205.361,2663.927,7206.108,2663.3,7206.852Zm3.9-4.426-1.359-1.262q1.01-1.089,2.066-2.174l1.328,1.295C2668.546,7201,2667.87,7201.709,2667.207,7202.426Zm4.122-4.23-1.3-1.326c.72-.7,1.447-1.392,2.17-2.069l1.262,1.359Q2672.395,7197.159,2671.329,7198.2Zm4.328-4.014-1.228-1.389q1.137-1,2.276-1.955l1.19,1.421Q2676.774,7193.2,2675.657,7194.182Zm4.527-3.783-1.149-1.454q1.2-.943,2.383-1.826l1.106,1.488Q2681.357,7189.474,2680.184,7190.4Zm4.734-3.51-1.059-1.521q1.259-.877,2.5-1.677l1,1.559Q2686.146,7186.034,2684.918,7186.889Zm4.943-3.185-.947-1.6c.883-.521,1.765-1.021,2.627-1.481l.876,1.634C2691.579,7182.71,2690.72,7183.194,2689.861,7183.7Zm5.17-2.762-.791-1.677c.94-.443,1.873-.852,2.775-1.214l.69,1.721C2696.836,7180.12,2695.937,7180.512,2695.031,7180.942Zm5.406-2.147-.551-1.768a29.8,29.8,0,0,1,2.972-.772l.365,1.816A28.156,28.156,0,0,0,2700.437,7178.795Zm8.345-.937a11.93,11.93,0,0,0-2.749-.155l-.091-1.85a13.555,13.555,0,0,1,3.178.183Z" fill="#fff"/>
          <path id="Trazado_5722" data-name="Trazado 5722" d="M2712.237,7179.562a5.659,5.659,0,0,0-.99-.788l.98-1.572a7.374,7.374,0,0,1,1.322,1.048Z" fill="#fff"/>
        </g>
        <g id="Grupo_2427" data-name="Grupo 2427">
          <path id="Trazado_5723" data-name="Trazado 5723" d="M2707.758,7210.382a26.329,26.329,0,1,1-26.33-26.34A26.322,26.322,0,0,1,2707.758,7210.382Z" fill="#f0cc6d"/>
          <path id="Trazado_5724" data-name="Trazado 5724" d="M2702.48,7210.382a21.055,21.055,0,1,1-21.052-21.065A21.039,21.039,0,0,1,2702.48,7210.382Z" fill="#e3b34b"/>
          <g id="Grupo_2426" data-name="Grupo 2426">
            <g id="Grupo_2425" data-name="Grupo 2425">
              <path id="Trazado_5725" data-name="Trazado 5725" d="M2683.639,7212.116h-4.422a6.921,6.921,0,0,1-6.894-6.9,6.875,6.875,0,0,1,6.894-6.894h9.572v3.483h-9.572a3.421,3.421,0,0,0,0,6.843h4.422Z" fill="#f0cc6d"/>
              <path id="Trazado_5726" data-name="Trazado 5726" d="M2683.639,7222.432h-9.575v-3.469h9.575a3.438,3.438,0,0,0,3.429-3.422,3.317,3.317,0,0,0-1-2.4,3.417,3.417,0,0,0-2.432-1.025h-4.422v-3.469h4.422a6.906,6.906,0,0,1,4.88,11.777A6.933,6.933,0,0,1,2683.639,7222.432Z" fill="#f0cc6d"/>
              <rect id="Rectángulo_671" data-name="Rectángulo 671" width="3.472" height="26.519" transform="translate(2679.694 7197.124)" fill="#f0cc6d"/>
            </g>
          </g>
        </g>
        <g id="Grupo_2428" data-name="Grupo 2428">
          <path id="Trazado_5727" data-name="Trazado 5727" d="M2712.227,7243.544l-.98-1.575a5.511,5.511,0,0,0,.99-.785l1.312,1.312A7.507,7.507,0,0,1,2712.227,7243.544Z" fill="#fff"/>
          <path id="Trazado_5728" data-name="Trazado 5728" d="M2706.757,7244.914c-.261,0-.528-.007-.8-.021l.091-1.849a11.939,11.939,0,0,0,2.746-.162l.344,1.825A13.253,13.253,0,0,1,2706.757,7244.914Zm-3.882-.42a30.3,30.3,0,0,1-2.972-.767l.555-1.772a27.322,27.322,0,0,0,2.786.72Zm-5.839-1.795c-.9-.359-1.833-.764-2.779-1.211l.791-1.676c.912.429,1.812.821,2.674,1.166Zm-5.478-2.57c-.862-.463-1.745-.96-2.627-1.481l.947-1.6c.855.508,1.717.994,2.556,1.441Zm-5.186-3.067c-.826-.53-1.657-1.092-2.5-1.673l1.055-1.522c.822.568,1.637,1.116,2.448,1.637Zm-4.937-3.425c-.791-.588-1.589-1.2-2.384-1.826l1.147-1.453c.784.615,1.562,1.214,2.343,1.792Zm-4.713-3.719q-1.141-.948-2.279-1.954l1.227-1.39c.747.659,1.491,1.3,2.239,1.924Zm-4.5-3.963q-1.086-1.014-2.171-2.069l1.295-1.325q1.065,1.033,2.141,2.035Zm-4.291-4.189q-1.054-1.08-2.066-2.171l1.36-1.261q.993,1.071,2.035,2.137Zm-4.077-4.4c-.67-.757-1.322-1.518-1.955-2.275l1.424-1.19q.933,1.121,1.92,2.238Zm-3.848-4.6c-.629-.794-1.238-1.592-1.826-2.383l1.488-1.106q.867,1.167,1.795,2.34Zm-3.581-4.821q-.873-1.258-1.674-2.5l1.559-1.007q.781,1.217,1.64,2.448Zm-3.256-5.058c-.524-.883-1.024-1.769-1.484-2.628l1.636-.875c.446.835.934,1.7,1.44,2.556Zm-2.843-5.326c-.443-.94-.853-1.873-1.214-2.779l1.721-.687c.348.869.74,1.769,1.17,2.675Zm-2.239-5.646a28.763,28.763,0,0,1-.771-2.969l1.816-.369a27.784,27.784,0,0,0,.724,2.787Zm-1.176-6.053c-.014-.277-.021-.551-.021-.818a12.949,12.949,0,0,1,.207-2.36l1.822.338a11.181,11.181,0,0,0-.173,2.022c0,.237,0,.48.017.724Z" fill="#fff"/>
          <path id="Trazado_5729" data-name="Trazado 5729" d="M2649.831,7180.556l-1.572-.984a7.572,7.572,0,0,1,1.048-1.322l1.312,1.312A5.572,5.572,0,0,0,2649.831,7180.556Z" fill="#fff"/>
        </g>
        <path id="Trazado_5730" data-name="Trazado 5730" d="M2656.1,7244.91a9.245,9.245,0,0,1-6.8-2.417l1.312-1.309c2.817,2.817,8.839,2.428,16.52-1.062,8.071-3.672,17.106-10.279,25.434-18.606s14.938-17.363,18.606-25.433c3.493-7.682,3.879-13.7,1.062-16.521l1.308-1.312c3.446,3.446,3.2,10.049-.682,18.6-3.76,8.27-10.5,17.494-18.983,25.978s-17.707,15.222-25.98,18.982C2663.359,7243.876,2659.366,7244.91,2656.1,7244.91Z" fill="#fff"/>
      </g>
    </g>
  </g>
</svg>
