<svg xmlns="http://www.w3.org/2000/svg" width="152.443" height="152.443" viewBox="0 0 152.443 152.443">
  <g id="Grupo_2790" data-name="Grupo 2790" transform="translate(-1013.207 -6466.172)">
    <path id="Trazado_5394" data-name="Trazado 5394" d="M2681.428,6466.172q3.746,0,7.471.367t7.4,1.1q3.673.729,7.256,1.817t7.043,2.52q3.459,1.433,6.762,3.2t6.416,3.845q3.113,2.08,6.008,4.456t5.542,5.024q2.648,2.648,5.023,5.542t4.456,6.008q2.08,3.113,3.846,6.416t3.2,6.762q1.433,3.458,2.52,7.042t1.817,7.256q.731,3.674,1.1,7.4t.367,7.471q0,3.746-.367,7.471t-1.1,7.4q-.731,3.672-1.817,7.255t-2.52,7.043q-1.434,3.459-3.2,6.762t-3.846,6.416q-2.08,3.112-4.456,6.008t-5.023,5.542q-2.647,2.649-5.542,5.023t-6.008,4.456q-3.114,2.08-6.416,3.846t-6.762,3.2q-3.459,1.433-7.043,2.52t-7.256,1.817q-3.672.732-7.4,1.1t-7.471.367q-3.744,0-7.471-.367t-7.4-1.1q-3.672-.73-7.256-1.817t-7.043-2.52q-3.459-1.434-6.761-3.2t-6.416-3.846q-3.114-2.079-6.008-4.456t-5.543-5.023q-2.647-2.648-5.023-5.542t-4.456-6.008q-2.08-3.114-3.845-6.416t-3.2-6.762q-1.434-3.459-2.52-7.043t-1.818-7.255q-.73-3.674-1.1-7.4t-.367-7.471q0-3.744.367-7.471t1.1-7.4q.731-3.672,1.818-7.256t2.52-7.042q1.433-3.461,3.2-6.762t3.845-6.416q2.08-3.114,4.456-6.008t5.023-5.542q2.649-2.649,5.543-5.024t6.008-4.456q3.112-2.079,6.416-3.845t6.761-3.2q3.46-1.434,7.043-2.52t7.256-1.817q3.672-.732,7.4-1.1T2681.428,6466.172Z" transform="translate(-1592)" fill="#f7ec45"/>
    <circle id="Elipse_123" data-name="Elipse 123" cx="71.597" cy="71.597" r="71.597" transform="translate(1017.832 6470.797)" fill="#fff"/>
    <circle id="Elipse_124" data-name="Elipse 124" cx="65.13" cy="65.13" r="65.13" transform="translate(1024.298 6477.263)" fill="#75c1d8"/>
    <g id="Grupo_2400" data-name="Grupo 2400" transform="translate(-1592)">
      <path id="Trazado_5662" data-name="Trazado 5662" d="M2745.96,6551.1l-24.612-24.616h-20.095l-12.355-12.355h-8.085v9.8l-3.706,2.556h-35.6v39.129l41.857,41.86A65.112,65.112,0,0,0,2745.96,6551.1Z" fill="#3e8c9e"/>
      <g id="Grupo_2399" data-name="Grupo 2399">
        <g id="Grupo_2392" data-name="Grupo 2392">
          <rect id="Rectángulo_634" data-name="Rectángulo 634" width="20.832" height="28.934" transform="translate(2700.516 6536.679)" fill="#fff"/>
          <g id="Grupo_2391" data-name="Grupo 2391">
            <rect id="Rectángulo_635" data-name="Rectángulo 635" width="5.19" height="7.29" transform="translate(2704.002 6540.165)" fill="#c9c9c8"/>
            <rect id="Rectángulo_636" data-name="Rectángulo 636" width="5.19" height="7.294" transform="translate(2704.002 6550.938)" fill="#c9c9c8"/>
            <rect id="Rectángulo_637" data-name="Rectángulo 637" width="5.187" height="7.29" transform="translate(2712.675 6540.165)" fill="#c9c9c8"/>
            <rect id="Rectángulo_638" data-name="Rectángulo 638" width="5.187" height="7.294" transform="translate(2712.675 6550.938)" fill="#c9c9c8"/>
          </g>
          <path id="Trazado_5663" data-name="Trazado 5663" d="M2700.516,6536.679v28.934h20.832Z" fill="#d7d6d5"/>
        </g>
        <g id="Grupo_2394" data-name="Grupo 2394">
          <rect id="Rectángulo_639" data-name="Rectángulo 639" width="20.829" height="28.934" transform="translate(2641.509 6536.679)" fill="#fff"/>
          <g id="Grupo_2393" data-name="Grupo 2393">
            <rect id="Rectángulo_640" data-name="Rectángulo 640" width="5.19" height="7.29" transform="translate(2644.991 6540.165)" fill="#c9c9c8"/>
            <rect id="Rectángulo_641" data-name="Rectángulo 641" width="5.19" height="7.294" transform="translate(2644.991 6550.938)" fill="#c9c9c8"/>
            <rect id="Rectángulo_642" data-name="Rectángulo 642" width="5.19" height="7.29" transform="translate(2653.665 6540.165)" fill="#c9c9c8"/>
            <rect id="Rectángulo_643" data-name="Rectángulo 643" width="5.19" height="7.294" transform="translate(2653.665 6550.938)" fill="#c9c9c8"/>
          </g>
        </g>
        <rect id="Rectángulo_644" data-name="Rectángulo 644" width="79.839" height="10.194" transform="translate(2641.509 6526.484)" fill="#cd6554"/>
        <g id="Grupo_2396" data-name="Grupo 2396">
          <rect id="Rectángulo_645" data-name="Rectángulo 645" width="38.178" height="28.934" transform="translate(2662.338 6536.679)" fill="#fff"/>
          <path id="Trazado_5664" data-name="Trazado 5664" d="M2681.428,6523.5l-19.091,13.176h38.178Z" fill="#fff" fill-rule="evenodd"/>
          <path id="Trazado_5665" data-name="Trazado 5665" d="M2666.656,6536.679H2696.2l-14.769-10.194Z" fill="#c9c9c8" fill-rule="evenodd"/>
          <path id="Trazado_5666" data-name="Trazado 5666" d="M2684.011,6532.07a2.583,2.583,0,1,1-2.583-2.583A2.586,2.586,0,0,1,2684.011,6532.07Z" fill="#fff"/>
          <g id="Grupo_2395" data-name="Grupo 2395">
            <path id="Trazado_5667" data-name="Trazado 5667" d="M2669.861,6540.165a4.038,4.038,0,0,0-4.037,4.041v16.51h8.081v-16.51A4.04,4.04,0,0,0,2669.861,6540.165Z" fill="#c9c9c8"/>
            <path id="Trazado_5668" data-name="Trazado 5668" d="M2681.425,6540.165a4.038,4.038,0,0,0-4.037,4.041v16.51h8.081v-16.51A4.042,4.042,0,0,0,2681.425,6540.165Z" fill="#c9c9c8"/>
            <path id="Trazado_5669" data-name="Trazado 5669" d="M2692.989,6540.165a4.036,4.036,0,0,0-4.037,4.041v16.51h8.077v-16.51A4.038,4.038,0,0,0,2692.989,6540.165Z" fill="#c9c9c8"/>
          </g>
          <rect id="Rectángulo_646" data-name="Rectángulo 646" width="41.664" height="2.451" transform="translate(2660.596 6560.716)" fill="#c9c9c8"/>
          <rect id="Rectángulo_647" data-name="Rectángulo 647" width="45.147" height="2.445" transform="translate(2658.855 6563.168)" fill="#fff"/>
        </g>
        <g id="Grupo_2397" data-name="Grupo 2397">
          <rect id="Rectángulo_648" data-name="Rectángulo 648" width="1.224" height="9.796" transform="translate(2680.816 6514.129)" fill="#e4e3e3"/>
          <path id="Trazado_5670" data-name="Trazado 5670" d="M2688.9,6514.129h-6.857v4.9h6.857l-2.448-2.448Z" fill="#cd6554"/>
        </g>
        <g id="Grupo_2398" data-name="Grupo 2398">
          <path id="Trazado_5671" data-name="Trazado 5671" d="M2692.989,6540.165a4.036,4.036,0,0,0-4.037,4.041v2.323l7.956-3.273A4.036,4.036,0,0,0,2692.989,6540.165Z" fill="#d7d6d5"/>
          <path id="Trazado_5672" data-name="Trazado 5672" d="M2673.905,6552.713v-8.507a4.041,4.041,0,1,0-8.081,0v11.831Z" fill="#d7d6d5"/>
          <path id="Trazado_5673" data-name="Trazado 5673" d="M2685.469,6544.206a4.041,4.041,0,1,0-8.081,0v7.077l8.081-3.321Z" fill="#d7d6d5"/>
        </g>
      </g>
    </g>
  </g>
</svg>
