<svg xmlns="http://www.w3.org/2000/svg" xmlns:xlink="http://www.w3.org/1999/xlink" width="460.833" height="400.986" viewBox="0 0 460.833 400.986">
  <defs>
    <clipPath id="clip-path">
      <path id="Trazado_2199" data-name="Trazado 2199" d="M4002.786,3291.882l-58.9,5.64c0-16.253,13.2-30.712,29.449-32.269s29.449,10.376,29.449,26.629Z" fill="none" clip-rule="evenodd"/>
    </clipPath>
    <clipPath id="clip-path-2">
      <path id="Trazado_2202" data-name="Trazado 2202" d="M3973.337,3249.121a9.154,9.154,0,0,1,9.5,9.2,9.88,9.88,0,0,1-9.5,9.8,9.155,9.155,0,0,1-9.5-9.2,9.88,9.88,0,0,1,9.5-9.8Zm0,4.752a4.577,4.577,0,0,1,4.752,4.6,4.941,4.941,0,0,1-4.752,4.9,4.578,4.578,0,0,1-4.752-4.6,4.939,4.939,0,0,1,4.752-4.9Z" fill="none" clip-rule="evenodd"/>
    </clipPath>
    <clipPath id="clip-path-3">
      <path id="Trazado_2222" data-name="Trazado 2222" d="M4011.334,3407.734a65,65,0,0,1,77.69,0,83.375,83.375,0,0,1,1.051,13.236c0,30.532-16.468,56.75-39.9,67.905-23.428-11.155-39.9-37.373-39.9-67.905a83.4,83.4,0,0,1,1.051-13.236Z" fill="none" clip-rule="evenodd"/>
    </clipPath>
    <clipPath id="clip-path-4">
      <path id="Trazado_2227" data-name="Trazado 2227" d="M3896.139,3281.655c6.217-10.81,18.649-10.81,24.866-5.405s6.216,16.216,0,27.027c-4.352,8.108-15.541,16.216-24.866,21.621-9.324-5.405-20.514-13.513-24.865-21.621-6.217-10.811-6.217-21.622,0-27.027s18.649-5.405,24.865,5.405Z" fill="none" clip-rule="evenodd"/>
    </clipPath>
    <clipPath id="clip-path-5">
      <path id="Trazado_2234" data-name="Trazado 2234" d="M4130.566,3254.9s-11.866-11.806-18.64-11.21-22,14.786-22,14.786-22.188-11.389-32.15-10.74-27.617,14.635-27.617,14.635-25.62-11.286-38.319-10.52-37.876,15.117-37.876,15.117-24.252-10.854-35.421-9.937-31.592,15.441-31.592,15.441-14.678-11.939-22.211-11.48-22.991,14.23-22.991,14.23c-4.1-78.681,56.9-140.6,135.124-150,88.952-10.684,149.279,53.564,153.691,129.673Z" fill="none" clip-rule="evenodd"/>
    </clipPath>
    <clipPath id="clip-path-6">
      <path id="Trazado_2244" data-name="Trazado 2244" d="M3704.465,3487.988a34.6,34.6,0,0,0-1.229,3.239c-.555,1.763-3.47,5.3-3.554,6.7-.064,1.081,1.852,1.706,3.05,1.719,1.523.017,4.983-.537,6.088-1.619s.264-3.26.543-4.872c.294-1.7,1.221-5.321,1.221-5.321l-6.119.152Z" fill="none" clip-rule="evenodd"/>
    </clipPath>
    <clipPath id="clip-path-7">
      <path id="Trazado_2247" data-name="Trazado 2247" d="M3748.414,3495.6c-1.434.654-13.106.84-15.511.117-1.609-.484.926-2.988,1.078-4.458a29.112,29.112,0,0,0-.166-4.362l5.668.094s-.878,3.589,2.02,4.8c3.139,1.312,8.344,3.155,6.911,3.809Z" fill="none" clip-rule="evenodd"/>
    </clipPath>
    <clipPath id="clip-path-8">
      <path id="Trazado_2251" data-name="Trazado 2251" d="M3713.405,3406.632s-3.19,10.793-3.986,18.77c-1.214,12.161.453,21.926-1.189,29.937-1.915,9.349-3.687,26.354-4.468,32.036-.094.681-.426,1.712-.22,2.052s.97-.01,1.455-.015l4.212-.042c.452,0,1.083.179,1.356-.014s.2-.76.285-1.143c1.234-5.532,5.6-22.782,7.119-32.048,1.6-9.768,7.311-28.781,7.311-28.781s4.807,19.914,4.339,30.008c-.427,9.2,3.284,23.94,3.992,28.94.05.359.049.887.251,1.059s.642-.033.962-.024c.446.013,1.141.113,1.713.1.6-.015,1.412-.152,1.9-.188.345-.025.857.092,1.037-.026s.04-.456.04-.684c0-5.1,1.086-20.79-.04-29.925-.829-6.726.7-18.827.866-29.744a186.688,186.688,0,0,0-.866-20.219l-26.071-.047Z" fill="none" clip-rule="evenodd"/>
    </clipPath>
    <clipPath id="clip-path-9">
      <path id="Trazado_2262" data-name="Trazado 2262" d="M3705.353,3422.28a11.732,11.732,0,0,0,1.157,4.608c.5.871,2.728,3.661,3.882,2.136,1-1.321-.2-2.511-.994-3.461a3.11,3.11,0,0,1-.563-1.155c.191-.112,1.095,2.043,1.227,1.406.352-1.7-1.79-4.326-1.8-4.668-.026-.829-2.909,1.134-2.909,1.134Z" fill="none" clip-rule="evenodd"/>
    </clipPath>
    <clipPath id="clip-path-10">
      <path id="Trazado_2265" data-name="Trazado 2265" d="M3711.409,3368.278s-12.93,12.9-11.769,30.452c.681,10.3,4.115,18.492,5.053,22.475.118.5.294,1.264.579,1.421s.756-.321,1.133-.482l1.3-.552c.261-.111.677-.132.782-.332s-.123-.58-.152-.873c-.368-3.689-2.6-15.83-2.055-21.258.562-5.6,6.011-15.783,6.011-15.783l-.883-15.068Z" fill="none" clip-rule="evenodd"/>
    </clipPath>
    <clipPath id="clip-path-11">
      <path id="Trazado_2269" data-name="Trazado 2269" d="M3739.662,3384.008s2.33,1.24,19.556,4.807c6.677,1.382,17-2.462,20.508-3.253.22-.05.543-.1.637-.23s-.046-.356-.069-.535c-.062-.479-.24-1.855-.3-2.343-.025-.2.039-.509-.076-.586s-.4.113-.609.121c-3.087.11-12.838,2.288-17.913.538-6.619-2.282-21.188-14.349-21.188-14.349l-.542,15.83Z" fill="none" clip-rule="evenodd"/>
    </clipPath>
    <clipPath id="clip-path-12">
      <path id="Trazado_2273" data-name="Trazado 2273" d="M3869.471,3362.492c-2.55,2.189-12.368,5.792-12.368,5.792s1.384,29.018,1.736,35.766c.082,1.576-.266,3.951.376,4.719s2.316-.14,3.474-.11c2.076.053,6.007.525,8.98.43s6.825-.814,8.86-1c1.111-.1,2.719.465,3.347-.107s.279-2.215.419-3.323c.831-6.592,4.569-36.228,4.569-36.228-3.429-3.256-10.153-5.432-12.929-7.361-1.978-1.374-4.347-.4-6.464,1.42Z" fill="none" clip-rule="evenodd"/>
    </clipPath>
    <clipPath id="clip-path-13">
      <path id="Trazado_2285" data-name="Trazado 2285" d="M3860.429,3408.381s-.971,10.357-1.224,21.721c-.2,9.137.408,18.894-.3,24.677-1.324,10.836,1.092,34.438,1.092,34.438l4.708.215s3.15-22.784,3.405-33.425c.225-9.365,3.508-27.808,3.508-27.808s3.23,18.831,4.592,28.177c1.665,11.439,4.282,32.758,4.282,32.758l6.165-.563s.229-19.834-1.076-31.746a273.265,273.265,0,0,1-1.161-29.4c.174-10.627-.584-19.87-.584-19.87l-23.409.826Z" fill="none" clip-rule="evenodd"/>
    </clipPath>
    <clipPath id="clip-path-14">
      <path id="Trazado_2288" data-name="Trazado 2288" d="M3870.125,3368.415a7.471,7.471,0,0,1-.079,1.707c.078,4.212-.126,19.193.546,23.563a13.313,13.313,0,0,1-.1,2.211c-.009.681.069,1.362.044,2.043-.261,7.175-1.352,33.664-1.609,41.008-.036,1.019.541,2.5.066,3.059s-1.943.2-2.915.3l-5.931.618c-1.238.129-3.094,1.044-3.713.386s-.021-2.889,0-4.333c.112-7.779.594-34.913.672-42.336.008-.738-.152-1.468-.205-2.205s-.014-1.492-.114-2.23c-.485-3.611-2.34-15.708-2.8-19.432a6.611,6.611,0,0,1,.039-2.912c.294-.641,1.157-.824,1.8-1.109,1.8-.793,7.2-2.906,8.969-3.651.566-.238,1.224-.885,1.651-.819s.58.831.912,1.212c.455.521,1.356,1.428,1.817,1.914.317.334.81.564.951,1Z" fill="none" clip-rule="evenodd"/>
    </clipPath>
    <clipPath id="clip-path-15">
      <path id="Trazado_2294" data-name="Trazado 2294" d="M3875.959,3367.182a7.47,7.47,0,0,0,.079,1.707c-.078,4.212.126,19.193-.546,23.563a13.316,13.316,0,0,0,.1,2.211c.009.681-.064,1.362-.044,2.043.2,7.244,1.071,34.006,1.273,41.419.027,1.019-.541,2.5-.066,3.058s1.94.232,2.914.3c1.568.116,4.792.263,6.492.393,1.241.1,3.094,1.045,3.713.387s.028-2.889,0-4.334c-.149-7.809-.781-35.068-.9-42.522-.012-.738.152-1.468.205-2.2s.014-1.492.113-2.23c.486-3.611,2.3-15.669,2.8-19.432.138-1.041.5-2.474.189-3.144s-1.351-.591-2.03-.877c-1.812-.764-7.065-2.943-8.839-3.707-.612-.264-1.351-.95-1.8-.875s-.552.916-.894,1.324c-.451.54-1.355,1.428-1.816,1.914-.317.334-.81.564-.951,1Z" fill="none" clip-rule="evenodd"/>
    </clipPath>
    <clipPath id="clip-path-16">
      <path id="Trazado_2297" data-name="Trazado 2297" d="M3872.909,3368.172l-1.536-2.347c-.267-.408-.569-.793-.8-1.222-.255-.472-.564-1.251-.729-1.612-.085-.186-.119-.525-.262-.555s-.391.255-.591.376c-.235.141-.717.345-1.141.594-.354.208-.656.464-.85.583s-.514.213-.575.39.188.454.206.672a7.531,7.531,0,0,0,2.174,3.593c.205.133.359.515.535.5s.346-.4.52-.6l1.884-2.159" fill="none" clip-rule="evenodd"/>
    </clipPath>
    <clipPath id="clip-path-17">
      <path id="Trazado_2302" data-name="Trazado 2302" d="M3874.217,3366.341c-.066-.19.239-.467.315-.717.236-.769.9-3.112,1.1-3.9.069-.273-.066-.789.1-.838s.6.374.9.546c.526.294,1.763.948,2.248,1.219.225.126.605.167.661.4s-.144.6-.209.9c-.159.727-.58,2.724-.741,3.465-.071.326-.007.922-.227.976s-.71-.474-1.094-.656c-.573-.271-1.835-.741-2.344-.974-.25-.115-.644-.235-.709-.425Z" fill="none" clip-rule="evenodd"/>
    </clipPath>
    <clipPath id="clip-path-18">
      <path id="Trazado_2306" data-name="Trazado 2306" d="M3892.41,3369.132s4.938,17.761,6.082,21.88c.261.942.966,1.95.778,2.83a4.892,4.892,0,0,1-1.905,2.45c-4.678,2.885-15.549,4.5-20.689,5.1-.882.1-2.852.073-2.852.073l-.018-4,15.027-5.428c.646-.233,1.8-.21,1.936-.7s-.755-1.493-1.133-2.239l-3.5-6.915,6.274-13.052Z" fill="none" clip-rule="evenodd"/>
    </clipPath>
    <clipPath id="clip-path-19">
      <path id="Trazado_2310" data-name="Trazado 2310" d="M3853.946,3370.32s-8.409,10.989-10.825,13.839c-1.058,1.247-1.939,3.054-3.673,3.256a9.611,9.611,0,0,1-4.038-.925c-2.226-.778-7.4-2.975-9.321-3.746-.728-.292-1.754-1.111-2.185-.878s-.276,1.569-.4,2.276c-.115.655-.544,1.477-.346,1.965s1,.679,1.535.964c2.8,1.5,12.011,6.786,15.261,8.022a4.79,4.79,0,0,0,4.24-.6c2.641-1.884,11.6-10.7,11.6-10.7l-1.85-13.47Z" fill="none" clip-rule="evenodd"/>
    </clipPath>
  </defs>
  <g id="Grupo_963" data-name="Grupo 963" transform="translate(-3694.063 -3105.188)">
    <path id="Trazado_2168" data-name="Trazado 2168" d="M3993.641,3462.094c83.28,0,150.894,8.414,150.894,18.777s-67.614,18.778-150.894,18.778-150.9-8.414-150.9-18.778,67.614-18.777,150.9-18.777Z" fill="#bad8f0" fill-rule="evenodd"/>
    <path id="Trazado_2169" data-name="Trazado 2169" d="M3984.8,3127.884s-6.358,262.917,4.786,318.36c1.3,6.491,5.135,14.488,13.291,18.226,5.269,2.415,12.451,3.124,22.131.092,12.108-3.793,20.32-16.545,13.943-48.932a3.48,3.48,0,0,0-6.828,1.345c2.223,11.292,2.638,19.891,1.6,26.359-1.357,8.45-5.279,12.859-10.795,14.587-7.5,2.351-13.067,2.1-17.151.223-5.873-2.692-8.429-8.6-9.368-13.271-11.11-55.278-4.655-317.287-4.655-317.287a3.48,3.48,0,0,0-6.953.3Z" fill="#4777aa" fill-rule="evenodd"/>
    <path id="Trazado_2170" data-name="Trazado 2170" d="M4110.773,3336.736q4.437-3.431,9.022-6.665,2.609-1.836,5.268-3.6,1.583-1.046,3.183-2.061.883-.558,1.774-1.1c.421-.257.842-.512,1.267-.763l.326-.192.075-.043c.029-.017.058-.033.088-.048a.662.662,0,0,1,.472-.027.7.7,0,0,1,.2.106.683.683,0,0,1,.132.14.651.651,0,0,1,.007.735.631.631,0,0,1-.175.175c-.039.027-.082.05-.123.074l-.189.11c-.2.119-.406.24-.608.361q-.946.567-1.878,1.152-2.89,1.808-5.71,3.725-2.651,1.8-5.253,3.667-2.906,2.088-5.751,4.26-7.032,5.364-13.687,11.2l-.047.041a37.906,37.906,0,0,1,12.115,2.054.65.65,0,0,1-.445,1.222,36.351,36.351,0,0,0-12.658-1.96.645.645,0,0,1-.38-.107l-.053.047q-1.8,1.606-3.573,3.244-4.143,3.834-8.108,7.854-2.547,2.583-5.013,5.244-1.185,1.277-2.349,2.573l-.057.063c4.078.989,8.246,2.375,11.3,5.336a.65.65,0,1,1-.9.934c-3.061-2.964-7.315-4.219-11.382-5.167l-.08.09q-2.785,3.147-5.45,6.4A197.076,197.076,0,0,0,4058.8,3394.1q-1.992,3.1-3.857,6.284-.363.62-.721,1.241l-.168.294-.042.073a1.46,1.46,0,0,1-.087.143.653.653,0,0,1-.356.238.624.624,0,0,1-.162.021.655.655,0,0,1-.294-.07.632.632,0,0,1-.188-.143.653.653,0,0,1-.168-.475.627.627,0,0,1,.036-.18c.009-.025.02-.05.032-.075s.039-.069.058-.1l.127-.222.254-.442c.1-.172.2-.344.3-.515q1.845-3.174,3.821-6.269a198.034,198.034,0,0,1,13.634-18.775q2.679-3.275,5.482-6.445l.1-.114a.653.653,0,0,1-.046-.221c-.157-4.629-.59-9.021-2.348-13.35a.65.65,0,0,1,1.2-.49,37.383,37.383,0,0,1,2.4,12.705l.021-.023q2.129-2.364,4.319-4.669,5.91-6.214,12.249-12,7.248-6.628,14.986-12.694l.067-.052c.013-3.737.1-7.639-1.031-11.244a.65.65,0,1,1,1.24-.389,35.083,35.083,0,0,1,1.095,10.617l.02-.015Z" fill="#b9d7ef" fill-rule="evenodd"/>
    <path id="Trazado_2171" data-name="Trazado 2171" d="M4077.123,3361.963a61.832,61.832,0,0,0,2.932-12.579c.72-6.447-4.732-25.982-14.472-17.88-8.236,6.849,2.982,26.9,10.9,30.791" fill="#b9d7ef" fill-rule="evenodd"/>
    <path id="Trazado_2172" data-name="Trazado 2172" d="M4110.131,3329.726c2.87-7.468,4.367-21.449-8.528-24.866-9.4-2.492-11.5,7.059-8.519,11.418,3.95,5.785,12.173,8.8,16.547,14.178" fill="#b9d7ef" fill-rule="evenodd"/>
    <path id="Trazado_2173" data-name="Trazado 2173" d="M4086.064,3372.306c2.029,6.667,6.423,13.454,12.158,17.46,19.082,13.325,10.029-25.261-12.241-18.545" fill="#b9d7ef" fill-rule="evenodd"/>
    <path id="Trazado_2174" data-name="Trazado 2174" d="M4106.8,3349.824c5,5.464,10.489,10.086,17.6,12.5,19.75,6.695,2.292-25.1-18.027-13.131" fill="#b9d7ef" fill-rule="evenodd"/>
    <path id="Trazado_2175" data-name="Trazado 2175" d="M4128.714,3324.9c3.063-7.231,9.443-20.973,18.81-21.243,7.952-.229,9.678,11.98,4.163,16.17-6.969,5.294-15.68,2.283-23.141,5.495" fill="#b9d7ef" fill-rule="evenodd"/>
    <path id="Trazado_2176" data-name="Trazado 2176" d="M3961.732,3459.43s-90.5-88.857-133.1-106.217c-40.525-16.514-43.92-29.6-54.561-52.939a.885.885,0,0,0-1.61.734c10.823,23.742,14.282,37.047,55.5,53.844,42.433,17.291,132.53,105.841,132.53,105.841a.885.885,0,0,0,1.241-1.263Z" fill="#b9d7ef" fill-rule="evenodd"/>
    <path id="Trazado_2177" data-name="Trazado 2177" d="M3884.125,3389.454a63.851,63.851,0,0,1-3.26-24.284.885.885,0,1,0-1.765-.136,65.635,65.635,0,0,0,3.341,24.966.885.885,0,0,0,1.684-.546Z" fill="#b9d7ef" fill-rule="evenodd"/>
    <path id="Trazado_2178" data-name="Trazado 2178" d="M3877.283,3385.478c-9.256.687-18.728,1.434-27.382,5.167a.885.885,0,1,0,.7,1.625c8.472-3.654,17.751-4.354,26.812-5.027a.885.885,0,0,0-.131-1.765Z" fill="#b9d7ef" fill-rule="evenodd"/>
    <path id="Trazado_2179" data-name="Trazado 2179" d="M3841.318,3359.971c-3.2-7.516-3.694-15.825-3.766-23.881a.885.885,0,1,0-1.77.016c.074,8.286.618,16.827,3.907,24.558a.885.885,0,0,0,1.629-.693Z" fill="#b9d7ef" fill-rule="evenodd"/>
    <path id="Trazado_2180" data-name="Trazado 2180" d="M3834.716,3356.844c-8.169,1.674-17.877,3.76-24.387,9.38a.885.885,0,1,0,1.157,1.34c6.288-5.428,15.695-7.369,23.586-8.986a.885.885,0,0,0-.356-1.734Z" fill="#b9d7ef" fill-rule="evenodd"/>
    <path id="Trazado_2181" data-name="Trazado 2181" d="M3808.257,3343.5a63,63,0,0,1-.886-18.058.885.885,0,0,0-1.762-.173,64.823,64.823,0,0,0,.91,18.567.885.885,0,0,0,1.738-.336Z" fill="#b9d7ef" fill-rule="evenodd"/>
    <path id="Trazado_2182" data-name="Trazado 2182" d="M3801.67,3340.016c-6.554,1.339-13.562,1.965-19.568,5.2a.885.885,0,1,0,.84,1.558c5.853-3.157,12.7-3.724,19.082-5.029a.885.885,0,1,0-.354-1.734Z" fill="#b9d7ef" fill-rule="evenodd"/>
    <path id="Trazado_2183" data-name="Trazado 2183" d="M3784.708,3321.257a62.482,62.482,0,0,1,3.12-21.426.885.885,0,1,0-1.693-.518,64.246,64.246,0,0,0-3.2,22.031.885.885,0,0,0,1.768-.087Z" fill="#b9d7ef" fill-rule="evenodd"/>
    <path id="Trazado_2184" data-name="Trazado 2184" d="M3779.7,3314.861a40.948,40.948,0,0,0-19.977,2.465.885.885,0,1,0,.6,1.664,39.289,39.289,0,0,1,19.159-2.372.885.885,0,0,0,.216-1.757Z" fill="#b9d7ef" fill-rule="evenodd"/>
    <path id="Trazado_2185" data-name="Trazado 2185" d="M3879.535,3372.247c-5.952-8.1-10.375-29.956.443-35.47a7.425,7.425,0,0,1,6.6.187c7.9,3.8,6.465,14.062,3.542,20.613-2.6,5.826-6.776,10.587-9.712,16.166" fill="#b9d7ef" fill-rule="evenodd"/>
    <path id="Trazado_2186" data-name="Trazado 2186" d="M3861.108,3387.709c-9.654-3.421-20.7-6.37-28.71,1.961-1.861,1.935-3.72,4.512-3.515,7.348.684,9.493,13.533,9.442,19.405,5.766,5.823-3.645,9.669-9.615,14.559-14.295" fill="#b9d7ef" fill-rule="evenodd"/>
    <path id="Trazado_2187" data-name="Trazado 2187" d="M3836.578,3343.045c-14.993-20.494,13.883-34.832,10.69-19.02-1.491,7.385-8.307,11.424-10.519,18.24" fill="#b9d7ef" fill-rule="evenodd"/>
    <path id="Trazado_2188" data-name="Trazado 2188" d="M3822.936,3360.19c-10.452-3.174-35.185-3.4-35.343,12.371a11.7,11.7,0,0,0,3.474,8.692c10.639,9.517,22.889-3.489,29.021-11.742,2.078-2.8,4.667-5.592,4.432-9.335" fill="#b9d7ef" fill-rule="evenodd"/>
    <path id="Trazado_2189" data-name="Trazado 2189" d="M3806.06,3334.235c-3.4-7.419-7.723-18.705-3.593-26.658,3.634-7,15.006-8.223,15.659,1.354.723,10.625-10.279,15.561-11.8,25.1" fill="#b9d7ef" fill-rule="evenodd"/>
    <path id="Trazado_2190" data-name="Trazado 2190" d="M3791.872,3342.588c-6.473-2.214-17.721-6.007-23.845-.972-5.507,4.527-6.548,18.123,3.262,17.925,8.676-.176,13.722-11.716,19.952-16.473" fill="#b9d7ef" fill-rule="evenodd"/>
    <path id="Trazado_2191" data-name="Trazado 2191" d="M3785.2,3306.137c-6.782-20.475,17.822-29.341,13.17-14.3-2.009,6.5-10.021,8.86-13.232,14.679" fill="#b9d7ef" fill-rule="evenodd"/>
    <path id="Trazado_2192" data-name="Trazado 2192" d="M3769.076,3316.108c-27.713-12.028-27.307,18.356-15.922,15.278,6.52-1.762,9.51-10.479,14.954-14.189" fill="#b9d7ef" fill-rule="evenodd"/>
    <path id="Trazado_2193" data-name="Trazado 2193" d="M3776.642,3306.777c.2-8.574,1.465-19.064-5.839-25.294-5.9-5.03-17.095-.518-15.565,7.88,1.77,9.72,14.123,14.521,21.582,19.833" fill="#b9d7ef" fill-rule="evenodd"/>
    <path id="Trazado_2194" data-name="Trazado 2194" d="M4060.807,3272.8l-164.668,12.841,13.656,193.2,142.468,12.36,8.544-218.406Z" fill="#c6def2" fill-rule="evenodd"/>
    <path id="Trazado_2195" data-name="Trazado 2195" d="M4054.339,3279.966l-151.732,12,12.583,180.53,131.275,11.549,7.873-204.077Z" fill="#fff" fill-rule="evenodd"/>
    <path id="Trazado_2196" data-name="Trazado 2196" d="M4002.786,3291.882l-58.9,5.64c0-16.253,13.2-30.712,29.449-32.269s29.449,10.376,29.449,26.629Z" fill="#7ba7cf" fill-rule="evenodd"/>
    <g id="Grupo_926" data-name="Grupo 926">
      <g id="Grupo_925" data-name="Grupo 925" clip-path="url(#clip-path)">
        <path id="Trazado_2197" data-name="Trazado 2197" d="M3969.509,3268.05s-3.933.405-9.258,4.279a39.007,39.007,0,0,0-7.477,7.386,2.592,2.592,0,0,0,4.439,2.676,35.251,35.251,0,0,1,4.821-8.181c3.946-4.852,7.475-6.16,7.475-6.16Z" fill="#b9d2e6" fill-rule="evenodd"/>
        <path id="Trazado_2198" data-name="Trazado 2198" d="M3950.612,3284.318a10.153,10.153,0,0,0-1.56,3.061,17.371,17.371,0,0,0-.815,4.51,2.244,2.244,0,1,0,4.48.274,13.543,13.543,0,0,1,.47-2.814,6.418,6.418,0,0,1,1-2.191,2.285,2.285,0,1,0-3.58-2.84Z" fill="#b9d2e6" fill-rule="evenodd"/>
      </g>
    </g>
    <path id="Trazado_2200" data-name="Trazado 2200" d="M3973.337,3249.121a9.154,9.154,0,0,1,9.5,9.2,9.88,9.88,0,0,1-9.5,9.8,9.155,9.155,0,0,1-9.5-9.2,9.88,9.88,0,0,1,9.5-9.8Zm0,4.752a4.577,4.577,0,0,1,4.752,4.6,4.941,4.941,0,0,1-4.752,4.9,4.578,4.578,0,0,1-4.752-4.6,4.939,4.939,0,0,1,4.752-4.9Z" fill="#7ba7cf" fill-rule="evenodd"/>
    <g id="Grupo_928" data-name="Grupo 928">
      <g id="Grupo_927" data-name="Grupo 927" clip-path="url(#clip-path-2)">
        <path id="Trazado_2201" data-name="Trazado 2201" d="M3970.541,3251.081a8.015,8.015,0,0,0-1.889.766,7.677,7.677,0,0,0-1.153.781,6.958,6.958,0,0,0-.994,1.005,5.532,5.532,0,0,0-.538.788,5.045,5.045,0,0,0-.385.876,6.248,6.248,0,0,0-.289,1.4,6.8,6.8,0,0,0,.009,1.4,8.44,8.44,0,0,0,.487,1.982,9.31,9.31,0,0,1,.2-1.954,9.181,9.181,0,0,1,.338-1.21,9.59,9.59,0,0,1,.487-1.118c.12-.246.247-.48.37-.71.2-.369.393-.722.609-1.048.157-.237.308-.464.468-.681a9.54,9.54,0,0,1,2.281-2.279Z" fill="#b9d2e6" fill-rule="evenodd"/>
      </g>
    </g>
    <path id="Trazado_2203" data-name="Trazado 2203" d="M3945.239,3319.649l93.458-7.734a2.256,2.256,0,0,0-.372-4.5l-93.459,7.734a2.256,2.256,0,1,0,.373,4.5Z" fill="#dedede" fill-rule="evenodd"/>
    <path id="Trazado_2204" data-name="Trazado 2204" d="M3945.47,3329.085l92.354-7.281a2.256,2.256,0,1,0-.355-4.5l-92.354,7.281a2.256,2.256,0,1,0,.355,4.5Z" fill="#dedede" fill-rule="evenodd"/>
    <path id="Trazado_2205" data-name="Trazado 2205" d="M3946.4,3337.94l90.914-5.789a2.256,2.256,0,0,0-.287-4.5l-90.914,5.789a2.256,2.256,0,1,0,.287,4.5Z" fill="#dedede" fill-rule="evenodd"/>
    <path id="Trazado_2206" data-name="Trazado 2206" d="M3922.531,3332.917q.1-.23.215-.472c.284-.609.625-1.281,1.037-1.979a33.434,33.434,0,0,1,3.241-4.563,23.75,23.75,0,0,1,8.8-6.813.395.395,0,1,1,.37.7,21.454,21.454,0,0,0-5.627,6.09c-.708,1.068-1.329,2.154-1.913,3.21-.649,1.171-1.2,2.308-1.708,3.324-.417.832-.8,1.582-1.12,2.222-.675,1.35-1.087,2.193-1.087,2.193a1.73,1.73,0,0,1-3.13.229,13.592,13.592,0,0,0-2.516-3.614,30.721,30.721,0,0,0-3.5-3.229.651.651,0,1,1,.618-1.147,23.507,23.507,0,0,1,5.415,3.072q.474.366.915.779Z" fill="#cc7072" fill-rule="evenodd"/>
    <path id="Trazado_2207" data-name="Trazado 2207" d="M3946.369,3358.9l89.978-7.543a2.256,2.256,0,1,0-.377-4.5l-89.978,7.542a2.256,2.256,0,1,0,.377,4.5Z" fill="#dedede" fill-rule="evenodd"/>
    <path id="Trazado_2208" data-name="Trazado 2208" d="M3947.542,3367.295l87.7-7.227a2.256,2.256,0,0,0-.371-4.5l-87.7,7.227a2.256,2.256,0,1,0,.371,4.5Z" fill="#dedede" fill-rule="evenodd"/>
    <path id="Trazado_2209" data-name="Trazado 2209" d="M3948.04,3376.2l86.354-5.952a2.256,2.256,0,1,0-.31-4.5l-86.355,5.952a2.256,2.256,0,0,0,.311,4.5Z" fill="#dedede" fill-rule="evenodd"/>
    <path id="Trazado_2210" data-name="Trazado 2210" d="M3924.7,3370.34q.1-.23.215-.473c.284-.609.625-1.281,1.036-1.979a33.478,33.478,0,0,1,3.242-4.563,23.754,23.754,0,0,1,8.795-6.813.4.4,0,0,1,.37.7,21.445,21.445,0,0,0-5.628,6.089c-.708,1.068-1.329,2.154-1.913,3.21-.648,1.172-1.2,2.308-1.707,3.324-.417.833-.8,1.582-1.12,2.222-.676,1.35-1.087,2.193-1.087,2.193a1.73,1.73,0,0,1-3.13.229,13.589,13.589,0,0,0-2.516-3.614,30.641,30.641,0,0,0-3.506-3.229.652.652,0,1,1,.619-1.147,23.552,23.552,0,0,1,5.415,3.072c.315.244.621.5.915.78Z" fill="#cc7072" fill-rule="evenodd"/>
    <path id="Trazado_2211" data-name="Trazado 2211" d="M3948.5,3396.006l87.386-7.158a2.256,2.256,0,0,0-.369-4.5l-87.386,7.158a2.256,2.256,0,0,0,.369,4.5Z" fill="#dedede" fill-rule="evenodd"/>
    <path id="Trazado_2212" data-name="Trazado 2212" d="M3949.167,3404.268l85.73-5.865a2.256,2.256,0,0,0-.308-4.5l-85.73,5.865a2.256,2.256,0,0,0,.308,4.5Z" fill="#dedede" fill-rule="evenodd"/>
    <path id="Trazado_2213" data-name="Trazado 2213" d="M3949.141,3412.93l84.842-4.827a2.256,2.256,0,0,0-.256-4.505l-84.843,4.827a2.256,2.256,0,1,0,.257,4.5Z" fill="#dedede" fill-rule="evenodd"/>
    <path id="Trazado_2214" data-name="Trazado 2214" d="M3926.813,3406.427q.1-.23.215-.473c.284-.609.625-1.28,1.037-1.979a33.4,33.4,0,0,1,3.241-4.562,23.753,23.753,0,0,1,8.8-6.814.4.4,0,0,1,.37.7,21.467,21.467,0,0,0-5.628,6.089c-.708,1.069-1.328,2.154-1.913,3.21-.648,1.172-1.2,2.308-1.707,3.324-.417.833-.8,1.582-1.12,2.223-.676,1.349-1.087,2.192-1.087,2.192a1.73,1.73,0,0,1-3.13.229,13.612,13.612,0,0,0-2.516-3.614,30.692,30.692,0,0,0-3.506-3.229.651.651,0,1,1,.619-1.146,23.524,23.524,0,0,1,5.415,3.071c.315.244.621.505.915.78Z" fill="#cc7072" fill-rule="evenodd"/>
    <path id="Trazado_2215" data-name="Trazado 2215" d="M3949.69,3432.595l84.65-2.91a2.256,2.256,0,0,0-.155-4.51l-84.65,2.91a2.256,2.256,0,0,0,.155,4.51Z" fill="#dedede" fill-rule="evenodd"/>
    <path id="Trazado_2216" data-name="Trazado 2216" d="M3949.946,3442.007l84.482-.8a2.256,2.256,0,1,0-.043-4.512l-84.482.8a2.256,2.256,0,1,0,.043,4.512Z" fill="#dedede" fill-rule="evenodd"/>
    <path id="Trazado_2217" data-name="Trazado 2217" d="M3950.285,3450.139l83.306,2.635a2.256,2.256,0,1,0,.143-4.51l-83.306-2.635a2.256,2.256,0,1,0-.143,4.51Z" fill="#dedede" fill-rule="evenodd"/>
    <path id="Trazado_2218" data-name="Trazado 2218" d="M3928.928,3443.4c.068-.153.139-.311.215-.473.284-.609.624-1.281,1.036-1.979a33.445,33.445,0,0,1,3.242-4.563,23.743,23.743,0,0,1,8.8-6.813.395.395,0,1,1,.37.7,21.458,21.458,0,0,0-5.628,6.09c-.708,1.068-1.329,2.154-1.913,3.21-.648,1.171-1.2,2.308-1.707,3.324-.417.832-.8,1.582-1.12,2.222-.676,1.35-1.088,2.193-1.088,2.193a1.729,1.729,0,0,1-3.129.229,13.591,13.591,0,0,0-2.516-3.614,30.664,30.664,0,0,0-3.506-3.229.652.652,0,0,1,.618-1.147,23.5,23.5,0,0,1,5.416,3.072c.315.244.621.505.915.78Z" fill="#cc7072" fill-rule="evenodd"/>
    <path id="Trazado_2219" data-name="Trazado 2219" d="M4011.334,3407.734a65,65,0,0,1,77.69,0,83.375,83.375,0,0,1,1.051,13.236c0,30.532-16.468,56.75-39.9,67.905-23.428-11.155-39.9-37.373-39.9-67.905a83.4,83.4,0,0,1,1.051-13.236Z" fill="#5b99dd" fill-rule="evenodd"/>
    <g id="Grupo_930" data-name="Grupo 930">
      <g id="Grupo_929" data-name="Grupo 929" clip-path="url(#clip-path-3)">
        <path id="Trazado_2220" data-name="Trazado 2220" d="M4050.179,3394.85s-40.27,20.767-28.276,68.093l-11.62-7.161c-23.645-49.8,3.6-61,29.836-72.962l10.06,12.03Z" fill="#84b9e8" fill-rule="evenodd"/>
        <path id="Trazado_2221" data-name="Trazado 2221" d="M4089.024,3407.734s-1.919,42.935-38.845,81.141h21.909l25.128-54.837-7.141-39.188-1.051,12.884Z" fill="#4c80b8" fill-rule="evenodd"/>
      </g>
    </g>
    <path id="Trazado_2223" data-name="Trazado 2223" d="M4009.962,3405.848a2.338,2.338,0,0,0-.931,1.516,85.753,85.753,0,0,0-1.08,13.606c0,31.5,17.057,58.5,41.225,70.011a2.334,2.334,0,0,0,2.006,0c24.168-11.507,41.225-38.514,41.225-70.011a85.753,85.753,0,0,0-1.08-13.606,2.337,2.337,0,0,0-.931-1.516,67.33,67.33,0,0,0-80.434,0Zm76.906,3.211a62.605,62.605,0,0,0-73.378,0,81.106,81.106,0,0,0-.874,11.911c0,29.13,15.412,54.243,37.563,65.309,22.152-11.066,37.563-36.179,37.563-65.309a81.072,81.072,0,0,0-.874-11.911Z" fill="#fff" fill-rule="evenodd"/>
    <path id="Trazado_2224" data-name="Trazado 2224" d="M4058.123,3423.262h13.224v15.888h-13.224v13.224h-15.888V3439.15H4029.01v-15.888h13.224v-13.224h15.888v13.224Z" fill="#fff" fill-rule="evenodd"/>
    <path id="Trazado_2225" data-name="Trazado 2225" d="M3896.139,3281.655c6.217-10.81,18.649-10.81,24.866-5.405s6.216,16.216,0,27.027c-4.352,8.108-15.541,16.216-24.866,21.621-9.324-5.405-20.514-13.513-24.865-21.621-6.217-10.811-6.217-21.622,0-27.027s18.649-5.405,24.865,5.405Z" fill="#cc7072" fill-rule="evenodd"/>
    <g id="Grupo_932" data-name="Grupo 932">
      <g id="Grupo_931" data-name="Grupo 931" clip-path="url(#clip-path-4)">
        <path id="Trazado_2226" data-name="Trazado 2226" d="M3891.583,3308.287l3.77-22.5a.8.8,0,0,1,1.527-.164l6.969,17.454,3.214-9.345a.8.8,0,0,1,1.481-.069l1.958,4.34h12.728a.8.8,0,1,1,0,1.594h-13.243a.8.8,0,0,1-.727-.469l-1.343-2.976-3.258,9.473a.8.8,0,0,1-1.495.037l-6.709-16.8-3.758,22.431a.8.8,0,0,1-1.523.174l-6.621-15.974-1.142,3.553a.8.8,0,0,1-.759.553h-13.6a.8.8,0,1,1,0-1.594h13.023l1.629-5.067a.8.8,0,0,1,1.5-.061l6.387,15.413Z" fill="#fff" fill-rule="evenodd"/>
      </g>
    </g>
    <path id="Trazado_2228" data-name="Trazado 2228" d="M3985.511,3107.2l-1.151,16.709a3.371,3.371,0,0,0,3.66,3.066,3.452,3.452,0,0,0,3.581-3.228l-1.575-16.648a2.1,2.1,0,0,0-2.283-1.913,2.151,2.151,0,0,0-2.232,2.014Z" fill="#4777aa" fill-rule="evenodd"/>
    <path id="Trazado_2229" data-name="Trazado 2229" d="M4130.566,3254.9s-11.866-11.806-18.64-11.21-22,14.786-22,14.786-22.188-11.389-32.15-10.74-27.617,14.635-27.617,14.635-25.62-11.286-38.319-10.52-37.876,15.117-37.876,15.117-24.252-10.854-35.421-9.937-31.592,15.441-31.592,15.441-14.678-11.939-22.211-11.48-22.991,14.23-22.991,14.23c-4.1-78.681,56.9-140.6,135.124-150,88.952-10.684,149.279,53.564,153.691,129.673Z" fill="#b7d6ef" fill-rule="evenodd"/>
    <g id="Grupo_934" data-name="Grupo 934">
      <g id="Grupo_933" data-name="Grupo 933" clip-path="url(#clip-path-5)">
        <path id="Trazado_2230" data-name="Trazado 2230" d="M3987.91,3124.27s39.014,10.41,42.251,138.1l61.362-.176-5.492-71.376-31.324-43.715c-7.763-6.169-22.94-23.164-35.943-19.621-11.447-5.1-22.384-8.433-30.854-3.209Z" fill="#fff" fill-rule="evenodd"/>
        <path id="Trazado_2231" data-name="Trazado 2231" d="M3987.91,3124.27s-43.208,16.576-33.944,142.694L3921.4,3287.77l-36.587-8.018-4.111-23.227,9.677-80.165,32.962-53.958,45.956-9.277,18.615,11.145Z" fill="#fff" fill-rule="evenodd"/>
        <path id="Trazado_2232" data-name="Trazado 2232" d="M3887.75,3272.03c-10.435,132.826-50.116,23.746-50.116,23.746s-17.5-17.549-21.151-19.24-2.847-61.409-4.316-64.842,59.578-87.289,59.578-87.289l82.026-30.962,34.139,30.827s-88.622.894-100.16,147.76Z" fill="#b7d6ef" fill-rule="evenodd"/>
        <path id="Trazado_2233" data-name="Trazado 2233" d="M3987.91,3124.27s86.106-6.819,102.018,134.2l41.351,10.095,12.122-49.086-23.792-65.139-56.664-33.986-41.976-17.1-33.776,7.266.717,13.749Z" fill="#b7d6ef" fill-rule="evenodd"/>
      </g>
    </g>
    <path id="Trazado_2235" data-name="Trazado 2235" d="M3805.01,3237.52a7.942,7.942,0,1,1-7.942,7.942,7.946,7.946,0,0,1,7.942-7.942Z" fill="#4777aa" fill-rule="evenodd"/>
    <path id="Trazado_2236" data-name="Trazado 2236" d="M4109.155,3282.314a7.942,7.942,0,1,1-7.941,7.942,7.946,7.946,0,0,1,7.941-7.942Z" fill="#cc7072" fill-rule="evenodd"/>
    <path id="Trazado_2237" data-name="Trazado 2237" d="M4144.535,3258.242a5.523,5.523,0,1,1-5.523,5.523,5.526,5.526,0,0,1,5.523-5.523Z" fill="#4777aa" fill-rule="evenodd"/>
    <path id="Trazado_2238" data-name="Trazado 2238" d="M4130.792,3211.419a2.825,2.825,0,1,1-2.825,2.825,2.826,2.826,0,0,1,2.825-2.825Z" fill="#4777aa" fill-rule="evenodd"/>
    <path id="Trazado_2239" data-name="Trazado 2239" d="M3805.01,3166.059a3.971,3.971,0,1,1-3.971,3.971,3.974,3.974,0,0,1,3.971-3.971Z" fill="#cc7072" fill-rule="evenodd"/>
    <path id="Trazado_2240" data-name="Trazado 2240" d="M3823.49,3198.081a3.971,3.971,0,1,1-3.97,3.971,3.973,3.973,0,0,1,3.97-3.971Z" fill="#4777aa" fill-rule="evenodd"/>
    <path id="Trazado_2241" data-name="Trazado 2241" d="M3723.125,3486.7c16.039,0,29.061,4.362,29.061,9.736s-13.022,9.737-29.061,9.737-29.062-4.363-29.062-9.737,13.022-9.736,29.062-9.736Z" fill="#bad8f0" fill-rule="evenodd"/>
    <path id="Trazado_2242" data-name="Trazado 2242" d="M3704.465,3487.988a34.6,34.6,0,0,0-1.229,3.239c-.555,1.763-3.47,5.3-3.554,6.7-.064,1.081,1.852,1.706,3.05,1.719,1.523.017,4.983-.537,6.088-1.619s.264-3.26.543-4.872c.294-1.7,1.221-5.321,1.221-5.321l-6.119.152Z" fill-rule="evenodd"/>
    <g id="Grupo_936" data-name="Grupo 936">
      <g id="Grupo_935" data-name="Grupo 935" clip-path="url(#clip-path-6)">
        <path id="Trazado_2243" data-name="Trazado 2243" d="M3710.255,3491.879a7.575,7.575,0,0,1-2.266,1.511,6.121,6.121,0,0,1-2.174.048c-.836-.053-2.3-.022-2.638-.865a3.435,3.435,0,0,1,.326-2.234c.375-.987.136-2.143,1.353-2.751,1.294-.647,5.79-.734,6.824.289.884.876-.528,3.293-1.425,4Z" fill="#d8a18a" fill-rule="evenodd"/>
      </g>
    </g>
    <path id="Trazado_2245" data-name="Trazado 2245" d="M3748.414,3495.6c-1.434.654-13.106.84-15.511.117-1.609-.484.926-2.988,1.078-4.458a29.112,29.112,0,0,0-.166-4.362l5.668.094s-.878,3.589,2.02,4.8c3.139,1.312,8.344,3.155,6.911,3.809Z" fill-rule="evenodd"/>
    <g id="Grupo_938" data-name="Grupo 938">
      <g id="Grupo_937" data-name="Grupo 937" clip-path="url(#clip-path-7)">
        <path id="Trazado_2246" data-name="Trazado 2246" d="M3733.459,3490.608a3.157,3.157,0,0,0,.752,1.622c1.339,1.263,4.543,1.058,6.3,1.136.778.034,3.183.442,3.039-.851-.135-1.219-1.329-2.342-1.792-3.453-.4-.962-.232-2.043-.669-3.013a3.972,3.972,0,0,0-1.462-1.849c-1.34-.74-6.743-1.221-7.438.548-.5,1.272.668,3.263.811,4.642" fill="#d8a18a" fill-rule="evenodd"/>
      </g>
    </g>
    <path id="Trazado_2248" data-name="Trazado 2248" d="M3713.405,3406.632s-3.19,10.793-3.986,18.77c-1.214,12.161.453,21.926-1.189,29.937-1.915,9.349-3.687,26.354-4.468,32.036-.094.681-.426,1.712-.22,2.052s.97-.01,1.455-.015l4.212-.042c.452,0,1.083.179,1.356-.014s.2-.76.285-1.143c1.234-5.532,5.6-22.782,7.119-32.048,1.6-9.768,7.311-28.781,7.311-28.781s4.807,19.914,4.339,30.008c-.427,9.2,3.284,23.94,3.992,28.94.05.359.049.887.251,1.059s.642-.033.962-.024c.446.013,1.141.113,1.713.1.6-.015,1.412-.152,1.9-.188.345-.025.857.092,1.037-.026s.04-.456.04-.684c0-5.1,1.086-20.79-.04-29.925-.829-6.726.7-18.827.866-29.744a186.688,186.688,0,0,0-.866-20.219l-26.071-.047Z" fill="#355479" fill-rule="evenodd"/>
    <g id="Grupo_940" data-name="Grupo 940">
      <g id="Grupo_939" data-name="Grupo 939" clip-path="url(#clip-path-8)">
        <path id="Trazado_2249" data-name="Trazado 2249" d="M3725.422,3427.4c3.944,6.352,4.99,15.65,5.286,22.944a20.237,20.237,0,0,1-1.339,7.612c-.384,1.1-.708,2.2-1.051,3.311-.035.112-.077.445-.111.333-.635-2.119-.465-4.385-.817-6.549-.232-1.419-.68-2.775-.88-4.2a137.786,137.786,0,0,1-.878-13.8c-.124-3.153-.537-6.3-.66-9.441" fill="#2e4867" fill-rule="evenodd"/>
        <path id="Trazado_2250" data-name="Trazado 2250" d="M3741.132,3417.193c-2.819.166-5.612.748-8.434.861-4.959.2-9.911.064-14.867.091-.885,0-7.319.156-7.638-.609-2.273-5.461,7.551-3.916,9.953-4.018,6-.254,15.529-1.461,20.916,2" fill="#2e4867" fill-rule="evenodd"/>
      </g>
    </g>
    <path id="Trazado_2252" data-name="Trazado 2252" d="M3713.405,3406.632s-3.19,10.793-3.986,18.77c-1.214,12.161.453,21.926-1.189,29.937-1.915,9.349-3.687,26.354-4.468,32.036-.094.681-.426,1.712-.22,2.052s.97-.01,1.455-.015l4.212-.042c.452,0,1.083.179,1.356-.014s.2-.76.285-1.143c1.234-5.532,5.6-22.782,7.119-32.048,1.6-9.768,7.311-28.781,7.311-28.781s4.807,19.914,4.339,30.008c-.427,9.2,3.284,23.94,3.992,28.94.05.359.049.887.251,1.059s.642-.033.962-.024c.446.013,1.141.113,1.713.1.6-.015,1.412-.152,1.9-.188.345-.025.857.092,1.037-.026s.04-.456.04-.684c0-5.1,1.086-20.79-.04-29.925-.829-6.726.7-18.827.866-29.744a186.688,186.688,0,0,0-.866-20.219l-26.071-.047Z" fill="none" stroke="#000" stroke-linecap="round" stroke-linejoin="round" stroke-width="0.24"/>
    <path id="Trazado_2253" data-name="Trazado 2253" d="M3722.485,3366.7l-11.123,1.582a41.011,41.011,0,0,0,.038,9.171c1.534,9.407-.641,28.512-.76,34.675-.015.767-.334,1.914.045,2.3s1.488-.016,2.231.02c2.446.118,8.292.653,12.447.69,4.329.039,10.877-.385,13.525-.458.787-.021,2,.346,2.363.021s-.171-1.31-.185-1.969c-.138-6.348-2.138-26.988-.643-36.119.449-2.739-.1-5.541.008-8.331l-12.181-1.729-5.765.147Z" fill="#80acdb" fill-rule="evenodd"/>
    <path id="Trazado_2254" data-name="Trazado 2254" d="M3722.945,3361.414c-.422,1.66-1.4,4.317-1.49,6.461,0,0,.116,3.11,3.928,3.061a3.711,3.711,0,0,0,3.981-3.174c-.3-1.927-.708-4.12-.36-5.486l-6.059-.862Z" fill="#d8a18a" fill-rule="evenodd"/>
    <path id="Trazado_2255" data-name="Trazado 2255" d="M3726.15,3364.514c9.154.069,10.31-14.818,8.5-18.136s-17.92-4.8-19.338-1.775-.787,19.822,10.834,19.911Z" fill="#dfb5a1" fill-rule="evenodd"/>
    <path id="Trazado_2256" data-name="Trazado 2256" d="M3721.3,3347.1c3.067-.192,13.976,5.91,17.175,2.179.877-1.022,2.191-9.278,1.332-9.838-.02-.013-.449.449-.49.486-2.912,2.661-9.969-.952-13.39-1.416a18.115,18.115,0,0,0-8.1.825c-1.857.64-3.173,1.372-4.014,3.222-1.336,2.937-.194,17.334,4.531,17.649a1.382,1.382,0,0,0,.989-.324c1.77-1.483.879-5.512.4-7.405-.051-.206-.065.419-.107.626a1.464,1.464,0,0,1-.641,1.131c-1.486.707-1.993-2.194-1.79-3.035a2.3,2.3,0,0,1,.555-1.12c.569-.571,1.478-.277,2.048.135.094.068.2.307.273.215.6-.784.045-3.257,1.226-3.33Z" fill-rule="evenodd"/>
    <path id="Trazado_2257" data-name="Trazado 2257" d="M3705.353,3422.28a11.732,11.732,0,0,0,1.157,4.608c.5.871,2.728,3.661,3.882,2.136,1-1.321-.2-2.511-.994-3.461a3.11,3.11,0,0,1-.563-1.155c.191-.112,1.095,2.043,1.227,1.406.352-1.7-1.79-4.326-1.8-4.668-.026-.829-2.909,1.134-2.909,1.134Z" fill="#d8a18a" fill-rule="evenodd"/>
    <g id="Grupo_942" data-name="Grupo 942">
      <g id="Grupo_941" data-name="Grupo 941" clip-path="url(#clip-path-9)">
        <path id="Trazado_2258" data-name="Trazado 2258" d="M3707.674,3427.744c.166.168.309.359.49.512.26.22.553.395.822.6a7.691,7.691,0,0,0,.932.695.012.012,0,0,0,.018,0,.013.013,0,0,0-.005-.018,7.826,7.826,0,0,1-.929-.693c-.268-.21-.561-.384-.821-.6-.18-.152-.322-.344-.488-.511a.014.014,0,0,0-.019,0,.013.013,0,0,0,0,.019Z" fill="#c66f4e" fill-rule="evenodd"/>
        <path id="Trazado_2259" data-name="Trazado 2259" d="M3708.177,3427.461a26.82,26.82,0,0,0,2.072,1.824.014.014,0,0,0,.019,0,.013.013,0,0,0,0-.019,26.466,26.466,0,0,1-2.07-1.822.014.014,0,0,0-.019,0,.012.012,0,0,0,0,.019Z" fill="#c66f4e" fill-rule="evenodd"/>
        <path id="Trazado_2260" data-name="Trazado 2260" d="M3708.883,3427.061c.6.62,1.234,1.2,1.781,1.87a.014.014,0,0,0,.018,0,.013.013,0,0,0,0-.019c-.546-.673-1.178-1.251-1.782-1.872a.013.013,0,0,0-.019.019Z" fill="#c66f4e" fill-rule="evenodd"/>
        <path id="Trazado_2261" data-name="Trazado 2261" d="M3709.374,3426.522a13.746,13.746,0,0,1,1.42,1.975.015.015,0,0,0,.018,0,.013.013,0,0,0,0-.019,13.794,13.794,0,0,0-1.422-1.978.014.014,0,1,0-.021.017Z" fill="#c66f4e" fill-rule="evenodd"/>
      </g>
    </g>
    <path id="Trazado_2263" data-name="Trazado 2263" d="M3711.409,3368.278s-12.93,12.9-11.769,30.452c.681,10.3,4.115,18.492,5.053,22.475.118.5.294,1.264.579,1.421s.756-.321,1.133-.482l1.3-.552c.261-.111.677-.132.782-.332s-.123-.58-.152-.873c-.368-3.689-2.6-15.83-2.055-21.258.562-5.6,6.011-15.783,6.011-15.783l-.883-15.068Z" fill="#80acdb" fill-rule="evenodd"/>
    <g id="Grupo_944" data-name="Grupo 944">
      <g id="Grupo_943" data-name="Grupo 943" clip-path="url(#clip-path-10)">
        <path id="Trazado_2264" data-name="Trazado 2264" d="M3712.633,3380.149c-4.178,4.628-8.479,14.382-7.868,20.8.252,2.643,1.567,4.88,2.662,7.235.4.863.808,1.723,1.237,2.572.111.219.249.885.333.655.691-1.883.259-4.915.374-6.872.349-5.946,5.238-18.054,3.757-23.421" fill="#6698d3" fill-rule="evenodd"/>
      </g>
    </g>
    <path id="Trazado_2266" data-name="Trazado 2266" d="M3779.914,3381.868a31.7,31.7,0,0,1,1.563-3.734c.462-.757,1.555-2.126,1.871-1.891s-.908,3.352.021,3.3,4.511-4.351,5.548-3.614c.98.7-2.256,3.429-1.723,3.53s4.346-3.851,4.917-2.921c.512.833-4.3,4.067-4.413,4.6s3.534-2.134,3.72-1.387c.3,1.2-3.608,2.5-3.594,2.984s3.471-1.041,3.678-.063c.165.778-5.727,2.336-7.608,2.774a13.135,13.135,0,0,1-3.678-.147l-.3-3.433Z" fill="#d8a18a" fill-rule="evenodd"/>
    <path id="Trazado_2267" data-name="Trazado 2267" d="M3739.662,3384.008s2.33,1.24,19.556,4.807c6.677,1.382,17-2.462,20.508-3.253.22-.05.543-.1.637-.23s-.046-.356-.069-.535c-.062-.479-.24-1.855-.3-2.343-.025-.2.039-.509-.076-.586s-.4.113-.609.121c-3.087.11-12.838,2.288-17.913.538-6.619-2.282-21.188-14.349-21.188-14.349l-.542,15.83Z" fill="#80acdb" fill-rule="evenodd"/>
    <g id="Grupo_946" data-name="Grupo 946">
      <g id="Grupo_945" data-name="Grupo 945" clip-path="url(#clip-path-11)">
        <path id="Trazado_2268" data-name="Trazado 2268" d="M3738.341,3380.718s16.833,5.384,26.059,6.391a57.925,57.925,0,0,0,9.858.119c1.2-.076,2.4-.177,3.609-.225.425-.017,1.522-.387,1.276-.04-5.563,7.845-26.811,5.128-35.156,2.034-1.413-.523-3.6-1.045-4.623-2.256-1.344-1.6-1.38-4.064-1.023-6.023Z" fill="#6698d3" fill-rule="evenodd"/>
      </g>
    </g>
    <path id="Trazado_2270" data-name="Trazado 2270" d="M3871.585,3486.319c16.039,0,29.061,4.363,29.061,9.736s-13.022,9.737-29.061,9.737-29.062-4.363-29.062-9.737,13.022-9.736,29.062-9.736Z" fill="#bad8f0" fill-rule="evenodd"/>
    <path id="Trazado_2271" data-name="Trazado 2271" d="M3869.471,3362.492c-2.55,2.189-12.368,5.792-12.368,5.792s1.384,29.018,1.736,35.766c.082,1.576-.266,3.951.376,4.719s2.316-.14,3.474-.11c2.076.053,6.007.525,8.98.43s6.825-.814,8.86-1c1.111-.1,2.719.465,3.347-.107s.279-2.215.419-3.323c.831-6.592,4.569-36.228,4.569-36.228-3.429-3.256-10.153-5.432-12.929-7.361-1.978-1.374-4.347-.4-6.464,1.42Z" fill="#355479" fill-rule="evenodd"/>
    <g id="Grupo_948" data-name="Grupo 948">
      <g id="Grupo_947" data-name="Grupo 947" clip-path="url(#clip-path-12)">
        <path id="Trazado_2272" data-name="Trazado 2272" d="M3866.657,3363.057c.451,2.2,1.462,4.071,3.667,4.8,9.777,3.228,13.971-11.926,1.689-8.3-2.442.722-4.29,2.97-6.738,3.5" fill="#d49980" fill-rule="evenodd"/>
      </g>
    </g>
    <path id="Trazado_2274" data-name="Trazado 2274" d="M3868.974,3358.892a34.673,34.673,0,0,1,1.115,3.849c.188,1.295,2.4,1.342,3.268,1.122s2.217-1.443,1.933-2.442c-.366-1.283-1.074-4.783-1.074-4.783l-5.242,2.254Z" fill="#d49980" fill-rule="evenodd"/>
    <path id="Trazado_2275" data-name="Trazado 2275" d="M3857.72,3345.27c-1.508,3.2,4.374,15.894,7.917,15.961,13.5.254,10.365-16.512,9.045-19.172s-15.455.016-16.962,3.211Z" fill="#dfb5a2" fill-rule="evenodd"/>
    <path id="Trazado_2276" data-name="Trazado 2276" d="M3868.558,3346.149c-3.762.946-8.428,3.479-12.134,1.095a6.365,6.365,0,0,1-2.808-4.3c-.871-4.406,2.2-3.054,4.774-3.377,1.778-.223,3.473-.781,5.221-1.142,2.568-.531,5.6-1.286,8.222-.846,4.717.791,7.67,5.9,6.733,10.512-.581,2.86-2.589,7.115-3.714,9.96-.149.379-.6-.547-.875-.851-.773-.867-2.021-5.924-1.249-6.713.2-.2.336.455.556.629,2.481,1.959,1.806-5.171.043-3.42-.422.418-.476,1.1-.852,1.51-.167.181-.115-.479-.153-.723a12.6,12.6,0,0,1-.136-1.543c-.08-2.667-3.628-.789-3.628-.789Z" fill="#7c5343" fill-rule="evenodd"/>
    <path id="Trazado_2277" data-name="Trazado 2277" d="M3860.541,3487.048a10.018,10.018,0,0,1-.635,3.564c-.878,1.448-4.721,4.092-4.634,5.128s3.528,1.663,5.157,1.087,3.951-3.394,4.614-4.542c.394-.681-.495-1.543-.635-2.347-.149-.858-.261-2.8-.261-2.8l-3.606-.087Z" fill-rule="evenodd"/>
    <path id="Trazado_2278" data-name="Trazado 2278" d="M3881.787,3487.554s-.037,2.875-.7,3.983c-.963,1.62-5.176,4.575-5.081,5.733s3.869,1.858,5.654,1.214,4.333-3.793,5.06-5.076c.432-.761-.543-1.725-.7-2.624-.164-.959-.287-3.133-.287-3.133l-3.954-.1Z" fill-rule="evenodd"/>
    <path id="Trazado_2279" data-name="Trazado 2279" d="M3860.429,3408.381s-.971,10.357-1.224,21.721c-.2,9.137.408,18.894-.3,24.677-1.324,10.836,1.092,34.438,1.092,34.438l4.708.215s3.15-22.784,3.405-33.425c.225-9.365,3.508-27.808,3.508-27.808s3.23,18.831,4.592,28.177c1.665,11.439,4.282,32.758,4.282,32.758l6.165-.563s.229-19.834-1.076-31.746a273.265,273.265,0,0,1-1.161-29.4c.174-10.627-.584-19.87-.584-19.87l-23.409.826Z" fill="#4e4e4e" fill-rule="evenodd"/>
    <g id="Grupo_950" data-name="Grupo 950">
      <g id="Grupo_949" data-name="Grupo 949" clip-path="url(#clip-path-13)">
        <path id="Trazado_2280" data-name="Trazado 2280" d="M3884.738,3444.646c-.891,3.385-2.4,6.643-2.672,10.162-.347,4.494.824,9.225,1.01,13.754.253,6.186-.332,12.385-.055,18.574.034.763.031,2.331.97,2.646s1.845-.791,2.348-1.379c6.192-7.22,2.385-32.744-.556-42.425" fill="#464646" fill-rule="evenodd"/>
        <path id="Trazado_2281" data-name="Trazado 2281" d="M3869.834,3447.15c-3.824,6.945-3.131,16.412-3.827,24.257a55.588,55.588,0,0,0,.146,9.542c.063.745.1,1.492.169,2.237.035.4-.168,1.435.158,1.2,3.466-2.508,4.878-28.328,2.764-34.642" fill="#464646" fill-rule="evenodd"/>
        <path id="Trazado_2282" data-name="Trazado 2282" d="M3888.639,3409.8c-8.714-2.924-18.145.017-27.028-.04-1.875-.012-8.837.6-8.4-2.795.386-3,6.235-3.475,8.275-3.614a77.14,77.14,0,0,1,11.211.325,115.013,115.013,0,0,1,12.46,1.47c1.108.21,2.18.5,3.261.818,1.9.556,3.824.884,3.062,3.477a3.245,3.245,0,0,1-2.347,2" fill="#343434" fill-rule="evenodd"/>
        <path id="Trazado_2283" data-name="Trazado 2283" d="M3885.8,3443.391c-2.51-.555-8.476.593-10.057-1.1-2.028-2.176-.186-13.039-.165-16.174.021-3.342-.11-6.7-.27-10.035-.147-3.084-1.89-11.511,2.406-12.6a6.644,6.644,0,0,1,5.247,1.345c3.906,2.651,5.862,6.486,7.08,10.939,1.073,3.924,1.943,7.993,2.617,12a31.987,31.987,0,0,1-2.179,18.993" fill="#343434" fill-rule="evenodd"/>
        <path id="Trazado_2284" data-name="Trazado 2284" d="M3870.513,3444.068c-4.232-1.858-16.794,3.231-16.775-.266a1.827,1.827,0,0,1,.674-1.158c2.416-2.3,7.241-1.556,10.356-1.985,2.345-.322,3.048-1.31,4.793-2.774.119-.1.149-.13.309-.106,2.436.357,1.559,4.642.539,5.877" fill="#343434" fill-rule="evenodd"/>
      </g>
    </g>
    <path id="Trazado_2286" data-name="Trazado 2286" d="M3870.125,3368.415a7.471,7.471,0,0,1-.079,1.707c.078,4.212-.126,19.193.546,23.563a13.313,13.313,0,0,1-.1,2.211c-.009.681.069,1.362.044,2.043-.261,7.175-1.352,33.664-1.609,41.008-.036,1.019.541,2.5.066,3.059s-1.943.2-2.915.3l-5.931.618c-1.238.129-3.094,1.044-3.713.386s-.021-2.889,0-4.333c.112-7.779.594-34.913.672-42.336.008-.738-.152-1.468-.205-2.205s-.014-1.492-.114-2.23c-.485-3.611-2.34-15.708-2.8-19.432a6.611,6.611,0,0,1,.039-2.912c.294-.641,1.157-.824,1.8-1.109,1.8-.793,7.2-2.906,8.969-3.651.566-.238,1.224-.885,1.651-.819s.58.831.912,1.212c.455.521,1.356,1.428,1.817,1.914.317.334.81.564.951,1Z" fill="#fff" fill-rule="evenodd"/>
    <g id="Grupo_952" data-name="Grupo 952">
      <g id="Grupo_951" data-name="Grupo 951" clip-path="url(#clip-path-14)">
        <path id="Trazado_2287" data-name="Trazado 2287" d="M3865,3364.209a25.773,25.773,0,0,1,1.873,2.636,12.461,12.461,0,0,0,1.181,1.533c.425.47,2.129,2.153,2.777,1.125a1.835,1.835,0,0,0,.165-1.334,8.128,8.128,0,0,0-2.071-3.308c-1.18-1.352-2.276-2.861-3.8-.909" fill="#d6d6d6" fill-rule="evenodd"/>
      </g>
    </g>
    <path id="Trazado_2289" data-name="Trazado 2289" d="M3867.809,3390.311l2.373,13.6-10.126.168-2.5-13.75,10.257-.019Z" fill="#30456c" stroke="#000" stroke-linecap="round" stroke-linejoin="round" stroke-width="0.3" fill-rule="evenodd"/>
    <path id="Trazado_2290" data-name="Trazado 2290" d="M3873.862,3397.6c-.21-.108-.551-.179-.763-.283-.483-.236-.966-.472-1.452-.7-.439-.207-1.146-.517-1.606-.69-.27-.1-1.519-.6-1.317-.326.017.023.072.5.116.7.031.137.037.252.073.387a1.921,1.921,0,0,1,.075.449c0,.221.178.76-.171.838a.75.75,0,0,1-.19.016,1.4,1.4,0,0,1-.243-.023c-1.244-.234-2.4-.79-3.625-1.084a2.868,2.868,0,0,0-.8-.107c-.07.007-.222.033-.255.124-.054.15.256.341.332.388a23.334,23.334,0,0,0,2.7,1.307c.151.068.3.138.448.212a.544.544,0,0,1,.108.067c.01.008.024.036.012.035a4.2,4.2,0,0,1-.846-.279c-.62-.245-1.777-.729-2.511-.991a9.061,9.061,0,0,0-1.047-.322.8.8,0,0,0-.38-.015.082.082,0,0,0-.055.075c.038.308.364.518.61.659.887.51,1.844.861,2.774,1.283a3.069,3.069,0,0,1,.616.348.2.2,0,0,1,.061.088c.02.074-.081.075-.115.069a2.1,2.1,0,0,1-.359-.09c-.753-.269-1.486-.641-2.253-.872-.145-.043-.33-.15-.451-.058-.064.049,0,.166.034.239a1.065,1.065,0,0,0,.356.425,6.954,6.954,0,0,0,1.556.7c.125.048.537.176.607.337.023.053-.115.027-.172.016-.224-.045-.445-.107-.669-.156-.129-.028-.258-.058-.389-.078a1.08,1.08,0,0,0-.591.012.152.152,0,0,0-.083.157.359.359,0,0,0,.059.14,1.4,1.4,0,0,0,.377.317,6.717,6.717,0,0,0,1.066.51,14.23,14.23,0,0,0,2.97.769,4.9,4.9,0,0,0,1.75,0c1.2-.26,2.516-.55,3.717-.822l-.074-3.774Z" fill="#d49980" fill-rule="evenodd"/>
    <path id="Trazado_2291" data-name="Trazado 2291" d="M3875.959,3367.182a7.47,7.47,0,0,0,.079,1.707c-.078,4.212.126,19.193-.546,23.563a13.316,13.316,0,0,0,.1,2.211c.009.681-.064,1.362-.044,2.043.2,7.244,1.071,34.006,1.273,41.419.027,1.019-.541,2.5-.066,3.058s1.94.232,2.914.3c1.568.116,4.792.263,6.492.393,1.241.1,3.094,1.045,3.713.387s.028-2.889,0-4.334c-.149-7.809-.781-35.068-.9-42.522-.012-.738.152-1.468.205-2.2s.014-1.492.113-2.23c.486-3.611,2.3-15.669,2.8-19.432.138-1.041.5-2.474.189-3.144s-1.351-.591-2.03-.877c-1.812-.764-7.065-2.943-8.839-3.707-.612-.264-1.351-.95-1.8-.875s-.552.916-.894,1.324c-.451.54-1.355,1.428-1.816,1.914-.317.334-.81.564-.951,1Z" fill="#fff" fill-rule="evenodd"/>
    <g id="Grupo_954" data-name="Grupo 954">
      <g id="Grupo_953" data-name="Grupo 953" clip-path="url(#clip-path-15)">
        <path id="Trazado_2292" data-name="Trazado 2292" d="M3880.6,3362.159c-.591.68-1.166,3.615-1.533,5.013a.719.719,0,0,1-1.125.494c-.532-.4-1.926-.982-2.038-1.419-.423-1.64,2.638-6.215,4.616-4.03" fill="#d6d6d6" fill-rule="evenodd"/>
        <path id="Trazado_2293" data-name="Trazado 2293" d="M3890.278,3400.281c-1.963.775-14.418,3.107-16.032,2.417-.714-.3-.94-1.537-.972-2.218a1.374,1.374,0,0,1,.5-1.132c1.293-1.108,17.713-4.232,16.581,1.361" fill="#ededed" fill-rule="evenodd"/>
      </g>
    </g>
    <path id="Trazado_2295" data-name="Trazado 2295" d="M3872.909,3368.172l-1.536-2.347c-.267-.408-.569-.793-.8-1.222-.255-.472-.564-1.251-.729-1.612-.085-.186-.119-.525-.262-.555s-.391.255-.591.376c-.235.141-.717.345-1.141.594-.354.208-.656.464-.85.583s-.514.213-.575.39.188.454.206.672a7.531,7.531,0,0,0,2.174,3.593c.205.133.359.515.535.5s.346-.4.52-.6l1.884-2.159" fill="#fff" fill-rule="evenodd"/>
    <g id="Grupo_956" data-name="Grupo 956">
      <g id="Grupo_955" data-name="Grupo 955" clip-path="url(#clip-path-16)">
        <path id="Trazado_2296" data-name="Trazado 2296" d="M3872,3365.86c-.933.864-2.179,2.506-3.6,1.6a7.268,7.268,0,0,1-1.679-1.678,3.469,3.469,0,0,0-.419-.52c-.293.108.226,1.575.323,1.79a6.314,6.314,0,0,0,3.086,3.389c1.206.423,1.788-1.394,2.027-2.212a5.323,5.323,0,0,0,.235-2.013" fill="#ededed" fill-rule="evenodd"/>
      </g>
    </g>
    <path id="Trazado_2298" data-name="Trazado 2298" d="M3873.058,3368.321a5.4,5.4,0,0,1-2.634-.411l1.308-1.513,1.326,1.924Z" fill="#d6d6d6" fill-rule="evenodd"/>
    <path id="Trazado_2299" data-name="Trazado 2299" d="M3873.226,3368.321a14.886,14.886,0,0,0,1.383-2.784l2.69,1.29a7.035,7.035,0,0,1-4.073,1.494Z" fill="#d6d6d6" fill-rule="evenodd"/>
    <path id="Trazado_2300" data-name="Trazado 2300" d="M3874.217,3366.341c-.066-.19.239-.467.315-.717.236-.769.9-3.112,1.1-3.9.069-.273-.066-.789.1-.838s.6.374.9.546c.526.294,1.763.948,2.248,1.219.225.126.605.167.661.4s-.144.6-.209.9c-.159.727-.58,2.724-.741,3.465-.071.326-.007.922-.227.976s-.71-.474-1.094-.656c-.573-.271-1.835-.741-2.344-.974-.25-.115-.644-.235-.709-.425Z" fill="#fff" fill-rule="evenodd"/>
    <g id="Grupo_958" data-name="Grupo 958">
      <g id="Grupo_957" data-name="Grupo 957" clip-path="url(#clip-path-17)">
        <path id="Trazado_2301" data-name="Trazado 2301" d="M3880.183,3362.094c-.691,1.7-1.7,3.813-3.771,3.886-.562.02-1.864-.508-2.091-.465-.085.016.047.472.055.492a2.666,2.666,0,0,0,.5.808,6.262,6.262,0,0,0,2.847,2.035c2.032.593,3.248-3,2.877-4.578a3.547,3.547,0,0,0-.941-1.59" fill="#ededed" fill-rule="evenodd"/>
      </g>
    </g>
    <path id="Trazado_2303" data-name="Trazado 2303" d="M3892.41,3369.132s4.938,17.761,6.082,21.88c.261.942.966,1.95.778,2.83a4.892,4.892,0,0,1-1.905,2.45c-4.678,2.885-15.549,4.5-20.689,5.1-.882.1-2.852.073-2.852.073l-.018-4,15.027-5.428c.646-.233,1.8-.21,1.936-.7s-.755-1.493-1.133-2.239l-3.5-6.915,6.274-13.052Z" fill="#fff" fill-rule="evenodd"/>
    <g id="Grupo_960" data-name="Grupo 960">
      <g id="Grupo_959" data-name="Grupo 959" clip-path="url(#clip-path-18)">
        <path id="Trazado_2304" data-name="Trazado 2304" d="M3897.994,3384.662c.067,14.44-8.109,13.432-19.349,15.47-2.376.431-5.8.088-3.241,3.073,6.9,8.053,22.816,1.2,25.7-7.787,1.13-3.518-.444-8.045-2.015-11.228" fill="#ededed" fill-rule="evenodd"/>
        <path id="Trazado_2305" data-name="Trazado 2305" d="M3887.686,3386.275a15.607,15.607,0,0,1,4.1,4.124c1.994,3.248-5.082,4.136-5.53.073a3.868,3.868,0,0,1,1.4-3.162" fill="#ededed" fill-rule="evenodd"/>
      </g>
    </g>
    <path id="Trazado_2307" data-name="Trazado 2307" d="M3824.016,3382.184a12.119,12.119,0,0,0-.915-2.709c-.492-.791-1.808-2.232-2.036-2.037-.9.773,1.078,2.594.429,2.859-1.09.445-4.319-3.776-4.6-3.438-.512.627,2.044,3.084,1.943,3.456-.053.2-1.305-.65-2.326-1.555-.9-.8-1.58-1.682-1.747-1.34-.492,1.01,3.535,3.9,3.644,4.409.061.284-.978-.381-1.822-.931-.662-.432-1.168-.822-1.168-.433,0,.969,2.818,2.331,2.709,2.914-.09.488-3.047-2.245-2.783-1.42.39,1.224,3.33,3.171,4.8,3.8,1.277.549,2.772.242,3.155.38l.709-3.96Z" fill="#d8a18a" fill-rule="evenodd"/>
    <path id="Trazado_2308" data-name="Trazado 2308" d="M3853.946,3370.32s-8.409,10.989-10.825,13.839c-1.058,1.247-1.939,3.054-3.673,3.256a9.611,9.611,0,0,1-4.038-.925c-2.226-.778-7.4-2.975-9.321-3.746-.728-.292-1.754-1.111-2.185-.878s-.276,1.569-.4,2.276c-.115.655-.544,1.477-.346,1.965s1,.679,1.535.964c2.8,1.5,12.011,6.786,15.261,8.022a4.79,4.79,0,0,0,4.24-.6c2.641-1.884,11.6-10.7,11.6-10.7l-1.85-13.47Z" fill="#fff" fill-rule="evenodd"/>
    <g id="Grupo_962" data-name="Grupo 962">
      <g id="Grupo_961" data-name="Grupo 961" clip-path="url(#clip-path-19)">
        <path id="Trazado_2309" data-name="Trazado 2309" d="M3856.093,3380.285c-.89,1.945-2.761,3.17-4.236,4.632-3.6,3.571-7.413,8.545-13.124,7.989-3.209-.313-6.059-2.156-9.077-3.131a22.294,22.294,0,0,0-4.365-.921c-.079-.008-.269-.092-.238-.019,1.122,2.68,4.732,4.48,6.891,5.916,3.761,2.5,8.731,5.183,13.422,4.655,4.06-.458,10.227-6.887,12.07-10.3.986-1.826,1.181-3.971,1.657-5.964.341-1.43.9-3.077.558-4.562" fill="#ededed" fill-rule="evenodd"/>
      </g>
    </g>
  </g>
</svg>
