<svg xmlns="http://www.w3.org/2000/svg" xmlns:xlink="http://www.w3.org/1999/xlink" width="202.667" height="202.667" viewBox="0 0 202.667 202.667">
  <defs>
    <clipPath id="clip-path">
      <circle id="Elipse_53" data-name="Elipse 53" cx="98.333" cy="98.333" r="98.333" transform="translate(3821.261 5942.878)" fill="none"/>
    </clipPath>
    <clipPath id="clip-path-2">
      <rect id="Rectángulo_238" data-name="Rectángulo 238" width="140.137" height="182.625" transform="translate(3871.746 5965.005)" fill="none"/>
    </clipPath>
  </defs>
  <g id="Grupo_2799" data-name="Grupo 2799" transform="translate(-612.66 -3532.398)">
    <g id="Grupo_1183" data-name="Grupo 1183" transform="translate(-3205.602 -2407.48)">
      <g id="Grupo_1182" data-name="Grupo 1182" clip-path="url(#clip-path)">
        <g id="Grupo_1145" data-name="Grupo 1145">
          <g id="Grupo_1140" data-name="Grupo 1140">
            <g id="Grupo_1139" data-name="Grupo 1139">
              <g id="Grupo_1111" data-name="Grupo 1111">
                <path id="Trazado_4275" data-name="Trazado 4275" d="M3490.367,6735.829H3396.79l.233,113.694" fill="none" stroke="#909294" stroke-linecap="round" stroke-linejoin="round" stroke-width="21.782"/>
                <line id="Línea_167" data-name="Línea 167" y2="51.092" transform="translate(3490.6 6795.646)" fill="none" stroke="#909294" stroke-linecap="round" stroke-linejoin="round" stroke-width="18.152"/>
                <rect id="Rectángulo_218" data-name="Rectángulo 218" width="93.578" height="29.128" transform="translate(3397.022 6766.517)" fill="#3d3d66"/>
                <path id="Trazado_4276" data-name="Trazado 4276" d="M3397.456,6796.165H3490.6v-7.359h-93.144a3.424,3.424,0,0,0-3.093,3.679h0A3.425,3.425,0,0,0,3397.456,6796.165Z" fill="#2f2f4f"/>
                <path id="Trazado_4277" data-name="Trazado 4277" d="M3407.481,6733.452a5.942,5.942,0,0,0,5.942,5.942h57.926a5.942,5.942,0,0,0,5.943-5.942h0a5.943,5.943,0,0,0-5.943-5.942h-57.926a5.943,5.943,0,0,0-5.942,5.942Z" fill="#3d3d66"/>
                <path id="Trazado_4278" data-name="Trazado 4278" d="M3498.683,6681.86a5.467,5.467,0,0,0,5.467,5.467h28.318a5.468,5.468,0,0,0,5.468-5.467h0a5.467,5.467,0,0,0-5.468-5.466H3504.15a5.466,5.466,0,0,0-5.467,5.466Z" fill="#0d0d0d"/>
                <path id="Trazado_4279" data-name="Trazado 4279" d="M3532.468,6681.86H3504.15a5.46,5.46,0,0,0-4.729,2.733,5.411,5.411,0,0,1-.738-2.733,5.466,5.466,0,0,1,5.467-5.466h28.318a5.458,5.458,0,0,1,4.73,8.2A5.46,5.46,0,0,0,3532.468,6681.86Z" fill="#333"/>
                <g id="Grupo_1095" data-name="Grupo 1095">
                  <path id="Trazado_4280" data-name="Trazado 4280" d="M3533.181,6681.623H3490.6v118.586h-95.24l-32.967,55.351" fill="none" stroke="#909294" stroke-linecap="round" stroke-linejoin="round" stroke-width="29.043"/>
                  <path id="Trazado_4281" data-name="Trazado 4281" d="M3506.288,6846.738h-67.977l-17.472-17.473h-39.16" fill="none" stroke="#909294" stroke-linecap="round" stroke-linejoin="round" stroke-width="18.152"/>
                  <path id="Trazado_4282" data-name="Trazado 4282" d="M3326.939,6833.2c-1.422,2.662.334,6.375,3.92,8.292l26.555,14.184c3.588,1.917,7.651,1.311,9.073-1.351h0c1.421-2.663-.334-6.376-3.922-8.293l-26.554-14.184c-3.588-1.916-7.65-1.311-9.072,1.352Z" fill="#333"/>
                  <path id="Trazado_4283" data-name="Trazado 4283" d="M3359.724,6851.988l-26.553-14.185a8.281,8.281,0,0,0-6.529-.749,4,4,0,0,1,.3-.74c1.422-2.663,5.484-3.268,9.072-1.352l26.554,14.185c3.588,1.917,5.343,5.629,3.922,8.292a4.521,4.521,0,0,1-2.543,2.1C3364.73,6856.965,3362.992,6853.732,3359.724,6851.988Z" fill="#0d0d0d"/>
                </g>
                <g id="Grupo_1110" data-name="Grupo 1110">
                  <g id="Grupo_1096" data-name="Grupo 1096">
                    <line id="Línea_168" data-name="Línea 168" x1="52.115" y1="13.964" transform="translate(3439.68 6809.524)" fill="none" stroke="#b5b5b5" stroke-miterlimit="10" stroke-width="3.63"/>
                    <line id="Línea_169" data-name="Línea 169" x1="52.101" y2="14.012" transform="translate(3439.694 6823.488)" fill="none" stroke="#b5b5b5" stroke-miterlimit="10" stroke-width="3.63"/>
                    <line id="Línea_170" data-name="Línea 170" x1="38.081" y2="38.221" transform="translate(3453.714 6823.488)" fill="none" stroke="#b5b5b5" stroke-miterlimit="10" stroke-width="3.63"/>
                    <line id="Línea_171" data-name="Línea 171" x1="13.822" y2="52.155" transform="translate(3477.972 6823.488)" fill="none" stroke="#b5b5b5" stroke-miterlimit="10" stroke-width="3.63"/>
                    <line id="Línea_172" data-name="Línea 172" x2="14.153" y2="52.066" transform="translate(3491.795 6823.488)" fill="none" stroke="#b5b5b5" stroke-miterlimit="10" stroke-width="3.63"/>
                    <line id="Línea_173" data-name="Línea 173" x2="38.325" y2="37.98" transform="translate(3491.795 6823.488)" fill="none" stroke="#b5b5b5" stroke-miterlimit="10" stroke-width="3.63"/>
                    <line id="Línea_174" data-name="Línea 174" x2="52.192" y2="13.683" transform="translate(3491.795 6823.488)" fill="none" stroke="#b5b5b5" stroke-miterlimit="10" stroke-width="3.63"/>
                    <line id="Línea_175" data-name="Línea 175" y1="14.292" x2="52.027" transform="translate(3491.795 6809.196)" fill="none" stroke="#b5b5b5" stroke-miterlimit="10" stroke-width="3.63"/>
                    <line id="Línea_176" data-name="Línea 176" y1="38.425" x2="37.875" transform="translate(3491.795 6785.063)" fill="none" stroke="#b5b5b5" stroke-miterlimit="10" stroke-width="3.63"/>
                    <line id="Línea_177" data-name="Línea 177" y1="52.226" x2="13.541" transform="translate(3491.795 6771.262)" fill="none" stroke="#b5b5b5" stroke-miterlimit="10" stroke-width="3.63"/>
                    <line id="Línea_178" data-name="Línea 178" x1="14.435" y1="51.986" transform="translate(3477.36 6771.502)" fill="none" stroke="#b5b5b5" stroke-miterlimit="10" stroke-width="3.63"/>
                    <line id="Línea_179" data-name="Línea 179" x1="38.528" y1="37.768" transform="translate(3453.267 6785.72)" fill="none" stroke="#b5b5b5" stroke-miterlimit="10" stroke-width="3.63"/>
                  </g>
                  <g id="Grupo_1097" data-name="Grupo 1097">
                    <line id="Línea_180" data-name="Línea 180" x1="46.726" y1="26.976" transform="translate(3445.062 6796.5)" fill="none" stroke="#b5b5b5" stroke-miterlimit="10" stroke-width="3.63"/>
                    <line id="Línea_181" data-name="Línea 181" x1="53.952" y2="0.049" transform="translate(3437.835 6823.477)" fill="none" stroke="#b5b5b5" stroke-miterlimit="10" stroke-width="3.63"/>
                    <line id="Línea_182" data-name="Línea 182" x1="46.675" y2="27.063" transform="translate(3445.112 6823.477)" fill="none" stroke="#b5b5b5" stroke-miterlimit="10" stroke-width="3.63"/>
                    <line id="Línea_183" data-name="Línea 183" x1="26.849" y2="46.8" transform="translate(3464.938 6823.477)" fill="none" stroke="#b5b5b5" stroke-miterlimit="10" stroke-width="3.63"/>
                    <line id="Línea_184" data-name="Línea 184" x2="0.195" y2="53.956" transform="translate(3491.787 6823.477)" fill="none" stroke="#b5b5b5" stroke-miterlimit="10" stroke-width="3.63"/>
                    <line id="Línea_185" data-name="Línea 185" x2="27.189" y2="46.606" transform="translate(3491.787 6823.477)" fill="none" stroke="#b5b5b5" stroke-miterlimit="10" stroke-width="3.63"/>
                    <line id="Línea_186" data-name="Línea 186" x2="46.872" y2="26.725" transform="translate(3491.787 6823.477)" fill="none" stroke="#b5b5b5" stroke-miterlimit="10" stroke-width="3.63"/>
                    <line id="Línea_187" data-name="Línea 187" y1="0.339" x2="53.953" transform="translate(3491.787 6823.137)" fill="none" stroke="#b5b5b5" stroke-miterlimit="10" stroke-width="3.63"/>
                    <line id="Línea_188" data-name="Línea 188" y1="27.312" x2="46.531" transform="translate(3491.787 6796.165)" fill="none" stroke="#b5b5b5" stroke-miterlimit="10" stroke-width="3.63"/>
                    <line id="Línea_189" data-name="Línea 189" y1="46.942" x2="26.597" transform="translate(3491.787 6776.534)" fill="none" stroke="#b5b5b5" stroke-miterlimit="10" stroke-width="3.63"/>
                    <line id="Línea_190" data-name="Línea 190" x1="0.488" y1="53.951" transform="translate(3491.299 6769.526)" fill="none" stroke="#b5b5b5" stroke-miterlimit="10" stroke-width="3.63"/>
                    <line id="Línea_191" data-name="Línea 191" x1="27.44" y1="46.453" transform="translate(3464.347 6777.024)" fill="none" stroke="#b5b5b5" stroke-miterlimit="10" stroke-width="3.63"/>
                  </g>
                  <g id="Grupo_1098" data-name="Grupo 1098">
                    <line id="Línea_192" data-name="Línea 192" x1="53.953" transform="translate(3437.842 6823.488)" fill="none" stroke="#b5b5b5" stroke-miterlimit="10" stroke-width="5.446"/>
                    <line id="Línea_193" data-name="Línea 193" x1="46.7" y2="27.02" transform="translate(3445.095 6823.488)" fill="none" stroke="#b5b5b5" stroke-miterlimit="10" stroke-width="5.446"/>
                    <line id="Línea_194" data-name="Línea 194" x1="26.891" y2="46.774" transform="translate(3464.904 6823.488)" fill="none" stroke="#b5b5b5" stroke-miterlimit="10" stroke-width="5.446"/>
                    <line id="Línea_195" data-name="Línea 195" x2="0.147" y2="53.956" transform="translate(3491.795 6823.488)" fill="none" stroke="#b5b5b5" stroke-miterlimit="10" stroke-width="5.446"/>
                    <line id="Línea_196" data-name="Línea 196" x2="27.146" y2="46.629" transform="translate(3491.795 6823.488)" fill="none" stroke="#b5b5b5" stroke-miterlimit="10" stroke-width="5.446"/>
                    <line id="Línea_197" data-name="Línea 197" x2="46.847" y2="26.767" transform="translate(3491.795 6823.488)" fill="none" stroke="#b5b5b5" stroke-miterlimit="10" stroke-width="5.446"/>
                    <line id="Línea_198" data-name="Línea 198" y1="0.292" x2="53.955" transform="translate(3491.795 6823.196)" fill="none" stroke="#b5b5b5" stroke-miterlimit="10" stroke-width="5.446"/>
                    <line id="Línea_199" data-name="Línea 199" y1="27.271" x2="46.555" transform="translate(3491.795 6796.217)" fill="none" stroke="#b5b5b5" stroke-miterlimit="10" stroke-width="5.446"/>
                    <line id="Línea_200" data-name="Línea 200" y1="46.918" x2="26.639" transform="translate(3491.795 6776.569)" fill="none" stroke="#b5b5b5" stroke-miterlimit="10" stroke-width="5.446"/>
                    <line id="Línea_201" data-name="Línea 201" x1="0.438" y1="53.951" transform="translate(3491.356 6769.536)" fill="none" stroke="#b5b5b5" stroke-miterlimit="10" stroke-width="5.446"/>
                    <line id="Línea_202" data-name="Línea 202" x1="27.398" y1="46.478" transform="translate(3464.397 6777.009)" fill="none" stroke="#b5b5b5" stroke-miterlimit="10" stroke-width="5.446"/>
                    <line id="Línea_203" data-name="Línea 203" x1="46.991" y1="26.509" transform="translate(3444.804 6796.979)" fill="none" stroke="#b5b5b5" stroke-miterlimit="10" stroke-width="5.446"/>
                  </g>
                  <g id="Grupo_1109" data-name="Grupo 1109">
                    <g id="Grupo_1100" data-name="Grupo 1100">
                      <g id="Grupo_1099" data-name="Grupo 1099">
                        <path id="Trazado_4284" data-name="Trazado 4284" d="M3491.795,6769.535a53.953,53.953,0,1,1-53.953,53.954,53.953,53.953,0,0,1,53.953-53.954m0-4.278a58.062,58.062,0,1,0,22.668,4.578,57.868,57.868,0,0,0-22.668-4.578Z" fill="#363636"/>
                      </g>
                    </g>
                    <g id="Grupo_1102" data-name="Grupo 1102">
                      <g id="Grupo_1101" data-name="Grupo 1101">
                        <path id="Trazado_4285" data-name="Trazado 4285" d="M3491.795,6770.962a52.354,52.354,0,1,1-20.446,4.127,52.188,52.188,0,0,1,20.446-4.127m0-1.427a53.953,53.953,0,1,0,53.953,53.954,53.953,53.953,0,0,0-53.953-53.954Z" fill="#dbdbdb"/>
                      </g>
                    </g>
                    <g id="Grupo_1104" data-name="Grupo 1104">
                      <g id="Grupo_1103" data-name="Grupo 1103">
                        <path id="Trazado_4286" data-name="Trazado 4286" d="M3491.795,6778.582a44.768,44.768,0,1,1-17.479,3.529,44.612,44.612,0,0,1,17.479-3.529m0-1.854a46.76,46.76,0,1,0,46.761,46.761,46.76,46.76,0,0,0-46.761-46.761Z" fill="#dbdbdb"/>
                      </g>
                    </g>
                    <g id="Grupo_1106" data-name="Grupo 1106">
                      <g id="Grupo_1105" data-name="Grupo 1105">
                        <path id="Trazado_4287" data-name="Trazado 4287" d="M3484.183,6823.489a7.613,7.613,0,1,1,7.612,7.612A7.612,7.612,0,0,1,3484.183,6823.489Z" fill="#dbdbdb"/>
                      </g>
                    </g>
                    <g id="Grupo_1108" data-name="Grupo 1108">
                      <g id="Grupo_1107" data-name="Grupo 1107">
                        <path id="Trazado_4288" data-name="Trazado 4288" d="M3486.337,6823.489a5.459,5.459,0,1,1,5.458,5.459A5.46,5.46,0,0,1,3486.337,6823.489Z" fill="#595959"/>
                      </g>
                    </g>
                  </g>
                </g>
                <path id="Trazado_4289" data-name="Trazado 4289" d="M3364.735,6863.93a15.235,15.235,0,1,0,15.235-15.236A15.234,15.234,0,0,0,3364.735,6863.93Z" fill="#363636"/>
                <path id="Trazado_4290" data-name="Trazado 4290" d="M3371.6,6863.93a8.372,8.372,0,1,0,8.372-8.371A8.372,8.372,0,0,0,3371.6,6863.93Z" fill="#6d6d6d"/>
                <path id="Trazado_4291" data-name="Trazado 4291" d="M3375.235,6863.93a4.735,4.735,0,1,0,4.735-4.735A4.735,4.735,0,0,0,3375.235,6863.93Z" fill="#333"/>
                <path id="Trazado_4292" data-name="Trazado 4292" d="M3397.022,6849.523c0,7.963-7.625,14.407-17.052,14.407" fill="none" stroke="#0d0d0d" stroke-linecap="round" stroke-linejoin="round" stroke-width="36.304"/>
                <path id="Trazado_4293" data-name="Trazado 4293" d="M3377.2,6863.93a2.771,2.771,0,1,0,2.772-2.772A2.773,2.773,0,0,0,3377.2,6863.93Z" fill="#cfcfcf"/>
              </g>
              <rect id="Rectángulo_219" data-name="Rectángulo 219" width="40.371" height="76.205" transform="translate(3490.892 6693.331)" fill="#3d3d66"/>
              <g id="Grupo_1121" data-name="Grupo 1121">
                <path id="Trazado_4294" data-name="Trazado 4294" d="M3472.226,6675.3l-6.316,45.942-44.249-1.2" fill="none" stroke="#e4ae96" stroke-linecap="round" stroke-linejoin="round" stroke-width="69.111"/>
                <rect id="Rectángulo_220" data-name="Rectángulo 220" width="20.894" height="16.159" rx="8.079" transform="translate(3414.068 6709.234) rotate(17.182)" fill="#dd957a"/>
                <path id="Rectángulo_221" data-name="Rectángulo 221" d="M12.254,0h0A12.254,12.254,0,0,1,24.508,12.254V39.943a0,0,0,0,1,0,0H0a0,0,0,0,1,0,0V12.254A12.254,12.254,0,0,1,12.254,0Z" transform="translate(3461.964 6663.569) rotate(14.111)" fill="#587b68"/>
                <g id="Grupo_1120" data-name="Grupo 1120">
                  <path id="Trazado_4295" data-name="Trazado 4295" d="M3521.2,6772.9l-73.414-4.313,11.533-92.474a13.516,13.516,0,0,1,14.14-12.864l39.53,1.868a13.518,13.518,0,0,1,12.864,14.141Z" fill="#648777"/>
                  <g id="Grupo_1115" data-name="Grupo 1115">
                    <g id="Grupo_1114" data-name="Grupo 1114">
                      <g id="Grupo_1112" data-name="Grupo 1112">
                        <rect id="Rectángulo_222" data-name="Rectángulo 222" width="15.24" height="9.521" transform="translate(3366.099 6820.342) rotate(30.05)" fill="#e4ae96"/>
                      </g>
                      <g id="Grupo_1113" data-name="Grupo 1113">
                        <path id="Trazado_4296" data-name="Trazado 4296" d="M3366.922,6849.353,3340.387,6834a7.589,7.589,0,0,1-2.769-10.369h0a7.59,7.59,0,0,1,10.37-2.769l26.535,15.351Z" fill="#e4ae96"/>
                      </g>
                      <rect id="Rectángulo_223" data-name="Rectángulo 223" width="38.244" height="3.795" transform="translate(3366.922 6849.353) rotate(-149.95)" fill="#090909"/>
                      <rect id="Rectángulo_224" data-name="Rectángulo 224" width="7.248" height="11.384" transform="matrix(-0.866, -0.501, 0.501, -0.866, 3351.402, 6835.991)" fill="#090909"/>
                    </g>
                    <path id="Trazado_4297" data-name="Trazado 4297" d="M3468.756,6773.353l-65.73.091-30.77,44.188" fill="none" stroke="#587b68" stroke-linecap="square" stroke-linejoin="round" stroke-width="129.584"/>
                  </g>
                  <g id="Grupo_1119" data-name="Grupo 1119">
                    <g id="Grupo_1118" data-name="Grupo 1118">
                      <g id="Grupo_1116" data-name="Grupo 1116">
                        <rect id="Rectángulo_225" data-name="Rectángulo 225" width="15.24" height="9.521" transform="matrix(0.866, 0.501, -0.501, 0.866, 3406.538, 6820.342)" fill="#e4ae96"/>
                      </g>
                      <g id="Grupo_1117" data-name="Grupo 1117">
                        <path id="Trazado_4298" data-name="Trazado 4298" d="M3407.361,6849.353,3380.826,6834a7.588,7.588,0,0,1-2.768-10.369h0a7.589,7.589,0,0,1,10.369-2.769l26.535,15.351Z" fill="#e4ae96"/>
                      </g>
                      <rect id="Rectángulo_226" data-name="Rectángulo 226" width="38.244" height="3.795" transform="translate(3407.361 6849.353) rotate(-149.95)" fill="#090909"/>
                      <rect id="Rectángulo_227" data-name="Rectángulo 227" width="7.248" height="11.384" transform="matrix(-0.866, -0.501, 0.501, -0.866, 3391.841, 6835.991)" fill="#090909"/>
                    </g>
                    <path id="Trazado_4299" data-name="Trazado 4299" d="M3509.2,6773.353l-65.73.091-30.77,44.188" fill="none" stroke="#587b68" stroke-linecap="square" stroke-linejoin="round" stroke-width="129.584"/>
                  </g>
                </g>
                <path id="Trazado_4300" data-name="Trazado 4300" d="M3514.269,6676.155l-8.474,45-39.885.082" fill="none" stroke="#e4ae96" stroke-linecap="round" stroke-linejoin="round" stroke-width="69.111"/>
                <rect id="Rectángulo_228" data-name="Rectángulo 228" width="20.894" height="16.159" rx="8.079" transform="matrix(0.999, 0.047, -0.047, 0.999, 3453.34, 6711.954)" fill="#dd957a"/>
                <path id="Rectángulo_229" data-name="Rectángulo 229" d="M12.254,0h0A12.254,12.254,0,0,1,24.508,12.254V39.943a0,0,0,0,1,0,0H0a0,0,0,0,1,0,0V12.254A12.254,12.254,0,0,1,12.254,0Z" transform="translate(3502.682 6665.695) rotate(8.793)" fill="#587b68"/>
              </g>
              <g id="Grupo_1138" data-name="Grupo 1138">
                <g id="Grupo_1137" data-name="Grupo 1137">
                  <path id="Trazado_4301" data-name="Trazado 4301" d="M3574.077,6681.623H3531.5v118.586h-96.371l-32.967,55.351" fill="none" stroke="#909294" stroke-linecap="round" stroke-linejoin="round" stroke-width="29.043"/>
                  <path id="Trazado_4302" data-name="Trazado 4302" d="M3547.184,6846.738h-67.977l-17.472-17.473h-45.1" fill="none" stroke="#909294" stroke-linecap="round" stroke-linejoin="round" stroke-width="18.152"/>
                  <path id="Trazado_4303" data-name="Trazado 4303" d="M3531.263,6735.829h-93.577l.233,113.694" fill="none" stroke="#909294" stroke-linecap="round" stroke-linejoin="round" stroke-width="21.782"/>
                  <line id="Línea_204" data-name="Línea 204" y2="51.092" transform="translate(3531.496 6795.646)" fill="none" stroke="#909294" stroke-linecap="round" stroke-linejoin="round" stroke-width="18.152"/>
                  <rect id="Rectángulo_230" data-name="Rectángulo 230" width="93.578" height="29.128" transform="translate(3437.918 6766.517)" fill="#2f2f4f"/>
                  <path id="Trazado_4304" data-name="Trazado 4304" d="M3448.377,6733.452a5.942,5.942,0,0,0,5.942,5.942h57.926a5.942,5.942,0,0,0,5.943-5.942h0a5.943,5.943,0,0,0-5.943-5.942h-57.926a5.943,5.943,0,0,0-5.942,5.942Z" fill="#2f2f4f"/>
                  <path id="Trazado_4305" data-name="Trazado 4305" d="M3539.579,6681.86a5.467,5.467,0,0,0,5.467,5.467h28.318a5.468,5.468,0,0,0,5.468-5.467h0a5.467,5.467,0,0,0-5.468-5.466h-28.318a5.466,5.466,0,0,0-5.467,5.466Z" fill="#0d0d0d"/>
                  <path id="Trazado_4306" data-name="Trazado 4306" d="M3573.364,6681.86h-28.318a5.46,5.46,0,0,0-4.729,2.733,5.458,5.458,0,0,1,4.729-8.2h28.318a5.458,5.458,0,0,1,4.73,8.2A5.46,5.46,0,0,0,3573.364,6681.86Z" fill="#333"/>
                  <path id="Trazado_4307" data-name="Trazado 4307" d="M3367.552,6833.486c-1.422,2.663.334,6.376,3.921,8.293l26.554,14.184c3.588,1.917,7.651,1.311,9.073-1.352h0c1.421-2.662-.333-6.375-3.922-8.292l-26.554-14.185c-3.588-1.916-7.65-1.31-9.072,1.352Z" fill="#333"/>
                  <path id="Trazado_4308" data-name="Trazado 4308" d="M3400.337,6849.16l-26.553-14.185a8.282,8.282,0,0,0-6.529-.749,4.113,4.113,0,0,1,.3-.74c1.422-2.662,5.484-3.268,9.072-1.352l26.554,14.185c3.589,1.917,5.343,5.63,3.922,8.292a4.52,4.52,0,0,1-2.543,2.1C3405.343,6854.137,3403.6,6850.9,3400.337,6849.16Z" fill="#0d0d0d"/>
                  <g id="Grupo_1136" data-name="Grupo 1136">
                    <g id="Grupo_1122" data-name="Grupo 1122">
                      <line id="Línea_205" data-name="Línea 205" x1="52.115" y1="13.964" transform="translate(3480.576 6809.524)" fill="none" stroke="#b5b5b5" stroke-miterlimit="10" stroke-width="3.63"/>
                      <line id="Línea_206" data-name="Línea 206" x1="52.101" y2="14.012" transform="translate(3480.59 6823.488)" fill="none" stroke="#b5b5b5" stroke-miterlimit="10" stroke-width="3.63"/>
                      <line id="Línea_207" data-name="Línea 207" x1="38.081" y2="38.221" transform="translate(3494.61 6823.488)" fill="none" stroke="#b5b5b5" stroke-miterlimit="10" stroke-width="3.63"/>
                      <line id="Línea_208" data-name="Línea 208" x1="13.822" y2="52.155" transform="translate(3518.868 6823.488)" fill="none" stroke="#b5b5b5" stroke-miterlimit="10" stroke-width="3.63"/>
                      <line id="Línea_209" data-name="Línea 209" x2="14.153" y2="52.066" transform="translate(3532.691 6823.488)" fill="none" stroke="#b5b5b5" stroke-miterlimit="10" stroke-width="3.63"/>
                      <line id="Línea_210" data-name="Línea 210" x2="38.325" y2="37.98" transform="translate(3532.691 6823.488)" fill="none" stroke="#b5b5b5" stroke-miterlimit="10" stroke-width="3.63"/>
                      <line id="Línea_211" data-name="Línea 211" x2="52.192" y2="13.683" transform="translate(3532.691 6823.488)" fill="none" stroke="#b5b5b5" stroke-miterlimit="10" stroke-width="3.63"/>
                      <line id="Línea_212" data-name="Línea 212" y1="14.292" x2="52.027" transform="translate(3532.691 6809.196)" fill="none" stroke="#b5b5b5" stroke-miterlimit="10" stroke-width="3.63"/>
                      <line id="Línea_213" data-name="Línea 213" y1="38.425" x2="37.875" transform="translate(3532.691 6785.063)" fill="none" stroke="#b5b5b5" stroke-miterlimit="10" stroke-width="3.63"/>
                      <line id="Línea_214" data-name="Línea 214" y1="52.226" x2="13.541" transform="translate(3532.691 6771.262)" fill="none" stroke="#b5b5b5" stroke-miterlimit="10" stroke-width="3.63"/>
                      <line id="Línea_215" data-name="Línea 215" x1="14.435" y1="51.986" transform="translate(3518.256 6771.502)" fill="none" stroke="#b5b5b5" stroke-miterlimit="10" stroke-width="3.63"/>
                      <line id="Línea_216" data-name="Línea 216" x1="38.528" y1="37.768" transform="translate(3494.163 6785.72)" fill="none" stroke="#b5b5b5" stroke-miterlimit="10" stroke-width="3.63"/>
                    </g>
                    <g id="Grupo_1123" data-name="Grupo 1123">
                      <line id="Línea_217" data-name="Línea 217" x1="46.726" y1="26.976" transform="translate(3485.958 6796.5)" fill="none" stroke="#b5b5b5" stroke-miterlimit="10" stroke-width="3.63"/>
                      <line id="Línea_218" data-name="Línea 218" x1="53.952" y2="0.049" transform="translate(3478.731 6823.477)" fill="none" stroke="#b5b5b5" stroke-miterlimit="10" stroke-width="3.63"/>
                      <line id="Línea_219" data-name="Línea 219" x1="46.675" y2="27.063" transform="translate(3486.008 6823.477)" fill="none" stroke="#b5b5b5" stroke-miterlimit="10" stroke-width="3.63"/>
                      <line id="Línea_220" data-name="Línea 220" x1="26.849" y2="46.8" transform="translate(3505.834 6823.477)" fill="none" stroke="#b5b5b5" stroke-miterlimit="10" stroke-width="3.63"/>
                      <line id="Línea_221" data-name="Línea 221" x2="0.195" y2="53.956" transform="translate(3532.683 6823.477)" fill="none" stroke="#b5b5b5" stroke-miterlimit="10" stroke-width="3.63"/>
                      <line id="Línea_222" data-name="Línea 222" x2="27.189" y2="46.606" transform="translate(3532.683 6823.477)" fill="none" stroke="#b5b5b5" stroke-miterlimit="10" stroke-width="3.63"/>
                      <line id="Línea_223" data-name="Línea 223" x2="46.872" y2="26.725" transform="translate(3532.683 6823.477)" fill="none" stroke="#b5b5b5" stroke-miterlimit="10" stroke-width="3.63"/>
                      <line id="Línea_224" data-name="Línea 224" y1="0.339" x2="53.953" transform="translate(3532.683 6823.137)" fill="none" stroke="#b5b5b5" stroke-miterlimit="10" stroke-width="3.63"/>
                      <line id="Línea_225" data-name="Línea 225" y1="27.312" x2="46.531" transform="translate(3532.683 6796.165)" fill="none" stroke="#b5b5b5" stroke-miterlimit="10" stroke-width="3.63"/>
                      <line id="Línea_226" data-name="Línea 226" y1="46.942" x2="26.597" transform="translate(3532.683 6776.534)" fill="none" stroke="#b5b5b5" stroke-miterlimit="10" stroke-width="3.63"/>
                      <line id="Línea_227" data-name="Línea 227" x1="0.488" y1="53.951" transform="translate(3532.195 6769.526)" fill="none" stroke="#b5b5b5" stroke-miterlimit="10" stroke-width="3.63"/>
                      <line id="Línea_228" data-name="Línea 228" x1="27.44" y1="46.453" transform="translate(3505.243 6777.024)" fill="none" stroke="#b5b5b5" stroke-miterlimit="10" stroke-width="3.63"/>
                    </g>
                    <g id="Grupo_1124" data-name="Grupo 1124">
                      <line id="Línea_229" data-name="Línea 229" x1="53.953" transform="translate(3478.738 6823.488)" fill="none" stroke="#b5b5b5" stroke-miterlimit="10" stroke-width="5.446"/>
                      <line id="Línea_230" data-name="Línea 230" x1="46.7" y2="27.02" transform="translate(3485.991 6823.488)" fill="none" stroke="#b5b5b5" stroke-miterlimit="10" stroke-width="5.446"/>
                      <line id="Línea_231" data-name="Línea 231" x1="26.891" y2="46.774" transform="translate(3505.8 6823.488)" fill="none" stroke="#b5b5b5" stroke-miterlimit="10" stroke-width="5.446"/>
                      <line id="Línea_232" data-name="Línea 232" x2="0.147" y2="53.956" transform="translate(3532.691 6823.488)" fill="none" stroke="#b5b5b5" stroke-miterlimit="10" stroke-width="5.446"/>
                      <line id="Línea_233" data-name="Línea 233" x2="27.146" y2="46.629" transform="translate(3532.691 6823.488)" fill="none" stroke="#b5b5b5" stroke-miterlimit="10" stroke-width="5.446"/>
                      <line id="Línea_234" data-name="Línea 234" x2="46.847" y2="26.767" transform="translate(3532.691 6823.488)" fill="none" stroke="#b5b5b5" stroke-miterlimit="10" stroke-width="5.446"/>
                      <line id="Línea_235" data-name="Línea 235" y1="0.292" x2="53.955" transform="translate(3532.691 6823.196)" fill="none" stroke="#b5b5b5" stroke-miterlimit="10" stroke-width="5.446"/>
                      <line id="Línea_236" data-name="Línea 236" y1="27.271" x2="46.555" transform="translate(3532.691 6796.217)" fill="none" stroke="#b5b5b5" stroke-miterlimit="10" stroke-width="5.446"/>
                      <line id="Línea_237" data-name="Línea 237" y1="46.918" x2="26.639" transform="translate(3532.691 6776.569)" fill="none" stroke="#b5b5b5" stroke-miterlimit="10" stroke-width="5.446"/>
                      <line id="Línea_238" data-name="Línea 238" x1="0.438" y1="53.951" transform="translate(3532.252 6769.536)" fill="none" stroke="#b5b5b5" stroke-miterlimit="10" stroke-width="5.446"/>
                      <line id="Línea_239" data-name="Línea 239" x1="27.398" y1="46.478" transform="translate(3505.293 6777.009)" fill="none" stroke="#b5b5b5" stroke-miterlimit="10" stroke-width="5.446"/>
                      <line id="Línea_240" data-name="Línea 240" x1="46.991" y1="26.509" transform="translate(3485.7 6796.979)" fill="none" stroke="#b5b5b5" stroke-miterlimit="10" stroke-width="5.446"/>
                    </g>
                    <g id="Grupo_1135" data-name="Grupo 1135">
                      <g id="Grupo_1126" data-name="Grupo 1126">
                        <g id="Grupo_1125" data-name="Grupo 1125">
                          <path id="Trazado_4309" data-name="Trazado 4309" d="M3532.691,6769.535a53.953,53.953,0,1,1-53.953,53.954,53.953,53.953,0,0,1,53.953-53.954m0-4.278a58.062,58.062,0,1,0,22.668,4.578,57.868,57.868,0,0,0-22.668-4.578Z" fill="#363636"/>
                        </g>
                      </g>
                      <g id="Grupo_1128" data-name="Grupo 1128">
                        <g id="Grupo_1127" data-name="Grupo 1127">
                          <path id="Trazado_4310" data-name="Trazado 4310" d="M3532.691,6770.962a52.354,52.354,0,1,1-20.446,4.127,52.188,52.188,0,0,1,20.446-4.127m0-1.427a53.953,53.953,0,1,0,53.953,53.954,53.953,53.953,0,0,0-53.953-53.954Z" fill="#dbdbdb"/>
                        </g>
                      </g>
                      <g id="Grupo_1130" data-name="Grupo 1130">
                        <g id="Grupo_1129" data-name="Grupo 1129">
                          <path id="Trazado_4311" data-name="Trazado 4311" d="M3532.691,6778.582a44.768,44.768,0,1,1-17.479,3.529,44.612,44.612,0,0,1,17.479-3.529m0-1.854a46.76,46.76,0,1,0,46.761,46.761,46.76,46.76,0,0,0-46.761-46.761Z" fill="#dbdbdb"/>
                        </g>
                      </g>
                      <g id="Grupo_1132" data-name="Grupo 1132">
                        <g id="Grupo_1131" data-name="Grupo 1131">
                          <path id="Trazado_4312" data-name="Trazado 4312" d="M3525.079,6823.489a7.613,7.613,0,1,1,7.612,7.612A7.612,7.612,0,0,1,3525.079,6823.489Z" fill="#dbdbdb"/>
                        </g>
                      </g>
                      <g id="Grupo_1134" data-name="Grupo 1134">
                        <g id="Grupo_1133" data-name="Grupo 1133">
                          <path id="Trazado_4313" data-name="Trazado 4313" d="M3527.233,6823.489a5.459,5.459,0,1,1,5.458,5.459A5.46,5.46,0,0,1,3527.233,6823.489Z" fill="#595959"/>
                        </g>
                      </g>
                    </g>
                  </g>
                  <path id="Trazado_4314" data-name="Trazado 4314" d="M3405.631,6863.93a15.235,15.235,0,1,0,15.235-15.236A15.234,15.234,0,0,0,3405.631,6863.93Z" fill="#363636"/>
                  <path id="Trazado_4315" data-name="Trazado 4315" d="M3412.494,6863.93a8.372,8.372,0,1,0,8.372-8.371A8.372,8.372,0,0,0,3412.494,6863.93Z" fill="#6d6d6d"/>
                  <path id="Trazado_4316" data-name="Trazado 4316" d="M3416.131,6863.93a4.735,4.735,0,1,0,4.735-4.735A4.735,4.735,0,0,0,3416.131,6863.93Z" fill="#333"/>
                  <path id="Trazado_4317" data-name="Trazado 4317" d="M3437.918,6849.523c0,7.963-7.625,14.407-17.052,14.407" fill="none" stroke="#0d0d0d" stroke-linecap="round" stroke-linejoin="round" stroke-width="36.304"/>
                  <path id="Trazado_4318" data-name="Trazado 4318" d="M3418.094,6863.93a2.771,2.771,0,1,0,2.772-2.772A2.773,2.773,0,0,0,3418.094,6863.93Z" fill="#cfcfcf"/>
                </g>
              </g>
            </g>
          </g>
          <g id="Grupo_1144" data-name="Grupo 1144">
            <rect id="Rectángulo_231" data-name="Rectángulo 231" width="17.068" height="5.893" transform="translate(3481.08 6664.48) rotate(4.063)" fill="#e4ae96"/>
            <path id="Trazado_4319" data-name="Trazado 4319" d="M3501.806,6604.245l-7.717.436c-7.788.112-16.012-5-19.335,4.351-.685,1.929-5.359,5.2-5.888,12.643l-1.181,16.622a18.893,18.893,0,0,0,17.481,20.108l9.752.692a18.946,18.946,0,0,0,20.209-17.431l1.18-16.622C3517.041,6614.706,3509.132,6605.652,3501.806,6604.245Z" fill="#949494"/>
            <rect id="Rectángulo_232" data-name="Rectángulo 232" width="17.068" height="5.362" transform="translate(3481.28 6661.664) rotate(4.063)" fill="#e4ae96"/>
            <rect id="Rectángulo_233" data-name="Rectángulo 233" width="17.068" height="5.648" transform="translate(3481.28 6661.664) rotate(4.063)" fill="#dd957a"/>
            <path id="Rectángulo_234" data-name="Rectángulo 234" d="M10.52,0H31.293a10.52,10.52,0,0,1,10.52,10.52V27A20.907,20.907,0,0,1,20.907,47.9h0A20.907,20.907,0,0,1,0,27V10.52A10.52,10.52,0,0,1,10.52,0Z" transform="matrix(0.997, 0.071, -0.071, 0.997, 3472.182, 6615.116)" fill="#e4ae96"/>
            <path id="Trazado_4320" data-name="Trazado 4320" d="M3511.065,6637.2c3.538-5.288,8.959-2.224,8.634,2.355s-3.937,10.286-9.5,9.89Z" fill="#e4ae96"/>
            <path id="Trazado_4321" data-name="Trazado 4321" d="M3471.611,6634.4c-1.787-5.665-8.555-3.467-8.88,1.112s3.411,10.807,8.01,11.134Z" fill="#e4ae96"/>
            <path id="Trazado_4322" data-name="Trazado 4322" d="M3481.226,6615.758s4.457,5.066,10.335,5.484,9.68-4.208,12.275-3.878-18.277-9.62-18.277-9.62Z" fill="#949494"/>
            <path id="Trazado_4323" data-name="Trazado 4323" d="M3496.611,6648.909c-.178,2.5-5.264,3.113-6.419,3.031s-6.1-1.409-5.926-3.908Z" fill="#fff" stroke="#9c534a" stroke-miterlimit="10" stroke-width="4.501"/>
            <g id="Grupo_1142" data-name="Grupo 1142">
              <g id="Grupo_1141" data-name="Grupo 1141">
                <path id="Trazado_4324" data-name="Trazado 4324" d="M3482.577,6634.561a1.762,1.762,0,1,1-1.634-1.859A1.751,1.751,0,0,1,3482.577,6634.561Z"/>
                <path id="Trazado_4325" data-name="Trazado 4325" d="M3503.7,6636.061a1.761,1.761,0,1,1-1.633-1.859A1.75,1.75,0,0,1,3503.7,6636.061Z"/>
              </g>
              <path id="Trazado_4326" data-name="Trazado 4326" d="M3493.326,6643.725c-.068.958-1.26,1.653-2.663,1.553s-2.485-.956-2.417-1.914,1.261-1.653,2.663-1.553S3493.394,6642.768,3493.326,6643.725Z" fill="#cf9985"/>
              <line id="Línea_241" data-name="Línea 241" x2="6.535" y2="0.464" transform="translate(3499.553 6631.451)" fill="#fff" stroke="#323030" stroke-miterlimit="10" stroke-width="4.942"/>
              <line id="Línea_242" data-name="Línea 242" x2="6.293" y2="0.447" transform="translate(3478.011 6629.92)" fill="#fff" stroke="#323030" stroke-miterlimit="10" stroke-width="4.942"/>
              <rect id="Rectángulo_235" data-name="Rectángulo 235" width="13.71" height="9.043" rx="4.522" transform="matrix(0.997, 0.071, -0.071, 0.997, 3474.22, 6630.609)" fill="none" stroke="#383838" stroke-linecap="round" stroke-miterlimit="10" stroke-width="5.735"/>
              <path id="Rectángulo_236" data-name="Rectángulo 236" d="M4.521,0H9.189A4.522,4.522,0,0,1,13.71,4.522v0A4.521,4.521,0,0,1,9.189,9.043H4.522A4.522,4.522,0,0,1,0,4.522v0A4.521,4.521,0,0,1,4.521,0Z" transform="translate(3495.54 6632.124) rotate(4.063)" fill="none" stroke="#383838" stroke-linecap="round" stroke-miterlimit="10" stroke-width="5.735"/>
              <line id="Línea_243" data-name="Línea 243" x2="7.503" y2="0.533" transform="translate(3487.384 6634.965)" fill="none" stroke="#383838" stroke-miterlimit="10" stroke-width="7.413"/>
              <line id="Línea_244" data-name="Línea 244" y1="1.363" x2="3.826" transform="translate(3508.842 6635.288)" fill="none" stroke="#383838" stroke-miterlimit="10" stroke-width="6.193"/>
              <line id="Línea_245" data-name="Línea 245" x1="3.595" y1="1.89" transform="translate(3470.691 6632.307)" fill="none" stroke="#383838" stroke-miterlimit="10" stroke-width="6.193"/>
            </g>
            <path id="Trazado_4327" data-name="Trazado 4327" d="M3480.959,6647.8a2.779,2.779,0,0,0-.907,3.422" fill="none" stroke="#dd957a" stroke-miterlimit="10" stroke-width="2.25"/>
            <path id="Trazado_4328" data-name="Trazado 4328" d="M3499.334,6649.1a2.778,2.778,0,0,1,.415,3.516" fill="none" stroke="#dd957a" stroke-miterlimit="10" stroke-width="2.25"/>
            <path id="Trazado_4329" data-name="Trazado 4329" d="M3503.53,6637.726a2.778,2.778,0,0,1,2.16,2.806" fill="none" stroke="#dd957a" stroke-miterlimit="10" stroke-width="2.25"/>
            <path id="Trazado_4330" data-name="Trazado 4330" d="M3504.09,6637.053a2.779,2.779,0,0,1,3.081,1.745" fill="none" stroke="#dd957a" stroke-miterlimit="10" stroke-width="2.25"/>
            <path id="Trazado_4331" data-name="Trazado 4331" d="M3479.012,6635.985a2.778,2.778,0,0,0-2.535,2.472" fill="none" stroke="#dd957a" stroke-miterlimit="10" stroke-width="2.25"/>
            <path id="Trazado_4332" data-name="Trazado 4332" d="M3478.553,6635.239a2.78,2.78,0,0,0-3.3,1.292" fill="none" stroke="#dd957a" stroke-miterlimit="10" stroke-width="2.25"/>
            <g id="Grupo_1143" data-name="Grupo 1143">
              <path id="Trazado_4333" data-name="Trazado 4333" d="M3484.715,6624.171a55.4,55.4,0,0,1,6.553-.116,62.435,62.435,0,0,1,6.728,1.06" fill="none" stroke="#dd957a" stroke-miterlimit="10" stroke-width="2.056"/>
              <path id="Trazado_4334" data-name="Trazado 4334" d="M3484.625,6625.434a55.129,55.129,0,0,1,6.553-.116,62.536,62.536,0,0,1,6.728,1.059" fill="none" stroke="#dd957a" stroke-miterlimit="10" stroke-width="2.056"/>
              <path id="Trazado_4335" data-name="Trazado 4335" d="M3484.535,6626.7a55.174,55.174,0,0,1,6.553-.116,62.214,62.214,0,0,1,6.728,1.059" fill="none" stroke="#dd957a" stroke-miterlimit="10" stroke-width="2.056"/>
            </g>
            <path id="Trazado_4336" data-name="Trazado 4336" d="M3485.542,6652.422s4.969,2.862,10.088.276C3495.63,6652.7,3490.467,6656.9,3485.542,6652.422Z" fill="#dd957a"/>
            <path id="Trazado_4337" data-name="Trazado 4337" d="M3482.469,6614.06s5.764,8.349,19.667,2.837a26.581,26.581,0,0,1-19.98-2.859" fill="#aaa8a8"/>
            <path id="Trazado_4338" data-name="Trazado 4338" d="M3513.455,6624.2a1.644,1.644,0,0,0,2.291-.354S3515.92,6626.221,3513.455,6624.2Z" fill="#aaa8a8"/>
            <path id="Trazado_4339" data-name="Trazado 4339" d="M3513.535,6626.2a1.643,1.643,0,0,0,2.29-.355S3516,6628.221,3513.535,6626.2Z" fill="#aaa8a8"/>
            <path id="Trazado_4340" data-name="Trazado 4340" d="M3513.425,6627.743a1.643,1.643,0,0,0,2.29-.355S3515.89,6629.764,3513.425,6627.743Z" fill="#aaa8a8"/>
            <path id="Trazado_4341" data-name="Trazado 4341" d="M3471.9,6620.584s-1.135.732-2.217-.674C3469.686,6619.91,3469.177,6622.237,3471.9,6620.584Z" fill="#aaa8a8"/>
            <path id="Trazado_4342" data-name="Trazado 4342" d="M3471.542,6622.552s-1.136.732-2.217-.674C3469.325,6621.878,3468.816,6624.205,3471.542,6622.552Z" fill="#aaa8a8"/>
            <path id="Trazado_4343" data-name="Trazado 4343" d="M3471.432,6624.1s-1.135.732-2.217-.674C3469.215,6623.421,3468.706,6625.748,3471.432,6624.1Z" fill="#aaa8a8"/>
            <ellipse id="Elipse_44" data-name="Elipse 44" cx="4.42" cy="8.534" rx="4.42" ry="8.534" transform="matrix(0.071, -0.997, 0.997, 0.071, 3480.349, 6674.767)" fill="#e4ae96"/>
          </g>
        </g>
        <g id="Grupo_1181" data-name="Grupo 1181">
          <g id="brick">
            <rect id="Rectángulo_237" data-name="Rectángulo 237" width="44.618" height="19.41" transform="matrix(0.78, 0.626, -0.626, 0.78, 3840.462, 6022.746)" fill="#d16f3f"/>
            <path id="Trazado_4344" data-name="Trazado 4344" d="M3828.365,6037.925l-.082-4.833,10.9-13.793,1.2,3.545Z" fill="#ba542c"/>
            <path id="Trazado_4345" data-name="Trazado 4345" d="M3875.107,6050.863l-34.8-27.921-1.136-3.82,34.8,27.921Z" fill="#d57d55"/>
            <g id="Grupo_1147" data-name="Grupo 1147">
              <circle id="Elipse_45" data-name="Elipse 45" cx="4.916" cy="4.916" r="4.916" transform="translate(3835.164 6031.5)" fill="#a74626"/>
              <g id="Grupo_1146" data-name="Grupo 1146">
                <circle id="Elipse_46" data-name="Elipse 46" cx="4.348" cy="4.348" r="4.348" transform="translate(3835.928 6031.822)" fill="#bf5d37"/>
              </g>
            </g>
            <g id="Grupo_1149" data-name="Grupo 1149">
              <circle id="Elipse_47" data-name="Elipse 47" cx="4.916" cy="4.916" r="4.916" transform="translate(3846.42 6040.531)" fill="#a74626"/>
              <g id="Grupo_1148" data-name="Grupo 1148">
                <circle id="Elipse_48" data-name="Elipse 48" cx="4.348" cy="4.348" r="4.348" transform="translate(3847.185 6040.853)" fill="#bf5d37"/>
              </g>
            </g>
            <g id="Grupo_1151" data-name="Grupo 1151">
              <circle id="Elipse_49" data-name="Elipse 49" cx="4.916" cy="4.916" r="4.916" transform="translate(3857.677 6049.562)" fill="#a74626"/>
              <g id="Grupo_1150" data-name="Grupo 1150">
                <circle id="Elipse_50" data-name="Elipse 50" cx="4.348" cy="4.348" r="4.348" transform="translate(3858.441 6049.883)" fill="#bf5d37"/>
              </g>
            </g>
          </g>
          <g id="stars_and_lines" data-name="stars and lines">
            <g id="stars">
              <path id="Trazado_4346" data-name="Trazado 4346" d="M3894.885,5994.3l5.209-9.377-.177,10.725,14.689-11.294-11.006,14.977,10.725-.177-9.377,5.209,5.889,4.635-7.237.4,7.817,10.621-11.5-6.938.177,10.726-5.209-9.377-8.112,14.867,3.081-16.215-5.69,2.3,2.007-5.982-12.734.474,11.386-5.5-5.587-4.643,6.936-.389-5.516-9.2,9.2,5.517.688-8.1Z" fill="#f5ef57"/>
              <g id="Grupo_1157" data-name="Grupo 1157">
                <g id="Grupo_1153" data-name="Grupo 1153">
                  <path id="Trazado_4347" data-name="Trazado 4347" d="M3882.18,5974.623l2.586-1.36-.494,2.88,2.093,2.04-2.892.42-1.293,2.62-1.293-2.62-2.892-.42,2.093-2.04-.494-2.88Z" fill="#f5ef57"/>
                  <g id="Grupo_1152" data-name="Grupo 1152">
                    <path id="Trazado_4348" data-name="Trazado 4348" d="M3884.26,5980.573l-.941-1.907-2.1-.306,1.523-1.484-.359-2.1,1.882.99,1.883-.99-.36,2.1,1.523,1.484-2.1.306Zm-2.7-2.325,1.866.271.834,1.69.834-1.69,1.866-.271-1.35-1.316.319-1.858-1.669.877-1.668-.877.318,1.858Z" fill="#333738"/>
                  </g>
                </g>
                <g id="Grupo_1154" data-name="Grupo 1154">
                  <path id="Trazado_4349" data-name="Trazado 4349" d="M3892.787,5997.83l-1.04-2.108-2.327-.338,1.684-1.641-.4-2.317,2.081,1.094,2.081-1.094-.4,2.317,1.683,1.641-2.326.338Zm-2.984-2.57,2.062.3.922,1.869.922-1.869,2.062-.3-1.492-1.455.353-2.053-1.845.969-1.844-.969.352,2.053Z" fill="#333738"/>
                </g>
                <g id="Grupo_1156" data-name="Grupo 1156">
                  <path id="Trazado_4350" data-name="Trazado 4350" d="M3871.47,6019.337l2.586-1.36-.494,2.88,2.092,2.04-2.892.42-1.293,2.621-1.293-2.621-2.892-.42,2.093-2.04-.494-2.88Z" fill="#f5ef57"/>
                  <g id="Grupo_1155" data-name="Grupo 1155">
                    <path id="Trazado_4351" data-name="Trazado 4351" d="M3872.614,6025.491l-1.041-2.108-2.326-.338,1.683-1.641-.4-2.317,2.081,1.094,2.08-1.094-.4,2.317,1.683,1.641-2.326.338Zm-2.985-2.57,2.062.3.923,1.869.922-1.869,2.062-.3-1.492-1.455.352-2.054-1.844.97-1.845-.97.352,2.054Z" fill="#333738"/>
                  </g>
                </g>
              </g>
            </g>
            <g id="lines">
              <g id="Grupo_1161" data-name="Grupo 1161">
                <g id="Grupo_1158" data-name="Grupo 1158">
                  <path id="Trazado_4352" data-name="Trazado 4352" d="M3886.888,5993.58a59.264,59.264,0,0,0-30.644-9.585.232.232,0,0,1,.015-.464,59.734,59.734,0,0,1,30.876,9.656c.25.163,0,.557-.247.393Z" fill="#1f2222"/>
                </g>
                <g id="Grupo_1159" data-name="Grupo 1159">
                  <path id="Trazado_4353" data-name="Trazado 4353" d="M3867.209,5996.449a91.623,91.623,0,0,0-21.188,5.788c-.274.112-.492-.3-.215-.411a92.075,92.075,0,0,1,21.3-5.83c.294-.043.4.409.1.453Z" fill="#1f2222"/>
                </g>
                <g id="Grupo_1160" data-name="Grupo 1160">
                  <path id="Trazado_4354" data-name="Trazado 4354" d="M3891.636,6010.156a28.589,28.589,0,0,0-28.735,2.519c-.239.173-.556-.167-.313-.342a29.067,29.067,0,0,1,29.294-2.57c.269.13.02.522-.246.393Z" fill="#1f2222"/>
                </g>
              </g>
              <g id="Grupo_1164" data-name="Grupo 1164">
                <g id="Grupo_1162" data-name="Grupo 1162">
                  <path id="Trazado_4355" data-name="Trazado 4355" d="M3904.414,5988.034a41.994,41.994,0,0,1,19.872-29.266c.257-.153-.023-.524-.277-.373a42.445,42.445,0,0,0-20.055,29.577.232.232,0,0,0,.46.062Z" fill="#1f2222"/>
                </g>
                <g id="Grupo_1163" data-name="Grupo 1163">
                  <path id="Trazado_4356" data-name="Trazado 4356" d="M3921.842,5973.245a59.262,59.262,0,0,1,25.537-19.462.232.232,0,0,0-.171-.431,59.73,59.73,0,0,0-25.732,19.608c-.179.238.186.525.366.285Z" fill="#1f2222"/>
                </g>
              </g>
            </g>
          </g>
          <g id="worker_without_helmet" data-name="worker without helmet">
            <g id="Grupo_1180" data-name="Grupo 1180" clip-path="url(#clip-path-2)">
              <g id="Grupo_1179" data-name="Grupo 1179">
                <g id="worker">
                  <path id="Trazado_4357" data-name="Trazado 4357" d="M3935.924,6065.679s-9.65,3.372-14.613,9.08-1.017,16.857,2.084,33.309c2.612,13.852,16.073,58.063,18.152,59.523s19.726,1.246,30.38-4.406,26.908-15.371,27.839-16.867-21-53.067-24.155-58.266-12.124-24.391-18.983-25.506S3937.165,6065.953,3935.924,6065.679Z" fill="#4170b3"/>
                  <path id="Trazado_4358" data-name="Trazado 4358" d="M3948.565,6069.376c-.485-2.906-1.367-6.172-1.367-6.172l-.121-.024a42.559,42.559,0,0,1-10.748.888s-3.933,2.844-7.821,5.082l-.832.544s1.111,8.335,2.716,11.965,6.188,8.295,7.581,9.559,6.678,5.075,6.678,5.075,3.983-9.1,4.265-12.744A70.906,70.906,0,0,0,3948.565,6069.376Z" fill="#5084c2"/>
                  <g id="right_hand" data-name="right hand">
                    <g id="Grupo_1165" data-name="Grupo 1165">
                      <path id="Trazado_4359" data-name="Trazado 4359" d="M3912.323,6110.468l-3.965,35.574-14.434,39.14-2.666,11.619,4.942,2.993,6.186-10.341s18.3-34.867,19.932-40.328c1.177-3.938,5.4-31.878,5.4-31.878Z" fill="#ebc79d"/>
                      <path id="Trazado_4360" data-name="Trazado 4360" d="M3922.318,6149.125c1.177-3.938,5.4-31.878,5.4-31.878l-13.338-5.873-2.665,4.528-.119,1.071c1.728,1.482,9.476,8.273,9.923,11.191.5,3.285-.527,17.222-1.766,20.668-1.124,3.128-22.057,47.756-22.057,47.756l.375.075,4.313-7.21S3920.686,6154.586,3922.318,6149.125Z" fill="#cca17d"/>
                    </g>
                    <g id="glove">
                      <path id="Trazado_4361" data-name="Trazado 4361" d="M3894.21,6182.446l10.3,4.347s-.42,5.02-.3,6.254a49.322,49.322,0,0,1,.174,8.417c-.408,4.656-.007,8.963-2.677,9.148-2.53.176-3.461-7.621-3.461-7.621s-1.085-.47-2.884,2.937-2.39,14.428-11.23,12.528-5.285-16.788-2.862-20.892c1.826-3.092,7.829-8.9,10.678-11.581A17.841,17.841,0,0,0,3894.21,6182.446Z" fill="#6eb09a"/>
                      <path id="Trazado_4362" data-name="Trazado 4362" d="M3892.635,6185.384c2.244,1.374,6.409,2.819,7.714,4.822,1.177,1.808,3.278,10.533.875,11.482s-3.467-1.3-4.256-.97c-1.878.784-5.762,8.212-6.644,10.454s-2.574,5.31-6.889,4.616c-3.375-.543-4.551-3.733-4.9-5.1.294,3.729,1.8,6.947,5.6,7.764,8.84,1.9,9.43-9.12,11.23-12.528s2.884-2.937,2.884-2.937.931,7.8,3.461,7.621c2.67-.185,2.269-4.492,2.677-9.148a49.322,49.322,0,0,0-.174-8.417c-.119-1.234.3-6.254.3-6.254l-10.3-4.347S3893.208,6184.441,3892.635,6185.384Z" fill="#5d9783"/>
                      <path id="Trazado_4363" data-name="Trazado 4363" d="M3904.213,6193.047c-.119-1.234.3-6.254.3-6.254l-10.185-4.3c2.36,1.306,6.718,3.739,7.611,4.388,1.24.9,1.407,2.6,1.551,4.564a87.77,87.77,0,0,1-.027,11.754c-.382,2.55-.164,5.215-2.052,5.567-1.411.263-1.906-6.528-3.389-6.447-1.841.1-3.971,4.01-4.556,6.472-.575,2.423-3.569,7.939-5.765,8.844-2.461,1.014-4.52.139-6.343-.47a6.541,6.541,0,0,0,2.776,1.288c8.84,1.9,9.525-9.123,11.205-12.591,1.438-2.967,2.909-2.874,2.909-2.874s.931,7.8,3.461,7.621c2.67-.185,2.269-4.492,2.677-9.148A49.322,49.322,0,0,0,3904.213,6193.047Z" fill="#528574"/>
                    </g>
                    <g id="Grupo_1166" data-name="Grupo 1166">
                      <path id="Trazado_4364" data-name="Trazado 4364" d="M3927.849,6124.545c.331-2.019-4.447-51.64-4.447-51.64-.985.383-12.04,11.113-15.176,28.483a99.034,99.034,0,0,0-.607,10.908C3911.472,6116.7,3919.431,6121.228,3927.849,6124.545Z" fill="#4170b3"/>
                      <path id="Trazado_4365" data-name="Trazado 4365" d="M3908.226,6101.388a99.034,99.034,0,0,0-.607,10.908q.158.179.324.358c3.584-.589,8.219-2.1,10.074-5.946,2.617-5.428.664-21.852-.128-27.735A55.055,55.055,0,0,0,3908.226,6101.388Z" fill="#5084c2"/>
                    </g>
                  </g>
                  <g id="vest">
                    <path id="Trazado_4366" data-name="Trazado 4366" d="M3976.862,6076.441c-2.666-4.891-7.449-13.009-12.539-16.827-4.453-.954-13.321,2.433-16.1,3.254.666,3.8,2.728,9.974,1.951,18.386a45.837,45.837,0,0,1-5.146,16.6s-9.743-7.028-13.014-11.974c-4.486-6.784-4.653-16.113-4.653-16.113a29.391,29.391,0,0,0-7.279,6.263c-.07,13,2.52,36.393,8.691,58.417,4.977,17.566,12.428,33.188,13.724,34.1,1.645,1.157,14.743,2.666,25.267-1.932l.012.035c1.53-.662,3-1.359,4.366-2.084,10.724-5.694,27.489-12.378,29.4-18.74C4003.628,6138.877,3985.724,6092.7,3976.862,6076.441Z" fill="#d16f3f"/>
                    <path id="Trazado_4367" data-name="Trazado 4367" d="M3972.146,6164.565c10.724-5.694,27.489-12.378,29.4-18.74,2.085-6.948-15.819-53.125-24.681-69.384-2.666-4.891-7.449-13.009-12.539-16.827-1.956-.419-8.75,1.177-11.52,1.848,1.193,4.056,3.728,9.394,7.158,15.746s9.3,12.645,12.167,18.371c10.317,20.632,15.269,53.441-1.753,69.882C3970.981,6165.168,3971.573,6164.869,3972.146,6164.565Z" fill="#ba542c"/>
                    <path id="Trazado_4368" data-name="Trazado 4368" d="M3974.46,6072.228l-.184,9.752s10.5,18.132,14.553,30.06,6.68,31.97,1.67,42.706c-.109.234-.219.462-.328.688,5.761-3.174,10.419-6.431,11.372-9.609,2.085-6.948-15.819-53.125-24.681-69.384C3976.187,6075.2,3975.376,6073.758,3974.46,6072.228Z" fill="#a74626"/>
                    <g id="Grupo_1169" data-name="Grupo 1169">
                      <g id="Grupo_1167" data-name="Grupo 1167">
                        <path id="Trazado_4369" data-name="Trazado 4369" d="M3925.829,6122.672c.591,2.652,1.23,5.314,1.921,7.967a41.905,41.905,0,0,0,4.9-.451c13.2-1.949,32.587-9.812,57.686-23.39-.978-2.5-1.977-5-2.979-7.433C3948.425,6120.5,3932.039,6123,3925.829,6122.672Z" fill="#fff"/>
                        <path id="Trazado_4370" data-name="Trazado 4370" d="M3990.333,6106.793c-.977-2.5-1.975-4.992-2.976-7.427q-5.91,3.207-11.136,5.857c.89,2.492,1.694,5.073,2.391,7.711q5.635-2.844,11.723-6.136Z" fill="#dedfe0"/>
                        <path id="Trazado_4371" data-name="Trazado 4371" d="M3984.251,6101.037c1.158,2.464,2.259,4.949,3.2,7.308q1.428-.762,2.882-1.547c-.979-2.506-1.977-4.995-2.977-7.429Q3985.777,6100.219,3984.251,6101.037Z" fill="#c8c9ca"/>
                      </g>
                      <g id="Grupo_1168" data-name="Grupo 1168">
                        <path id="Trazado_4372" data-name="Trazado 4372" d="M3991.867,6110.774c-39.91,21.835-56.644,24.428-62.963,24.114.776,2.713,1.61,5.376,2.469,7.943a43.219,43.219,0,0,0,4.31-.429c13.425-1.982,33.244-10.08,58.964-24.085C3993.765,6115.846,3992.832,6113.316,3991.867,6110.774Z" fill="#fff"/>
                        <path id="Trazado_4373" data-name="Trazado 4373" d="M3994.645,6118.312c-.881-2.469-1.814-5-2.778-7.536q-6.517,3.563-12.227,6.466c.582,2.715,1.043,5.469,1.366,8.228q6.516-3.273,13.641-7.153Z" fill="#dedfe0"/>
                        <path id="Trazado_4374" data-name="Trazado 4374" d="M3994.646,6118.314c-.882-2.471-1.814-5-2.779-7.538q-1.488.81-2.93,1.588a79.1,79.1,0,0,1,2.15,7.874q1.761-.94,3.56-1.921Z" fill="#c8c9ca"/>
                      </g>
                    </g>
                    <g id="Grupo_1170" data-name="Grupo 1170">
                      <path id="Trazado_4375" data-name="Trazado 4375" d="M3968.446,6166.4a264.77,264.77,0,0,1-11.62-25.012c-4.695-12.081-14.1-40.856-14.1-40.856l2.307-2.7-1.35,2.719c1.33,3.608,10.644,28.863,15.014,40.108,4.672,12.022,11.292,24.826,11.356,24.949Z" fill="#ba542c"/>
                    </g>
                  </g>
                  <g id="head">
                    <circle id="Elipse_51" data-name="Elipse 51" cx="4.228" cy="4.228" r="4.228" transform="translate(3945.046 6038.636) rotate(-73.372)" fill="#ebc79d"/>
                    <path id="Trazado_4376" data-name="Trazado 4376" d="M3947.9,6032.323a4.227,4.227,0,1,0,6.034,5.647,2.757,2.757,0,0,1-4.051-.733c-.67-.966-.822-4.17-1.074-5.389A4.2,4.2,0,0,0,3947.9,6032.323Z" fill="#cca17d"/>
                    <circle id="Elipse_52" data-name="Elipse 52" cx="4.228" cy="4.228" r="4.228" transform="translate(3897.799 6044.336) rotate(-11.346)" fill="#ebc79d"/>
                    <path id="Trazado_4377" data-name="Trazado 4377" d="M3927.8,6065.8l3.662,10.451s2.99,4.609,7.925,3.07c5.973-1.862,5.737-6.736,5.737-6.736l-4.856-14.6Z" fill="#dcb28b"/>
                    <path id="Trazado_4378" data-name="Trazado 4378" d="M3900.364,6044.177c-.021.014-.04.032-.061.047a15.977,15.977,0,0,1,2.164,7.64,4.227,4.227,0,1,0-2.1-7.687Z" fill="#dcb28b"/>
                    <path id="Trazado_4379" data-name="Trazado 4379" d="M3895.959,6026.679a22.608,22.608,0,0,0,1.376,10.626c2.147,4.943,5.627,8.1,5.724,13.181s2.871,12.161,5.484,15.922,11.918,9.383,16.88,8.864c5.039-.527,12.956-7.284,16.2-11.255s7.538-9.525,7.795-16.566-2.374-21.943-3.54-26.709-8.626-16.742-13.932-18.2-14.8-2.161-19.25.074-10.489,3.426-13.8,9.157S3895.959,6026.679,3895.959,6026.679Z" fill="#ebc79d"/>
                    <path id="Trazado_4380" data-name="Trazado 4380" d="M3933.787,6019.149c16.291,19.023,10.815,38.625-5.8,55.444,9.342-3.954,17.636-13.147,20.5-22.193,1.456-4.593.809-9.768.273-14.7C3947.286,6024.052,3944.919,6017.071,3933.787,6019.149Z" fill="#dcb28b"/>
                    <path id="Trazado_4381" data-name="Trazado 4381" d="M3945.74,6020.232a28.035,28.035,0,0,0-7.527-1.3c13.961,16.3,11.206,33.967-.111,49a42.318,42.318,0,0,0,3.785-3.916c3.247-3.971,7.319-9.946,7.534-16.57.228-7.042-2.374-21.943-3.54-26.709C3945.842,6020.58,3945.794,6020.409,3945.74,6020.232Z" fill="#cca17d"/>
                    <path id="Trazado_4382" data-name="Trazado 4382" d="M3904.512,6039.516l1.471.853a.507.507,0,0,0,.528-.024l4.532-2.977a.511.511,0,0,0,.235-.452l-.087-1.513a.467.467,0,0,0-.732-.346c-1.39.851-4.516,2.766-5.921,3.64A.476.476,0,0,0,3904.512,6039.516Z" fill="#474b4d"/>
                    <path id="Trazado_4383" data-name="Trazado 4383" d="M3931.493,6032.007l-.633,1.579a.5.5,0,0,1-.43.306l-5.4.451a.511.511,0,0,1-.464-.21l-.864-1.245a.468.468,0,0,1,.363-.724c1.618-.187,5.261-.607,6.906-.785A.475.475,0,0,1,3931.493,6032.007Z" fill="#474b4d"/>
                    <g id="Grupo_1171" data-name="Grupo 1171">
                      <path id="Trazado_4384" data-name="Trazado 4384" d="M3917.98,6053.662a.355.355,0,0,1-.253.059c-.719-.108-2.077-.681-2.07-2.075a2.157,2.157,0,0,1,.66-1.685,2.392,2.392,0,0,1,1.7-.5.352.352,0,1,1-.081.7,1.624,1.624,0,0,0-1.15.335,1.489,1.489,0,0,0-.42,1.156c-.005,1.141,1.455,1.373,1.47,1.376a.353.353,0,0,1,.149.638Z" fill="#cca17d"/>
                    </g>
                    <g id="Grupo_1172" data-name="Grupo 1172">
                      <path id="Trazado_4385" data-name="Trazado 4385" d="M3952.11,6036.976a.352.352,0,0,1-.466-.521c.743-.854-.177-1.956-.216-2a.352.352,0,0,1,.535-.459,2.264,2.264,0,0,1,.212,2.924A.333.333,0,0,1,3952.11,6036.976Z" fill="#cca17d"/>
                    </g>
                    <g id="Grupo_1173" data-name="Grupo 1173">
                      <path id="Trazado_4386" data-name="Trazado 4386" d="M3902.053,6049.8a.35.35,0,0,1-.382.013,2.265,2.265,0,0,1-1.122-2.708.352.352,0,0,1,.65.272c-.437,1.045.783,1.8.835,1.832a.353.353,0,0,1,.119.484A.342.342,0,0,1,3902.053,6049.8Z" fill="#cca17d"/>
                    </g>
                    <g id="eye_1" data-name="eye 1">
                      <path id="Trazado_4387" data-name="Trazado 4387" d="M3906.511,6042.951c.126-.154,1.228.906,2.455,1.364s3.225.3,3.214.515c-.006.13-1.991.97-2.979,1.772s-1.5,1.82-1.659,1.748.83-1.686,1.334-2.208a7.332,7.332,0,0,1,1.464-.909,4.923,4.923,0,0,1-1.9-.443A6.69,6.69,0,0,1,3906.511,6042.951Z" fill="#383838"/>
                      <path id="Trazado_4388" data-name="Trazado 4388" d="M3907.9,6049.394a1.892,1.892,0,0,1-1.3-.366,3.042,3.042,0,0,1-.64-1.322,9.067,9.067,0,0,0,.747.947A7.851,7.851,0,0,0,3907.9,6049.394Z" fill="#cca17d"/>
                      <path id="Trazado_4389" data-name="Trazado 4389" d="M3906.618,6049.71a1.783,1.783,0,0,1-1.015-.584,2.51,2.51,0,0,1-.3-1.18,7.947,7.947,0,0,0,.456.911A7.3,7.3,0,0,0,3906.618,6049.71Z" fill="#cca17d"/>
                    </g>
                    <g id="eye_1-2" data-name="eye 1">
                      <path id="Trazado_4390" data-name="Trazado 4390" d="M3929.692,6036.6c-.248-.141-1.272,1.67-2.756,2.775s-4.333,1.769-4.217,2.033c.072.161,3.229.365,4.984.952s2.954,1.647,3.14,1.489-1.96-1.768-2.91-2.21a11.74,11.74,0,0,0-2.466-.516,7.358,7.358,0,0,0,2.419-1.373A8.607,8.607,0,0,0,3929.692,6036.6Z" fill="#383838"/>
                      <path id="Trazado_4391" data-name="Trazado 4391" d="M3930.846,6045.314a2.818,2.818,0,0,0,1.633-1.021,3.7,3.7,0,0,0,.257-1.943,11.393,11.393,0,0,1-.585,1.516A10.73,10.73,0,0,1,3930.846,6045.314Z" fill="#cca17d"/>
                      <path id="Trazado_4392" data-name="Trazado 4392" d="M3932.775,6045.162a2.476,2.476,0,0,0,1.13-1.174,3.052,3.052,0,0,0-.144-1.617,9.683,9.683,0,0,1-.2,1.345A9.467,9.467,0,0,1,3932.775,6045.162Z" fill="#cca17d"/>
                    </g>
                    <g id="Grupo_1175" data-name="Grupo 1175">
                      <g id="Grupo_1174" data-name="Grupo 1174">
                        <path id="Trazado_4393" data-name="Trazado 4393" d="M3927.681,6063.721s-4.437-.659-5.936-.374c-1.417.27-4.839,2.732-4.839,2.732-2.077.454-3-1.28-3.293-2.625-.552-2.525-.474-4.5,2.146-5.07,0,0,3.908,1.261,5.2.953,1.43-.34,4.654-3.527,4.654-3.527,2.62-.573,3.809,1.54,4.362,4.064A3.576,3.576,0,0,1,3927.681,6063.721Z" fill="#c16a51"/>
                        <path id="Trazado_4394" data-name="Trazado 4394" d="M3927.129,6056.419a1.22,1.22,0,0,0-.473-.691,3.646,3.646,0,0,0-1.042.082s-3.224,3.187-4.654,3.527c-1.293.308-5.2-.953-5.2-.953a3.364,3.364,0,0,0-1.609.767.769.769,0,0,0,.009.106c.3,1.377,3.449,1.859,7.03,1.075S3927.43,6057.8,3927.129,6056.419Z" fill="#ededec"/>
                        <path id="Trazado_4395" data-name="Trazado 4395" d="M3926.1,6063.516a1.164,1.164,0,0,0-.01-.387c-.253-1.157-2.245-1.7-4.45-1.222s-3.785,1.811-3.532,2.968a1.137,1.137,0,0,0,.128.3,13.725,13.725,0,0,1,3.511-1.827A19.712,19.712,0,0,1,3926.1,6063.516Z" fill="#ededec"/>
                      </g>
                      <path id="Trazado_4396" data-name="Trazado 4396" d="M3914.021,6057.778a3.01,3.01,0,0,0-1.843.69,3.252,3.252,0,0,0-.561,1.794,10.239,10.239,0,0,1,.835-1.335A10.674,10.674,0,0,1,3914.021,6057.778Z" fill="#cca17d"/>
                      <path id="Trazado_4397" data-name="Trazado 4397" d="M3929.23,6064.508a3.005,3.005,0,0,0,1.713-.969,3.245,3.245,0,0,0,.276-1.858,10.244,10.244,0,0,1-.618,1.447A10.581,10.581,0,0,1,3929.23,6064.508Z" fill="#cca17d"/>
                    </g>
                    <g id="Grupo_1176" data-name="Grupo 1176">
                      <path id="Trazado_4398" data-name="Trazado 4398" d="M3902.063,6049.908c-4.654-9.332-7.163-15.363-8.15-25.242-.319-3.2-.485-9.19,1.594-11.857,1.679-2.154,5.38-4.681.9-7.354,6.99-2.316,11.995-3.793,17.886-5.744-.344-.589-.856-1.577-1.35-2.421a64.746,64.746,0,0,1,12.118-1.338c7.264-.126,12.225,4.375,14.147,11.378.265.966,6.652,4.786,8.1,10.181,2.042,7.6,1.315,14.26,1.7,22.16-.237.048-3.383-5.3-6.45-10.646a67.91,67.91,0,0,0-4.946-7.5,20.98,20.98,0,0,1-3.562,4.891c-2.784,2.738-6.958,4.76-7.3,4.56-.365-.212,1.6-2.588,2-4.558a10.772,10.772,0,0,0,.2-3.5,50.494,50.494,0,0,1-6.933,6.433c-3.869,2.735-6.783,3.108-7.144,2.593a22.075,22.075,0,0,0,2.965-4,7.625,7.625,0,0,0,1.07-3.772s-5.68,5.158-9.256,7.849c-2.724,2.049-7.433,4.848-7.433,4.848A84.86,84.86,0,0,1,3902.063,6049.908Z" fill="#cca17d"/>
                      <path id="Trazado_4399" data-name="Trazado 4399" d="M3901.918,6050.023c-4.654-9.333-7.38-16.6-8.366-26.479-.319-3.2.205-9.319,2.285-11.987,1.679-2.153,4.822-3.578.338-6.251,6.991-2.315,11.274-4.073,17.166-6.025l-1.282-2.19c4.608-.874,8.956-2.314,13.327-2.39,7.264-.127,12.225,4.374,14.148,11.378.265.966,6.652,4.785,8.1,10.18,2.041,7.6,1.018,15.763,1.4,23.663-.236.048-3.231-6.69-6.3-12.034a57.878,57.878,0,0,0-5.338-7.753,14.945,14.945,0,0,1-3.026,5.033c-2.891,2.624-6.467,5.315-6.811,5.115-.365-.212,1.63-2.661,2.037-4.631a7.887,7.887,0,0,0-.327-3.986,44.676,44.676,0,0,1-6.882,6.676c-3.869,2.735-6.441,3.536-6.588,3.236a14.313,14.313,0,0,0,3.524-4.961,4.125,4.125,0,0,0-.1-3.7s-5.854,5.532-9.431,8.223c-2.724,2.049-8.353,5.294-8.353,5.294A111.844,111.844,0,0,1,3901.918,6050.023Z" fill="#4d5255"/>
                      <path id="Trazado_4400" data-name="Trazado 4400" d="M3916.324,5997.455c.755-.158,10.058-1.99,13.882.138s6.3,8.032,6.3,8.032-5.194-5.447-8.014-6.546C3925.135,5997.771,3916.324,5997.455,3916.324,5997.455Z" fill="#5a6064"/>
                      <path id="Trazado_4401" data-name="Trazado 4401" d="M3898.558,6005.675s9.014-2.673,12.081-3.089,10.73.684,13.987,2.256a27.01,27.01,0,0,1,7.685,6.051c.657.989-8.228-3.8-15.522-4.75S3898.558,6005.675,3898.558,6005.675Z" fill="#5a6064"/>
                      <path id="Trazado_4402" data-name="Trazado 4402" d="M3940.12,6008.923s4.611,4.273,5.833,6.889,1.7,13.175,1.552,14.8-1.074-8.085-2.373-12.266C3944.1,6015.017,3940.12,6008.923,3940.12,6008.923Z" fill="#5a6064"/>
                      <path id="Trazado_4403" data-name="Trazado 4403" d="M3922.56,6014.622s-1.445-2.063-7.968-2.558-17.952,5.443-17.952,5.443,10.487-2.361,15.64-2.763A88.743,88.743,0,0,1,3922.56,6014.622Z" fill="#5a6064"/>
                      <path id="Trazado_4404" data-name="Trazado 4404" d="M3914.6,6021.015s-5.313-.387-8.706,1.99a21.391,21.391,0,0,0-6.287,7.489s4.631-4.373,7.334-5.907S3914.6,6021.015,3914.6,6021.015Z" fill="#5a6064"/>
                      <path id="Trazado_4405" data-name="Trazado 4405" d="M3935.082,6018.761a5.745,5.745,0,0,1-.772,4.385,26.877,26.877,0,0,1-4.435,4.644,16.546,16.546,0,0,0,2.715-4.791A12.029,12.029,0,0,1,3935.082,6018.761Z" fill="#5a6064"/>
                      <path id="Trazado_4406" data-name="Trazado 4406" d="M3926.854,6019.806a14.961,14.961,0,0,1-1.906,4.622c-1.408,2.152-5.346,4.327-5.346,4.327s3-2.668,3.686-4.994S3926.854,6019.806,3926.854,6019.806Z" fill="#5a6064"/>
                    </g>
                  </g>
                  <g id="left_hand" data-name="left hand">
                    <g id="Grupo_1177" data-name="Grupo 1177">
                      <path id="Trazado_4407" data-name="Trazado 4407" d="M3944.4,5999.2l35.916,30.2-15.353,28.619,16.923,12.36s17.075-41.392,15.977-46.439c-.949-4.356-49.666-29.674-49.666-29.674Z" fill="#ebc79d"/>
                      <path id="Trazado_4408" data-name="Trazado 4408" d="M3966.426,6055.29l3.942,2.1s12.019-27.339,12.019-28.611-33.878-27.2-33.878-27.2l2.033,2.79,29.771,25.036Z" fill="#cca17d"/>
                    </g>
                    <g id="Grupo_1178" data-name="Grupo 1178">
                      <path id="Trazado_4409" data-name="Trazado 4409" d="M3965.125,6053.268c-4.123,1.2-10.345,6.028-10.41,8.432-.082,3.057,14.142,25.938,21.233,24.574,6.2-1.193,10.365-18.3,10.8-21.912C3987.036,6062.029,3967.943,6052.447,3965.125,6053.268Z" fill="#4170b3"/>
                      <path id="Trazado_4410" data-name="Trazado 4410" d="M3965.125,6053.268l-.193.061c.907,2.078,2.754,4.531,4.45,8.443,3.771,8.7,9.6,6.624,15.82,9.006.032.013.063.027.094.043a50.318,50.318,0,0,0,1.456-6.459C3987.036,6062.029,3967.943,6052.447,3965.125,6053.268Z" fill="#5084c2"/>
                    </g>
                  </g>
                </g>
                <g id="glove-2" data-name="glove">
                  <path id="Trazado_4411" data-name="Trazado 4411" d="M3955.628,5998.178l-4.27,7.807a57.058,57.058,0,0,1-8.321-1.5c-4.745-1.332-5.935-3.383-7.7-2.894-2.737.758-8.4,4.153-10.007,2.189-2.247-2.738,3.358-4.013,3.069-5.751-.382-2.3-5.064,1.285-10.611,1.579-6.144.325-9.788-15,15.41-17.985,8.292-.983,16,5.573,19.843,10.063A11.242,11.242,0,0,1,3955.628,5998.178Z" fill="#5084c2"/>
                  <path id="Trazado_4412" data-name="Trazado 4412" d="M3920.552,5985.048a12.832,12.832,0,0,0-3.735,6.6c-.483,2.021.736,2.758,2.345,3.764,3.1,1.937,7.518-1.988,9.382-.856s1.489,2.336,3.171,3.594,4.355-.329,7.2.66,5.843,2.007,8.109.029,4.315-7.178,1.816-10.969a.634.634,0,0,1-.124-.446,36.787,36.787,0,0,1,4.322,4.262,11.242,11.242,0,0,1,2.59,6.491l-4.27,7.807a57.058,57.058,0,0,1-8.321-1.5c-4.745-1.332-5.935-3.383-7.7-2.894-2.737.758-8.4,4.153-10.007,2.189-2.247-2.738,3.358-4.013,3.069-5.751-.382-2.3-5.064,1.285-10.611,1.579C3912.981,5999.863,3909.706,5990.55,3920.552,5985.048Z" fill="#4170b3"/>
                  <path id="Trazado_4413" data-name="Trazado 4413" d="M3914.5,5991.471c-.544,1.692-.708,4.36.724,6.11,2.011,2.458,11.65-1.153,12.459-1.007a1.906,1.906,0,0,1,1.261,2.152c-.167.925-2.506,2.651-1.822,3.49s3.592-.069,5.125-.628,3.065-1.118,3.989-.952,3.523,2.3,6.16,2.9,5.58,1.482,6.935,1.249,5.4-6.784,5.481-7.247a48.971,48.971,0,0,0-1.346-5.31,11.278,11.278,0,0,1,2.159,5.95l-4.27,7.807a57.058,57.058,0,0,1-8.321-1.5c-4.745-1.332-5.935-3.383-7.7-2.894-2.737.758-8.4,4.153-10.007,2.189-2.247-2.738,3.358-4.013,3.069-5.751-.382-2.3-5.064,1.285-10.611,1.579-4.256.225-7.309-7.057-.41-12.548A21.571,21.571,0,0,0,3914.5,5991.471Z" fill="#386195"/>
                </g>
              </g>
            </g>
          </g>
        </g>
      </g>
    </g>
    <circle id="Elipse_54" data-name="Elipse 54" cx="98.333" cy="98.333" r="98.333" transform="translate(615.66 3535.398)" fill="none" stroke="#97c7ea" stroke-miterlimit="10" stroke-width="6"/>
  </g>
</svg>
