<svg xmlns="http://www.w3.org/2000/svg" xmlns:xlink="http://www.w3.org/1999/xlink" width="202.667" height="202.667" viewBox="0 0 202.667 202.667">
  <defs>
    <clipPath id="clip-path">
      <circle id="Elipse_34" data-name="Elipse 34" cx="98.333" cy="98.333" r="98.333" transform="translate(3828.055 5256.944)" fill="none"/>
    </clipPath>
  </defs>
  <g id="Grupo_2798" data-name="Grupo 2798" transform="translate(-620.439 -2846.464)">
    <g id="Grupo_784" data-name="Grupo 784" transform="translate(-3205.602 -2407.48)">
      <g id="Grupo_783" data-name="Grupo 783" clip-path="url(#clip-path)">
        <g id="Grupo_774" data-name="Grupo 774">
          <g id="Grupo_769" data-name="Grupo 769">
            <g id="Grupo_768" data-name="Grupo 768">
              <g id="Grupo_740" data-name="Grupo 740">
                <path id="Trazado_1882" data-name="Trazado 1882" d="M3497.16,6049.9h-93.577l.233,113.694" fill="none" stroke="#909294" stroke-linecap="round" stroke-linejoin="round" stroke-width="21.782"/>
                <line id="Línea_6" data-name="Línea 6" y2="51.092" transform="translate(3497.394 6109.711)" fill="none" stroke="#909294" stroke-linecap="round" stroke-linejoin="round" stroke-width="18.152"/>
                <rect id="Rectángulo_118" data-name="Rectángulo 118" width="93.578" height="29.128" transform="translate(3403.815 6080.583)" fill="#3d3d66"/>
                <path id="Trazado_1883" data-name="Trazado 1883" d="M3404.249,6110.23h93.145v-7.358h-93.145a3.424,3.424,0,0,0-3.093,3.679h0A3.425,3.425,0,0,0,3404.249,6110.23Z" fill="#2f2f4f"/>
                <path id="Trazado_1884" data-name="Trazado 1884" d="M3414.274,6047.518a5.943,5.943,0,0,0,5.942,5.942h57.926a5.942,5.942,0,0,0,5.943-5.942h0a5.943,5.943,0,0,0-5.943-5.943h-57.926a5.944,5.944,0,0,0-5.942,5.943Z" fill="#3d3d66"/>
                <path id="Trazado_1885" data-name="Trazado 1885" d="M3505.476,5995.926a5.467,5.467,0,0,0,5.467,5.467h28.318a5.468,5.468,0,0,0,5.468-5.467h0a5.467,5.467,0,0,0-5.468-5.466h-28.318a5.466,5.466,0,0,0-5.467,5.466Z" fill="#0d0d0d"/>
                <path id="Trazado_1886" data-name="Trazado 1886" d="M3539.261,5995.926h-28.318a5.459,5.459,0,0,0-4.729,2.733,5.458,5.458,0,0,1,4.729-8.2h28.318a5.46,5.46,0,0,1,4.731,8.2A5.463,5.463,0,0,0,3539.261,5995.926Z" fill="#333"/>
                <g id="Grupo_724" data-name="Grupo 724">
                  <path id="Trazado_1887" data-name="Trazado 1887" d="M3539.974,5995.688h-42.58v118.586h-95.24l-32.967,55.351" fill="none" stroke="#909294" stroke-linecap="round" stroke-linejoin="round" stroke-width="29.043"/>
                  <path id="Trazado_1888" data-name="Trazado 1888" d="M3513.081,6160.8H3445.1l-17.472-17.473h-39.16" fill="none" stroke="#909294" stroke-linecap="round" stroke-linejoin="round" stroke-width="18.152"/>
                  <path id="Trazado_1889" data-name="Trazado 1889" d="M3333.732,6147.269c-1.422,2.663.334,6.376,3.921,8.293l26.554,14.184c3.588,1.917,7.651,1.311,9.073-1.352h0c1.421-2.662-.333-6.375-3.922-8.292l-26.554-14.185c-3.588-1.916-7.65-1.31-9.072,1.352Z" fill="#333"/>
                  <path id="Trazado_1890" data-name="Trazado 1890" d="M3366.517,6166.053l-26.553-14.184a8.278,8.278,0,0,0-6.529-.749,4.1,4.1,0,0,1,.3-.74c1.422-2.663,5.484-3.268,9.072-1.352l26.554,14.185c3.589,1.916,5.343,5.629,3.922,8.292a4.528,4.528,0,0,1-2.543,2.1C3371.523,6171.031,3369.785,6167.8,3366.517,6166.053Z" fill="#0d0d0d"/>
                </g>
                <g id="Grupo_739" data-name="Grupo 739">
                  <g id="Grupo_725" data-name="Grupo 725">
                    <line id="Línea_7" data-name="Línea 7" x1="52.115" y1="13.964" transform="translate(3446.473 6123.59)" fill="none" stroke="#b5b5b5" stroke-miterlimit="10" stroke-width="3.63"/>
                    <line id="Línea_8" data-name="Línea 8" x1="52.101" y2="14.012" transform="translate(3446.487 6137.554)" fill="none" stroke="#b5b5b5" stroke-miterlimit="10" stroke-width="3.63"/>
                    <line id="Línea_9" data-name="Línea 9" x1="38.081" y2="38.221" transform="translate(3460.507 6137.554)" fill="none" stroke="#b5b5b5" stroke-miterlimit="10" stroke-width="3.63"/>
                    <line id="Línea_10" data-name="Línea 10" x1="13.822" y2="52.155" transform="translate(3484.766 6137.554)" fill="none" stroke="#b5b5b5" stroke-miterlimit="10" stroke-width="3.63"/>
                    <line id="Línea_11" data-name="Línea 11" x2="14.153" y2="52.066" transform="translate(3498.588 6137.554)" fill="none" stroke="#b5b5b5" stroke-miterlimit="10" stroke-width="3.63"/>
                    <line id="Línea_12" data-name="Línea 12" x2="38.325" y2="37.98" transform="translate(3498.588 6137.554)" fill="none" stroke="#b5b5b5" stroke-miterlimit="10" stroke-width="3.63"/>
                    <line id="Línea_13" data-name="Línea 13" x2="52.192" y2="13.683" transform="translate(3498.588 6137.554)" fill="none" stroke="#b5b5b5" stroke-miterlimit="10" stroke-width="3.63"/>
                    <line id="Línea_14" data-name="Línea 14" y1="14.292" x2="52.027" transform="translate(3498.588 6123.262)" fill="none" stroke="#b5b5b5" stroke-miterlimit="10" stroke-width="3.63"/>
                    <line id="Línea_15" data-name="Línea 15" y1="38.425" x2="37.875" transform="translate(3498.588 6099.129)" fill="none" stroke="#b5b5b5" stroke-miterlimit="10" stroke-width="3.63"/>
                    <line id="Línea_16" data-name="Línea 16" y1="52.226" x2="13.541" transform="translate(3498.588 6085.328)" fill="none" stroke="#b5b5b5" stroke-miterlimit="10" stroke-width="3.63"/>
                    <line id="Línea_17" data-name="Línea 17" x1="14.435" y1="51.986" transform="translate(3484.153 6085.568)" fill="none" stroke="#b5b5b5" stroke-miterlimit="10" stroke-width="3.63"/>
                    <line id="Línea_18" data-name="Línea 18" x1="38.528" y1="37.768" transform="translate(3460.06 6099.786)" fill="none" stroke="#b5b5b5" stroke-miterlimit="10" stroke-width="3.63"/>
                  </g>
                  <g id="Grupo_726" data-name="Grupo 726">
                    <line id="Línea_19" data-name="Línea 19" x1="46.726" y1="26.976" transform="translate(3451.855 6110.566)" fill="none" stroke="#b5b5b5" stroke-miterlimit="10" stroke-width="3.63"/>
                    <line id="Línea_20" data-name="Línea 20" x1="53.952" y2="0.049" transform="translate(3444.628 6137.542)" fill="none" stroke="#b5b5b5" stroke-miterlimit="10" stroke-width="3.63"/>
                    <line id="Línea_21" data-name="Línea 21" x1="46.675" y2="27.063" transform="translate(3451.905 6137.542)" fill="none" stroke="#b5b5b5" stroke-miterlimit="10" stroke-width="3.63"/>
                    <line id="Línea_22" data-name="Línea 22" x1="26.849" y2="46.8" transform="translate(3471.731 6137.542)" fill="none" stroke="#b5b5b5" stroke-miterlimit="10" stroke-width="3.63"/>
                    <line id="Línea_23" data-name="Línea 23" x2="0.195" y2="53.956" transform="translate(3498.581 6137.542)" fill="none" stroke="#b5b5b5" stroke-miterlimit="10" stroke-width="3.63"/>
                    <line id="Línea_24" data-name="Línea 24" x2="27.189" y2="46.606" transform="translate(3498.581 6137.542)" fill="none" stroke="#b5b5b5" stroke-miterlimit="10" stroke-width="3.63"/>
                    <line id="Línea_25" data-name="Línea 25" x2="46.872" y2="26.725" transform="translate(3498.581 6137.542)" fill="none" stroke="#b5b5b5" stroke-miterlimit="10" stroke-width="3.63"/>
                    <line id="Línea_26" data-name="Línea 26" y1="0.339" x2="53.953" transform="translate(3498.581 6137.203)" fill="none" stroke="#b5b5b5" stroke-miterlimit="10" stroke-width="3.63"/>
                    <line id="Línea_27" data-name="Línea 27" y1="27.312" x2="46.531" transform="translate(3498.581 6110.23)" fill="none" stroke="#b5b5b5" stroke-miterlimit="10" stroke-width="3.63"/>
                    <line id="Línea_28" data-name="Línea 28" y1="46.942" x2="26.597" transform="translate(3498.581 6090.6)" fill="none" stroke="#b5b5b5" stroke-miterlimit="10" stroke-width="3.63"/>
                    <line id="Línea_29" data-name="Línea 29" x1="0.488" y1="53.951" transform="translate(3498.093 6083.592)" fill="none" stroke="#b5b5b5" stroke-miterlimit="10" stroke-width="3.63"/>
                    <line id="Línea_30" data-name="Línea 30" x1="27.44" y1="46.453" transform="translate(3471.141 6091.089)" fill="none" stroke="#b5b5b5" stroke-miterlimit="10" stroke-width="3.63"/>
                  </g>
                  <g id="Grupo_727" data-name="Grupo 727">
                    <line id="Línea_31" data-name="Línea 31" x1="53.953" transform="translate(3444.635 6137.554)" fill="none" stroke="#b5b5b5" stroke-miterlimit="10" stroke-width="5.446"/>
                    <line id="Línea_32" data-name="Línea 32" x1="46.7" y2="27.02" transform="translate(3451.888 6137.554)" fill="none" stroke="#b5b5b5" stroke-miterlimit="10" stroke-width="5.446"/>
                    <line id="Línea_33" data-name="Línea 33" x1="26.891" y2="46.774" transform="translate(3471.697 6137.554)" fill="none" stroke="#b5b5b5" stroke-miterlimit="10" stroke-width="5.446"/>
                    <line id="Línea_34" data-name="Línea 34" x2="0.147" y2="53.956" transform="translate(3498.588 6137.554)" fill="none" stroke="#b5b5b5" stroke-miterlimit="10" stroke-width="5.446"/>
                    <line id="Línea_35" data-name="Línea 35" x2="27.146" y2="46.629" transform="translate(3498.588 6137.554)" fill="none" stroke="#b5b5b5" stroke-miterlimit="10" stroke-width="5.446"/>
                    <line id="Línea_36" data-name="Línea 36" x2="46.847" y2="26.767" transform="translate(3498.588 6137.554)" fill="none" stroke="#b5b5b5" stroke-miterlimit="10" stroke-width="5.446"/>
                    <line id="Línea_37" data-name="Línea 37" y1="0.292" x2="53.955" transform="translate(3498.588 6137.262)" fill="none" stroke="#b5b5b5" stroke-miterlimit="10" stroke-width="5.446"/>
                    <line id="Línea_38" data-name="Línea 38" y1="27.271" x2="46.555" transform="translate(3498.588 6110.283)" fill="none" stroke="#b5b5b5" stroke-miterlimit="10" stroke-width="5.446"/>
                    <line id="Línea_39" data-name="Línea 39" y1="46.918" x2="26.639" transform="translate(3498.588 6090.635)" fill="none" stroke="#b5b5b5" stroke-miterlimit="10" stroke-width="5.446"/>
                    <line id="Línea_40" data-name="Línea 40" x1="0.438" y1="53.951" transform="translate(3498.15 6083.602)" fill="none" stroke="#b5b5b5" stroke-miterlimit="10" stroke-width="5.446"/>
                    <line id="Línea_41" data-name="Línea 41" x1="27.398" y1="46.478" transform="translate(3471.19 6091.075)" fill="none" stroke="#b5b5b5" stroke-miterlimit="10" stroke-width="5.446"/>
                    <line id="Línea_42" data-name="Línea 42" x1="46.991" y1="26.509" transform="translate(3451.597 6111.044)" fill="none" stroke="#b5b5b5" stroke-miterlimit="10" stroke-width="5.446"/>
                  </g>
                  <g id="Grupo_738" data-name="Grupo 738">
                    <g id="Grupo_729" data-name="Grupo 729">
                      <g id="Grupo_728" data-name="Grupo 728">
                        <path id="Trazado_1891" data-name="Trazado 1891" d="M3498.588,6083.6a53.953,53.953,0,1,1-53.953,53.953,53.953,53.953,0,0,1,53.953-53.953m0-4.278a58.062,58.062,0,1,0,22.668,4.578,57.867,57.867,0,0,0-22.668-4.578Z" fill="#363636"/>
                      </g>
                    </g>
                    <g id="Grupo_731" data-name="Grupo 731">
                      <g id="Grupo_730" data-name="Grupo 730">
                        <path id="Trazado_1892" data-name="Trazado 1892" d="M3498.588,6085.027a52.365,52.365,0,1,1-20.445,4.128,52.2,52.2,0,0,1,20.445-4.128m0-1.426a53.953,53.953,0,1,0,53.953,53.953,53.953,53.953,0,0,0-53.953-53.953Z" fill="#dbdbdb"/>
                      </g>
                    </g>
                    <g id="Grupo_733" data-name="Grupo 733">
                      <g id="Grupo_732" data-name="Grupo 732">
                        <path id="Trazado_1893" data-name="Trazado 1893" d="M3498.588,6092.648a44.753,44.753,0,1,1-17.479,3.528,44.629,44.629,0,0,1,17.479-3.528m0-1.854a46.76,46.76,0,1,0,46.761,46.76,46.76,46.76,0,0,0-46.761-46.76Z" fill="#dbdbdb"/>
                      </g>
                    </g>
                    <g id="Grupo_735" data-name="Grupo 735">
                      <g id="Grupo_734" data-name="Grupo 734">
                        <path id="Trazado_1894" data-name="Trazado 1894" d="M3490.976,6137.554a7.613,7.613,0,1,1,7.612,7.613A7.613,7.613,0,0,1,3490.976,6137.554Z" fill="#dbdbdb"/>
                      </g>
                    </g>
                    <g id="Grupo_737" data-name="Grupo 737">
                      <g id="Grupo_736" data-name="Grupo 736">
                        <path id="Trazado_1895" data-name="Trazado 1895" d="M3493.13,6137.554a5.459,5.459,0,1,1,5.458,5.46A5.459,5.459,0,0,1,3493.13,6137.554Z" fill="#595959"/>
                      </g>
                    </g>
                  </g>
                </g>
                <path id="Trazado_1896" data-name="Trazado 1896" d="M3371.528,6178a15.235,15.235,0,1,0,15.235-15.236A15.234,15.234,0,0,0,3371.528,6178Z" fill="#363636"/>
                <path id="Trazado_1897" data-name="Trazado 1897" d="M3378.392,6178a8.371,8.371,0,1,0,8.371-8.371A8.37,8.37,0,0,0,3378.392,6178Z" fill="#6d6d6d"/>
                <path id="Trazado_1898" data-name="Trazado 1898" d="M3382.028,6178a4.735,4.735,0,1,0,4.735-4.735A4.735,4.735,0,0,0,3382.028,6178Z" fill="#333"/>
                <path id="Trazado_1899" data-name="Trazado 1899" d="M3403.815,6163.589c0,7.963-7.625,14.407-17.052,14.407" fill="none" stroke="#0d0d0d" stroke-linecap="round" stroke-linejoin="round" stroke-width="36.304"/>
                <path id="Trazado_1900" data-name="Trazado 1900" d="M3383.991,6178a2.771,2.771,0,1,0,2.772-2.772A2.773,2.773,0,0,0,3383.991,6178Z" fill="#cfcfcf"/>
              </g>
              <rect id="Rectángulo_119" data-name="Rectángulo 119" width="40.371" height="76.205" transform="translate(3497.685 6007.397)" fill="#3d3d66"/>
              <g id="Grupo_750" data-name="Grupo 750">
                <path id="Trazado_1901" data-name="Trazado 1901" d="M3479.02,5989.363,3472.7,6035.3l-44.249-1.2" fill="none" stroke="#e4ae96" stroke-linecap="round" stroke-linejoin="round" stroke-width="69.111"/>
                <rect id="Rectángulo_120" data-name="Rectángulo 120" width="20.894" height="16.159" rx="8.079" transform="translate(3420.861 6023.299) rotate(17.182)" fill="#dd957a"/>
                <path id="Rectángulo_121" data-name="Rectángulo 121" d="M12.254,0h0A12.254,12.254,0,0,1,24.508,12.254V39.943a0,0,0,0,1,0,0H0a0,0,0,0,1,0,0V12.254A12.254,12.254,0,0,1,12.254,0Z" transform="translate(3468.757 5977.635) rotate(14.111)" fill="#587b68"/>
                <g id="Grupo_749" data-name="Grupo 749">
                  <path id="Trazado_1902" data-name="Trazado 1902" d="M3527.994,6086.97l-73.414-4.313,11.533-92.474a13.518,13.518,0,0,1,14.141-12.865l39.529,1.869a13.517,13.517,0,0,1,12.864,14.141Z" fill="#648777"/>
                  <g id="Grupo_744" data-name="Grupo 744">
                    <g id="Grupo_743" data-name="Grupo 743">
                      <g id="Grupo_741" data-name="Grupo 741">
                        <rect id="Rectángulo_122" data-name="Rectángulo 122" width="15.24" height="9.521" transform="translate(3372.892 6134.408) rotate(30.05)" fill="#e4ae96"/>
                      </g>
                      <g id="Grupo_742" data-name="Grupo 742">
                        <path id="Trazado_1903" data-name="Trazado 1903" d="M3373.715,6163.419l-26.535-15.351a7.589,7.589,0,0,1-2.769-10.369h0a7.59,7.59,0,0,1,10.37-2.769l26.535,15.351Z" fill="#e4ae96"/>
                      </g>
                      <rect id="Rectángulo_123" data-name="Rectángulo 123" width="38.244" height="3.795" transform="translate(3373.715 6163.419) rotate(-149.95)" fill="#090909"/>
                      <rect id="Rectángulo_124" data-name="Rectángulo 124" width="7.248" height="11.384" transform="matrix(-0.866, -0.501, 0.501, -0.866, 3358.195, 6150.056)" fill="#090909"/>
                    </g>
                    <path id="Trazado_1904" data-name="Trazado 1904" d="M3475.549,6087.418l-65.73.092-30.77,44.187" fill="none" stroke="#587b68" stroke-linecap="square" stroke-linejoin="round" stroke-width="129.584"/>
                  </g>
                  <g id="Grupo_748" data-name="Grupo 748">
                    <g id="Grupo_747" data-name="Grupo 747">
                      <g id="Grupo_745" data-name="Grupo 745">
                        <rect id="Rectángulo_125" data-name="Rectángulo 125" width="15.24" height="9.521" transform="matrix(0.866, 0.501, -0.501, 0.866, 3413.331, 6134.408)" fill="#e4ae96"/>
                      </g>
                      <g id="Grupo_746" data-name="Grupo 746">
                        <path id="Trazado_1905" data-name="Trazado 1905" d="M3414.154,6163.419l-26.534-15.351a7.587,7.587,0,0,1-2.769-10.369h0a7.588,7.588,0,0,1,10.369-2.769l26.535,15.351Z" fill="#e4ae96"/>
                      </g>
                      <rect id="Rectángulo_126" data-name="Rectángulo 126" width="38.244" height="3.795" transform="translate(3414.154 6163.419) rotate(-149.95)" fill="#090909"/>
                      <rect id="Rectángulo_127" data-name="Rectángulo 127" width="7.248" height="11.384" transform="matrix(-0.866, -0.501, 0.501, -0.866, 3398.634, 6150.057)" fill="#090909"/>
                    </g>
                    <path id="Trazado_1906" data-name="Trazado 1906" d="M3515.989,6087.418l-65.73.092-30.77,44.187" fill="none" stroke="#587b68" stroke-linecap="square" stroke-linejoin="round" stroke-width="129.584"/>
                  </g>
                </g>
                <path id="Trazado_1907" data-name="Trazado 1907" d="M3521.063,5990.221l-8.474,45-39.885.082" fill="none" stroke="#e4ae96" stroke-linecap="round" stroke-linejoin="round" stroke-width="69.111"/>
                <rect id="Rectángulo_128" data-name="Rectángulo 128" width="20.894" height="16.159" rx="8.079" transform="translate(3460.134 6026.02) rotate(2.706)" fill="#dd957a"/>
                <path id="Rectángulo_129" data-name="Rectángulo 129" d="M12.254,0h0A12.254,12.254,0,0,1,24.508,12.254V39.943a0,0,0,0,1,0,0H0a0,0,0,0,1,0,0V12.254A12.254,12.254,0,0,1,12.254,0Z" transform="translate(3509.476 5979.761) rotate(8.793)" fill="#587b68"/>
              </g>
              <g id="Grupo_767" data-name="Grupo 767">
                <g id="Grupo_766" data-name="Grupo 766">
                  <path id="Trazado_1908" data-name="Trazado 1908" d="M3580.87,5995.688h-42.58v118.586h-96.371l-32.967,55.351" fill="none" stroke="#909294" stroke-linecap="round" stroke-linejoin="round" stroke-width="29.043"/>
                  <path id="Trazado_1909" data-name="Trazado 1909" d="M3553.977,6160.8H3486l-17.472-17.473h-45.1" fill="none" stroke="#909294" stroke-linecap="round" stroke-linejoin="round" stroke-width="18.152"/>
                  <path id="Trazado_1910" data-name="Trazado 1910" d="M3538.056,6049.9h-93.577l.233,113.694" fill="none" stroke="#909294" stroke-linecap="round" stroke-linejoin="round" stroke-width="21.782"/>
                  <line id="Línea_43" data-name="Línea 43" y2="51.092" transform="translate(3538.29 6109.711)" fill="none" stroke="#909294" stroke-linecap="round" stroke-linejoin="round" stroke-width="18.152"/>
                  <rect id="Rectángulo_130" data-name="Rectángulo 130" width="93.578" height="29.128" transform="translate(3444.711 6080.583)" fill="#2f2f4f"/>
                  <path id="Trazado_1911" data-name="Trazado 1911" d="M3455.17,6047.518a5.943,5.943,0,0,0,5.942,5.942h57.926a5.942,5.942,0,0,0,5.943-5.942h0a5.943,5.943,0,0,0-5.943-5.943h-57.926a5.944,5.944,0,0,0-5.942,5.943Z" fill="#2f2f4f"/>
                  <path id="Trazado_1912" data-name="Trazado 1912" d="M3546.372,5995.926a5.467,5.467,0,0,0,5.467,5.467h28.318a5.468,5.468,0,0,0,5.468-5.467h0a5.467,5.467,0,0,0-5.468-5.466h-28.318a5.466,5.466,0,0,0-5.467,5.466Z" fill="#0d0d0d"/>
                  <path id="Trazado_1913" data-name="Trazado 1913" d="M3580.157,5995.926h-28.318a5.459,5.459,0,0,0-4.729,2.733,5.458,5.458,0,0,1,4.729-8.2h28.318a5.46,5.46,0,0,1,4.731,8.2A5.463,5.463,0,0,0,3580.157,5995.926Z" fill="#333"/>
                  <path id="Trazado_1914" data-name="Trazado 1914" d="M3374.346,6147.552c-1.423,2.663.333,6.375,3.92,8.292l26.554,14.185c3.588,1.917,7.651,1.311,9.073-1.352h0c1.422-2.663-.333-6.376-3.922-8.292l-26.553-14.185c-3.589-1.916-7.65-1.311-9.072,1.352Z" fill="#333"/>
                  <path id="Trazado_1915" data-name="Trazado 1915" d="M3407.13,6163.225l-26.552-14.184a8.284,8.284,0,0,0-6.53-.749,4.029,4.029,0,0,1,.3-.74c1.422-2.663,5.483-3.268,9.072-1.352l26.553,14.185c3.589,1.916,5.344,5.629,3.922,8.292a4.522,4.522,0,0,1-2.542,2.1C3412.136,6168.2,3410.4,6164.97,3407.13,6163.225Z" fill="#0d0d0d"/>
                  <g id="Grupo_765" data-name="Grupo 765">
                    <g id="Grupo_751" data-name="Grupo 751">
                      <line id="Línea_44" data-name="Línea 44" x1="52.115" y1="13.964" transform="translate(3487.369 6123.59)" fill="none" stroke="#b5b5b5" stroke-miterlimit="10" stroke-width="3.63"/>
                      <line id="Línea_45" data-name="Línea 45" x1="52.101" y2="14.012" transform="translate(3487.383 6137.554)" fill="none" stroke="#b5b5b5" stroke-miterlimit="10" stroke-width="3.63"/>
                      <line id="Línea_46" data-name="Línea 46" x1="38.081" y2="38.221" transform="translate(3501.403 6137.554)" fill="none" stroke="#b5b5b5" stroke-miterlimit="10" stroke-width="3.63"/>
                      <line id="Línea_47" data-name="Línea 47" x1="13.822" y2="52.155" transform="translate(3525.662 6137.554)" fill="none" stroke="#b5b5b5" stroke-miterlimit="10" stroke-width="3.63"/>
                      <line id="Línea_48" data-name="Línea 48" x2="14.153" y2="52.066" transform="translate(3539.484 6137.554)" fill="none" stroke="#b5b5b5" stroke-miterlimit="10" stroke-width="3.63"/>
                      <line id="Línea_49" data-name="Línea 49" x2="38.325" y2="37.98" transform="translate(3539.484 6137.554)" fill="none" stroke="#b5b5b5" stroke-miterlimit="10" stroke-width="3.63"/>
                      <line id="Línea_50" data-name="Línea 50" x2="52.192" y2="13.683" transform="translate(3539.484 6137.554)" fill="none" stroke="#b5b5b5" stroke-miterlimit="10" stroke-width="3.63"/>
                      <line id="Línea_51" data-name="Línea 51" y1="14.292" x2="52.027" transform="translate(3539.484 6123.262)" fill="none" stroke="#b5b5b5" stroke-miterlimit="10" stroke-width="3.63"/>
                      <line id="Línea_52" data-name="Línea 52" y1="38.425" x2="37.875" transform="translate(3539.484 6099.129)" fill="none" stroke="#b5b5b5" stroke-miterlimit="10" stroke-width="3.63"/>
                      <line id="Línea_53" data-name="Línea 53" y1="52.226" x2="13.541" transform="translate(3539.484 6085.328)" fill="none" stroke="#b5b5b5" stroke-miterlimit="10" stroke-width="3.63"/>
                      <line id="Línea_54" data-name="Línea 54" x1="14.435" y1="51.986" transform="translate(3525.049 6085.568)" fill="none" stroke="#b5b5b5" stroke-miterlimit="10" stroke-width="3.63"/>
                      <line id="Línea_55" data-name="Línea 55" x1="38.528" y1="37.768" transform="translate(3500.956 6099.786)" fill="none" stroke="#b5b5b5" stroke-miterlimit="10" stroke-width="3.63"/>
                    </g>
                    <g id="Grupo_752" data-name="Grupo 752">
                      <line id="Línea_56" data-name="Línea 56" x1="46.726" y1="26.976" transform="translate(3492.751 6110.566)" fill="none" stroke="#b5b5b5" stroke-miterlimit="10" stroke-width="3.63"/>
                      <line id="Línea_57" data-name="Línea 57" x1="53.952" y2="0.049" transform="translate(3485.524 6137.542)" fill="none" stroke="#b5b5b5" stroke-miterlimit="10" stroke-width="3.63"/>
                      <line id="Línea_58" data-name="Línea 58" x1="46.675" y2="27.063" transform="translate(3492.801 6137.542)" fill="none" stroke="#b5b5b5" stroke-miterlimit="10" stroke-width="3.63"/>
                      <line id="Línea_59" data-name="Línea 59" x1="26.849" y2="46.8" transform="translate(3512.627 6137.542)" fill="none" stroke="#b5b5b5" stroke-miterlimit="10" stroke-width="3.63"/>
                      <line id="Línea_60" data-name="Línea 60" x2="0.195" y2="53.956" transform="translate(3539.477 6137.542)" fill="none" stroke="#b5b5b5" stroke-miterlimit="10" stroke-width="3.63"/>
                      <line id="Línea_61" data-name="Línea 61" x2="27.189" y2="46.606" transform="translate(3539.477 6137.542)" fill="none" stroke="#b5b5b5" stroke-miterlimit="10" stroke-width="3.63"/>
                      <line id="Línea_62" data-name="Línea 62" x2="46.872" y2="26.725" transform="translate(3539.477 6137.542)" fill="none" stroke="#b5b5b5" stroke-miterlimit="10" stroke-width="3.63"/>
                      <line id="Línea_63" data-name="Línea 63" y1="0.339" x2="53.953" transform="translate(3539.477 6137.203)" fill="none" stroke="#b5b5b5" stroke-miterlimit="10" stroke-width="3.63"/>
                      <line id="Línea_64" data-name="Línea 64" y1="27.312" x2="46.531" transform="translate(3539.477 6110.23)" fill="none" stroke="#b5b5b5" stroke-miterlimit="10" stroke-width="3.63"/>
                      <line id="Línea_65" data-name="Línea 65" y1="46.942" x2="26.597" transform="translate(3539.477 6090.6)" fill="none" stroke="#b5b5b5" stroke-miterlimit="10" stroke-width="3.63"/>
                      <line id="Línea_66" data-name="Línea 66" x1="0.488" y1="53.951" transform="translate(3538.989 6083.592)" fill="none" stroke="#b5b5b5" stroke-miterlimit="10" stroke-width="3.63"/>
                      <line id="Línea_67" data-name="Línea 67" x1="27.44" y1="46.453" transform="translate(3512.037 6091.089)" fill="none" stroke="#b5b5b5" stroke-miterlimit="10" stroke-width="3.63"/>
                    </g>
                    <g id="Grupo_753" data-name="Grupo 753">
                      <line id="Línea_68" data-name="Línea 68" x1="53.953" transform="translate(3485.531 6137.554)" fill="none" stroke="#b5b5b5" stroke-miterlimit="10" stroke-width="5.446"/>
                      <line id="Línea_69" data-name="Línea 69" x1="46.7" y2="27.02" transform="translate(3492.784 6137.554)" fill="none" stroke="#b5b5b5" stroke-miterlimit="10" stroke-width="5.446"/>
                      <line id="Línea_70" data-name="Línea 70" x1="26.891" y2="46.774" transform="translate(3512.593 6137.554)" fill="none" stroke="#b5b5b5" stroke-miterlimit="10" stroke-width="5.446"/>
                      <line id="Línea_71" data-name="Línea 71" x2="0.147" y2="53.956" transform="translate(3539.484 6137.554)" fill="none" stroke="#b5b5b5" stroke-miterlimit="10" stroke-width="5.446"/>
                      <line id="Línea_72" data-name="Línea 72" x2="27.146" y2="46.629" transform="translate(3539.484 6137.554)" fill="none" stroke="#b5b5b5" stroke-miterlimit="10" stroke-width="5.446"/>
                      <line id="Línea_73" data-name="Línea 73" x2="46.847" y2="26.767" transform="translate(3539.484 6137.554)" fill="none" stroke="#b5b5b5" stroke-miterlimit="10" stroke-width="5.446"/>
                      <line id="Línea_74" data-name="Línea 74" y1="0.292" x2="53.955" transform="translate(3539.484 6137.262)" fill="none" stroke="#b5b5b5" stroke-miterlimit="10" stroke-width="5.446"/>
                      <line id="Línea_75" data-name="Línea 75" y1="27.271" x2="46.555" transform="translate(3539.484 6110.283)" fill="none" stroke="#b5b5b5" stroke-miterlimit="10" stroke-width="5.446"/>
                      <line id="Línea_76" data-name="Línea 76" y1="46.918" x2="26.639" transform="translate(3539.484 6090.635)" fill="none" stroke="#b5b5b5" stroke-miterlimit="10" stroke-width="5.446"/>
                      <line id="Línea_77" data-name="Línea 77" x1="0.438" y1="53.951" transform="translate(3539.046 6083.602)" fill="none" stroke="#b5b5b5" stroke-miterlimit="10" stroke-width="5.446"/>
                      <line id="Línea_78" data-name="Línea 78" x1="27.398" y1="46.478" transform="translate(3512.086 6091.075)" fill="none" stroke="#b5b5b5" stroke-miterlimit="10" stroke-width="5.446"/>
                      <line id="Línea_79" data-name="Línea 79" x1="46.991" y1="26.509" transform="translate(3492.493 6111.044)" fill="none" stroke="#b5b5b5" stroke-miterlimit="10" stroke-width="5.446"/>
                    </g>
                    <g id="Grupo_764" data-name="Grupo 764">
                      <g id="Grupo_755" data-name="Grupo 755">
                        <g id="Grupo_754" data-name="Grupo 754">
                          <path id="Trazado_1916" data-name="Trazado 1916" d="M3539.484,6083.6a53.953,53.953,0,1,1-53.953,53.953,53.953,53.953,0,0,1,53.953-53.953m0-4.278a58.062,58.062,0,1,0,22.668,4.578,57.867,57.867,0,0,0-22.668-4.578Z" fill="#363636"/>
                        </g>
                      </g>
                      <g id="Grupo_757" data-name="Grupo 757">
                        <g id="Grupo_756" data-name="Grupo 756">
                          <path id="Trazado_1917" data-name="Trazado 1917" d="M3539.484,6085.027a52.365,52.365,0,1,1-20.445,4.128,52.2,52.2,0,0,1,20.445-4.128m0-1.426a53.953,53.953,0,1,0,53.953,53.953,53.953,53.953,0,0,0-53.953-53.953Z" fill="#dbdbdb"/>
                        </g>
                      </g>
                      <g id="Grupo_759" data-name="Grupo 759">
                        <g id="Grupo_758" data-name="Grupo 758">
                          <path id="Trazado_1918" data-name="Trazado 1918" d="M3539.484,6092.648a44.753,44.753,0,1,1-17.479,3.528,44.628,44.628,0,0,1,17.479-3.528m0-1.854a46.76,46.76,0,1,0,46.761,46.76,46.76,46.76,0,0,0-46.761-46.76Z" fill="#dbdbdb"/>
                        </g>
                      </g>
                      <g id="Grupo_761" data-name="Grupo 761">
                        <g id="Grupo_760" data-name="Grupo 760">
                          <path id="Trazado_1919" data-name="Trazado 1919" d="M3531.872,6137.554a7.613,7.613,0,1,1,7.612,7.613A7.613,7.613,0,0,1,3531.872,6137.554Z" fill="#dbdbdb"/>
                        </g>
                      </g>
                      <g id="Grupo_763" data-name="Grupo 763">
                        <g id="Grupo_762" data-name="Grupo 762">
                          <path id="Trazado_1920" data-name="Trazado 1920" d="M3534.026,6137.554a5.459,5.459,0,1,1,5.458,5.46A5.459,5.459,0,0,1,3534.026,6137.554Z" fill="#595959"/>
                        </g>
                      </g>
                    </g>
                  </g>
                  <path id="Trazado_1921" data-name="Trazado 1921" d="M3412.424,6178a15.235,15.235,0,1,0,15.235-15.236A15.234,15.234,0,0,0,3412.424,6178Z" fill="#363636"/>
                  <path id="Trazado_1922" data-name="Trazado 1922" d="M3419.288,6178a8.371,8.371,0,1,0,8.371-8.371A8.37,8.37,0,0,0,3419.288,6178Z" fill="#6d6d6d"/>
                  <path id="Trazado_1923" data-name="Trazado 1923" d="M3422.924,6178a4.735,4.735,0,1,0,4.735-4.735A4.735,4.735,0,0,0,3422.924,6178Z" fill="#333"/>
                  <path id="Trazado_1924" data-name="Trazado 1924" d="M3444.711,6163.589c0,7.963-7.625,14.407-17.052,14.407" fill="none" stroke="#0d0d0d" stroke-linecap="round" stroke-linejoin="round" stroke-width="36.304"/>
                  <path id="Trazado_1925" data-name="Trazado 1925" d="M3424.887,6178a2.771,2.771,0,1,0,2.772-2.772A2.773,2.773,0,0,0,3424.887,6178Z" fill="#cfcfcf"/>
                </g>
              </g>
            </g>
          </g>
          <g id="Grupo_773" data-name="Grupo 773">
            <rect id="Rectángulo_131" data-name="Rectángulo 131" width="17.068" height="5.893" transform="translate(3487.873 5978.546) rotate(4.063)" fill="#e4ae96"/>
            <path id="Trazado_1926" data-name="Trazado 1926" d="M3508.6,5918.311l-7.716.436c-7.789.111-16.013-5-19.336,4.351-.685,1.929-5.359,5.2-5.888,12.642l-1.18,16.622a18.892,18.892,0,0,0,17.48,20.108l9.752.693a18.946,18.946,0,0,0,20.209-17.431l1.18-16.622C3523.835,5928.772,3515.926,5919.718,3508.6,5918.311Z" fill="#949494"/>
            <rect id="Rectángulo_132" data-name="Rectángulo 132" width="17.068" height="5.362" transform="translate(3488.073 5975.729) rotate(4.063)" fill="#e4ae96"/>
            <rect id="Rectángulo_133" data-name="Rectángulo 133" width="17.068" height="5.648" transform="translate(3488.073 5975.729) rotate(4.063)" fill="#dd957a"/>
            <path id="Rectángulo_134" data-name="Rectángulo 134" d="M10.52,0H31.293a10.52,10.52,0,0,1,10.52,10.52V27A20.907,20.907,0,0,1,20.907,47.9h0A20.907,20.907,0,0,1,0,27V10.52A10.52,10.52,0,0,1,10.52,0Z" transform="translate(3478.975 5929.182) rotate(4.063)" fill="#e4ae96"/>
            <path id="Trazado_1927" data-name="Trazado 1927" d="M3517.858,5951.269c3.538-5.287,8.959-2.223,8.634,2.356s-3.937,10.285-9.5,9.89Z" fill="#e4ae96"/>
            <path id="Trazado_1928" data-name="Trazado 1928" d="M3478.4,5948.467c-1.787-5.665-8.555-3.467-8.88,1.112s3.412,10.807,8.011,11.134Z" fill="#e4ae96"/>
            <path id="Trazado_1929" data-name="Trazado 1929" d="M3488.019,5929.824s4.458,5.066,10.335,5.484,9.68-4.208,12.275-3.878-18.276-9.62-18.276-9.62Z" fill="#949494"/>
            <path id="Trazado_1930" data-name="Trazado 1930" d="M3503.4,5962.975c-.178,2.5-5.263,3.113-6.419,3.031s-6.1-1.409-5.926-3.908Z" fill="#fff" stroke="#9c534a" stroke-miterlimit="10" stroke-width="4.501"/>
            <g id="Grupo_771" data-name="Grupo 771">
              <g id="Grupo_770" data-name="Grupo 770">
                <path id="Trazado_1931" data-name="Trazado 1931" d="M3489.37,5948.626a1.762,1.762,0,1,1-1.634-1.858A1.749,1.749,0,0,1,3489.37,5948.626Z"/>
                <path id="Trazado_1932" data-name="Trazado 1932" d="M3510.49,5950.126a1.762,1.762,0,1,1-1.634-1.858A1.749,1.749,0,0,1,3510.49,5950.126Z"/>
              </g>
              <path id="Trazado_1933" data-name="Trazado 1933" d="M3500.119,5957.791c-.068.957-1.26,1.653-2.663,1.553s-2.484-.956-2.416-1.914,1.26-1.653,2.662-1.553S3500.187,5956.833,3500.119,5957.791Z" fill="#cf9985"/>
              <line id="Línea_80" data-name="Línea 80" x2="6.535" y2="0.464" transform="translate(3506.346 5945.517)" fill="#fff" stroke="#323030" stroke-miterlimit="10" stroke-width="4.942"/>
              <line id="Línea_81" data-name="Línea 81" x2="6.293" y2="0.447" transform="translate(3484.804 5943.986)" fill="#fff" stroke="#323030" stroke-miterlimit="10" stroke-width="4.942"/>
              <rect id="Rectángulo_135" data-name="Rectángulo 135" width="13.71" height="9.043" rx="4.522" transform="translate(3481.013 5944.675) rotate(4.063)" fill="none" stroke="#383838" stroke-linecap="round" stroke-miterlimit="10" stroke-width="5.735"/>
              <path id="Rectángulo_136" data-name="Rectángulo 136" d="M4.521,0H9.189A4.522,4.522,0,0,1,13.71,4.522v0A4.521,4.521,0,0,1,9.189,9.043H4.522A4.522,4.522,0,0,1,0,4.522v0A4.521,4.521,0,0,1,4.521,0Z" transform="translate(3502.333 5946.189) rotate(4.063)" fill="none" stroke="#383838" stroke-linecap="round" stroke-miterlimit="10" stroke-width="5.735"/>
              <line id="Línea_82" data-name="Línea 82" x2="7.503" y2="0.533" transform="translate(3494.177 5949.031)" fill="none" stroke="#383838" stroke-miterlimit="10" stroke-width="7.413"/>
              <line id="Línea_83" data-name="Línea 83" y1="1.363" x2="3.826" transform="translate(3515.635 5949.354)" fill="none" stroke="#383838" stroke-miterlimit="10" stroke-width="6.193"/>
              <line id="Línea_84" data-name="Línea 84" x1="3.595" y1="1.89" transform="translate(3477.484 5946.373)" fill="none" stroke="#383838" stroke-miterlimit="10" stroke-width="6.193"/>
            </g>
            <path id="Trazado_1934" data-name="Trazado 1934" d="M3487.753,5961.863a2.78,2.78,0,0,0-.908,3.423" fill="none" stroke="#dd957a" stroke-miterlimit="10" stroke-width="2.25"/>
            <path id="Trazado_1935" data-name="Trazado 1935" d="M3506.127,5963.168a2.779,2.779,0,0,1,.415,3.517" fill="none" stroke="#dd957a" stroke-miterlimit="10" stroke-width="2.25"/>
            <path id="Trazado_1936" data-name="Trazado 1936" d="M3510.323,5951.792a2.779,2.779,0,0,1,2.161,2.805" fill="none" stroke="#dd957a" stroke-miterlimit="10" stroke-width="2.25"/>
            <path id="Trazado_1937" data-name="Trazado 1937" d="M3510.883,5951.119a2.779,2.779,0,0,1,3.081,1.745" fill="none" stroke="#dd957a" stroke-miterlimit="10" stroke-width="2.25"/>
            <path id="Trazado_1938" data-name="Trazado 1938" d="M3485.806,5950.051a2.779,2.779,0,0,0-2.535,2.472" fill="none" stroke="#dd957a" stroke-miterlimit="10" stroke-width="2.25"/>
            <path id="Trazado_1939" data-name="Trazado 1939" d="M3485.346,5949.305a2.778,2.778,0,0,0-3.3,1.292" fill="none" stroke="#dd957a" stroke-miterlimit="10" stroke-width="2.25"/>
            <g id="Grupo_772" data-name="Grupo 772">
              <path id="Trazado_1940" data-name="Trazado 1940" d="M3491.508,5938.237a55.174,55.174,0,0,1,6.553-.116,62.536,62.536,0,0,1,6.728,1.059" fill="none" stroke="#dd957a" stroke-miterlimit="10" stroke-width="2.056"/>
              <path id="Trazado_1941" data-name="Trazado 1941" d="M3491.418,5939.5a55.129,55.129,0,0,1,6.553-.116,62.271,62.271,0,0,1,6.728,1.059" fill="none" stroke="#dd957a" stroke-miterlimit="10" stroke-width="2.056"/>
              <path id="Trazado_1942" data-name="Trazado 1942" d="M3491.328,5940.762a55.374,55.374,0,0,1,6.554-.116,62.435,62.435,0,0,1,6.728,1.06" fill="none" stroke="#dd957a" stroke-miterlimit="10" stroke-width="2.056"/>
            </g>
            <path id="Trazado_1943" data-name="Trazado 1943" d="M3492.335,5966.488s4.969,2.862,10.088.276C3502.423,5966.764,3497.26,5970.97,3492.335,5966.488Z" fill="#dd957a"/>
            <path id="Trazado_1944" data-name="Trazado 1944" d="M3489.263,5928.126s5.763,8.348,19.666,2.837a26.586,26.586,0,0,1-19.98-2.859" fill="#aaa8a8"/>
            <path id="Trazado_1945" data-name="Trazado 1945" d="M3520.248,5938.266a1.644,1.644,0,0,0,2.291-.354S3522.714,5940.287,3520.248,5938.266Z" fill="#aaa8a8"/>
            <path id="Trazado_1946" data-name="Trazado 1946" d="M3520.328,5940.265a1.643,1.643,0,0,0,2.29-.354S3522.793,5942.287,3520.328,5940.265Z" fill="#aaa8a8"/>
            <path id="Trazado_1947" data-name="Trazado 1947" d="M3520.218,5941.808a1.644,1.644,0,0,0,2.291-.354S3522.683,5943.83,3520.218,5941.808Z" fill="#aaa8a8"/>
            <path id="Trazado_1948" data-name="Trazado 1948" d="M3478.7,5934.65s-1.136.732-2.218-.675C3476.479,5933.975,3475.97,5936.3,3478.7,5934.65Z" fill="#aaa8a8"/>
            <path id="Trazado_1949" data-name="Trazado 1949" d="M3478.335,5936.618s-1.135.732-2.217-.674C3476.118,5935.944,3475.609,5938.271,3478.335,5936.618Z" fill="#aaa8a8"/>
            <path id="Trazado_1950" data-name="Trazado 1950" d="M3478.226,5938.161s-1.136.732-2.218-.674C3476.008,5937.487,3475.5,5939.814,3478.226,5938.161Z" fill="#aaa8a8"/>
            <ellipse id="Elipse_33" data-name="Elipse 33" cx="4.42" cy="8.534" rx="4.42" ry="8.534" transform="matrix(0.071, -0.997, 0.997, 0.071, 3487.142, 5988.833)" fill="#e4ae96"/>
          </g>
        </g>
        <g id="Grupo_782" data-name="Grupo 782">
          <g id="Grupo_776" data-name="Grupo 776">
            <path id="Trazado_1951" data-name="Trazado 1951" d="M3873.085,5498.322c-2.551,7.653-14.4,16.4-7.867,20.513,4.464,2.811,18.4-.4,24.554-11.585S3873.085,5498.322,3873.085,5498.322Z" fill="#3c3441"/>
            <path id="Trazado_1952" data-name="Trazado 1952" d="M3929.213,5406.63l-27.881,65.705-32.206-20.844L3868.1,5441.4c-.968-9.537-4.137-14.242.613-18.485,5.848-5.225,17.526-8.938,17.526-8.938C3891.762,5413.892,3928.291,5406.616,3929.213,5406.63Z" fill="#515052"/>
            <path id="Trazado_1953" data-name="Trazado 1953" d="M3889,5343.448c6.454-.846,4.393-.646,4.393-.646l5.148-1.056v-10.014h16.122v10.014l5.148,1.056s-2.494,1.238,3.961,2.085c.924.121-2.277,34.83-3.514,38.836l-5.595,26.851c-8.128.509.422,1.365-7.56,2.527v0l-.017,0-.016,0v0a.647.647,0,0,0-.936,0v0l-.016,0-.017,0v0c-7.982-1.162.569-2.018-7.56-2.527l-5.595-26.851C3891.712,5379.717,3888.077,5343.569,3889,5343.448Z" fill="#ebc291"/>
            <path id="Trazado_1954" data-name="Trazado 1954" d="M3898.543,5338.1v-6.366h16.122v6.629s-1.689,2.069-7.67,2.069S3898.543,5338.1,3898.543,5338.1Z" fill="#d7a079"/>
            <g id="Grupo_775" data-name="Grupo 775">
              <path id="Trazado_1955" data-name="Trazado 1955" d="M3896.151,5309.083a8.946,8.946,0,0,1-7.685,9.962,8.8,8.8,0,0,1-9.45-8.176,8.943,8.943,0,0,1,7.684-9.96A8.8,8.8,0,0,1,3896.151,5309.083Z" fill="#ebc291"/>
              <path id="Trazado_1956" data-name="Trazado 1956" d="M3887.205,5315.8a5.051,5.051,0,0,0,.945-.01,5.209,5.209,0,0,0,3.6-2.051,6.082,6.082,0,0,0,1.213-4.325,5.676,5.676,0,0,0-5-5.267,5.146,5.146,0,0,0-.946.01,5.211,5.211,0,0,0-3.6,2.051,6.082,6.082,0,0,0-1.212,4.325,5.676,5.676,0,0,0,5,5.267Z" fill="#d7a079"/>
              <path id="Trazado_1957" data-name="Trazado 1957" d="M3923.345,5311.368a8.947,8.947,0,0,0,5.915,11.1,8.8,8.8,0,0,0,10.682-6.484,8.943,8.943,0,0,0-5.914-11.1A8.8,8.8,0,0,0,3923.345,5311.368Z" fill="#ebc291"/>
              <path id="Trazado_1958" data-name="Trazado 1958" d="M3931.045,5319.487a5.674,5.674,0,0,0,5.8-4.359,6.077,6.077,0,0,0-.473-4.467,5.206,5.206,0,0,0-3.2-2.622,5.049,5.049,0,0,0-.932-.168,5.673,5.673,0,0,0-5.8,4.358,6.078,6.078,0,0,0,.473,4.468,5.124,5.124,0,0,0,4.134,2.79Z" fill="#d7a079"/>
            </g>
            <path id="Trazado_1959" data-name="Trazado 1959" d="M3885.332,5310.362a24.358,24.358,0,1,0,48.537,4.079l1.309-15.581a24.358,24.358,0,1,0-48.537-4.078Z" fill="#ebc291"/>
            <path id="Trazado_1960" data-name="Trazado 1960" d="M3868.749,5372.161a53.716,53.716,0,0,1,3.3-14.581c2.861-8.27,7.2-11.8,13.721-13.527,3.3-.877,6.542-1.675,8.112-2.057a1.2,1.2,0,0,1,1.37.663c2.765,6.02,7.215,7.011,11.351,7.4,4.136-.385,8.058-2.086,9-7.745.093-.565.813-.8,1.369-.663,1.57.382,7.228.315,11.024,2.683,2.727,1.7,4.307,5.136,6.513,12.968,1.375,4.879,9.841,8.965,10.788,15.26a1.061,1.061,0,0,1-.834,1.19c-2.817.595-10.962,2.314-13.827,2.922a1.057,1.057,0,0,1-1.251-.8,8.989,8.989,0,0,1-.186-1.327v39.434s-2.88,8-22.594,5.757c-17.751-2.024-19.59-5.955-20.363-5.757l-3.728-39.449c-.037.474,1.408.948,1.317,1.342a1.058,1.058,0,0,1-1.251.8c-2.865-.608-10.854-2.17-13.425-3.421C3868.651,5373,3868.688,5372.718,3868.749,5372.161Z" fill="#7ca3d0"/>
            <path id="Trazado_1961" data-name="Trazado 1961" d="M3887.536,5301.24c1.317-10.028,5.377-12.186,11.153-11.594,3.963.407,3.452,1.163,14.554,2.1,9.544.8,9.491-.408,13.485-.072,4.279.359,7.267,1.611,7.432,9.9.033,1.639-.143,3.282-.187,4.919-.025.962-.036,1.924-.067,2.885-.013.391-.638,1.441-.121,1.384.579-.062,1.472-2.1,1.566-2.55a55.968,55.968,0,0,0,1.212-8.247c.488-5.88.811-16.267-8.681-23.778-5.839-4.619-18.586-6.1-25.9-4.378-5.091,1.2-10.345,4.009-13.132,9.1-2.762,5.041-4.3,10.033-4.01,19.692.037,1.233,0,7.176,0,7.993C3884.839,5311.394,3886.274,5310.85,3887.536,5301.24Z" fill="#452812"/>
            <path id="Trazado_1962" data-name="Trazado 1962" d="M3890.319,5500.087s-17.446,5.144-18.918-3.448c0,0-8.624-33.457-8.622-60.478,0-9.413,6.04-16.08,12.9-14.776s10.935,5.068,13.433,18.1S3887.952,5482.649,3890.319,5500.087Z" fill="#636166"/>
            <path id="Trazado_1963" data-name="Trazado 1963" d="M3909.609,5500.087s-17.447,5.144-18.918-3.448c0,0-8.624-33.457-8.622-60.478,0-9.413,6.039-16.08,12.9-14.776s10.934,8.72,13.432,21.75S3907.241,5482.649,3909.609,5500.087Z" fill="#515052"/>
            <path id="Trazado_1964" data-name="Trazado 1964" d="M3912.8,5500.087s-17.447,5.144-18.919-3.448c0,0-8.624-33.457-8.622-60.478,0-9.413,6.04-16.08,12.9-14.776s10.935,8.72,13.433,21.75S3910.43,5482.649,3912.8,5500.087Z" fill="#636166"/>
            <path id="Trazado_1965" data-name="Trazado 1965" d="M3917.336,5325.321c-4.185,7.916-15.066,4.644-16.459-1.284a.63.63,0,0,1,.638-.829l15.434,1.249C3917.374,5324.491,3917.564,5324.89,3917.336,5325.321Z" fill="#fff"/>
            <path id="Trazado_1966" data-name="Trazado 1966" d="M3897.707,5307.562a5.1,5.1,0,0,0-3.705,1.907,1.28,1.28,0,0,0,2.086,1.483,2.809,2.809,0,0,1,2.572-.818c1.9.233,2.271,1.178,2.285,1.218a1.259,1.259,0,0,0,1.569.867,1.3,1.3,0,0,0,.883-1.6c-.265-.954-1.5-2.666-4.425-3.026A6.317,6.317,0,0,0,3897.707,5307.562Z" fill="#452812"/>
            <path id="Trazado_1967" data-name="Trazado 1967" d="M3927.887,5307.772a1.28,1.28,0,0,0,.394-2.457,14.432,14.432,0,0,0-8.914-1.026,1.28,1.28,0,0,0,.7,2.464,12.185,12.185,0,0,1,7.232.924A1.263,1.263,0,0,0,3927.887,5307.772Z" fill="#452812"/>
            <path id="Trazado_1968" data-name="Trazado 1968" d="M3921.638,5309.822a4.517,4.517,0,0,0-3.769,2.1,1.28,1.28,0,0,0,2.264,1.195c.052-.08.622-.875,2.469-.735a2.76,2.76,0,0,1,2.353,1.3,1.28,1.28,0,0,0,2.337-1.044,5.308,5.308,0,0,0-4.5-2.812A7.569,7.569,0,0,0,3921.638,5309.822Z" fill="#452812"/>
            <path id="Trazado_1969" data-name="Trazado 1969" d="M3903.888,5305.335a1.279,1.279,0,0,0,.492-2.411,14.465,14.465,0,0,0-8.956-.749,1.28,1.28,0,0,0,.5,2.51,12.2,12.2,0,0,1,7.29.518A1.281,1.281,0,0,0,3903.888,5305.335Z" fill="#452812"/>
          </g>
          <path id="Trazado_1970" data-name="Trazado 1970" d="M4050.872,5538.723c0,4.635-4.06,8.393-9.068,8.393H3897.722c-5.008,0-9.068-3.758-9.068-8.393v-24.741c0-4.635,4.06-8.393,9.068-8.393H4041.8c5.008,0,9.068,3.758,9.068,8.393Z" fill="#d2e3ec"/>
          <path id="Trazado_1971" data-name="Trazado 1971" d="M4029.048,5367.84a8.174,8.174,0,0,0-8.173-8.173h-55.306c-8.327,25.075-11.545,53.71-33.353,71.5-1.226,1-2.467,1.967-3.715,2.916h94.339a8.318,8.318,0,0,0,8.456-8.173Z" fill="#d2e3ec"/>
          <path id="Trazado_1972" data-name="Trazado 1972" d="M4006.194,5435.484h-60.543s-10.689-47.279-3.065-59,62.276-9.544,66.673,0C4016.957,5393.183,4006.194,5435.484,4006.194,5435.484Z" fill="#ebf9ff"/>
          <path id="Trazado_1973" data-name="Trazado 1973" d="M3928.057,5402.72a292.416,292.416,0,0,0,5.243,32.764h72.894a224.272,224.272,0,0,0,5.46-32.771c-12.124-2.062-17.539-4.014-36.307-4.014A289.307,289.307,0,0,0,3928.057,5402.72Z" fill="#d2e3ec"/>
          <path id="Trazado_1974" data-name="Trazado 1974" d="M3975.347,5401.249c-27.742,0-42.8,6.138-53.4,8.7-4.935,1.192-18.235,4.864-18.931,9.894l-19.479,81.029c-4.565,19.225,5.119,26.043,5.119,26.043h162.561s10.09-4.718,4.778-26.043l-19.479-81.029c-.7-5.03-5.179-10.389-10.114-11.587C4015.851,5405.694,4003.665,5401.249,3975.347,5401.249Z" fill="#ebf9ff"/>
          <g id="Grupo_779" data-name="Grupo 779">
            <path id="Trazado_1975" data-name="Trazado 1975" d="M3967.007,5366.744" fill="#311f11"/>
            <path id="Trazado_1976" data-name="Trazado 1976" d="M3948.869,5301.146h0a26.127,26.127,0,0,0-22.922,28.98l1.09,9.339.043,0,4.462,35.685a14.192,14.192,0,0,0,15.741,12.451l27.325-3.189c5.765-.673,6.258-5.393,5.585-11.158l-1.254-39.841-.994-8.512-.1-.827A26.128,26.128,0,0,0,3948.869,5301.146Z" fill="#5d3410"/>
            <path id="Trazado_1977" data-name="Trazado 1977" d="M3949.6,5377.028h13.6v-19.492l-13.6.714Z" fill="#ebc291"/>
            <path id="Trazado_1978" data-name="Trazado 1978" d="M3949.6,5365.815a17.87,17.87,0,0,0,6.034,1.187,20.059,20.059,0,0,0,7.568-1.615v-7.851h-13.6Z" fill="#d7a079"/>
            <path id="Trazado_1979" data-name="Trazado 1979" d="M3965.917,5337.053a7.292,7.292,0,0,0,7,7.821,7.74,7.74,0,0,0,8.192-6.967,7.293,7.293,0,0,0-6.995-7.82A7.738,7.738,0,0,0,3965.917,5337.053Z" fill="#ebc291"/>
            <path id="Trazado_1980" data-name="Trazado 1980" d="M3975.64,5338.948c1.486,12.732-9.906,23.906-20,25.084-8.055.656-20.81-5.037-24.408-19.7l-3.082-15.271c-1.486-12.733,8.132-22.374,20.628-23.832s23.614,5.857,25.1,18.589Z" fill="#ebc291"/>
            <path id="Trazado_1981" data-name="Trazado 1981" d="M3939.77,5345.326a5.093,5.093,0,0,1-3.829-1.607,1.275,1.275,0,1,1,1.957-1.635,2.8,2.8,0,0,0,2.619.613c1.868-.379,2.165-1.347,2.176-1.388a1.255,1.255,0,0,1,1.492-.983,1.3,1.3,0,0,1,1,1.521c-.189.969-1.279,2.764-4.161,3.349A6.244,6.244,0,0,1,3939.77,5345.326Z" fill="#452812"/>
            <path id="Trazado_1982" data-name="Trazado 1982" d="M3958.856,5316.786c-9.381,11.685-26.294,11.732-29.152,25.176,0,0-1.09-5.258-2.37-11.052-2.029-9.187,3.189-24.694,21.091-28.964,18.489-4.41,28.857,11.615,28.618,28.9l-1.819,2.019S3963.876,5327.375,3958.856,5316.786Z" fill="#5d3410"/>
            <path id="Trazado_1983" data-name="Trazado 1983" d="M3935.334,5338.154a1.275,1.275,0,0,1-.582-2.411,14.388,14.388,0,0,1,8.776-1.711,1.276,1.276,0,0,1-.5,2.5,12.134,12.134,0,0,0-7.114,1.48A1.278,1.278,0,0,1,3935.334,5338.154Z" fill="#5d3410"/>
            <path id="Trazado_1984" data-name="Trazado 1984" d="M3961.469,5341.371a4.5,4.5,0,0,1-3.906-1.789,1.275,1.275,0,0,1,2.156-1.363c.058.076.686.822,2.51.54a2.749,2.749,0,0,0,2.236-1.478,1.276,1.276,0,0,1,2.4.856,5.292,5.292,0,0,1-4.25,3.143A7.531,7.531,0,0,1,3961.469,5341.371Z" fill="#452812"/>
            <path id="Trazado_1985" data-name="Trazado 1985" d="M3957.087,5334.018a1.274,1.274,0,0,1-.676-2.357,14.422,14.422,0,0,1,8.84-1.44,1.275,1.275,0,1,1-.3,2.533,12.164,12.164,0,0,0-7.2,1.081A1.275,1.275,0,0,1,3957.087,5334.018Z" fill="#5d3410"/>
            <path id="Trazado_1986" data-name="Trazado 1986" d="M3955.321,5357.489q-.477.07-.975.092c-2.557.115-4.978-.779-5.889-2.175a1.014,1.014,0,0,1,1.7-1.108c.44.674,2.132,1.347,4.1,1.258a5.674,5.674,0,0,0,4.854-2.748,1.014,1.014,0,0,1,1.791.951A7.3,7.3,0,0,1,3955.321,5357.489Z" fill="#694018"/>
            <path id="Trazado_1987" data-name="Trazado 1987" d="M3973.661,5371.459q-.4-.189-.827-.366a43.9,43.9,0,0,0-6.329-2.22c-1.244-.3-2.339-.526-3.3-.7a9.071,9.071,0,0,1-8.371,5.6c-5.6.186-5.231-6.028-5.231-6.028a39.3,39.3,0,0,0-4.939.576c-14.006,3.1-13.656,17.261-13.337,27.753.8-.576,1.315-.906,1.315-.906a8.3,8.3,0,0,0,3.8,5.344s22.136,20.962,28.123,18.642c12.78-4.953,16.569-15.854,17.532-24.462.049-.444.1-.863.147-1.253C3983.328,5384.811,3981.145,5374.943,3973.661,5371.459Z" fill="#d48691"/>
            <g id="Grupo_778" data-name="Grupo 778">
              <path id="Trazado_1988" data-name="Trazado 1988" d="M3946.719,5386.79c6.851,9.457,10.8,20.054,10.87,26.907,0,0,2.761,11.423-6.039,14.306-14.942,4.9-23.3.5-35.311-16.073s-23.311-36.812-8.578-46.7C3924.31,5354.058,3934.71,5370.214,3946.719,5386.79Z" fill="#fefdf3"/>
              <path id="Trazado_1989" data-name="Trazado 1989" d="M3935.092,5375.686a74.4,74.4,0,0,0-6.56-8.279c-5.108-5.709-12.621-4.665-16.828-2.567-7.907,4.133-10.549,12.587-6.581,20.176l1.165,2.228c.093.178.191.351.289.525a19.334,19.334,0,0,0,7.574,7.049c4.017,1.862,8,1.888,12.609.167C3935.113,5391.862,3940.265,5384.075,3935.092,5375.686Z" fill="#eebd8a"/>
              <path id="Trazado_1990" data-name="Trazado 1990" d="M3917.092,5392.3c.837.948,2.494.851,3.708-.217s1.517-2.7.68-3.651-2.495-.852-3.709.217S3916.254,5391.35,3917.092,5392.3Z" fill="#e29879"/>
              <path id="Trazado_1991" data-name="Trazado 1991" d="M3935.092,5375.686s-.119-.184-.346-.513a2.579,2.579,0,0,0-1.944,2.171,2.161,2.161,0,0,0,2.183,2.375,2.647,2.647,0,0,0,1.681-.571A14.517,14.517,0,0,0,3935.092,5375.686Z" fill="#e29879"/>
              <g id="Grupo_777" data-name="Grupo 777">
                <path id="Trazado_1992" data-name="Trazado 1992" d="M3921.242,5381.732a.923.923,0,0,0-1.114.676c-.742,3.024-3.89,2.74-4.023,2.727a.921.921,0,0,0-.2,1.831,6.191,6.191,0,0,0,2.43-.253,5.121,5.121,0,0,0,3.587-3.866A.925.925,0,0,0,3921.242,5381.732Z" fill="#834f1c"/>
                <path id="Trazado_1993" data-name="Trazado 1993" d="M3931.5,5373.826a.923.923,0,0,0-1.019.811,2.559,2.559,0,0,1-.876,1.893,2.118,2.118,0,0,1-1.52.273.921.921,0,0,0-1.109.676.923.923,0,0,0,.676,1.115,4.24,4.24,0,0,0,1.7,0,3.634,3.634,0,0,0,.363-.094,3.392,3.392,0,0,0,.939-.457,4.27,4.27,0,0,0,1.662-3.2A.922.922,0,0,0,3931.5,5373.826Z" fill="#834f1c"/>
              </g>
              <path id="Trazado_1994" data-name="Trazado 1994" d="M3931.728,5384.437a.743.743,0,0,0-.714-.073,1.06,1.06,0,0,0-.582.735l-.042.2a2.475,2.475,0,0,1-.961,1.825,2.824,2.824,0,0,1-2.056.485,1.33,1.33,0,0,0-.971.186.748.748,0,0,0-.313.5.978.978,0,0,0,.86,1.041h0a4.112,4.112,0,0,0,1.741,0,5.034,5.034,0,0,0,1.431-.53,3.655,3.655,0,0,0,1.936-2.878C3932.115,5385.549,3932.234,5384.756,3931.728,5384.437Z" fill="#834f1c"/>
            </g>
            <path id="Trazado_1995" data-name="Trazado 1995" d="M3969.611,5393.459c-2.019,7.334-3.666,19.008-6.324,21.1,0,0-3.188,2.338-11.235,1.5-4.743-.5-4.362-4.93-9.863-6.589a23.613,23.613,0,0,0-2.944-.488c-.556-.094-3.273-.257-4.04-.247-.865.011-2.111-.094-2.722.591-.719.809.262,1.872,1.137,2.187.563.2,6.657.764,6.444,1.943-.234,1.3-3.3.679-4.166.55-1.181-.175-5.683-.868-6.8-1.071-.777-.14-2.729-.88-3.222.216-.486,1.078,1.1,1.5,1.69,2.242.538.688.4,1.408.78,1.977,3.253,4.925,8.663,6.636,14.082,7.871a37.887,37.887,0,0,0,5.718,1.1c7.482,1.3,15.02,1.56,18.866.069,12.784-4.954,14.117-23.114,15.08-31.719C3977.729,5392.124,3971.18,5391.89,3969.611,5393.459Z" fill="#ebc291"/>
            <path id="Trazado_1996" data-name="Trazado 1996" d="M3926.064,5412l.007,0,.061-.005C3926.108,5411.989,3926.087,5412,3926.064,5412Z" fill="#d08f6f"/>
            <path id="Trazado_1997" data-name="Trazado 1997" d="M3909.688,5367.435c-1.717,1.738-1.758,4.068.448,5.543,3.718,2.487,9.984-1.507,9.984-1.507s-2.47.312-3.57-2.693C3915.375,5365.568,3912.441,5364.647,3909.688,5367.435Z" fill="#834f1c" opacity="0.5"/>
          </g>
          <g id="Grupo_780" data-name="Grupo 780">
            <path id="Trazado_1998" data-name="Trazado 1998" d="M3869.154,5373.249a114.017,114.017,0,0,0,17.108,2.879c-.376.985.662,24.855,0,24.718,11.528,2.385,16.94,8.624,25.435,9.316,4.714.384,13.152,15.344,4.678,14.639-11.126-.926-38.993-7.072-38.993-7.072-7.66-2.282-8.293-10.817-8.293-14.763C3869.089,5397.8,3868.991,5383.453,3869.154,5373.249Z" fill="#ebc291"/>
            <path id="Trazado_1999" data-name="Trazado 1999" d="M3910.151,5415.977a16.985,16.985,0,0,1,1.546-5.815c4.855-.327,5.519-4.7,11.338-5.411a18.711,18.711,0,0,1,3.02.134,37.394,37.394,0,0,1,4.046.725c.851.237,2.106.423,2.545,1.457a1.8,1.8,0,0,1-1.642,2.506c-2.546.147-6.659-.887-6.854,1.01-.289,2.825,10.564,3.826,12.568,4.228a2.224,2.224,0,0,1,1.815,2.468,2.141,2.141,0,0,1-1.53,1.878l.664.118a2.071,2.071,0,0,1,1.777,2.357c-.15,1.254-.993,1.876-2.443,1.925a5.914,5.914,0,0,1-1.953-.11,2.443,2.443,0,0,1,.677,2.008c-.145,1.221-2.942,2.516-14.16.6-2.647-.451-8.583-2.208-10.8-2.917C3910.767,5423.143,3909.806,5421.8,3910.151,5415.977Z" fill="#ebc291"/>
          </g>
          <g id="Grupo_781" data-name="Grupo 781">
            <path id="Trazado_2000" data-name="Trazado 2000" d="M3982.736,5371.166c.209,1.324.518,2.125-.536,2.69-1.353.727-1.829,1.557-2.733-1.654-.664-2.361-.113-3.831,1.276-3.428A3.136,3.136,0,0,1,3982.736,5371.166Z" fill="#d7a079"/>
            <path id="Trazado_2001" data-name="Trazado 2001" d="M3980.424,5378.822c-4.775-1.208-1.966-6.559,2.079-5.869,1.17.2,2.979,2.491,3.6,7.319.263,2.044,1.123,7.766-1.162,9.013-3.6,1.966-5.656-2.229-3.116-4.679C3977.764,5384.372,3977.694,5379.827,3980.424,5378.822Z" fill="#ebc291"/>
          </g>
        </g>
      </g>
    </g>
    <circle id="Elipse_43" data-name="Elipse 43" cx="98.333" cy="98.333" r="98.333" transform="translate(623.439 2849.464)" fill="none" stroke="#97c7ea" stroke-miterlimit="10" stroke-width="6"/>
  </g>
</svg>
