<svg xmlns="http://www.w3.org/2000/svg" width="152.444" height="152.443" viewBox="0 0 152.444 152.443">
  <g id="Grupo_2807" data-name="Grupo 2807" transform="translate(-348.233 -2049.965)">
    <path id="Trazado_685" data-name="Trazado 685" d="M5266.057,2049.965q3.744,0,7.471.367t7.4,1.1q3.672.731,7.256,1.817t7.043,2.52q3.459,1.434,6.761,3.2t6.416,3.846q3.114,2.08,6.008,4.456t5.543,5.023q2.648,2.647,5.023,5.542t4.456,6.008q2.08,3.114,3.845,6.416t3.2,6.762q1.434,3.459,2.52,7.043t1.818,7.256q.73,3.672,1.1,7.4t.368,7.471q0,3.744-.368,7.471t-1.1,7.4q-.73,3.672-1.818,7.256t-2.52,7.043q-1.433,3.459-3.2,6.761t-3.845,6.416q-2.081,3.114-4.456,6.008t-5.023,5.542q-2.649,2.649-5.543,5.024t-6.008,4.456q-3.112,2.08-6.416,3.845t-6.761,3.2q-3.461,1.434-7.043,2.52t-7.256,1.818q-3.672.73-7.4,1.1t-7.471.367q-3.744,0-7.471-.367t-7.4-1.1q-3.674-.731-7.256-1.818t-7.043-2.52q-3.459-1.433-6.762-3.2t-6.416-3.845q-3.113-2.08-6.008-4.456t-5.542-5.024q-2.648-2.647-5.023-5.542t-4.456-6.008q-2.081-3.114-3.846-6.416t-3.2-6.761q-1.433-3.46-2.52-7.043t-1.817-7.256q-.73-3.672-1.1-7.4t-.367-7.471q0-3.746.367-7.471t1.1-7.4q.731-3.673,1.817-7.256t2.52-7.043q1.433-3.459,3.2-6.762t3.846-6.416q2.08-3.113,4.456-6.008t5.023-5.542q2.647-2.648,5.542-5.023t6.008-4.456q3.114-2.08,6.416-3.846t6.762-3.2q3.458-1.433,7.043-2.52t7.256-1.817q3.672-.73,7.4-1.1T5266.057,2049.965Z" transform="translate(-4841.602)" fill="#619dc1"/>
    <circle id="Elipse_18" data-name="Elipse 18" cx="71.597" cy="71.597" r="71.597" transform="translate(352.858 2055.211)" fill="#fff"/>
    <g id="Grupo_388" data-name="Grupo 388" transform="translate(-4841.602)">
      <ellipse id="Elipse_22" data-name="Elipse 22" cx="65.13" cy="65.352" rx="65.13" ry="65.352" transform="translate(5200.927 2061.234)" fill="#ffd071"/>
      <path id="Trazado_735" data-name="Trazado 735" d="M5301,2105.059a5.031,5.031,0,0,0-4.013-1.6l-9.624-18.98-45.583.674-14.328-1.007.687,59.861-.6,2.522s7.185,7.82,8.8,9.084a132.311,132.311,0,0,1,.232,13.607s11.422,7.391,37.686,22.19a65.253,65.253,0,0,0,56.4-56.595C5321.053,2125.175,5301.083,2105.137,5301,2105.059Zm-47.834,43.831-.125-.064h-.318v-.23l.125-.036v.174h.318Zm2.864-1.1-.048.027-.078-.137.126-.036Zm.317.318-.047.028-.125-.218h.172Zm.318.319-.047.028-.125-.218h.172Zm.318.319-.047.027-.125-.217h.172Zm.318.322-.173-.193h.173Z" fill="#e6b54a"/>
      <path id="Trazado_736" data-name="Trazado 736" d="M5289.271,2094.284h6.808v73.74h-58.341v-6.782h4.708v2.075h48.925v-64.327h-2.1v-4.707Zm-51.043.675v23.534h19.521v-23.534Zm0,37.655v4.707h39.042v-4.707Zm23.916-37.654v4.706h15.125v-4.706Zm0,9.414v4.706h15.125v-4.706Zm0,9.413v4.706h15.125v-4.706Zm-23.917,9.413v4.707h39.042V2123.2Zm48.69-38.052h-58.339V2146.6l11.729,12.289h46.61v-73.74Zm-4.706,4.707h-48.927V2143.4h10.781v10.781h38.146Z" fill="#fff" stroke="#00232b" stroke-miterlimit="10" stroke-width="2" fill-rule="evenodd"/>
    </g>
  </g>
</svg>
