<svg xmlns="http://www.w3.org/2000/svg" width="425.308" height="265.604" viewBox="0 0 425.308 265.604">
  <g id="Grupo_2780" data-name="Grupo 2780" transform="translate(-985.733 -117.859)">
    <path id="Trazado_5880" data-name="Trazado 5880" d="M1381.934,190.407c-10.175.726-20.819,26.254-7.217,45.719s31.645,8.716,35.531-5.684S1403.586,188.86,1381.934,190.407Z" fill="#eef8fd"/>
    <path id="Trazado_5881" data-name="Trazado 5881" d="M1132.268,130.706c-.3,5.261,12.08,12.394,22.948,6.707s6.548-15.638-.574-18.577S1132.9,119.512,1132.268,130.706Z" fill="#eef8fd"/>
    <path id="Trazado_5882" data-name="Trazado 5882" d="M1006.486,199.923c-7.253-2.518-20.208,5.325-20.735,20.974-.509,15.122,10.116,20.306,19.219,13.2C1012.562,228.176,1019.552,204.459,1006.486,199.923Z" fill="#eef8fd"/>
    <g id="Grupo_2627" data-name="Grupo 2627">
      <g id="Grupo_2592" data-name="Grupo 2592">
        <g id="Grupo_2591" data-name="Grupo 2591">
          <path id="Trazado_5883" data-name="Trazado 5883" d="M1144.69,320.656c-31.345-18.951-39.522-36.565-48.991-56.96-2.441-5.258-4.965-10.694-7.993-16.4-6.927-13.049-14.334-23-22.644-30.407-8.347-7.446-16.982-11.782-24.327-15.041-16.574-7.353-22.383-16.567-22.44-16.659l-1.31.8c.24.392,6.073,9.7,23.127,17.261,18.15,8.053,32.216,18.35,46.238,44.764,3.009,5.668,5.524,11.085,7.956,16.324,9.575,20.624,17.844,38.435,49.59,57.628Z" fill="#cee8f9"/>
        </g>
      </g>
      <g id="Grupo_2594" data-name="Grupo 2594">
        <g id="Grupo_2593" data-name="Grupo 2593">
          <path id="Trazado_5884" data-name="Trazado 5884" d="M1005.064,169.473c-4.681,3.537-1.116,12.417,4.413,18.561,5.251,5.835,11.371,7.359,14.5,5.3,3.208-2.109,4.288-8.558-1.752-16.488C1015.376,167.86,1008.284,167.039,1005.064,169.473Z" fill="#cee8f9"/>
        </g>
      </g>
      <g id="Grupo_2596" data-name="Grupo 2596">
        <g id="Grupo_2595" data-name="Grupo 2595">
          <path id="Trazado_5885" data-name="Trazado 5885" d="M999.52,207.919c.094,5.867,9.367,8.229,17.59,7.39,7.809-.8,12.65-4.839,12.835-8.577.189-3.835-4.38-8.512-14.346-8.314C1004.3,198.642,999.455,203.884,999.52,207.919Z" fill="#cee8f9"/>
        </g>
      </g>
      <g id="Grupo_2598" data-name="Grupo 2598">
        <g id="Grupo_2597" data-name="Grupo 2597">
          <path id="Trazado_5886" data-name="Trazado 5886" d="M1041.737,169.413c-5.621,1.685-5.376,11.25-2.335,18.936,2.887,7.3,8.091,10.861,11.739,10.024,3.742-.859,7-6.527,4.107-16.064C1051.964,171.5,1045.6,168.255,1041.737,169.413Z" fill="#cee8f9"/>
        </g>
      </g>
      <g id="Grupo_2600" data-name="Grupo 2600">
        <g id="Grupo_2599" data-name="Grupo 2599">
          <path id="Trazado_5887" data-name="Trazado 5887" d="M1027.741,229.155c.79,5.814,10.276,7.06,18.342,5.252,7.66-1.717,11.988-6.3,11.728-10.038-.267-3.83-5.358-7.933-15.23-6.555C1031.39,219.376,1027.2,225.156,1027.741,229.155Z" fill="#cee8f9"/>
        </g>
      </g>
      <g id="Grupo_2602" data-name="Grupo 2602">
        <g id="Grupo_2601" data-name="Grupo 2601">
          <path id="Trazado_5888" data-name="Trazado 5888" d="M1088.1,185.233c-4.907-3.216-12.069,3.13-15.992,10.406-3.726,6.909-3.1,13.184-.111,15.436,3.067,2.31,9.5,1.156,14.935-7.2C1093.091,194.4,1091.475,187.445,1088.1,185.233Z" fill="#cee8f9"/>
        </g>
      </g>
      <g id="Grupo_2604" data-name="Grupo 2604">
        <g id="Grupo_2603" data-name="Grupo 2603">
          <path id="Trazado_5889" data-name="Trazado 5889" d="M1048.078,251.726c.789,5.814,10.276,7.06,18.342,5.252,7.66-1.716,11.987-6.3,11.727-10.038-.266-3.83-5.357-7.932-15.23-6.554C1051.727,241.948,1047.535,247.727,1048.078,251.726Z" fill="#cee8f9"/>
        </g>
      </g>
      <g id="Grupo_2606" data-name="Grupo 2606">
        <g id="Grupo_2605" data-name="Grupo 2605">
          <path id="Trazado_5890" data-name="Trazado 5890" d="M1112.2,219.053c-3.4-4.783-12.379-1.483-18.685,3.862-5.987,5.076-7.691,11.148-5.728,14.335,2.014,3.269,8.428,4.539,16.532-1.263C1113.508,229.409,1114.539,222.343,1112.2,219.053Z" fill="#cee8f9"/>
        </g>
      </g>
      <g id="Grupo_2608" data-name="Grupo 2608">
        <g id="Grupo_2607" data-name="Grupo 2607">
          <path id="Trazado_5891" data-name="Trazado 5891" d="M1069.458,293.106c3.914,4.372,12.468.085,18.133-5.934,5.38-5.716,6.392-11.941,4.084-14.887-2.368-3.022-8.884-3.565-16.286,3.111C1067,282.963,1066.767,290.1,1069.458,293.106Z" fill="#cee8f9"/>
        </g>
      </g>
      <g id="Grupo_2610" data-name="Grupo 2610">
        <g id="Grupo_2609" data-name="Grupo 2609">
          <path id="Trazado_5892" data-name="Trazado 5892" d="M1130.256,253.042c-2.3-5.4-11.781-4.078-19.078-.194-6.929,3.689-9.884,9.26-8.642,12.791,1.274,3.622,7.271,6.226,16.424,2.277C1129.334,263.439,1131.841,256.754,1130.256,253.042Z" fill="#cee8f9"/>
        </g>
      </g>
      <g id="Grupo_2612" data-name="Grupo 2612">
        <g id="Grupo_2611" data-name="Grupo 2611">
          <path id="Trazado_5893" data-name="Trazado 5893" d="M1091.194,319.4c3.949,3.439,11.051-1.3,15.4-7.26,4.133-5.657,4.342-11.282,1.971-13.637-2.431-2.415-8.262-2.175-14.08,4.555C1087.893,310.686,1088.477,317.032,1091.194,319.4Z" fill="#cee8f9"/>
        </g>
      </g>
      <g id="Grupo_2614" data-name="Grupo 2614">
        <g id="Grupo_2613" data-name="Grupo 2613">
          <path id="Trazado_5894" data-name="Trazado 5894" d="M1144.026,288.74c-.085-5.237-8.361-7.344-15.7-6.6-6.97.712-11.291,4.32-11.455,7.657-.169,3.422,3.909,7.6,12.8,7.419C1139.757,297.02,1144.084,292.341,1144.026,288.74Z" fill="#cee8f9"/>
        </g>
      </g>
      <g id="Grupo_2616" data-name="Grupo 2616">
        <g id="Grupo_2615" data-name="Grupo 2615">
          <rect id="Rectángulo_732" data-name="Rectángulo 732" width="9.994" height="1.536" transform="translate(1029.249 204.478) rotate(-19.475)" fill="#cee8f9"/>
        </g>
      </g>
      <g id="Grupo_2618" data-name="Grupo 2618">
        <g id="Grupo_2617" data-name="Grupo 2617">
          <rect id="Rectángulo_733" data-name="Rectángulo 733" width="1.536" height="8.806" transform="translate(1048.621 198.11)" fill="#cee8f9"/>
        </g>
      </g>
      <g id="Grupo_2620" data-name="Grupo 2620">
        <g id="Grupo_2619" data-name="Grupo 2619">
          <path id="Trazado_5895" data-name="Trazado 5895" d="M1073.921,211.674l-1.282-.845-5.729,8.689-9.8,3.639.534,1.44,10.266-3.814Z" fill="#cee8f9"/>
        </g>
      </g>
      <g id="Grupo_2622" data-name="Grupo 2622">
        <g id="Grupo_2621" data-name="Grupo 2621">
          <path id="Trazado_5896" data-name="Trazado 5896" d="M1089.064,237.923l-1.375-.683-3.117,6.275-6.961,2.162.456,1.467,7.588-2.357Z" fill="#cee8f9"/>
        </g>
      </g>
      <g id="Grupo_2624" data-name="Grupo 2624">
        <g id="Grupo_2623" data-name="Grupo 2623">
          <path id="Trazado_5897" data-name="Trazado 5897" d="M1104.191,266.443l-1.174-.99-4.756,5.64-6.923,1.162.254,1.515,7.479-1.256Z" fill="#cee8f9"/>
        </g>
      </g>
      <g id="Grupo_2626" data-name="Grupo 2626">
        <g id="Grupo_2625" data-name="Grupo 2625">
          <path id="Trazado_5898" data-name="Trazado 5898" d="M1117.571,291.78l-.3-1.507-7.08,1.389-2.979,6.6,1.4.632,2.653-5.876Z" fill="#cee8f9"/>
        </g>
      </g>
    </g>
    <g id="Grupo_2646" data-name="Grupo 2646">
      <g id="Grupo_2629" data-name="Grupo 2629">
        <g id="Grupo_2628" data-name="Grupo 2628">
          <path id="Trazado_5899" data-name="Trazado 5899" d="M1314.634,332.089c13.432-6.153,23.794-12.967,31.678-20.829,7.921-7.9,12.753-16.266,16.436-23.408,8.308-16.116,17.846-21.378,17.941-21.429l-.724-1.354c-.4.216-10.033,5.5-18.582,22.079-9.1,17.648-20.2,31.089-47.388,43.545Z" fill="#cee8f9"/>
        </g>
      </g>
      <g id="Grupo_2631" data-name="Grupo 2631">
        <g id="Grupo_2630" data-name="Grupo 2630">
          <path id="Trazado_5900" data-name="Trazado 5900" d="M1397.153,254.133c-3.258-4.88-12.331-1.84-18.788,3.321-6.131,4.9-8.01,10.921-6.139,14.164,1.919,3.325,8.293,4.78,16.562-.786C1398.161,264.521,1399.394,257.489,1397.153,254.133Z" fill="#cee8f9"/>
        </g>
      </g>
      <g id="Grupo_2633" data-name="Grupo 2633">
        <g id="Grupo_2632" data-name="Grupo 2632">
          <path id="Trazado_5901" data-name="Trazado 5901" d="M1359.1,246.353c-5.862-.248-8.762,8.87-8.4,17.128.339,7.843,4.091,12.912,7.813,13.314,3.817.413,8.753-3.875,9.137-13.835C1368.078,251.669,1363.128,246.523,1359.1,246.353Z" fill="#cee8f9"/>
        </g>
      </g>
      <g id="Grupo_2635" data-name="Grupo 2635">
        <g id="Grupo_2634" data-name="Grupo 2634">
          <path id="Trazado_5902" data-name="Trazado 5902" d="M1395.071,290.746c-1.353-5.709-10.916-6.023-18.767-3.437-7.456,2.456-11.315,7.444-10.692,11.135.639,3.785,6.106,7.372,15.8,5.037C1392.393,300.834,1396,294.673,1395.071,290.746Z" fill="#cee8f9"/>
        </g>
      </g>
      <g id="Grupo_2637" data-name="Grupo 2637">
        <g id="Grupo_2636" data-name="Grupo 2636">
          <path id="Trazado_5903" data-name="Trazado 5903" d="M1336.249,273.286c-5.851.449-7.648,9.846-6.314,18,1.266,7.747,5.593,12.335,9.336,12.294,3.839-.043,8.232-4.886,7.432-14.821C1345.8,277.5,1340.272,272.977,1336.249,273.286Z" fill="#cee8f9"/>
        </g>
      </g>
      <g id="Grupo_2639" data-name="Grupo 2639">
        <g id="Grupo_2638" data-name="Grupo 2638">
          <path id="Trazado_5904" data-name="Trazado 5904" d="M1376.57,336.106c3.5-4.711-2.419-12.23-9.453-16.572-6.68-4.123-12.981-3.865-15.4-1.012-2.485,2.927-1.709,9.419,6.317,15.33C1367.128,340.553,1374.165,339.347,1376.57,336.106Z" fill="#cee8f9"/>
        </g>
      </g>
      <g id="Grupo_2641" data-name="Grupo 2641">
        <g id="Grupo_2640" data-name="Grupo 2640">
          <rect id="Rectángulo_734" data-name="Rectángulo 734" width="1.536" height="9.994" transform="translate(1359.321 276.659) rotate(-16.127)" fill="#cee8f9"/>
        </g>
      </g>
      <g id="Grupo_2643" data-name="Grupo 2643">
        <g id="Grupo_2642" data-name="Grupo 2642">
          <rect id="Rectángulo_735" data-name="Rectángulo 735" width="1.536" height="8.806" transform="translate(1357.14 296.958) rotate(-86.606)" fill="#cee8f9"/>
        </g>
      </g>
      <g id="Grupo_2645" data-name="Grupo 2645">
        <g id="Grupo_2644" data-name="Grupo 2644">
          <path id="Trazado_5905" data-name="Trazado 5905" d="M1351,320.408l.919-1.231-8.34-6.227-3.06-9.991-1.468.449,3.208,10.472Z" fill="#cee8f9"/>
        </g>
      </g>
    </g>
    <path id="Trazado_5906" data-name="Trazado 5906" d="M1224.682,356.691c-48.733-.506-164.471,1-164.431,8.7.04,7.761,97.007,7.163,97.007,7.163s-29.189,1.226-29.189,6.649,75.277,6.292,151.346-1.049c44.791-4.322,28.807-9.922,28.807-9.922s19.2-.894,19.21-3.8C1327.447,360.141,1278.87,357.254,1224.682,356.691Z" fill="#ebebeb"/>
    <g id="Grupo_2652" data-name="Grupo 2652">
      <g id="Grupo_2651" data-name="Grupo 2651">
        <g id="Grupo_2648" data-name="Grupo 2648">
          <g id="Grupo_2647" data-name="Grupo 2647">
            <path id="Trazado_5907" data-name="Trazado 5907" d="M1068.512,359.62a23.155,23.155,0,0,1-9.8-13.456c-2.275-8-1.018-17.754,3.45-26.771a50.774,50.774,0,0,1,22.216-22.421,3.333,3.333,0,0,1,3.044,5.93c-18.372,9.43-25.879,28.852-22.3,41.439,2.6,9.136,10.564,13.643,22.43,12.692,7.7-.618,35.7-13.464,136.678-92.558,57.715-45.208,111.911-90.668,112.452-91.122a3.333,3.333,0,0,1,4.286,5.1c-.542.454-54.813,45.979-112.615,91.255-33.974,26.612-62.511,47.94-84.819,63.391-28.706,19.882-46.843,29.883-55.449,30.573-7.781.624-14.354-.732-19.536-4.03Z" fill="#24374b"/>
          </g>
        </g>
        <g id="Grupo_2650" data-name="Grupo 2650">
          <g id="Grupo_2649" data-name="Grupo 2649">
            <path id="Trazado_5908" data-name="Trazado 5908" d="M1319.055,192.968c-13.57-16.607-75-84.966-172.565-46.468,10.6,5.1,56.5,23.37,49.6,74.534,16.92-.525,61.828,29.466,58.342,80.835,18.035,4.567,47.222,26.534,46.251,61.977C1300.683,363.846,1378.652,296.886,1319.055,192.968Z" fill="#619dc1"/>
          </g>
        </g>
        <path id="Trazado_5909" data-name="Trazado 5909" d="M1319.908,194.478c-.283-.5-.564-1-.853-1.51-.6-.734-1.3-1.572-2.082-2.495a61.647,61.647,0,0,0-30.667-11.507c-10.716-.992-22.252.611-34.287,4.764-26.878,9.275-47.513,27.83-55.775,36.1q-.072.6-.154,1.206c.335-.01.681-.007,1.037.006,8.071-8.1,28.6-26.671,55.375-35.91,25.5-8.8,47.653-6.033,65.841,8.221,4.4,54.9-28.013,84.19-63.855,107.6-.018.307-.036.613-.056.922q.474.12.958.257C1291.308,278.657,1323.785,249.293,1319.908,194.478Z" fill="#82b5db"/>
      </g>
    </g>
    <g id="Grupo_2654" data-name="Grupo 2654">
      <g id="Grupo_2653" data-name="Grupo 2653">
        <path id="Trazado_5910" data-name="Trazado 5910" d="M1167.385,167.13c-14.826-7.558-25.733,8.916-26.893,11.023-1.159-2.107-12.008-18.875-26.892-11.023-18.953,10-8.847,38.769,26.481,60.189C1175.409,205.9,1186.476,176.863,1167.385,167.13Z" fill="#dd503e"/>
      </g>
      <path id="Trazado_5911" data-name="Trazado 5911" d="M1170.4,199.755h-15.766l-2.711,5-5.244-28.846-6.878,38.3-6.47-26.449-3.753,11.954h-19.123v.7c.152.233.31.467.467.7h19.686l2.555-8.141,6.849,27.994,6.675-37.174,4.569,25.131,4.212-7.766h13.995C1169.788,200.688,1170.1,200.221,1170.4,199.755Z" fill="#fff"/>
    </g>
    <g id="Grupo_2657" data-name="Grupo 2657">
      <path id="Trazado_5912" data-name="Trazado 5912" d="M1132.664,243.8l8.4,120.2,82.026-.086,3.99-122.19Z" fill="#cfd1d2"/>
      <path id="Trazado_5913" data-name="Trazado 5913" d="M1218.282,359.183l2.957.212,2.254-112.943-6.21,4.852Z" fill="#e5e5e6"/>
      <path id="Trazado_5914" data-name="Trazado 5914" d="M1137.175,248.078l86.318-1.626L1219.2,360.074l-73.832-.3Z" fill="#fff"/>
      <g id="Grupo_2655" data-name="Grupo 2655">
        <path id="Trazado_5915" data-name="Trazado 5915" d="M1149.96,327.534l17.269-.543.262-12.6-18.352,1.068Z" fill="#f0f1f1"/>
        <path id="Trazado_5916" data-name="Trazado 5916" d="M1148.077,299.846l.709,10.429,18.787.113.248-11.925Z" fill="#f0f1f1"/>
        <path id="Trazado_5917" data-name="Trazado 5917" d="M1168.3,275.475l.335-16.143-23.293.257,1.127,16.572Z" fill="#f0f1f1"/>
        <path id="Trazado_5918" data-name="Trazado 5918" d="M1146.8,281.039l.95,13.972,20.14.208.339-16.35Z" fill="#f0f1f1"/>
        <path id="Trazado_5919" data-name="Trazado 5919" d="M1150.19,330.93l1.041,14.218,15.631-.485.387-13.719Z" fill="#f0f1f1"/>
      </g>
      <path id="Trazado_5920" data-name="Trazado 5920" d="M1211.8,251.476a26,26,0,0,0-2.282-9.365l-4.268.134-6.3,2.024,11.063,4.638Z" fill="#e5e5e6"/>
      <path id="Trazado_5921" data-name="Trazado 5921" d="M1147.856,266.768l3.847-1.26,4.621,5.107,5.129-10.347h4.666l-8.968,13.663Z" fill="#dd503e"/>
      <path id="Trazado_5922" data-name="Trazado 5922" d="M1147.856,285.963l3.847-1.26,4.621,5.107,5.129-10.347h4.666l-8.968,13.663Z" fill="#dd503e"/>
      <path id="Trazado_5923" data-name="Trazado 5923" d="M1147.856,302.931l3.847-1.26,4.621,5.107,5.129-10.347h4.666l-8.968,13.663Z" fill="#dd503e"/>
      <path id="Trazado_5924" data-name="Trazado 5924" d="M1147.856,318.983l3.847-1.26,4.621,5.107,5.129-10.347h4.666l-8.968,13.663Z" fill="#dd503e"/>
      <path id="Trazado_5925" data-name="Trazado 5925" d="M1147.856,336.038l3.847-1.26,4.621,5.107,5.129-10.347h4.666l-8.968,13.663Z" fill="#dd503e"/>
      <path id="Trazado_5926" data-name="Trazado 5926" d="M1171.983,259.331v4.208l36.309-1.177v-3.031Z" fill="#e0e1e1"/>
      <path id="Trazado_5927" data-name="Trazado 5927" d="M1171.983,265.293V269.5h46.611v-3.145Z" fill="#e0e1e1"/>
      <path id="Trazado_5928" data-name="Trazado 5928" d="M1171.983,271.254v4.208h25.544v-3.318Z" fill="#e0e1e1"/>
      <path id="Trazado_5929" data-name="Trazado 5929" d="M1171.4,279.619v3.874l41.4-1.083v-2.791Z" fill="#e0e1e1"/>
      <path id="Trazado_5930" data-name="Trazado 5930" d="M1171.4,285.107v3.874h32.373v-2.9Z" fill="#e0e1e1"/>
      <path id="Trazado_5931" data-name="Trazado 5931" d="M1171.4,290.6v3.874H1209.8v-3.055Z" fill="#e0e1e1"/>
      <path id="Trazado_5932" data-name="Trazado 5932" d="M1170.673,300.732v3.874h32.373v-2.9Z" fill="#e0e1e1"/>
      <path id="Trazado_5933" data-name="Trazado 5933" d="M1170.673,306.22v3.874h46.611v-3.055Z" fill="#e0e1e1"/>
      <path id="Trazado_5934" data-name="Trazado 5934" d="M1170.673,314.387v3.874h25.7v-2.9Z" fill="#e0e1e1"/>
      <path id="Trazado_5935" data-name="Trazado 5935" d="M1170.673,319.875v3.874H1209.8v-3.055Z" fill="#e0e1e1"/>
      <path id="Trazado_5936" data-name="Trazado 5936" d="M1170.673,340.733v3.874h31.137v-3.055Z" fill="#e0e1e1"/>
      <path id="Trazado_5937" data-name="Trazado 5937" d="M1170.673,330.93V334.8h36v-3.055Z" fill="#e0e1e1"/>
      <path id="Trazado_5938" data-name="Trazado 5938" d="M1153.375,243.346a25.58,25.58,0,0,0-1.209,9.232l3.38-3.855,5.016-3.526v-2.009Z" fill="#e5e5e6"/>
      <path id="Trazado_5939" data-name="Trazado 5939" d="M1180.28,212.886a12.282,12.282,0,1,0,12.661,11.89A12.282,12.282,0,0,0,1180.28,212.886Zm-.474,18.954a6.106,6.106,0,1,1,5.912-6.294A6.106,6.106,0,0,1,1179.806,231.84Z" fill="#5584b1"/>
      <path id="Trazado_5940" data-name="Trazado 5940" d="M1152.166,252.578s5.325-19.384,28.729-20.119a31.763,31.763,0,0,1,30.9,19.017Z" fill="#5584b1"/>
      <g id="Grupo_2656" data-name="Grupo 2656">
        <path id="Trazado_5941" data-name="Trazado 5941" d="M1168.908,237.128l2.482,2.43a16.82,16.82,0,0,1,6.391-4.848A24.781,24.781,0,0,0,1168.908,237.128Z" fill="#363636"/>
        <path id="Trazado_5942" data-name="Trazado 5942" d="M1162.818,240.945a32.876,32.876,0,0,0-8.131,9.954l11.61-.365a26.519,26.519,0,0,1,2.813-7.62Z" fill="#363636"/>
      </g>
    </g>
    <g id="Grupo_2659" data-name="Grupo 2659">
      <path id="Trazado_5943" data-name="Trazado 5943" d="M1265.766,237.271s21.265,62.778,70.562,58.987c0,0,30.812-26.491-.023-90.759C1336.305,205.5,1295.28,197.414,1265.766,237.271Z" fill="#476e92"/>
      <g id="Grupo_2658" data-name="Grupo 2658">
        <rect id="Rectángulo_736" data-name="Rectángulo 736" width="11.713" height="43.393" transform="translate(1299.329 231.979) rotate(-25.631)" fill="#fff"/>
        <rect id="Rectángulo_737" data-name="Rectángulo 737" width="11.713" height="43.393" transform="matrix(0.433, 0.902, -0.902, 0.433, 1331.023, 234.341)" fill="#fff"/>
      </g>
      <path id="Trazado_5944" data-name="Trazado 5944" d="M1336.328,296.258s14.445-12.422,13.655-40.886c-50.114,7.028-74.578-18.2-79.473-24q-2.412,2.757-4.744,5.895s7.78,22.963,24.834,40.274c9.107,9.17,21.71,15.08,36.8,18.674A54.352,54.352,0,0,0,1336.328,296.258Z" fill="#363636"/>
      <path id="Trazado_5945" data-name="Trazado 5945" d="M1337.183,298.319l-.693.053a54.97,54.97,0,0,1-33.075-7.913c-8.132-4.876-15.718-11.94-22.547-21a124.365,124.365,0,0,1-17.11-31.512l-.356-1.05.66-.892c8.521-11.506,18.812-20.205,30.588-25.855a76.519,76.519,0,0,1,29.273-7.369,58.148,58.148,0,0,1,12.792.634l1.042.2.46.958c7.132,14.865,11.575,28.978,13.2,41.947a76.471,76.471,0,0,1-1.491,28.989c-3.97,15.121-11.885,22.06-12.22,22.348Zm-69.032-60.693A123.872,123.872,0,0,0,1284.319,267c14.569,19.277,31.756,28.425,51.1,27.2,1.688-1.7,7.443-8.177,10.494-20.075,3.3-12.856,4.025-34.819-11.04-66.7a60.517,60.517,0,0,0-10.9-.391,72.255,72.255,0,0,0-27.489,6.949A77.97,77.97,0,0,0,1268.151,237.626Z" fill="#fff"/>
    </g>
    <path id="Trazado_5946" data-name="Trazado 5946" d="M1286.534,290.482l.721-.979s-.015-.09-.039-.259a33.421,33.421,0,0,1,.521-11.625l-1.883-2.049c-2.436,4.068-7.622,15.418-.505,29.692l2.009-4.068,3.038-2.465Z" fill="#7da9cb"/>
    <g id="Grupo_2660" data-name="Grupo 2660">
      <path id="Trazado_5947" data-name="Trazado 5947" d="M1285.641,339.991l-.206,1.3,5.957,22.694.978-.377s1.2-19.262-2.746-23.622-3.434-.378-3.434-.378Z" fill="#f2d1cd"/>
      <path id="Trazado_5948" data-name="Trazado 5948" d="M1292.393,363.115s1.768,1,.412,6.918h-.7l-.172-3.459a13.687,13.687,0,0,0-1.373,3.459h-5.631s.5-1.219,3.022-1.648a12.144,12.144,0,0,1,3.241-5.178Z" fill="#dd503e"/>
      <path id="Trazado_5949" data-name="Trazado 5949" d="M1292.393,363.115c-.359-.5-.746-.658-1.2.092a12.144,12.144,0,0,0-3.241,5.178l1.047.172S1290.71,364.385,1292.393,363.115Z" fill="#f2d1cd"/>
      <path id="Trazado_5950" data-name="Trazado 5950" d="M1294.344,336.884l-.858,1.236,6.964,25.87.978-.377s.357-18.625-2.747-23.622c-2.826-4.549-3.427-3.88-3.427-3.88Z" fill="#f2d1cd"/>
      <path id="Trazado_5951" data-name="Trazado 5951" d="M1301.45,363.115s1.769,1,.412,6.918h-.7l-.172-3.459a13.689,13.689,0,0,0-1.373,3.459h-5.631s.5-1.219,3.021-1.648a12.155,12.155,0,0,1,3.241-5.178Z" fill="#dd503e"/>
      <path id="Trazado_5952" data-name="Trazado 5952" d="M1301.45,363.115c-.377-.618-.782-.513-1.2.092a12.155,12.155,0,0,0-3.241,5.178l1.047.172S1299.768,364.385,1301.45,363.115Z" fill="#f2d1cd"/>
      <path id="Trazado_5953" data-name="Trazado 5953" d="M1297.987,338.91c-1.449-2.177-2.168-2.708-2.494-2.811l-.4.149-.749.636-.858,1.236.852,3.165A7.983,7.983,0,0,1,1297.987,338.91Z" fill="#ecb6ae"/>
      <path id="Trazado_5954" data-name="Trazado 5954" d="M1289.624,339.991a13.277,13.277,0,0,0-1.363-1.334c-.711.117-1.518.255-2.088.372a3.63,3.63,0,0,0,.017.584l-.549.378-.206,1.3.358,1.365a14.366,14.366,0,0,1,4.438-1.814A4.99,4.99,0,0,0,1289.624,339.991Z" fill="#ecb6ae"/>
      <path id="Trazado_5955" data-name="Trazado 5955" d="M1285.791,287.163s-1.627-2.861.434-4.715,4.051.549,6.386,1.064,5.218.3,5.905,4.131-.549,3.766,1.476,7.92-1.167,6.111-.48,8.549,2.4,5.082-.172,6.867-6.661-.927-6.661-.927l-.171-6.523,1.064-4.91-1.354-3.7-.157-5.917-4.085-3.451A10.914,10.914,0,0,0,1285.791,287.163Z" fill="#243748"/>
      <path id="Trazado_5956" data-name="Trazado 5956" d="M1286.293,317.077l-1.716.769s-3.709,13.321.412,23.45l14.111-3.468s3.124-16.549-4.429-21.184-5.612-.24-5.612-.24l-2.731.858Z" fill="#3c6082"/>
      <path id="Trazado_5957" data-name="Trazado 5957" d="M1287.907,295.494v4.5L1282,305.8s.248,3.433,3.352,3.811a44.146,44.146,0,0,1-.776,8.24,11.119,11.119,0,0,0,10.094-1.2,35.619,35.619,0,0,1,.618-8.755,58.2,58.2,0,0,0,.824-10.678l-5.768-3.3-2.472.824Z" fill="#acd3ef"/>
      <path id="Trazado_5958" data-name="Trazado 5958" d="M1295.495,273.383l-.629-.744a11.717,11.717,0,0,1-1.32-4.946c-.008-2.575,1.434,1.751,1.434,1.751s.309-6.567,1.21-6.7.463,1.751.463,1.751.567-2.292,1.082-2.241.129,3.013.129,3.013.54-1.88.978-1.7-.566,3.27-.566,3.27.412-1.648,1.03-1.391-.747,4.584-2.266,6.7l-.538.567Z" fill="#f2d1cd"/>
      <path id="Trazado_5959" data-name="Trazado 5959" d="M1292.093,294.914l-2.063-.894-2.157.719.034.755v4.5l-4.107,4.035c.351.562,1.243,1.469,3.008.36,2.4-1.511,5.116-6.524,5.116-6.524Z" fill="#f2d1cd"/>
      <path id="Trazado_5960" data-name="Trazado 5960" d="M1291.982,294.866l-1.952-.846-2.157.719.034.755v3.235A9.418,9.418,0,0,0,1291.982,294.866Z" fill="#ecb6ae"/>
      <path id="Trazado_5961" data-name="Trazado 5961" d="M1288.7,285.263s-3.846,1.03-5.425,6.386l1.373.343s-1.923,3.708,2.129,4.395,6.8-2.884,6.8-2.884l-.412-6.661s-2.678-1.236-2.747-1.579S1288.7,285.263,1288.7,285.263Z" fill="#f2d1cd"/>
      <path id="Trazado_5962" data-name="Trazado 5962" d="M1287.976,284.954v.6s-1.507,3.146,2.025,5.239l.657,2.415c-.894,2.2-.737,3.887,1.266,4.655l4.451-4.3-1.842-7.2-3.227-1.58h-2.369Z" fill="#243748"/>
      <path id="Trazado_5963" data-name="Trazado 5963" d="M1290,290.793s.653-1.238,1.442-.414-.618,3.914-2.266,3.021-.515-1.785-.515-1.785l.84-.493Z" fill="#f2d1cd"/>
      <path id="Trazado_5964" data-name="Trazado 5964" d="M1294.533,272.714l2.507-.567s8.2,16.758-1.282,32.765l-5.362-3.255,1.528-3.794S1298.413,288.988,1294.533,272.714Z" fill="#acd3ef"/>
    </g>
    <g id="Grupo_2663" data-name="Grupo 2663">
      <g id="Grupo_2662" data-name="Grupo 2662">
        <path id="Trazado_5965" data-name="Trazado 5965" d="M1115.19,370.033a4.222,4.222,0,0,1,1.172-1.954h.995a6.347,6.347,0,0,1,4.832,1.954Z" fill="#2f4a64"/>
        <g id="Grupo_2661" data-name="Grupo 2661">
          <path id="Trazado_5966" data-name="Trazado 5966" d="M1137.323,365.237l.5.426.6,2.913h1.172l-.533-3.624h-1.208Z" fill="#f2d1cd"/>
          <path id="Trazado_5967" data-name="Trazado 5967" d="M1132.513,320.394l-.412.772s5.968,22.968,7.673,45.776h-2.4s-10.178-32.986-12.1-38.1,3.623-5.01,3.623-5.01l-.806-4.316Z" fill="#3c6082"/>
          <path id="Trazado_5968" data-name="Trazado 5968" d="M1128.226,337.72l1.439-12.182-3.249,6.608C1126.927,333.689,1127.545,335.6,1128.226,337.72Z" fill="#304b65"/>
          <path id="Trazado_5969" data-name="Trazado 5969" d="M1116.593,365.93l-.231,2.149h.995l.355-2.416Z" fill="#f2d1cd"/>
          <path id="Trazado_5970" data-name="Trazado 5970" d="M1122.135,320.867l-1.544,1.744s-4.1,17.686-4.584,44.331h1.812s9.516-35.624,13.216-43.058l-2.505-3.017Z" fill="#3c6082"/>
          <path id="Trazado_5971" data-name="Trazado 5971" d="M1125.812,296.466s-1.984-.364-2.324-.4-2.338.054-2.338.054-13.812,4.636-19.851,17.994c0,0,3.661,7.031,17.952,8.455l.09-1.217s-6.413-3.948-7.81-8.979a12.831,12.831,0,0,1,4.654-4.3,29.942,29.942,0,0,0,2.593-2.451l2.523-4.441-.684-2.984Z" fill="#48759f"/>
          <path id="Trazado_5972" data-name="Trazado 5972" d="M1114.515,305.872l1.67,2.2s4.617,8.456,3.845,14.584c0,0,7.807-.639,12.977-1.279,0,0,.053-13.589,1.652-20.357a28.97,28.97,0,0,0-6.827-3.408l-.9,3.408-4.21,2.292-3.837-.906-2.906,2.185Z" fill="#48759f"/>
          <path id="Trazado_5973" data-name="Trazado 5973" d="M1121.9,295.507l-.746.613s4.476,8.686,7.06,15.214c0,0-.812-10.737-2.4-14.868l-2.755-1.172h-.708Z" fill="#fff"/>
          <path id="Trazado_5974" data-name="Trazado 5974" d="M1122.562,296.546l-1.412-.426,4.063,3.73.74-3.64-2.645.176Z" fill="#dd503e"/>
          <path id="Trazado_5975" data-name="Trazado 5975" d="M1127.246,302.846l-2.366-4.3.3,5.841c1.061,2.284,2.153,4.74,3.027,6.949C1128.21,311.334,1127.886,307.045,1127.246,302.846Z" fill="#dd503e"/>
          <path id="Trazado_5976" data-name="Trazado 5976" d="M1125.77,296.12l3.746,1.865-1.873,1.439,2.781,1.785-2.214,10.125S1126.6,299.563,1125.77,296.12Z" fill="#3a5c7e"/>
          <path id="Trazado_5977" data-name="Trazado 5977" d="M1119.341,321.352l2.365-1.113,2.2,1.458s.895,2.43.636,2.651-.393-.11-.393-.11.243.486.067.64-.575-.442-.575-.442.2.619-.044.641-.342-.707-.342-.707-.232.663-.431.354a3.2,3.2,0,0,1-1.116-2.066,3.546,3.546,0,0,1-2.455-.089Z" fill="#f2d1cd"/>
          <path id="Trazado_5978" data-name="Trazado 5978" d="M1125.359,292.736l.453,3.73s.24.986-1.279,1.2-3.383-1.545-3.383-1.545l.312-5.409,2.832-.24v.453Z" fill="#f2d1cd"/>
          <path id="Trazado_5979" data-name="Trazado 5979" d="M1121.333,292.947a6.775,6.775,0,0,0,4.371,2.624l-.325-2.672c-.774-.395-1.378-.67-1.378-.67l-2.549-1.35Z" fill="#e4b7b3"/>
          <path id="Trazado_5980" data-name="Trazado 5980" d="M1127.145,282s2.558,1.065,3.25,6.608l-1.625.373s.24,3.783-1.679,4.529-4.689.427-6.5-3.57a5.558,5.558,0,0,1,1.545-6.768c.214-.053,3.837-1.172,3.837-1.172Z" fill="#f2d1cd"/>
          <path id="Trazado_5981" data-name="Trazado 5981" d="M1128.864,283.741a3.878,3.878,0,0,0,2.091-3.129c.027-2.105-.853-2.611-1.759-2.211s-1.413,1.279-3.983,1.119-6.914-.986-8.646,2.851a5.748,5.748,0,0,0,1.785,7.167c.959.64,1.146,3.624,2.8,3.677s2.158-2.158,1.678-4.05l.639-1.385-.106-.48a4.477,4.477,0,0,0,2.9-1.759c.826-1.438.8-2.317,1.68-2.957A13.9,13.9,0,0,1,1128.864,283.741Z" fill="#243748"/>
          <path id="Trazado_5982" data-name="Trazado 5982" d="M1123.361,287.3a1.068,1.068,0,0,0-.047-.131.935.935,0,0,0-1.338-.535c-1.093.453-.4,3.89,1.678,3.171s.267-1.892.267-1.892Z" fill="#f2d1cd"/>
          <path id="Trazado_5983" data-name="Trazado 5983" d="M1121.172,295.923l-4.419,1.956,3.277,2.54-2,3.464,10.178,7.451C1126.508,307.09,1123.975,301.693,1121.172,295.923Z" fill="#3a5c7e"/>
        </g>
        <path id="Trazado_5984" data-name="Trazado 5984" d="M1137.161,370.033a4.213,4.213,0,0,1,1.172-1.954h.995a6.345,6.345,0,0,1,4.831,1.954Z" fill="#2f4a64"/>
      </g>
      <path id="Trazado_5985" data-name="Trazado 5985" d="M1132.521,304.939l2.138-3.917,2.1,1.294.711,10.167-5.985-3.17.521-2.8Z" fill="#48759f"/>
    </g>
    <g id="Grupo_2684" data-name="Grupo 2684">
      <g id="Grupo_2674" data-name="Grupo 2674">
        <g id="Grupo_2665" data-name="Grupo 2665">
          <g id="Grupo_2664" data-name="Grupo 2664">
            <rect id="Rectángulo_738" data-name="Rectángulo 738" width="10.276" height="29.852" rx="1.134" transform="translate(1067.996 159.365) rotate(-50.39)" fill="#d9eff5"/>
          </g>
        </g>
        <g id="Grupo_2667" data-name="Grupo 2667">
          <g id="Grupo_2666" data-name="Grupo 2666">
            <rect id="Rectángulo_739" data-name="Rectángulo 739" width="10.276" height="29.852" rx="1.134" transform="translate(1067.996 159.365) rotate(-50.39)" fill="#aad5e6"/>
          </g>
        </g>
        <g id="Grupo_2669" data-name="Grupo 2669">
          <g id="Grupo_2668" data-name="Grupo 2668">
            <rect id="Rectángulo_740" data-name="Rectángulo 740" width="8.726" height="8.439" rx="0.675" transform="matrix(0.638, -0.77, 0.77, 0.638, 1076.894, 165.722)" fill="#f0f1f1"/>
          </g>
        </g>
        <g id="Grupo_2671" data-name="Grupo 2671">
          <g id="Grupo_2670" data-name="Grupo 2670">
            <path id="Trazado_5986" data-name="Trazado 5986" d="M1082.027,159.519a.673.673,0,0,1,.949-.089l5.463,4.52a.235.235,0,0,1,.075.426l-4.7,5.683a.674.674,0,0,1-.949.09l-5.463-4.52a.678.678,0,0,1-.181-.241.648.648,0,0,1,.106-.185Z" fill="#e1f1f6"/>
          </g>
        </g>
        <g id="Grupo_2673" data-name="Grupo 2673">
          <g id="Grupo_2672" data-name="Grupo 2672">
            <path id="Trazado_5987" data-name="Trazado 5987" d="M1077.324,165.2a.648.648,0,0,0-.106.185.678.678,0,0,0,.181.241l5.463,4.52a.674.674,0,0,0,.949-.09l4.7-5.683a.639.639,0,0,0,.106-.185.661.661,0,0,0-.181-.241l-1.056-.874c-5.581,8.218-9.584,1.552-9.584,1.552Z" fill="#f0f1f1"/>
          </g>
        </g>
      </g>
      <g id="Grupo_2675" data-name="Grupo 2675">
        <path id="Trazado_5988" data-name="Trazado 5988" d="M1084.955,173.4l5.919-8.44-2.677-2.216h0l-5.933,6.91-.467,1.131Z" fill="#f0f1f1"/>
      </g>
      <g id="Grupo_2676" data-name="Grupo 2676">
        <path id="Trazado_5989" data-name="Trazado 5989" d="M1081.713,157.378,1074.8,165l2.417,2,.8-.445,6.356-6.968Z" fill="#f0f1f1"/>
      </g>
      <g id="Grupo_2683" data-name="Grupo 2683">
        <g id="Grupo_2678" data-name="Grupo 2678">
          <g id="Grupo_2677" data-name="Grupo 2677">
            <rect id="Rectángulo_741" data-name="Rectángulo 741" width="29.852" height="10.276" rx="1.134" transform="matrix(0.625, -0.781, 0.781, 0.625, 1069.649, 173.471)" fill="#bce2f0"/>
          </g>
        </g>
        <g id="Grupo_2680" data-name="Grupo 2680">
          <g id="Grupo_2679" data-name="Grupo 2679">
            <path id="Trazado_5990" data-name="Trazado 5990" d="M1077.6,165.863a.674.674,0,0,1-.1-.948l4.432-5.534a.236.236,0,0,1,.425-.083l5.758,4.612a.674.674,0,0,1,.1.948l-4.432,5.534a.662.662,0,0,1-.238.185.672.672,0,0,1-.187-.1Z" fill="#fff"/>
          </g>
        </g>
        <g id="Grupo_2682" data-name="Grupo 2682">
          <g id="Grupo_2681" data-name="Grupo 2681">
            <path id="Trazado_5991" data-name="Trazado 5991" d="M1083.357,170.475a.236.236,0,0,0,.425-.083l4.432-5.534a.674.674,0,0,0-.1-.948l-5.758-4.612a.236.236,0,0,0-.425.083l-.857,1.07c8.307,5.448,1.706,9.557,1.706,9.557Z" fill="#f6f6f6"/>
          </g>
        </g>
      </g>
    </g>
    <g id="Grupo_2691" data-name="Grupo 2691">
      <g id="Grupo_2686" data-name="Grupo 2686">
        <g id="Grupo_2685" data-name="Grupo 2685">
          <path id="Trazado_5992" data-name="Trazado 5992" d="M1322.294,151.854a2.745,2.745,0,1,0-2.229-3.179A2.745,2.745,0,0,0,1322.294,151.854Z" fill="#babcbe"/>
        </g>
      </g>
      <g id="Grupo_2688" data-name="Grupo 2688">
        <g id="Grupo_2687" data-name="Grupo 2687">
          <path id="Trazado_5993" data-name="Trazado 5993" d="M1324.675,149.784a2.746,2.746,0,1,0-3.474,1.736A2.746,2.746,0,0,0,1324.675,149.784Z" fill="#fff"/>
        </g>
      </g>
      <g id="Grupo_2690" data-name="Grupo 2690">
        <g id="Grupo_2689" data-name="Grupo 2689">
          <path id="Trazado_5994" data-name="Trazado 5994" d="M1320.926,151.411a2.858,2.858,0,0,0,.275.109,2.757,2.757,0,0,0,.286.078l.864-2.589.863-2.589a2.527,2.527,0,0,0-.275-.109,2.689,2.689,0,0,0-.286-.078l-.863,2.589Z" fill="#d5d6d7"/>
        </g>
      </g>
    </g>
    <g id="Grupo_2698" data-name="Grupo 2698">
      <g id="Grupo_2693" data-name="Grupo 2693">
        <g id="Grupo_2692" data-name="Grupo 2692">
          <path id="Trazado_5995" data-name="Trazado 5995" d="M1034.187,311.625a2.483,2.483,0,1,0-3.452.652A2.483,2.483,0,0,0,1034.187,311.625Z" fill="#babcbe"/>
        </g>
      </g>
      <g id="Grupo_2695" data-name="Grupo 2695">
        <g id="Grupo_2694" data-name="Grupo 2694">
          <path id="Trazado_5996" data-name="Trazado 5996" d="M1033.368,308.891a2.483,2.483,0,1,0,.136,3.51A2.484,2.484,0,0,0,1033.368,308.891Z" fill="#fff"/>
        </g>
      </g>
      <g id="Grupo_2697" data-name="Grupo 2697">
        <g id="Grupo_2696" data-name="Grupo 2696">
          <path id="Trazado_5997" data-name="Trazado 5997" d="M1033.312,312.587a2.584,2.584,0,0,0,.192-.186,2.383,2.383,0,0,0,.171-.206l-1.812-1.677-1.812-1.677a2.4,2.4,0,0,0-.192.186,2.524,2.524,0,0,0-.171.207l1.812,1.676Z" fill="#d5d6d7"/>
        </g>
      </g>
    </g>
    <g id="Grupo_2705" data-name="Grupo 2705">
      <g id="Grupo_2700" data-name="Grupo 2700">
        <g id="Grupo_2699" data-name="Grupo 2699">
          <path id="Trazado_5998" data-name="Trazado 5998" d="M1339.91,151.014a4.528,4.528,0,1,0-5.225,3.7A4.528,4.528,0,0,0,1339.91,151.014Z" fill="#babcbe"/>
        </g>
      </g>
      <g id="Grupo_2702" data-name="Grupo 2702">
        <g id="Grupo_2701" data-name="Grupo 2701">
          <path id="Trazado_5999" data-name="Trazado 5999" d="M1336.477,147.1a4.528,4.528,0,1,0,2.891,5.714A4.529,4.529,0,0,0,1336.477,147.1Z" fill="#fff"/>
        </g>
      </g>
      <g id="Grupo_2704" data-name="Grupo 2704">
        <g id="Grupo_2703" data-name="Grupo 2703">
          <path id="Trazado_6000" data-name="Trazado 6000" d="M1339.191,153.273a4.54,4.54,0,0,0,.177-.455,4.267,4.267,0,0,0,.126-.472l-4.276-1.4-4.277-1.4a4.37,4.37,0,0,0-.3.926l4.277,1.4Z" fill="#e5e5e6"/>
        </g>
      </g>
    </g>
    <g id="Grupo_2712" data-name="Grupo 2712">
      <g id="Grupo_2707" data-name="Grupo 2707">
        <g id="Grupo_2706" data-name="Grupo 2706">
          <path id="Trazado_6001" data-name="Trazado 6001" d="M1039.012,332.153a4.921,4.921,0,1,0-6.5,2.478A4.92,4.92,0,0,0,1039.012,332.153Z" fill="#babcbe"/>
        </g>
      </g>
      <g id="Grupo_2709" data-name="Grupo 2709">
        <g id="Grupo_2708" data-name="Grupo 2708">
          <path id="Trazado_6002" data-name="Trazado 6002" d="M1031.365,326.981a4.921,4.921,0,1,0,6.715,1.829A4.921,4.921,0,0,0,1031.365,326.981Z" fill="#fff"/>
        </g>
      </g>
      <g id="Grupo_2711" data-name="Grupo 2711">
        <g id="Grupo_2710" data-name="Grupo 2710">
          <path id="Trazado_6003" data-name="Trazado 6003" d="M1038.317,329.284a4.778,4.778,0,0,0-.526-.92l-4.246,2.429-4.246,2.428a4.732,4.732,0,0,0,.526.919l4.246-2.428Z" fill="#d5d6d7"/>
        </g>
      </g>
    </g>
    <g id="Grupo_2713" data-name="Grupo 2713">
      <path id="Trazado_6004" data-name="Trazado 6004" d="M1030.1,276.627l-9.9,1.5a2.825,2.825,0,0,0-2.37,3.217h0a2.826,2.826,0,0,0,3.217,2.371l9.9-1.5a2.827,2.827,0,0,0,2.371-3.217h0A2.827,2.827,0,0,0,1030.1,276.627Z" fill="#fff"/>
      <path id="Trazado_6005" data-name="Trazado 6005" d="M1033.319,279h0a2.827,2.827,0,0,0-3.217-2.371l-5.057.766.954,5.571,4.949-.749A2.827,2.827,0,0,0,1033.319,279Z" fill="#dd503e"/>
    </g>
    <g id="Grupo_2714" data-name="Grupo 2714">
      <path id="Trazado_6006" data-name="Trazado 6006" d="M1028.1,265.438l7.008,7.149a2.827,2.827,0,0,0,4,.04h0a2.827,2.827,0,0,0,.04-4l-7.009-7.149a2.827,2.827,0,0,0-4-.04h0A2.826,2.826,0,0,0,1028.1,265.438Z" fill="#fff"/>
      <path id="Trazado_6007" data-name="Trazado 6007" d="M1028.144,261.442h0a2.826,2.826,0,0,0-.039,4l3.58,3.652,3.959-4.034-3.5-3.574A2.827,2.827,0,0,0,1028.144,261.442Z" fill="#5584b1"/>
    </g>
    <g id="Grupo_2715" data-name="Grupo 2715">
      <path id="Trazado_6008" data-name="Trazado 6008" d="M1049.267,295.569l-7.531,6.6a2.825,2.825,0,0,0-.264,3.987h0a2.827,2.827,0,0,0,3.988.264l7.531-6.6a2.827,2.827,0,0,0,.264-3.988h0A2.826,2.826,0,0,0,1049.267,295.569Z" fill="#fff"/>
      <path id="Trazado_6009" data-name="Trazado 6009" d="M1053.255,295.832h0a2.826,2.826,0,0,0-3.988-.263l-3.847,3.369,3.8,4.18,3.766-3.3A2.827,2.827,0,0,0,1053.255,295.832Z" fill="#5584b1"/>
    </g>
    <g id="Grupo_2716" data-name="Grupo 2716">
      <path id="Trazado_6010" data-name="Trazado 6010" d="M1305.166,153.643l-4.752-8.709a2.8,2.8,0,0,0-3.8-1.117h0a2.8,2.8,0,0,0-1.117,3.8l4.752,8.709a2.8,2.8,0,0,0,3.8,1.117h0A2.8,2.8,0,0,0,1305.166,153.643Z" fill="#fff"/>
      <path id="Trazado_6011" data-name="Trazado 6011" d="M1304.049,157.443h0a2.8,2.8,0,0,0,1.117-3.8l-2.427-4.449-4.865,2.777,2.376,4.355A2.8,2.8,0,0,0,1304.049,157.443Z" fill="#dd503e"/>
    </g>
    <g id="Grupo_2717" data-name="Grupo 2717">
      <path id="Trazado_6012" data-name="Trazado 6012" d="M1351.529,198.75l2.4-9.625a2.8,2.8,0,0,0-2.038-3.4h0a2.8,2.8,0,0,0-3.4,2.038l-2.4,9.626a2.8,2.8,0,0,0,2.038,3.4h0A2.8,2.8,0,0,0,1351.529,198.75Z" fill="#fff"/>
      <path id="Trazado_6013" data-name="Trazado 6013" d="M1348.134,200.789h0a2.8,2.8,0,0,0,3.4-2.039l1.228-4.917-5.46-1.252-1.2,4.813A2.8,2.8,0,0,0,1348.134,200.789Z" fill="#5584b1"/>
    </g>
    <g id="Grupo_2720" data-name="Grupo 2720">
      <g id="Grupo_2719" data-name="Grupo 2719">
        <g id="Grupo_2718" data-name="Grupo 2718">
          <path id="Trazado_6014" data-name="Trazado 6014" d="M1218.339,334.353l.853,6.075s-1.954,2.1-1.741,6.43,4.441,18.261,4.441,18.261h1.243s-.035-24.016.853-31.867-3.766.177-3.766.177Z" fill="#f2d1cd"/>
          <path id="Trazado_6015" data-name="Trazado 6015" d="M1226.121,334.353l.853,6.075s-1.954,2.1-1.741,6.43,4.441,18.261,4.441,18.261h1.243s-.035-24.016.853-31.867-3.766.177-3.766.177Z" fill="#f2d1cd"/>
          <path id="Trazado_6016" data-name="Trazado 6016" d="M1229.661,365.123a2.332,2.332,0,0,0-.608,1.783,18.378,18.378,0,0,0,.679,3.127h.3a18.08,18.08,0,0,1,.136-2.519,19.788,19.788,0,0,1,1.016,2.519h3.215a2.439,2.439,0,0,0-1.776-1.3,6.558,6.558,0,0,0-1.727-3.607Z" fill="#ab4031"/>
          <path id="Trazado_6017" data-name="Trazado 6017" d="M1232.619,368.73a6.558,6.558,0,0,0-1.727-3.607c-.524-.374-.941-.392-1.232,0C1229.66,365.123,1231.228,368.714,1232.619,368.73Z" fill="#f2d1cd"/>
          <path id="Trazado_6018" data-name="Trazado 6018" d="M1221.893,365.123a2.332,2.332,0,0,0-.608,1.783,18.339,18.339,0,0,0,.68,3.127h.3a18.169,18.169,0,0,1,.135-2.519,19.8,19.8,0,0,1,1.016,2.519h3.215a2.438,2.438,0,0,0-1.775-1.3,6.563,6.563,0,0,0-1.728-3.607Z" fill="#ab4031"/>
          <path id="Trazado_6019" data-name="Trazado 6019" d="M1224.852,368.73a6.563,6.563,0,0,0-1.728-3.607.8.8,0,0,0-1.231,0S1223.46,368.714,1224.852,368.73Z" fill="#f2d1cd"/>
          <path id="Trazado_6020" data-name="Trazado 6020" d="M1224.805,312.717,1223.5,314.4s-10.339,1.012-6.595,22.328h15.858s1.332-14.672-2.016-21.849l-4.943-2.416Z" fill="#3c6082"/>
          <path id="Trazado_6021" data-name="Trazado 6021" d="M1227.916,298.844l.619-.293,3.145,1.119,3.383,4.609s.428,2.612-2.837,3.731l-1.479,6.874-7.247-.479-2.612-8.82L1218.943,301l3.97-2.132Z" fill="#acd3ef"/>
          <path id="Trazado_6022" data-name="Trazado 6022" d="M1230.96,300.416l.72-.746s6.634,4.8,8.526,6.075c0,0-2.635,6.624-9.378,8.761l-1.6-.9,2.164-1.719a33.378,33.378,0,0,0,3.69-4.8l-2.15-1.45s-2.078-2.265-2.1-2.371S1230.96,300.416,1230.96,300.416Z" fill="#acd3ef"/>
          <path id="Trazado_6023" data-name="Trazado 6023" d="M1221.767,313.839l2.365-1.113,2.2,1.458s.9,2.43.635,2.651-.392-.11-.392-.11.243.486.067.64-.575-.442-.575-.442.2.619-.044.641-.343-.707-.343-.707-.232.663-.43.354a3.2,3.2,0,0,1-1.116-2.066,3.548,3.548,0,0,1-2.456-.089Z" fill="#f2d1cd"/>
          <path id="Trazado_6024" data-name="Trazado 6024" d="M1228.042,298.537l.493.013,1.492,7.434-3.776-6.666-.448-.914Z" fill="#fff"/>
          <path id="Trazado_6025" data-name="Trazado 6025" d="M1228.082,293.9l.453,4.65s.214,1.785-2.9.546-2.993-2.585-2.993-2.585l3.3-3.264Z" fill="#f2d1cd"/>
          <path id="Trazado_6026" data-name="Trazado 6026" d="M1225.093,294.084l.495,1.149a5.287,5.287,0,0,0,2.773,1.525l-.279-2.857-2.074-.631-.1.007Z" fill="#e4b7b3"/>
          <path id="Trazado_6027" data-name="Trazado 6027" d="M1229.6,283.834s2.1,1.741,2.523,6.75l-1.262.177s.729,2.914-1.723,3.873-5.933-1.67-5.933-1.67l-.568-5.542,4.743-3.055Z" fill="#f2d1cd"/>
          <path id="Trazado_6028" data-name="Trazado 6028" d="M1214.547,302.814l-4.77,4.21s2.376,6.529,11.9,8.121l.176-1.512a16.647,16.647,0,0,1-4.574-5.445l6.5-3.117Z" fill="#acd3ef"/>
          <path id="Trazado_6029" data-name="Trazado 6029" d="M1231.147,286.267a3.767,3.767,0,0,0,.977-3.606c-.5-2.344-1.564-3.233-4.637-2.238s-4.885-.284-7.94,2.7-1.279,5.9-1.634,8.491-3.606,3.28-5.12,8.056c-1.137,3.584.94,3.769.213,5.779a3.058,3.058,0,0,0,2.385,4.239,4.7,4.7,0,0,0,4.543-2.773c.994-1.812,1.461-3.719,4.267-5.247s2.754-4.78,1.519-7.31a4.7,4.7,0,0,1,0-4.449l.613-1.084a5.863,5.863,0,0,0,4.412-3.415Z" fill="#243748"/>
          <path id="Trazado_6030" data-name="Trazado 6030" d="M1226.333,288.825s-.64-1.437-1.528-.567-.213,3.285,1.315,3.072.675-1.35.675-1.35Z" fill="#f2d1cd"/>
          <path id="Trazado_6031" data-name="Trazado 6031" d="M1231.912,314.386c.253.931.722,1.69-.663,2.174s-.36-.776-.36-.776-1.113.986-1.307.6,1.255-1.389,1.255-1.389-1.628.672-1.609.207,1.769-1.158,1.769-1.158-1.534.394-1.443.046S1231.229,311.881,1231.912,314.386Z" fill="#f2d1cd"/>
        </g>
        <path id="Trazado_6032" data-name="Trazado 6032" d="M1232.975,332.943c-2.651,1.852-6.033,3.1-9.622,1.6-8.067-3.388-2.585-18.949-2.585-18.949-2.763,1.985-6.3,7.253-3.863,21.143h15.858S1232.9,335.224,1232.975,332.943Z" fill="#304b65"/>
      </g>
      <path id="Trazado_6033" data-name="Trazado 6033" d="M1218.673,336.733l.16,1.139a5.291,5.291,0,0,1,4.76.951c.035-.743.073-1.419.114-2.09Z" fill="#e4b7b3"/>
      <path id="Trazado_6034" data-name="Trazado 6034" d="M1231.487,336.733h-5.032l.106.752a4.8,4.8,0,0,1,4.791,1.84c.041-.913.086-1.782.135-2.591Z" fill="#e4b7b3"/>
    </g>
  </g>
</svg>
